<?xml version="1.0" standalone="no"?>
<!DOCTYPE svg PUBLIC "-//W3C//DTD SVG 1.1//EN" "http://www.w3.org/Graphics/SVG/1.1/DTD/svg11.dtd" >
<svg xmlns="http://www.w3.org/2000/svg">
<metadata>
This is a custom SVG webfont generated by Font Squirrel.
</metadata>
<defs>
<font id="webfontT7pQGwYW" horiz-adv-x="1114" >
<font-face units-per-em="2325" ascent="1860" descent="-465" />
<missing-glyph horiz-adv-x="484" />
<glyph unicode=" "  horiz-adv-x="484" />
<glyph unicode="&#x09;" horiz-adv-x="484" />
<glyph unicode="&#xa0;" horiz-adv-x="484" />
<glyph unicode="!" horiz-adv-x="436" d="M291 436q0 -73 -73 -73t-73 73v944q0 73 73 73t73 -73v-944zM328 110q0 -45 -32.5 -77.5t-77.5 -32.5t-77.5 32.5t-32.5 77.5q0 46 32.5 77t77.5 31t77.5 -31t32.5 -77z" />
<glyph unicode="&#x22;" horiz-adv-x="752" d="M704 1383q0 -14 -6 -30l-145 -363q-19 -46 -65 -46q-30 0 -53 20.5t-23 50.5q0 14 6 29l145 363q19 47 65 47q30 0 53 -20.5t23 -50.5zM341 1383q0 -14 -6 -30l-146 -363q-18 -46 -65 -46q-30 0 -53 20.5t-23 50.5q0 14 6 29l146 363q18 47 65 47q30 0 53 -20.5t23 -50.5 z" />
<glyph unicode="#" horiz-adv-x="1550" d="M1502 509q0 -73 -73 -73h-363v-363q0 -73 -73 -73t-73 73v363h-273v-363q0 -73 -73 -73q-72 0 -72 73v363h-381q-73 0 -73 73q0 72 73 72h381v291h-381q-73 0 -73 73q0 72 73 72h381v363q0 73 72 73q73 0 73 -73v-363h273v363q0 73 73 73t73 -73v-363h363q73 0 73 -72 q0 -73 -73 -73h-363v-291h363q73 0 73 -72zM920 581v291h-273v-291h273z" />
<glyph unicode="$" horiz-adv-x="922" d="M873 436q0 -159 -103.5 -281.5t-259.5 -148.5v-224q0 -73 -73 -73q-72 0 -72 73v224q-93 16 -177 72q-88 60 -129 140q-11 22 -11 38q0 30 23.5 51t53.5 21q32 0 60 -37q87 -113 180 -137v580q-127 25 -209 126t-82 230t82 229.5t209 126.5v225q0 73 72 73q73 0 73 -73 v-225q170 -35 241 -173q11 -22 11 -39q0 -29 -23 -50t-53 -21q-24 0 -79 56q-61 63 -97 76v-429q157 -27 260 -149t103 -281zM365 884v411q-65 -23 -105.5 -80t-40.5 -125q0 -69 40.5 -126t105.5 -80zM728 436q0 99 -61 178t-157 103v-563q96 25 157 104t61 178z" />
<glyph unicode="%" horiz-adv-x="1553" d="M776 1090q0 -150 -106.5 -256.5t-256.5 -106.5t-256.5 106.5t-106.5 256.5t106.5 256.5t256.5 106.5t256.5 -106.5t106.5 -256.5zM1503 363q0 -150 -107 -256.5t-256 -106.5q-150 0 -257 106.5t-107 256.5t107 257t257 107q149 0 256 -107t107 -257zM1504 1380 q0 -28 -22 -51l-1308 -1308q-23 -22 -51 -22q-29 0 -52 22.5t-23 51.5q0 28 23 51l1308 1308q22 22 51 22t51.5 -22.5t22.5 -51.5zM631 1090q0 90 -64 154t-154 64t-154 -64t-64 -154t64 -154t154 -64t154 64t64 154zM1358 363q0 90 -64.5 154t-153.5 64q-90 0 -154 -64 t-64 -154t64 -154t154 -64q89 0 153.5 64t64.5 154z" />
<glyph unicode="&#x26;" horiz-adv-x="1212" d="M1164 73q0 -29 -22.5 -51.5t-52.5 -22.5q-28 0 -51 22l-184 184q-128 -205 -370 -205q-180 0 -308 128t-128 308q0 242 206 370q-133 132 -133 284q0 150 107 256.5t256 106.5q150 0 257 -106.5t107 -256.5q0 -135 -89.5 -238t-222.5 -122l605 -606q23 -23 23 -51z M702 1090q0 90 -64 154t-154 64t-154 -64t-64 -154q0 -70 42 -127q17 -24 94 -99q41 8 82 8q90 0 154 64t64 154zM748 312l-387 387q-167 -78 -167 -263q0 -120 85.5 -205.5t204.5 -85.5q185 0 264 167z" />
<glyph unicode="'" horiz-adv-x="389" d="M341 1383q0 -14 -6 -30l-146 -363q-18 -46 -65 -46q-30 0 -53 20.5t-23 50.5q0 14 6 29l146 363q18 47 65 47q30 0 53 -20.5t23 -50.5z" />
<glyph unicode="(" horiz-adv-x="476" d="M428 1381q0 -16 -11 -38q-119 -241 -165 -402q-58 -201 -58 -432q0 -232 58 -432q46 -161 165 -403q11 -22 11 -38q0 -29 -23.5 -50.5t-53.5 -21.5q-53 0 -130 170q-173 381 -173 775q0 393 174 774q77 170 130 170q29 0 52.5 -21t23.5 -51z" />
<glyph unicode=")" horiz-adv-x="476" d="M428 509q0 -394 -173 -775q-77 -170 -130 -170q-30 0 -53 21.5t-23 50.5q0 16 10 38q119 242 165 403q58 200 58 432q0 231 -58 432q-46 161 -165 402q-11 22 -11 38q0 30 23.5 51t53.5 21q53 0 130 -170q173 -381 173 -774z" />
<glyph unicode="*" d="M1066 945q0 -73 -66 -73q-7 0 -311 18l228 -202q22 -20 22 -51q0 -29 -22.5 -52t-51.5 -23q-31 0 -51 23l-202 228q18 -305 18 -311q0 -66 -73 -66t-73 66q0 6 19 311l-203 -228q-20 -23 -51 -23q-29 0 -51.5 23t-22.5 52q0 31 22 51l228 202q-304 -18 -310 -18 q-67 0 -67 73q0 72 66 72q5 0 311 -18l-228 202q-22 20 -22 51q0 30 22.5 52.5t51.5 22.5q31 0 51 -23l203 -228q-19 305 -19 311q0 66 73 66t73 -66q0 -5 -18 -311l202 228q20 23 51 23q29 0 51.5 -22.5t22.5 -52.5q0 -31 -22 -51l-228 -202q305 18 311 18q66 0 66 -72z " />
<glyph unicode="+" d="M1066 618q0 -73 -73 -73h-363v-363q0 -73 -73 -73t-73 73v363h-363q-73 0 -73 73q0 72 73 72h363v364q0 72 73 72t73 -72v-364h363q73 0 73 -72z" />
<glyph unicode="," horiz-adv-x="372" d="M324 73q0 -98 -40 -196q-41 -103 -110 -165q-26 -22 -51 -22q-29 0 -52 22.5t-23 51.5q0 12 65 106.5t65 202.5q0 72 73 72t73 -72z" />
<glyph unicode="-" horiz-adv-x="678" d="M630 509q0 -73 -73 -73h-436q-73 0 -73 73q0 72 73 72h436q73 0 73 -72z" />
<glyph unicode="." horiz-adv-x="318" d="M269 110q0 -45 -32.5 -77.5t-77.5 -32.5t-78 32.5t-33 77.5q0 46 32.5 77t78.5 31q45 0 77.5 -31t32.5 -77z" />
<glyph unicode="/" horiz-adv-x="1116" d="M1068 1383q0 -18 -9 -35l-872 -1745q-20 -41 -62 -41q-30 0 -53.5 21t-23.5 51q0 17 9 34l872 1745q20 41 63 41q29 0 52.5 -21t23.5 -50z" />
<glyph unicode="0" d="M1066 618q0 -236 -134 -418q-148 -200 -375 -200t-375 200q-134 182 -134 418q0 235 134 417q148 200 375 200t375 -200q134 -182 134 -417zM920 618q0 173 -92 313q-106 159 -271 159t-271 -159q-92 -140 -92 -313q0 -174 92 -314q106 -159 271 -159t271 159 q92 140 92 314zM630 617q0 -30 -21.5 -51.5t-51.5 -21.5t-51.5 21.5t-21.5 51.5q0 71 73 71t73 -71z" />
<glyph unicode="1" d="M945 73q0 -73 -72 -73h-533q-73 0 -73 73q0 72 73 72h193v842l-239 -239q-22 -23 -51 -23t-51.5 22.5t-22.5 52.5q0 28 22 51l354 353q32 32 60 32q74 0 74 -87v-1004h194q72 0 72 -72z" />
<glyph unicode="2" d="M998 73q0 -73 -72 -73h-727q-83 0 -83 64q0 31 39 67q33 29 89 59l95 51q514 300 514 558q0 120 -85.5 205.5t-205.5 85.5q-119 0 -204.5 -85.5t-85.5 -205.5q0 -72 -73 -72t-73 72q0 181 128 308.5t308 127.5q181 0 308.5 -128t127.5 -308q0 -150 -100 -279 q-75 -95 -231 -203l-252 -172h511q72 0 72 -72z" />
<glyph unicode="3" d="M1008 1173q0 -34 -33 -64l-418 -383q186 -12 313.5 -148.5t127.5 -323.5q0 -195 -138.5 -333.5t-333.5 -138.5q-123 0 -236 64q-118 66 -173 172q-11 21 -11 38q0 29 23.5 50.5t52.5 21.5q32 0 61 -37q67 -86 120 -120q67 -44 163 -44q135 0 231 96t96 231t-96 231 t-231 96q-88 0 -180.5 -59.5t-104.5 -59.5q-29 0 -51 22t-22 51q0 32 27 56l544 499h-559q-73 0 -73 73q0 72 73 72h746q82 0 82 -62z" />
<glyph unicode="4" d="M1068 291q0 -73 -72 -73h-218v-363q0 -73 -73 -73t-73 73v363h-508q-78 0 -78 61q0 25 17 52l582 872q29 43 68 43q65 0 65 -83v-800h218q72 0 72 -72zM632 363v560l-372 -560h372z" />
<glyph unicode="5" d="M1037 291q0 -211 -149 -360t-360 -149q-132 0 -254 69q-127 71 -186 185q-11 22 -11 38q0 30 23.5 51t52.5 21q33 0 61 -37q13 -21 44 -61q105 -121 270 -121q150 0 257 107t107 257q0 149 -107 256t-257 107q-179 0 -314 -182q-35 -46 -70 -46q-66 0 -66 75q0 9 1 19 l102 654q3 23 25.5 42t45.5 19h712q73 0 73 -72q0 -73 -73 -73h-649l-58 -369q124 78 271 78q211 0 360 -149t149 -359z" />
<glyph unicode="6" d="M1066 1380q0 -72 -73 -72q-195 0 -368.5 -90.5t-285.5 -249.5q103 49 218 49q210 0 359.5 -149t149.5 -359q0 -211 -149.5 -360t-359.5 -149t-359.5 149t-149.5 360q0 390 277 667t668 277q73 0 73 -73zM920 509q0 149 -106.5 256t-256.5 107t-256.5 -107t-106.5 -256 q0 -150 106.5 -257t256.5 -107t256.5 107t106.5 257z" />
<glyph unicode="7" d="M1068 1173q0 -22 -13 -45l-702 -1308q-21 -39 -62 -39q-30 0 -53 21t-23 51q0 18 10 36l645 1201h-751q-72 0 -72 73q0 72 72 72h872q77 0 77 -62z" />
<glyph unicode="8" d="M993 436q0 -180 -128 -308t-308 -128t-308 128t-128 308q0 243 208 371q-135 110 -135 283q0 150 106.5 256.5t256.5 106.5t256.5 -106.5t106.5 -256.5q0 -173 -135 -283q208 -128 208 -371zM775 1090q0 90 -64 154t-154 64t-154 -64t-64 -154t64 -154t154 -64t154 64 t64 154zM848 436q0 120 -85.5 205.5t-205.5 85.5t-205.5 -85.5t-85.5 -205.5t85.5 -205.5t205.5 -85.5t205.5 85.5t85.5 205.5z" />
<glyph unicode="9" d="M1066 727q0 -391 -277 -668t-668 -277q-73 0 -73 73q0 72 73 72q195 0 368.5 90.5t285.5 249.5q-103 -49 -218 -49q-210 0 -359.5 149t-149.5 360q0 210 149.5 359t359.5 149t359.5 -149t149.5 -359zM920 727q0 149 -106.5 256t-256.5 107t-256.5 -107t-106.5 -256 q0 -150 106.5 -257t256.5 -107t256.5 107t106.5 257z" />
<glyph unicode=":" horiz-adv-x="318" d="M269 910q0 -45 -32.5 -78t-77.5 -33t-78 33t-33 78t32.5 76t78.5 31q45 0 77.5 -31t32.5 -76zM269 110q0 -45 -32.5 -77.5t-77.5 -32.5t-78 32.5t-33 77.5q0 46 32.5 77t78.5 31q45 0 77.5 -31t32.5 -77z" />
<glyph unicode=";" horiz-adv-x="410" d="M361 910q0 -45 -32.5 -78t-77.5 -33t-78 33t-33 78t32.5 76t78.5 31q45 0 77.5 -31t32.5 -76zM324 73q0 -98 -40 -196q-41 -103 -110 -165q-26 -22 -51 -22q-29 0 -52 22.5t-23 51.5q0 12 65 106.5t65 202.5q0 72 73 72t73 -72z" />
<glyph unicode="&#x3c;" d="M1066 184q0 -30 -20.5 -53t-50.5 -23q-17 0 -35 9l-859 429q-53 27 -53 72q0 44 53 71l859 430q18 8 35 8q30 0 50.5 -23t20.5 -53q0 -42 -41 -62l-741 -371l741 -371q41 -21 41 -63z" />
<glyph unicode="=" d="M1066 763q0 -73 -73 -73h-872q-73 0 -73 73t73 73h872q73 0 73 -73zM1066 472q0 -72 -73 -72h-872q-73 0 -73 72q0 73 73 73h872q73 0 73 -73z" />
<glyph unicode="&#x3e;" d="M1066 618q0 -45 -53 -72l-859 -429q-18 -9 -35 -9q-30 0 -50.5 23t-20.5 53q0 42 41 63l742 371l-742 371q-41 20 -41 62q0 30 20.5 53t50.5 23q17 0 35 -8l859 -430q53 -27 53 -71z" />
<glyph unicode="?" horiz-adv-x="823" d="M775 1090q0 -150 -106.5 -256.5t-256.5 -106.5q-45 0 -77 -32.5t-32 -76.5q0 -45 32 -77t77 -32q19 0 48 12.5t44 12.5q30 0 51 -23t21 -53q0 -47 -61 -74q-49 -21 -103 -21q-105 0 -180 75t-75 180q0 104 75 179t180 75q90 0 154 64t64 154t-64 154t-154 64t-154 -64 t-64 -154q0 -73 -73 -73t-73 73q0 150 107 256.5t257 106.5t256.5 -106.5t106.5 -256.5zM522 110q0 -45 -32.5 -77.5t-77.5 -32.5t-78 32.5t-33 77.5q0 46 32.5 77t78.5 31q45 0 77.5 -31t32.5 -77z" />
<glyph unicode="@" horiz-adv-x="1380" d="M1332 896q0 -230 -163 -393.5t-394 -163.5q-160 0 -274 114t-114 274t114 273.5t274 113.5q152 0 264 -104t123 -256q25 69 25 142q0 170 -121 291t-291 121q-240 0 -410.5 -170.5t-170.5 -410.5q0 -241 170.5 -411.5t410.5 -170.5q196 0 356 122l56 49q26 23 50 23 q30 0 52.5 -22.5t22.5 -52.5q0 -26 -22 -50q-91 -100 -236 -159q-138 -55 -279 -55q-300 0 -513.5 213t-213.5 514q0 300 213 513t514 213q230 0 393.5 -163.5t163.5 -393.5zM1017 727q0 99 -71 170.5t-171 71.5t-171 -71.5t-71 -170.5q0 -101 71 -172t172 -71 q99 0 170 71.5t71 171.5z" />
<glyph unicode="A" horiz-adv-x="1504" d="M1504 70q0 -29 -23.5 -50t-52.5 -21q-43 0 -63 41l-200 400q-12 -4 -26 -4h-726q-14 0 -26 4l-200 -400q-20 -41 -62 -41q-30 0 -53.5 21t-23.5 50q0 18 9 35l648 1295q26 54 71 54t71 -54l648 -1295q9 -17 9 -35zM1094 581l-318 637l-318 -637h636z" />
<glyph unicode="B" horiz-adv-x="1066" d="M1017 436q0 -181 -128 -308.5t-308 -127.5h-363q-29 0 -51 22t-22 51v1307q0 29 22 51t51 22h363q150 0 257 -106.5t107 -256.5q0 -173 -136 -283q208 -128 208 -371zM799 1090q0 90 -64 154t-154 64h-290v-436h290q90 0 154 64t64 154zM872 436q0 120 -85.5 205.5 t-205.5 85.5h-290v-582h290q120 0 205.5 85.5t85.5 205.5z" />
<glyph unicode="C" horiz-adv-x="1360" d="M1311 263q0 -24 -23 -50q-84 -98 -234 -158q-141 -55 -279 -55q-301 0 -514 213t-213 514q0 300 213.5 513t513.5 213q138 0 279 -55q150 -60 234 -157q23 -27 23 -51q0 -30 -22.5 -52.5t-52.5 -22.5q-23 0 -50 23q-22 20 -68 58q-147 112 -343 112q-240 0 -410.5 -170.5 t-170.5 -410.5q0 -241 170.5 -411.5t410.5 -170.5q196 0 343 112q22 20 68 58q27 23 50 23q30 0 52.5 -22.5t22.5 -52.5z" />
<glyph unicode="D" horiz-adv-x="1429" d="M1380 727q0 -301 -213 -514t-513 -213h-436q-29 0 -51 22t-22 51v1307q0 29 22 51t51 22h436q300 0 513 -213t213 -513zM1235 727q0 240 -170.5 410.5t-410.5 170.5h-363v-1163h363q240 0 410.5 170.5t170.5 411.5z" />
<glyph unicode="E" horiz-adv-x="1066" d="M1017 73q0 -73 -72 -73h-727q-29 0 -51 22t-22 51v1307q0 29 22 51t51 22h727q72 0 72 -73q0 -72 -72 -72h-654v-509h508q73 0 73 -72q0 -73 -73 -73h-508v-509h654q72 0 72 -72z" />
<glyph unicode="F" horiz-adv-x="1017" d="M1017 1380q0 -72 -72 -72h-654v-509h508q73 0 73 -72q0 -73 -73 -73h-508v-581q0 -73 -73 -73t-73 73v1307q0 29 22 51t51 22h727q72 0 72 -73z" />
<glyph unicode="G" horiz-adv-x="1408" d="M1311 1190q0 -30 -22.5 -52.5t-52.5 -22.5q-22 0 -50 23q-117 93 -189 126q-96 44 -222 44q-240 0 -410.5 -170.5t-170.5 -410.5q0 -241 170.5 -411.5t410.5 -170.5q224 0 389 150v432q0 72 73 72t73 -72v-463q0 -107 -220 -192q-184 -72 -315 -72q-301 0 -514 213 t-213 514q0 300 213.5 513t513.5 213q139 0 279 -55q147 -59 234 -157q23 -26 23 -51z" />
<glyph unicode="H" horiz-adv-x="1308" d="M1163 73q0 -73 -73 -73t-73 73v581h-726v-581q0 -73 -73 -73t-73 73v1307q0 73 73 73t73 -73v-581h726v581q0 73 73 73t73 -73v-1307z" />
<glyph unicode="I" horiz-adv-x="436" d="M291 73q0 -73 -73 -73t-73 73v1307q0 73 73 73t73 -73v-1307z" />
<glyph unicode="J" horiz-adv-x="557" d="M412 1380v-1453q0 -150 -107 -256.5t-257 -106.5q-94 0 -182 49q-91 52 -132 134q-11 21 -11 38q0 29 23 50.5t53 21.5q25 0 90.5 -74t158.5 -74q90 0 154 64t64 154v1453q0 73 73 73t73 -73z" />
<glyph unicode="K" horiz-adv-x="1140" d="M1091 73q0 -29 -22.5 -51.5t-51.5 -22.5t-51 22l-654 654q-17 17 -21 38v-640q0 -73 -73 -73t-73 73v1307q0 73 73 73t73 -73v-640q4 21 21 38l654 654q22 22 51 22t51.5 -22.5t22.5 -51.5q0 -28 -22 -51l-603 -602l603 -603q22 -23 22 -51z" />
<glyph unicode="L" horiz-adv-x="1066" d="M1017 73q0 -73 -72 -73h-727q-29 0 -51 22t-22 51v1307q0 73 73 73t73 -73v-1235h654q72 0 72 -72z" />
<glyph unicode="M" horiz-adv-x="1696" d="M1648 70q0 -70 -75 -70q-57 0 -69 57l-242 1088l-342 -798q-24 -57 -72 -57t-72 57l-342 798l-242 -1088q-12 -57 -69 -57q-75 0 -75 70q0 9 3 18l288 1296q15 70 74 70q47 0 71 -56l364 -850l364 850q24 56 71 56q59 0 75 -70l288 -1296q2 -9 2 -18z" />
<glyph unicode="N" horiz-adv-x="1453" d="M1308 73q0 -74 -74 -74q-34 0 -64 39l-879 1131v-1096q0 -73 -73 -73t-73 73v1307q0 74 74 74q34 0 64 -39l880 -1131v1096q0 73 72 73q73 0 73 -73v-1307z" />
<glyph unicode="O" horiz-adv-x="1550" d="M1502 727q0 -301 -213.5 -514t-513.5 -213t-513.5 213t-213.5 514q0 300 213.5 513t513.5 213t513.5 -213t213.5 -513zM1356 727q0 240 -170.5 410.5t-410.5 170.5t-410.5 -170.5t-170.5 -410.5q0 -241 170.5 -411.5t410.5 -170.5t410.5 170.5t170.5 411.5z" />
<glyph unicode="P" horiz-adv-x="1066" d="M291 654q0 73 72 73h218q120 0 205.5 85t85.5 205t-85.5 205.5t-205.5 85.5h-290v-654zM145 73v1307q0 29 22 51t51 22h363q181 0 308.5 -127.5t127.5 -308.5q0 -180 -127.5 -308t-308.5 -128h-218q-72 0 -72 73v-581q0 -73 -73 -73t-73 73z" />
<glyph unicode="Q" horiz-adv-x="1550" d="M1502 -363q0 -73 -73 -73q-216 0 -397.5 119t-268.5 317q-297 5 -506 217.5t-209 509.5q0 300 213.5 513t513.5 213t513.5 -213t213.5 -513q0 -260 -165 -461t-419 -252q76 -140 213.5 -222.5t297.5 -82.5q73 0 73 -72zM1356 727q0 240 -170.5 410.5t-410.5 170.5 t-410.5 -170.5t-170.5 -410.5q0 -224 150 -390t372 -189q-14 70 -14 143q0 72 73 72t73 -71.5t16 -139.5q212 33 352 196.5t140 378.5z" />
<glyph unicode="R" horiz-adv-x="1067" d="M1018 73q0 -29 -22.5 -51.5t-51.5 -22.5q-28 0 -51 22l-571 572q-27 26 -31 47v-567q0 -73 -73 -73t-73 73v1308q0 72 72 72h364q181 0 308.5 -128t127.5 -308t-127.5 -308t-308.5 -128h-42l457 -457q22 -23 22 -51zM872 1017q0 120 -85.5 205.5t-205.5 85.5h-290v-642 q10 61 86 61h204q120 0 205.5 85t85.5 205z" />
<glyph unicode="S" horiz-adv-x="922" d="M873 436q0 -180 -128 -308t-308 -128q-114 0 -218 59q-107 60 -160 159q-11 21 -11 38q0 30 23.5 51t53.5 21q31 0 60 -37q11 -17 35 -49q84 -97 217 -97q120 0 205.5 85.5t85.5 205.5t-85.5 205.5t-205.5 85.5q-150 0 -256.5 106.5t-106.5 256.5t106.5 256.5 t256.5 106.5q95 0 182.5 -49t131.5 -131q11 -21 11 -39q0 -29 -23 -50t-53 -21q-24 0 -91 72.5t-158 72.5q-90 0 -154 -64t-64 -154t64 -154t154 -64q180 0 308 -128t128 -308z" />
<glyph unicode="T" horiz-adv-x="1066" d="M1066 1380q0 -72 -73 -72h-363v-1235q0 -73 -73 -73t-73 73v1235h-363q-73 0 -73 72q0 73 73 73h872q73 0 73 -73z" />
<glyph unicode="U" horiz-adv-x="1211" d="M1114 509q0 -211 -149 -360t-360 -149q-210 0 -359 149t-149 360v871q0 73 73 73q72 0 72 -73v-871q0 -150 107 -257t256 -107q150 0 257 107t107 257v871q0 73 72 73q73 0 73 -73v-871z" />
<glyph unicode="V" horiz-adv-x="1504" d="M1504 1383q0 -18 -9 -35l-648 -1295q-26 -54 -71 -54q-44 0 -71 54l-648 1295q-9 17 -9 35q0 29 23.5 50t53.5 21q42 0 62 -41l589 -1178l589 1178q20 41 63 41q29 0 52.5 -21t23.5 -50z" />
<glyph unicode="W" horiz-adv-x="2158" d="M2158 1383q0 -18 -9 -35l-648 -1295q-26 -54 -71 -54t-71 54l-256 511l-256 -511q-26 -54 -71 -54q-44 0 -71 54l-648 1295q-9 17 -9 35q0 29 23.5 50t53.5 21q42 0 62 -41l589 -1178l246 492l-311 621q-9 17 -9 35q0 29 23.5 50t52.5 21q43 0 63 -41l262 -524l262 524 q20 41 63 41q29 0 52.5 -21t23.5 -50q0 -18 -9 -35l-311 -621l246 -492l589 1178q20 41 62 41q30 0 53.5 -21t23.5 -50z" />
<glyph unicode="X" horiz-adv-x="1262" d="M1214 72q0 -29 -23.5 -51t-52.5 -22q-33 0 -56 29l-451 580l-451 -580q-23 -29 -56 -29q-29 0 -52.5 22t-23.5 51q0 24 17 45l474 610l-474 609q-17 21 -17 45q0 29 23.5 51t52.5 22q33 0 56 -29l451 -580l451 580q23 29 56 29q29 0 52.5 -22t23.5 -51q0 -24 -17 -45 l-474 -609l474 -610q17 -21 17 -45z" />
<glyph unicode="Y" horiz-adv-x="1214" d="M1214 1381q0 -24 -17 -45l-493 -634v-629q0 -73 -73 -73t-73 73v629l-493 634q-17 21 -17 45q0 29 23.5 51t52.5 22q33 0 56 -29l451 -580l451 580q23 29 56 29q29 0 52.5 -22t23.5 -51z" />
<glyph unicode="Z" horiz-adv-x="1261" d="M1213 1381q0 -24 -25 -56l-917 -1180h868q73 0 73 -72q0 -73 -73 -73h-1014q-77 0 -77 72q0 24 25 56l918 1180h-869q-73 0 -73 72q0 73 73 73l1015 1q76 0 76 -73z" />
<glyph unicode="[" horiz-adv-x="775" d="M727 -363q0 -73 -73 -73h-436q-29 0 -51 22t-22 51v1743q0 29 22 51t51 22h436q73 0 73 -73q0 -72 -73 -72h-363v-1599h363q73 0 73 -72z" />
<glyph unicode="\" horiz-adv-x="1116" d="M1068 -366q0 -30 -23.5 -51t-52.5 -21q-43 0 -63 41l-872 1745q-9 17 -9 35q0 29 23.5 50t53.5 21q42 0 62 -41l872 -1745q9 -17 9 -34z" />
<glyph unicode="]" horiz-adv-x="775" d="M630 1380v-1743q0 -29 -22 -51t-51 -22h-436q-73 0 -73 73q0 72 73 72h363v1599h-363q-73 0 -73 72q0 73 73 73h436q29 0 51 -22t22 -51z" />
<glyph unicode="^" horiz-adv-x="826" d="M778 1090q0 -29 -23 -51.5t-52 -22.5q-28 0 -51 22l-239 240l-239 -240q-23 -22 -51 -22q-29 0 -52 22.5t-23 51.5t23 51l291 291q22 22 50 22q30 0 52 -22l291 -291q23 -22 23 -51z" />
<glyph unicode="_" d="M1066 73q0 -73 -73 -73h-872q-73 0 -73 73q0 72 73 72h872q73 0 73 -72z" />
<glyph unicode="`" horiz-adv-x="389" d="M341 1015q0 -30 -23 -50.5t-53 -20.5q-47 0 -65 46l-146 363q-6 16 -6 30q0 30 23 50.5t53 20.5q47 0 65 -47l146 -363q6 -15 6 -29z" />
<glyph unicode="a" horiz-adv-x="872" d="M775 73q0 -73 -73 -73t-72 73q-97 -73 -218 -73q-150 0 -257 106.5t-107 256.5t107 257t257 107q121 0 218 -73q0 90 -64 154t-154 64q-63 0 -126.5 -43.5t-78.5 -43.5q-30 0 -52.5 22.5t-22.5 52.5q0 24 23 51q89 106 257 106q150 0 256.5 -106.5t106.5 -256.5v-581z M630 363q0 90 -64 154t-154 64t-154 -64t-64 -154t64 -154t154 -64t154 64t64 154z" />
<glyph unicode="b" horiz-adv-x="1163" d="M1114 509q0 -211 -149 -360t-360 -149q-210 0 -359 149t-149 360v871q0 73 73 73q72 0 72 -73v-515q150 152 363 152q211 0 360 -149t149 -359zM969 509q0 149 -107 256t-257 107q-149 0 -256 -107t-107 -256q0 -150 107 -257t256 -107q150 0 257 107t107 257z" />
<glyph unicode="c" horiz-adv-x="988" d="M939 818q0 -30 -22.5 -52.5t-52.5 -22.5q-9 0 -107.5 64.5t-199.5 64.5q-150 0 -256.5 -107t-106.5 -256q0 -150 106.5 -257t256.5 -107q100 0 198.5 64.5t108.5 64.5q29 0 51.5 -23t22.5 -52q0 -24 -22 -51q-58 -68 -164 -109q-99 -39 -195 -39q-210 0 -359.5 149 t-149.5 360q0 210 149.5 359t359.5 149q96 0 195 -39q106 -42 164 -110q23 -26 23 -50z" />
<glyph unicode="d" horiz-adv-x="1211" d="M1066 73q0 -73 -73 -73q-56 0 -69 54q-4 17 -4 75v24q-149 -153 -363 -153q-210 0 -359.5 149t-149.5 360q0 210 149.5 359t359.5 149q214 0 363 -152v515q0 73 73 73t73 -73v-1307zM920 509q0 149 -106.5 256t-256.5 107t-256.5 -107t-106.5 -256q0 -150 106.5 -257 t256.5 -107t256.5 107t106.5 257z" />
<glyph unicode="e" horiz-adv-x="1057" d="M1008 292q0 -17 -10 -38q-61 -115 -184.5 -184.5t-256.5 -69.5q-210 0 -359.5 149t-149.5 360q0 210 149.5 359t359.5 149q75 0 157 -28q93 -32 182 -102q111 -87 111 -164q0 -39 -36 -59l-686 -396q108 -123 272 -123q172 0 274 125q13 19 41.5 56.5t59.5 37.5 q30 0 53 -21t23 -51zM829 749q-109 123 -272 123q-150 0 -256.5 -107t-106.5 -256q0 -60 18 -116z" />
<glyph unicode="f" horiz-adv-x="823" d="M775 1311q0 -74 -58 -74q-21 0 -66 35.5t-94 35.5q-60 0 -102.5 -43t-42.5 -102v-146h145q73 0 73 -72q0 -73 -73 -73h-145v-799q0 -73 -73 -73t-73 73v799h-145q-73 0 -73 73q0 72 73 72h145v146q0 119 85.5 204.5t205.5 85.5q82 0 142 -30q76 -38 76 -112z" />
<glyph unicode="g" horiz-adv-x="969" d="M920 945q0 -55 -50 -69q-17 -4 -72 -4h-23q73 -97 73 -218q0 -173 -135 -283q207 -128 207 -371q0 -180 -127.5 -308t-308.5 -128q-180 0 -308 128t-128 308q0 73 73 73t73 -73q0 -120 85.5 -205.5t204.5 -85.5q120 0 205.5 85.5t85.5 205.5t-85.5 205.5t-205.5 85.5 q-149 0 -256 106.5t-107 256.5t107 256.5t256 106.5h364q72 0 72 -72zM702 654q0 90 -64 154t-154 64t-154 -64t-64 -154t64 -154t154 -64t154 64t64 154z" />
<glyph unicode="h" horiz-adv-x="969" d="M872 73q0 -73 -73 -73q-72 0 -72 73v581q0 90 -64.5 154t-153.5 64q-90 0 -154 -64t-64 -154v-581q0 -73 -73 -73t-73 73v1307q0 73 73 73t73 -73v-435q96 72 218 72q149 0 256 -106.5t107 -256.5v-581z" />
<glyph unicode="i" horiz-adv-x="436" d="M328 1343q0 -45 -32.5 -76.5t-77.5 -31.5t-77.5 31.5t-32.5 76.5t32.5 77.5t77.5 32.5t77.5 -32.5t32.5 -77.5zM291 945v-872q0 -73 -73 -73t-73 73v872q0 72 73 72t73 -72z" />
<glyph unicode="j" horiz-adv-x="436" d="M328 1343q0 -45 -32.5 -76.5t-77.5 -31.5t-77.5 31.5t-32.5 76.5t32.5 77.5t77.5 32.5t77.5 -32.5t32.5 -77.5zM291 -145q0 -120 -85.5 -205.5t-205.5 -85.5q-82 0 -142 30q-76 38 -76 112q0 75 58 75q21 0 66 -36t94 -36q60 0 102.5 43t42.5 103v1090q0 72 73 72t73 -72 v-1090z" />
<glyph unicode="k" horiz-adv-x="922" d="M873 73q0 -29 -22.5 -51.5t-51.5 -22.5t-51 22l-436 436q-17 17 -21 38v-422q0 -73 -73 -73t-73 73v1307q0 73 73 73t73 -73v-858q4 21 21 38l436 436q22 22 51 22t51.5 -22.5t22.5 -51.5q0 -28 -22 -51l-385 -384l385 -385q22 -23 22 -51z" />
<glyph unicode="l" horiz-adv-x="509" d="M460 73q0 -73 -73 -73q-119 0 -204.5 85.5t-85.5 205.5v1089q0 73 73 73q72 0 72 -73v-1089q0 -60 43 -103t102 -43q73 0 73 -72z" />
<glyph unicode="m" horiz-adv-x="1550" d="M1453 73q0 -73 -73 -73q-72 0 -72 73v581q0 90 -64 154t-154 64t-154 -64t-64 -154v-581q0 -73 -73 -73q-72 0 -72 73v581q0 90 -64.5 154t-153.5 64q-90 0 -154 -64t-64 -154v-581q0 -73 -73 -73t-73 73v872q0 72 73 72t73 -72q96 72 218 72q181 0 290 -145 q109 145 291 145q150 0 256.5 -106.5t106.5 -256.5v-581z" />
<glyph unicode="n" horiz-adv-x="969" d="M872 73q0 -73 -73 -73q-72 0 -72 73v581q0 90 -64.5 154t-153.5 64q-90 0 -154 -64t-64 -154v-581q0 -73 -73 -73t-73 73v872q0 72 73 72t73 -72q96 72 218 72q149 0 256 -106.5t107 -256.5v-581z" />
<glyph unicode="o" d="M1066 509q0 -211 -149.5 -360t-359.5 -149t-359.5 149t-149.5 360q0 210 149.5 359t359.5 149t359.5 -149t149.5 -359zM920 509q0 149 -106.5 256t-256.5 107t-256.5 -107t-106.5 -256q0 -150 106.5 -257t256.5 -107t256.5 107t106.5 257z" />
<glyph unicode="p" horiz-adv-x="1211" d="M1163 509q0 -211 -149.5 -360t-359.5 -149q-214 0 -363 153v-516q0 -73 -73 -73t-73 73v1308q0 72 73 72q56 0 69 -54q4 -17 4 -74v-24q149 152 363 152q210 0 359.5 -149t149.5 -359zM1017 509q0 149 -106.5 256t-256.5 107t-256.5 -107t-106.5 -256q0 -150 106.5 -257 t256.5 -107t256.5 107t106.5 257z" />
<glyph unicode="q" horiz-adv-x="1211" d="M1066 -363q0 -73 -73 -73t-73 73v516q-149 -153 -363 -153q-210 0 -359.5 149t-149.5 360q0 210 149.5 359t359.5 149q214 0 363 -152q-1 60 -1 50q0 102 74 102q73 0 73 -72v-1308zM920 509q0 149 -106.5 256t-256.5 107t-256.5 -107t-106.5 -256q0 -150 106.5 -257 t256.5 -107t256.5 107t106.5 257z" />
<glyph unicode="r" horiz-adv-x="747" d="M699 833q0 -29 -23.5 -50t-52.5 -21t-76 55t-111 55q-60 0 -102.5 -43t-42.5 -102v-654q0 -73 -73 -73t-73 73v872q0 72 73 72q49 0 67 -42q69 42 151 42q75 0 146.5 -40t105.5 -105q11 -22 11 -39z" />
<glyph unicode="s" horiz-adv-x="735" d="M687 327q0 -135 -96.5 -231t-230.5 -96q-101 0 -186.5 58.5t-119.5 151.5q-6 16 -6 29q0 30 23 50.5t53 20.5q34 0 63 -43q45 -68 56 -79q44 -43 117 -43q75 0 128 53.5t53 128.5q0 166 -186 182q-112 9 -181 74q-74 69 -74 180q0 105 75 179.5t180 74.5q152 0 219 -126 q11 -21 11 -38q0 -30 -23 -51t-53 -21t-67 45.5t-87 45.5q-45 0 -77 -32.5t-32 -76.5q0 -98 114 -109q145 -14 233 -96q94 -88 94 -231z" />
<glyph unicode="t" horiz-adv-x="823" d="M775 142q0 -74 -76 -112q-60 -30 -142 -30q-120 0 -205.5 85.5t-85.5 205.5v581h-145q-73 0 -73 73q0 72 73 72h145v363q0 73 73 73t73 -73v-363h145q73 0 73 -72q0 -73 -73 -73h-145v-581q0 -60 42.5 -103t102.5 -43q49 0 94 36t66 36q58 0 58 -75z" />
<glyph unicode="u" horiz-adv-x="920" d="M823 363q0 -150 -106.5 -256.5t-256.5 -106.5t-256.5 106.5t-106.5 256.5v582q0 72 73 72q72 0 72 -72v-582q0 -90 64 -154t154 -64t154 64t64 154v582q0 72 73 72q72 0 72 -72v-582z" />
<glyph unicode="v" horiz-adv-x="1116" d="M1068 947q0 -18 -9 -35l-430 -859q-26 -54 -71 -54q-44 0 -71 54l-430 859q-9 17 -9 35q0 29 23.5 50t53.5 21q42 0 62 -41l371 -742l371 742q20 41 63 41q29 0 52.5 -21t23.5 -50z" />
<glyph unicode="w" horiz-adv-x="1697" d="M1649 947q0 -18 -9 -35l-429 -859q-27 -54 -72 -54q-44 0 -71 54l-219 438l-220 -438q-26 -54 -71 -54q-44 0 -71 54l-430 859q-9 17 -9 35q0 29 23.5 50t53.5 21q42 0 62 -41l371 -742l210 418l-130 259q-8 17 -8 35q0 29 23 50t53 21q42 0 62 -41l371 -742l371 742 q21 41 63 41q30 0 53 -21t23 -50z" />
<glyph unicode="x" horiz-adv-x="971" d="M923 72q0 -29 -23 -51t-52 -22q-32 0 -55 27l-307 369l-307 -369q-23 -27 -54 -27q-30 0 -53 22t-23 51q0 25 19 47l323 390l-324 389q-19 22 -19 47q0 29 23 51t53 22q31 0 54 -27l308 -369l306 369q23 27 55 27q29 0 52 -22t23 -51q0 -25 -18 -47l-324 -389l325 -390 q18 -22 18 -47z" />
<glyph unicode="y" horiz-adv-x="969" d="M823 -73q0 -149 -106.5 -256t-256.5 -107q-94 0 -181 49q-90 50 -133 131q-11 22 -11 39q0 29 23.5 50.5t52.5 21.5q25 0 90.5 -73t158.5 -73q90 0 154 64t64 154v146q-97 -73 -218 -73q-150 0 -256.5 106.5t-106.5 256.5v582q0 72 73 72q72 0 72 -72v-582q0 -90 64 -154 t154 -64t154 64t64 154v582q0 72 73 72q72 0 72 -72v-1018z" />
<glyph unicode="z" horiz-adv-x="971" d="M922 944q0 -25 -27 -57l-618 -742h572q72 0 72 -72q0 -73 -72 -73h-725q-76 0 -76 73q0 25 27 57l618 742h-571q-73 0 -73 73q0 72 73 72h724q76 0 76 -73z" />
<glyph unicode="{" horiz-adv-x="678" d="M630 -363q0 -73 -73 -73q-120 0 -205.5 85.5t-85.5 205.5v436q0 60 -42.5 102.5t-102.5 42.5q-73 0 -73 73q0 72 73 72q60 0 102.5 43t42.5 103v436q0 119 85.5 204.5t205.5 85.5q73 0 73 -73q0 -72 -73 -72q-60 0 -102.5 -43t-42.5 -102v-436q0 -131 -99 -218 q99 -87 99 -218v-436q0 -60 42.5 -103t102.5 -43q73 0 73 -72z" />
<glyph unicode="|" horiz-adv-x="436" d="M291 -363q0 -73 -73 -73t-73 73v1743q0 73 73 73t73 -73v-1743z" />
<glyph unicode="}" horiz-adv-x="678" d="M630 509q0 -73 -73 -73q-60 0 -102.5 -42.5t-42.5 -102.5v-436q0 -120 -85.5 -205.5t-205.5 -85.5q-73 0 -73 73q0 72 73 72q60 0 102.5 43t42.5 103v436q0 131 99 218q-99 86 -99 218v436q0 59 -42.5 102t-102.5 43q-73 0 -73 72q0 73 73 73q120 0 205.5 -85.5 t85.5 -204.5v-436q0 -60 42.5 -103t102.5 -43q73 0 73 -72z" />
<glyph unicode="~" horiz-adv-x="825" d="M776 511q0 -23 -17 -52q-57 -96 -201 -96q-82 0 -171 73t-120 73q-49 0 -76 -23q-17 -50 -67 -50q-76 0 -76 70q0 23 17 52q58 96 202 96q82 0 171 -72.5t120 -72.5q58 0 83 36.5t60 36.5q30 0 52.5 -20.5t22.5 -50.5z" />
<glyph unicode="&#xa1;" horiz-adv-x="436" d="M328 907q0 -45 -32.5 -76.5t-77.5 -31.5t-77.5 31.5t-32.5 76.5t32.5 77.5t77.5 32.5t77.5 -32.5t32.5 -77.5zM291 -363q0 -73 -73 -73t-73 73v944q0 73 73 73t73 -73v-944z" />
<glyph unicode="&#xa2;" horiz-adv-x="988" d="M939 818q0 -30 -22.5 -52.5t-52.5 -22.5q-23 0 -50 23q-101 82 -184 99v-712q83 16 183 98q28 23 51 23q29 0 51.5 -23t22.5 -52q0 -25 -22 -51q-100 -116 -286 -143v-175q0 -72 -73 -72t-73 72v175q-187 27 -311.5 170.5t-124.5 333.5q0 189 124.5 332.5t311.5 170.5 v175q0 72 73 72t73 -72v-175q186 -27 286 -144q23 -26 23 -50zM484 153v712q-126 -26 -208 -127t-82 -229q0 -129 82 -230t208 -126z" />
<glyph unicode="&#xa3;" horiz-adv-x="1117" d="M1069 73q0 -73 -73 -73h-872q-76 0 -76 73q0 72 76 72q60 0 102.5 43t42.5 103v290h-145q-72 0 -72 73t72 73h145v145h-145q-72 0 -72 73q0 72 72 72h145v146q0 119 85.5 204.5t205.5 85.5q82 0 142 -30q76 -38 76 -112q0 -75 -58 -75q-21 0 -66 36t-94 36 q-60 0 -102.5 -43t-42.5 -102v-146h145q73 0 73 -72q0 -73 -73 -73h-145v-145h145q73 0 73 -73t-73 -73h-145v-290q0 -78 -39 -146h620q73 0 73 -72z" />
<glyph unicode="&#xa4;" horiz-adv-x="1117" d="M1068 73q0 -29 -22.5 -51.5t-51.5 -22.5q-32 0 -131 102q-135 -101 -305 -101q-169 0 -304 101q-100 -102 -131 -102q-29 0 -52 22.5t-23 51.5q0 32 103 131q-101 135 -101 305q0 169 101 304q-103 100 -103 131q0 29 23 51.5t52 22.5q31 0 131 -102q135 101 304 101 q170 0 305 -101q99 102 131 102q29 0 51.5 -22.5t22.5 -51.5q0 -31 -102 -131q101 -135 101 -304q0 -170 -101 -305q102 -99 102 -131zM922 509q0 149 -107 256t-257 107q-149 0 -256 -107t-107 -256q0 -150 107 -257t256 -107q150 0 257 107t107 257z" />
<glyph unicode="&#xa5;" horiz-adv-x="1262" d="M1214 1381q0 -24 -17 -45l-417 -537h142q72 0 72 -72q0 -73 -72 -73h-218v-145h218q72 0 72 -73t-72 -73h-218v-290q0 -73 -73 -73t-73 73v290h-218q-72 0 -72 73t72 73h218v145h-218q-72 0 -72 73q0 72 72 72h142l-417 537q-17 21 -17 45q0 29 23.5 51t52.5 22 q33 0 56 -29l451 -580l451 580q23 29 56 29q29 0 52.5 -22t23.5 -51z" />
<glyph unicode="&#xa6;" horiz-adv-x="436" d="M291 654q0 -73 -73 -73t-73 73v726q0 73 73 73t73 -73v-726zM291 -363q0 -73 -73 -73t-73 73v726q0 73 73 73t73 -73v-726z" />
<glyph unicode="&#xa7;" horiz-adv-x="823" d="M775 -73q0 -149 -106.5 -256t-256.5 -107q-97 0 -184 49.5t-132 133.5q-10 20 -10 38q0 29 23 50.5t53 21.5q25 0 91.5 -74t158.5 -74q90 0 154 64t64 154t-64 154t-154 64q-150 0 -257 107t-107 257q0 181 146 290q-146 109 -146 291q0 150 107 256.5t257 106.5 q96 0 183 -49.5t132 -133.5q11 -20 11 -38q0 -29 -23.5 -50t-52.5 -21q-25 0 -91.5 73.5t-158.5 73.5q-90 0 -154 -64t-64 -154t64 -154t154 -64q150 0 256.5 -107t106.5 -256q0 -182 -145 -291q145 -109 145 -291zM630 509q0 89 -64 153.5t-154 64.5t-154 -64.5t-64 -153.5 q0 -90 64 -154t154 -64t154 64t64 154z" />
<glyph unicode="&#xa8;" horiz-adv-x="751" d="M702 1272q0 -45 -32 -77t-77 -32t-77 32t-32 77t31.5 76.5t77.5 31.5q45 0 77 -31.5t32 -76.5zM266 1272q0 -45 -32 -77t-77 -32t-77 32t-32 77t32 76.5t77 31.5t77 -31.5t32 -76.5z" />
<glyph unicode="&#xa9;" horiz-adv-x="1550" d="M1502 727q0 -301 -213.5 -514t-513.5 -213t-513.5 213t-213.5 514q0 300 213.5 513t513.5 213t513.5 -213t213.5 -513zM1356 727q0 240 -170.5 410.5t-410.5 170.5t-410.5 -170.5t-170.5 -410.5q0 -241 170.5 -411.5t410.5 -170.5t410.5 170.5t170.5 411.5zM1080 495 q0 -24 -23 -51q-44 -53 -129 -86q-78 -31 -153 -31q-165 0 -282.5 117t-117.5 283q0 165 117.5 282t282.5 117q75 0 153 -31q85 -33 129 -86q23 -27 23 -50q0 -30 -22.5 -52.5t-52.5 -22.5q-13 0 -85 48.5t-145 48.5q-105 0 -179.5 -75t-74.5 -179q0 -105 74.5 -180 t179.5 -75q73 0 145 48.5t85 48.5q30 0 52.5 -22.5t22.5 -51.5z" />
<glyph unicode="&#xaa;" horiz-adv-x="727" d="M630 770q0 -73 -73 -73q-48 0 -66 41q-70 -41 -152 -41q-117 0 -204 80t-87 197q0 116 87 196t204 80q74 0 139 -34q-33 92 -139 92q-46 0 -90.5 -30.5t-63.5 -30.5q-29 0 -51.5 22.5t-22.5 52.5q0 56 89 97q74 34 139 34q117 0 204 -80t87 -196v-407zM630 509 q0 -73 -73 -73h-436q-73 0 -73 73q0 72 73 72h436q73 0 73 -72zM484 974q0 56 -44 93t-101 37t-101 -37t-44 -93t44 -93.5t101 -37.5t101 37.5t44 93.5z" />
<glyph unicode="&#xab;" horiz-adv-x="825" d="M777 70q0 -29 -23 -50t-53 -21q-42 0 -63 41l-213 426q-13 27 -13 43q0 15 13 42l213 426q21 41 63 41q30 0 53 -21t23 -50q0 -18 -9 -35l-201 -403l201 -404q9 -17 9 -35zM414 70q0 -29 -23.5 -50t-52.5 -21q-42 0 -63 41l-213 426q-14 27 -14 43q0 15 14 42l213 426 q21 41 63 41q29 0 52.5 -21t23.5 -50q0 -18 -9 -35l-202 -403l202 -404q9 -17 9 -35z" />
<glyph unicode="&#xac;" d="M969 73q0 -73 -73 -73t-73 73v363h-702q-73 0 -73 73q0 72 73 72h775q29 0 51 -22t22 -50v-436z" />
<glyph unicode="&#xad;" d="M1066 618q0 -73 -73 -73h-872q-73 0 -73 73q0 72 73 72h872q73 0 73 -72z" />
<glyph unicode="&#x2212;" d="M1066 618q0 -73 -73 -73h-872q-73 0 -73 73q0 72 73 72h872q73 0 73 -72z" />
<glyph unicode="&#xae;" horiz-adv-x="1550" d="M1502 727q0 -301 -213.5 -514t-513.5 -213t-513.5 213t-213.5 514q0 300 213.5 513t513.5 213t513.5 -213t213.5 -513zM1356 727q0 240 -170.5 410.5t-410.5 170.5t-410.5 -170.5t-170.5 -410.5q0 -241 170.5 -411.5t410.5 -170.5t410.5 170.5t170.5 411.5zM1067 400 q0 -29 -22.5 -51.5t-52.5 -22.5q-28 0 -50 22l-240 239v-187q0 -73 -72 -73q-73 0 -73 73v654q0 28 22 50t51 22h181q105 0 180 -74.5t75 -179.5q0 -88 -55 -157.5t-140 -89.5l173 -174q23 -23 23 -51zM920 872q0 44 -32 76.5t-77 32.5h-109v-218h109q45 0 77 32t32 77z" />
<glyph unicode="&#xaf;" d="M1066 1744q0 -73 -73 -73h-872q-73 0 -73 73q0 72 73 72h872q73 0 73 -72z" />
<glyph unicode="&#x2c9;" d="M1066 1744q0 -73 -73 -73h-872q-73 0 -73 73q0 72 73 72h872q73 0 73 -72z" />
<glyph unicode="&#xb0;" horiz-adv-x="823" d="M775 1090q0 -150 -106.5 -256.5t-256.5 -106.5t-257 106.5t-107 256.5t107 256.5t257 106.5t256.5 -106.5t106.5 -256.5zM630 1090q0 90 -64 154t-154 64t-154 -64t-64 -154t64 -154t154 -64t154 64t64 154z" />
<glyph unicode="&#xb1;" d="M1066 799q0 -72 -73 -72h-363v-364q0 -72 -73 -72t-73 72v364h-363q-73 0 -73 72q0 73 73 73h363v363q0 73 73 73t73 -73v-363h363q73 0 73 -73zM1066 73q0 -73 -73 -73h-872q-73 0 -73 73q0 72 73 72h872q73 0 73 -72z" />
<glyph unicode="&#xb2;" horiz-adv-x="798" d="M750 618q0 -73 -73 -73h-545q-84 0 -84 64q0 34 42 68l130 67q136 71 238 158q146 123 146 224q0 78 -60 130t-139 52t-138 -51q-62 -53 -62 -131q0 -72 -73 -72q-72 0 -72 72q0 138 104 234q101 93 241 93q139 0 240 -93q105 -96 105 -234q0 -147 -135 -262l-254 -174 h316q73 0 73 -72z" />
<glyph unicode="&#xb3;" horiz-adv-x="813" d="M764 1390q0 -34 -35 -65l-275 -235q128 -24 213 -119q87 -98 87 -226q0 -149 -111 -251t-261 -102q-94 0 -184 46q-95 50 -137 128q-13 23 -13 40q0 29 23.5 50.5t52.5 21.5q23 0 91 -70t167 -70q90 0 158.5 59t68.5 148q0 88 -70 149q-67 58 -157 58q-65 0 -131.5 -42 t-83.5 -42q-29 0 -51 22t-22 51q0 33 29 57l362 310h-363q-73 0 -73 72q0 73 73 73h560q82 0 82 -63z" />
<glyph unicode="&#xb4;" horiz-adv-x="534" d="M486 1378q0 -42 -41 -63l-291 -145q-17 -9 -34 -9q-30 0 -51 23.5t-21 53.5q0 42 41 62l291 145q17 9 35 9q29 0 50 -23t21 -53z" />
<glyph unicode="&#xb5;" horiz-adv-x="1017" d="M872 73q0 -73 -73 -73t-72 73q-97 -73 -218 -73q-122 0 -218 73v-436q0 -73 -73 -73t-73 73v1308q0 72 73 72t73 -72v-582q0 -90 64 -154t154 -64q89 0 153.5 64t64.5 154v582q0 72 72 72q73 0 73 -72v-872z" />
<glyph unicode="&#xb6;" horiz-adv-x="1066" d="M920 73q0 -73 -72 -73q-73 0 -73 73v1235h-291v-1235q0 -73 -72 -73q-73 0 -73 73v661q-126 25 -208.5 126t-82.5 230q0 149 107 256t256 107h437q28 0 50 -22t22 -51v-1307zM339 884v411q-65 -23 -105 -80t-40 -125q0 -69 40 -126t105 -80z" />
<glyph unicode="&#xb7;" d="M667 618q0 -45 -32.5 -78t-77.5 -33t-77.5 33t-32.5 78t32.5 76t77.5 31t77.5 -31t32.5 -76z" />
<glyph unicode="&#xb8;" horiz-adv-x="650" d="M602 -145q0 -120 -85.5 -205.5t-205.5 -85.5q-75 0 -146.5 40t-105.5 106q-11 21 -11 38q0 29 23.5 50.5t53.5 21.5q28 0 75 -55.5t111 -55.5q60 0 103 43t43 103t-43 102.5t-103 42.5q-72 0 -72 73q0 72 72 72q120 0 205.5 -85t85.5 -205z" />
<glyph unicode="&#xb9;" horiz-adv-x="607" d="M558 618q0 -73 -72 -73h-291q-73 0 -73 73q0 55 51 68q17 4 95 4v523l-96 -89q-22 -21 -49 -21q-30 0 -52.5 23t-22.5 52t25 52l208 194q32 30 59 30q73 0 73 -87v-677q6 0 22 1h22q101 0 101 -73z" />
<glyph unicode="&#xba;" horiz-adv-x="896" d="M848 1075q0 -159 -119.5 -268.5t-280.5 -109.5t-279 108q-121 111 -121 270q0 160 121 271q118 107 279 107t279 -107q121 -111 121 -271zM848 509q0 -73 -73 -73h-654q-73 0 -73 73q0 72 73 72h654q73 0 73 -72zM702 1075q0 100 -78 168q-75 65 -176 65t-176 -65 q-78 -68 -78 -168q0 -99 78 -167q75 -65 176 -65t177.5 66.5t76.5 165.5z" />
<glyph unicode="&#xbb;" horiz-adv-x="825" d="M777 509q0 -16 -13 -43l-214 -426q-20 -41 -62 -41q-30 0 -53 21t-23 50q0 18 8 35l202 404l-202 403q-8 17 -8 35q0 29 23 50t53 21q42 0 62 -41l214 -426q13 -27 13 -42zM414 509q0 -16 -14 -43l-213 -426q-20 -41 -62 -41q-30 0 -53.5 21t-23.5 50q0 18 9 35l202 404 l-202 403q-9 17 -9 35q0 29 23.5 50t53.5 21q42 0 62 -41l213 -426q14 -27 14 -42z" />
<glyph unicode="&#xbc;" horiz-adv-x="1758" d="M1710 1380q0 -28 -23 -51l-1307 -1308q-23 -22 -51 -22q-30 0 -52.5 22.5t-22.5 51.5q0 28 23 51l1308 1308q22 23 50 23q30 0 52.5 -23t22.5 -52zM1709 214q0 -73 -73 -73h-145v-232q0 -73 -73 -73t-73 73v232h-363q-79 0 -79 62q0 26 20 53l436 611q30 41 68 41 q64 0 64 -84v-537h145q73 0 73 -73zM558 618q0 -73 -72 -73h-291q-73 0 -73 73q0 55 51 68q17 4 95 4v523l-96 -89q-22 -21 -49 -21q-30 0 -52.5 23t-22.5 52t25 52l208 194q32 30 59 30q73 0 73 -87v-677q6 0 22 1h22q101 0 101 -73zM1345 287v311l-222 -311h222z" />
<glyph unicode="&#xbd;" horiz-adv-x="1902" d="M1854 73q0 -73 -73 -73h-545q-83 0 -83 64q0 35 41 68l131 67q135 71 237 158q147 124 147 224q0 78 -60.5 130t-139.5 52t-138 -51q-62 -53 -62 -131q0 -72 -73 -72q-72 0 -72 72q0 138 104 234q102 93 241 93t241 -93q104 -96 104 -234q0 -147 -134 -262l-255 -174h316 q73 0 73 -72zM1710 1380q0 -28 -23 -51l-1307 -1308q-23 -22 -51 -22q-30 0 -52.5 22.5t-22.5 51.5q0 28 23 51l1308 1308q22 23 50 23q30 0 52.5 -23t22.5 -52zM558 618q0 -73 -72 -73h-291q-73 0 -73 73q0 55 51 68q17 4 95 4v523l-96 -89q-22 -21 -49 -21q-30 0 -52.5 23 t-22.5 52t25 52l208 194q32 30 59 30q73 0 73 -87v-677q6 0 22 1h22q101 0 101 -73z" />
<glyph unicode="&#xbe;" horiz-adv-x="1954" d="M1906 1380q0 -28 -23 -51l-1308 -1308q-22 -22 -50 -22q-30 0 -52.5 22.5t-22.5 51.5q0 28 23 51l1308 1308q22 23 50 23q30 0 52.5 -23t22.5 -52zM1905 214q0 -73 -73 -73h-145v-232q0 -73 -73 -73t-73 73v232h-363q-79 0 -79 62q0 26 20 53l436 611q29 41 68 41 q64 0 64 -84v-537h145q73 0 73 -73zM764 1390q0 -34 -35 -65l-275 -235q128 -24 213 -119q87 -98 87 -226q0 -149 -111 -251t-261 -102q-94 0 -184 46q-95 50 -137 128q-13 23 -13 40q0 29 23.5 50.5t52.5 21.5q23 0 91 -70t167 -70q90 0 158.5 59t68.5 148q0 88 -70 149 q-67 58 -157 58q-65 0 -131.5 -42t-83.5 -42q-29 0 -51 22t-22 51q0 33 29 57l362 310h-363q-73 0 -73 72q0 73 73 73h560q82 0 82 -63zM1541 287v311l-222 -311h222z" />
<glyph unicode="&#xbf;" horiz-adv-x="823" d="M522 907q0 -45 -32.5 -76.5t-77.5 -31.5q-46 0 -78.5 31.5t-32.5 76.5t33 77.5t78 32.5t77.5 -32.5t32.5 -77.5zM775 -73q0 -149 -106.5 -256t-256.5 -107t-257 107t-107 256q0 150 107 257t257 107q44 0 76.5 32t32.5 77q0 44 -32.5 76.5t-76.5 32.5q-20 0 -49 -13 t-44 -13q-29 0 -50.5 23.5t-21.5 52.5q0 47 62 74q48 21 103 21q105 0 179.5 -75t74.5 -179q0 -105 -74.5 -180t-179.5 -75q-90 0 -154 -64t-64 -154t64 -154t154 -64t154 64t64 154q0 73 72 73q73 0 73 -73z" />
<glyph unicode="&#xc0;" horiz-adv-x="1552" d="M1009 1674q0 -30 -20.5 -53.5t-50.5 -23.5q-17 0 -35 9l-290 145q-41 21 -41 63q0 30 21 53t50 23q17 0 35 -9l290 -145q41 -20 41 -62zM1504 70q0 -29 -23.5 -50t-52.5 -21q-43 0 -63 41l-200 400q-12 -4 -26 -4h-726q-14 0 -26 4l-200 -400q-20 -41 -62 -41 q-30 0 -53.5 21t-23.5 50q0 18 9 35l648 1295q26 54 71 54t71 -54l648 -1295q9 -17 9 -35zM1094 581l-318 637l-318 -637h636z" />
<glyph unicode="&#xc1;" horiz-adv-x="1552" d="M1009 1814q0 -42 -41 -63l-290 -145q-18 -9 -35 -9q-29 0 -50 23.5t-21 53.5q0 42 41 62l290 145q18 9 35 9q30 0 50.5 -23t20.5 -53zM1504 70q0 -29 -23.5 -50t-52.5 -21q-43 0 -63 41l-200 400q-12 -4 -26 -4h-726q-14 0 -26 4l-200 -400q-20 -41 -62 -41 q-30 0 -53.5 21t-23.5 50q0 18 9 35l648 1295q26 54 71 54t71 -54l648 -1295q9 -17 9 -35zM1094 581l-318 637l-318 -637h636z" />
<glyph unicode="&#xc2;" horiz-adv-x="1552" d="M1068 1673q0 -29 -22 -52.5t-51 -23.5q-21 0 -41 14l-178 118l-178 -118q-20 -14 -41 -14q-29 0 -51 23.5t-22 52.5q0 36 34 59l212 141q26 17 46 17t46 -17l212 -141q34 -23 34 -59zM1504 70q0 -29 -23.5 -50t-52.5 -21q-43 0 -63 41l-200 400q-12 -4 -26 -4h-726 q-14 0 -26 4l-200 -400q-20 -41 -62 -41q-30 0 -53.5 21t-23.5 50q0 18 9 35l648 1295q26 54 71 54t71 -54l648 -1295q9 -17 9 -35zM1094 581l-318 637l-318 -637h636z" />
<glyph unicode="&#xc3;" horiz-adv-x="1552" d="M1155 1747q0 -24 -17 -52q-58 -97 -202 -97q-82 0 -171 73t-120 73q-49 0 -76 -23q-17 -50 -67 -50q-75 0 -75 70q0 23 17 52q57 96 201 96q82 0 171 -72.5t120 -72.5q58 0 83.5 36.5t59.5 36.5q30 0 53 -20.5t23 -49.5zM1504 70q0 -29 -23.5 -50t-52.5 -21q-43 0 -63 41 l-200 400q-12 -4 -26 -4h-726q-14 0 -26 4l-200 -400q-20 -41 -62 -41q-30 0 -53.5 21t-23.5 50q0 18 9 35l648 1295q26 54 71 54t71 -54l648 -1295q9 -17 9 -35zM1094 581l-318 637l-318 -637h636z" />
<glyph unicode="&#xc4;" horiz-adv-x="1552" d="M1103 1708q0 -45 -32 -77.5t-77 -32.5t-76.5 32.5t-31.5 77.5t31.5 76.5t76.5 31.5t77 -31.5t32 -76.5zM668 1708q0 -45 -32.5 -77.5t-77.5 -32.5t-76.5 32.5t-31.5 77.5t31.5 76.5t76.5 31.5t77.5 -31.5t32.5 -76.5zM1504 70q0 -29 -23.5 -50t-52.5 -21q-43 0 -63 41 l-200 400q-12 -4 -26 -4h-726q-14 0 -26 4l-200 -400q-20 -41 -62 -41q-30 0 -53.5 21t-23.5 50q0 18 9 35l648 1295q26 54 71 54t71 -54l648 -1295q9 -17 9 -35zM1094 581l-318 637l-318 -637h636z" />
<glyph unicode="&#xc5;" horiz-adv-x="1552" d="M987 1677q0 -87 -62 -147.5t-149 -60.5t-149 60.5t-62 147.5q0 86 62 148t149 62t149 -62t62 -148zM1504 70q0 -29 -23.5 -50t-52.5 -21q-43 0 -63 41l-200 400q-12 -4 -26 -4h-726q-14 0 -26 4l-200 -400q-20 -41 -62 -41q-30 0 -53.5 21t-23.5 50q0 18 9 35l648 1295 q26 54 71 54t71 -54l648 -1295q9 -17 9 -35zM841 1677q0 65 -65 65t-65 -65q0 -62 65 -62t65 62zM1094 581l-318 637l-318 -637h636z" />
<glyph unicode="&#xc6;" horiz-adv-x="1842" d="M1793 1380q0 -72 -72 -72h-654v-509h508q73 0 73 -72q0 -73 -73 -73h-508v-509h654q72 0 72 -72q0 -73 -72 -73h-727q-29 0 -50.5 22t-21.5 51v363h-470l-269 -404q-22 -33 -59 -33q-29 0 -52.5 21.5t-23.5 50.5q0 22 14 42l872 1308q22 33 58 33l729 -1q72 0 72 -73z M922 581v560l-373 -560h373z" />
<glyph unicode="&#xc7;" horiz-adv-x="1360" d="M1311 263q0 -57 -127 -136q-99 -63 -182 -91q64 -79 64 -181q0 -120 -85.5 -205.5t-205.5 -85.5q-170 0 -252 146q-11 19 -11 38q0 29 23.5 50.5t52.5 21.5q28 0 75.5 -55.5t111.5 -55.5q60 0 102.5 43t42.5 103t-42.5 102.5t-102.5 42.5q-301 0 -514 213t-213 514 q0 300 213.5 513t513.5 213q136 0 279 -56q153 -60 234 -156q23 -27 23 -51q0 -30 -22.5 -52.5t-52.5 -22.5q-23 0 -50 23q-21 19 -65 55q-146 115 -346 115q-240 0 -410.5 -170.5t-170.5 -410.5q0 -241 170.5 -411.5t410.5 -170.5q200 0 346 115l65 55q27 23 50 23 q30 0 52.5 -22.5t22.5 -52.5z" />
<glyph unicode="&#xc8;" horiz-adv-x="1066" d="M800 1674q0 -30 -21 -53.5t-50 -23.5q-17 0 -35 9l-291 145q-40 21 -40 63q0 30 20.5 53t50.5 23q17 0 34 -9l291 -145q41 -20 41 -62zM1017 73q0 -73 -72 -73h-727q-29 0 -51 22t-22 51v1307q0 29 22 51t51 22h727q72 0 72 -73q0 -72 -72 -72h-654v-509h508q73 0 73 -72 q0 -73 -73 -73h-508v-509h654q72 0 72 -72z" />
<glyph unicode="&#xc9;" horiz-adv-x="1066" d="M800 1814q0 -42 -41 -63l-291 -145q-17 -9 -34 -9q-30 0 -50.5 23.5t-20.5 53.5q0 42 40 62l291 145q18 9 35 9q29 0 50 -23t21 -53zM1017 73q0 -73 -72 -73h-727q-29 0 -51 22t-22 51v1307q0 29 22 51t51 22h727q72 0 72 -73q0 -72 -72 -72h-654v-509h508q73 0 73 -72 q0 -73 -73 -73h-508v-509h654q72 0 72 -72z" />
<glyph unicode="&#xca;" horiz-adv-x="1066" d="M873 1673q0 -29 -21.5 -52.5t-51.5 -23.5q-21 0 -41 14l-178 118l-177 -118q-21 -14 -42 -14q-29 0 -50.5 23.5t-21.5 52.5q0 36 33 59l212 141q26 17 46 17t46 -17l213 -141q33 -23 33 -59zM1017 73q0 -73 -72 -73h-727q-29 0 -51 22t-22 51v1307q0 29 22 51t51 22h727 q72 0 72 -73q0 -72 -72 -72h-654v-509h508q73 0 73 -72q0 -73 -73 -73h-508v-509h654q72 0 72 -72z" />
<glyph unicode="&#xcb;" horiz-adv-x="1066" d="M909 1708q0 -45 -32.5 -77.5t-77.5 -32.5t-76.5 32.5t-31.5 77.5t31.5 76.5t76.5 31.5q46 0 78 -31.5t32 -76.5zM473 1708q0 -45 -32.5 -77.5t-77.5 -32.5t-76.5 32.5t-31.5 77.5t31.5 76.5t76.5 31.5q46 0 78 -31.5t32 -76.5zM1017 73q0 -73 -72 -73h-727q-29 0 -51 22 t-22 51v1307q0 29 22 51t51 22h727q72 0 72 -73q0 -72 -72 -72h-654v-509h508q73 0 73 -72q0 -73 -73 -73h-508v-509h654q72 0 72 -72z" />
<glyph unicode="&#xcc;" horiz-adv-x="436" d="M437 1674q0 -30 -21 -53.5t-51 -23.5q-17 0 -34 9l-291 145q-41 21 -41 63q0 30 21 53t50 23q18 0 35 -9l291 -145q41 -20 41 -62zM288 73q0 -73 -73 -73t-73 73v1307q0 73 73 73t73 -73v-1307z" />
<glyph unicode="&#xcd;" horiz-adv-x="436" d="M437 1814q0 -42 -41 -63l-291 -145q-17 -9 -35 -9q-29 0 -50 23.5t-21 53.5q0 42 41 62l291 145q17 9 34 9q30 0 51 -23t21 -53zM288 73q0 -73 -73 -73t-73 73v1307q0 73 73 73t73 -73v-1307z" />
<glyph unicode="&#xce;" horiz-adv-x="436" d="M510 1673q0 -29 -22 -52.5t-51 -23.5q-21 0 -41 14l-178 118l-178 -118q-20 -14 -41 -14q-29 0 -51 23.5t-22 52.5q0 36 34 59l212 141q26 17 46 17t46 -17l212 -141q34 -23 34 -59zM291 73q0 -73 -73 -73t-73 73v1307q0 73 73 73t73 -73v-1307z" />
<glyph unicode="&#xcf;" horiz-adv-x="436" d="M545 1708q0 -45 -32.5 -77.5t-77.5 -32.5t-76.5 32.5t-31.5 77.5t31.5 76.5t76.5 31.5q46 0 78 -31.5t32 -76.5zM109 1708q0 -45 -32.5 -77.5t-76.5 -32.5q-46 0 -77.5 32.5t-31.5 77.5t31.5 76.5t77.5 31.5q45 0 77 -31.5t32 -76.5zM290 73q0 -73 -73 -73q-72 0 -72 73 v1307q0 73 72 73q73 0 73 -73v-1307z" />
<glyph unicode="&#xd0;" horiz-adv-x="1502" d="M1453 727q0 -301 -213 -514t-513 -213h-436q-29 0 -51 22t-22 51v581h-145q-73 0 -73 73q0 72 73 72h145v581q0 29 22 51t51 22h436q300 0 513 -213t213 -513zM1308 727q0 240 -170.5 410.5t-410.5 170.5h-364v-509h146q72 0 72 -72q0 -73 -72 -73h-146v-509h364 q240 0 410.5 170.5t170.5 411.5z" />
<glyph unicode="&#xd1;" horiz-adv-x="1456" d="M1092 1747q0 -24 -17 -52q-57 -97 -202 -97q-82 0 -171 73t-120 73q-48 0 -76 -23q-16 -50 -67 -50q-75 0 -75 70q0 23 17 52q57 96 201 96q82 0 171.5 -72.5t119.5 -72.5q59 0 84 36.5t59 36.5q30 0 53 -20.5t23 -49.5zM1310 73q0 -74 -75 -74q-34 0 -64 39l-879 1131 v-1096q0 -73 -73 -73q-72 0 -72 73l-2 1307q0 74 76 74q33 0 63 -39l880 -1131v1096q0 73 72 73q73 0 73 -73z" />
<glyph unicode="&#xd2;" horiz-adv-x="1550" d="M1008 1674q0 -30 -21 -53.5t-50 -23.5q-17 0 -35 9l-290 145q-41 21 -41 63q0 30 21 53t50 23q17 0 35 -9l290 -145q41 -20 41 -62zM1502 727q0 -301 -213.5 -514t-513.5 -213t-513.5 213t-213.5 514q0 300 213.5 513t513.5 213t513.5 -213t213.5 -513zM1356 727 q0 240 -170.5 410.5t-410.5 170.5t-410.5 -170.5t-170.5 -410.5q0 -241 170.5 -411.5t410.5 -170.5t410.5 170.5t170.5 411.5z" />
<glyph unicode="&#xd3;" horiz-adv-x="1550" d="M1008 1814q0 -42 -41 -63l-290 -145q-18 -9 -35 -9q-29 0 -50 23.5t-21 53.5q0 42 41 62l290 145q18 9 35 9q29 0 50 -23t21 -53zM1502 727q0 -301 -213.5 -514t-513.5 -213t-513.5 213t-213.5 514q0 300 213.5 513t513.5 213t513.5 -213t213.5 -513zM1356 727 q0 240 -170.5 410.5t-410.5 170.5t-410.5 -170.5t-170.5 -410.5q0 -241 170.5 -411.5t410.5 -170.5t410.5 170.5t170.5 411.5z" />
<glyph unicode="&#xd4;" horiz-adv-x="1550" d="M1067 1673q0 -29 -22 -52.5t-51 -23.5q-21 0 -41 14l-178 118l-178 -118q-20 -14 -41 -14q-29 0 -51 23.5t-22 52.5q0 36 34 59l212 141q26 17 46 17t46 -17l212 -141q34 -23 34 -59zM1502 727q0 -301 -213.5 -514t-513.5 -213t-513.5 213t-213.5 514q0 300 213.5 513 t513.5 213t513.5 -213t213.5 -513zM1356 727q0 240 -170.5 410.5t-410.5 170.5t-410.5 -170.5t-170.5 -410.5q0 -241 170.5 -411.5t410.5 -170.5t410.5 170.5t170.5 411.5z" />
<glyph unicode="&#xd5;" horiz-adv-x="1550" d="M1153 1747q0 -24 -17 -52q-57 -97 -201 -97q-82 0 -171 73t-120 73q-49 0 -76 -23q-17 -50 -67 -50q-75 0 -75 70q0 23 17 52q57 96 201 96q82 0 171 -72.5t120 -72.5q58 0 83.5 36.5t59.5 36.5q30 0 52.5 -20.5t22.5 -49.5zM1502 727q0 -301 -213.5 -514t-513.5 -213 t-513.5 213t-213.5 514q0 300 213.5 513t513.5 213t513.5 -213t213.5 -513zM1356 727q0 240 -170.5 410.5t-410.5 170.5t-410.5 -170.5t-170.5 -410.5q0 -241 170.5 -411.5t410.5 -170.5t410.5 170.5t170.5 411.5z" />
<glyph unicode="&#xd6;" horiz-adv-x="1550" d="M1102 1708q0 -45 -32 -77.5t-77 -32.5t-77 32.5t-32 77.5t32 76.5t77 31.5t77 -31.5t32 -76.5zM667 1708q0 -45 -32.5 -77.5t-77.5 -32.5t-76.5 32.5t-31.5 77.5t31.5 76.5t76.5 31.5t77.5 -31.5t32.5 -76.5zM1502 727q0 -301 -213.5 -514t-513.5 -213t-513.5 213 t-213.5 514q0 300 213.5 513t513.5 213t513.5 -213t213.5 -513zM1356 727q0 240 -170.5 410.5t-410.5 170.5t-410.5 -170.5t-170.5 -410.5q0 -241 170.5 -411.5t410.5 -170.5t410.5 170.5t170.5 411.5z" />
<glyph unicode="&#xd7;" d="M939 201q0 -29 -22.5 -52t-51.5 -23t-51 23l-257 257l-257 -257q-22 -23 -51 -23t-51.5 23t-22.5 52q0 28 22 51l257 257l-257 256q-22 23 -22 51q0 30 22.5 52.5t51.5 22.5t51 -23l257 -257l257 257q22 23 51 23t51.5 -22.5t22.5 -52.5q0 -28 -22 -51l-257 -256 l257 -257q22 -23 22 -51z" />
<glyph unicode="&#xd8;" horiz-adv-x="1553" d="M1504 1380q0 -28 -22 -51l-143 -143q164 -200 164 -459q0 -301 -213 -514t-514 -213q-259 0 -460 164l-142 -143q-23 -22 -51 -22q-29 0 -52 22.5t-23 51.5q0 28 23 51l143 143q-164 200 -164 460q0 300 213 513t513 213q260 0 460 -164l143 143q22 22 51 22t51.5 -22.5 t22.5 -51.5zM1133 1186q-157 122 -357 122q-240 0 -410.5 -170.5t-170.5 -410.5q0 -200 122 -357zM1358 727q0 199 -123 356l-815 -816q157 -122 356 -122q241 0 411.5 170.5t170.5 411.5z" />
<glyph unicode="&#xd9;" horiz-adv-x="1211" d="M824 1674q0 -30 -21 -53.5t-50 -23.5q-17 0 -35 9l-290 145q-41 21 -41 63q0 30 21 53t50 23q17 0 35 -9l290 -145q41 -20 41 -62zM1114 509q0 -211 -149 -360t-360 -149q-210 0 -359 149t-149 360v871q0 73 73 73q72 0 72 -73v-871q0 -150 107 -257t256 -107 q150 0 257 107t107 257v871q0 73 72 73q73 0 73 -73v-871z" />
<glyph unicode="&#xda;" horiz-adv-x="1211" d="M824 1814q0 -42 -41 -63l-290 -145q-18 -9 -35 -9q-29 0 -50 23.5t-21 53.5q0 42 41 62l290 145q18 9 35 9q29 0 50 -23t21 -53zM1114 509q0 -211 -149 -360t-360 -149q-210 0 -359 149t-149 360v871q0 73 73 73q72 0 72 -73v-871q0 -150 107 -257t256 -107 q150 0 257 107t107 257v871q0 73 72 73q73 0 73 -73v-871z" />
<glyph unicode="&#xdb;" horiz-adv-x="1211" d="M897 1673q0 -29 -21.5 -52.5t-50.5 -23.5q-22 0 -42 14l-178 118l-177 -118q-20 -14 -42 -14q-29 0 -50.5 23.5t-21.5 52.5q0 36 33 59l212 141q26 17 46 17q21 0 47 -17l212 -141q33 -23 33 -59zM1114 509q0 -211 -149 -360t-360 -149q-210 0 -359 149t-149 360v871 q0 73 73 73q72 0 72 -73v-871q0 -150 107 -257t256 -107q150 0 257 107t107 257v871q0 73 72 73q73 0 73 -73v-871z" />
<glyph unicode="&#xdc;" horiz-adv-x="1211" d="M933 1708q0 -45 -32.5 -77.5t-77.5 -32.5t-76.5 32.5t-31.5 77.5t31.5 76.5t76.5 31.5q46 0 78 -31.5t32 -76.5zM497 1708q0 -45 -32.5 -77.5t-77.5 -32.5t-76.5 32.5t-31.5 77.5t31.5 76.5t76.5 31.5q46 0 78 -31.5t32 -76.5zM1114 509q0 -211 -149 -360t-360 -149 q-210 0 -359 149t-149 360v871q0 73 73 73q72 0 72 -73v-871q0 -150 107 -257t256 -107q150 0 257 107t107 257v871q0 73 72 73q73 0 73 -73v-871z" />
<glyph unicode="&#xdd;" horiz-adv-x="1214" d="M850 1814q0 -42 -41 -63l-291 -145q-17 -9 -34 -9q-30 0 -51 23.5t-21 53.5q0 42 41 62l291 145q17 9 34 9q30 0 51 -23t21 -53zM1214 1381q0 -24 -17 -45l-493 -634v-629q0 -73 -73 -73t-73 73v629l-493 634q-17 21 -17 45q0 29 23.5 51t52.5 22q33 0 56 -29l451 -580 l451 580q23 29 56 29q29 0 52.5 -22t23.5 -51z" />
<glyph unicode="&#xde;" horiz-adv-x="1211" d="M1163 727q0 -211 -149.5 -360t-359.5 -149h-363v-145q0 -73 -73 -73t-73 73v1307q0 73 73 73t73 -73v-145h363q210 0 359.5 -149t149.5 -359zM1017 727q0 149 -106.5 256t-256.5 107h-363v-727h363q150 0 256.5 107t106.5 257z" />
<glyph unicode="&#xdf;" horiz-adv-x="1122" d="M1073 327q0 -135 -96 -231t-231 -96q-101 0 -185 58t-120 152q-6 15 -6 29q0 30 23 50.5t53 20.5q34 0 62 -43q46 -68 57 -79q45 -43 116 -43q75 0 128.5 53.5t53.5 128.5q0 164 -186 182q-113 10 -182 74q-73 69 -73 180q0 106 93.5 193t93.5 175q0 73 -52 125t-126 52 q-84 0 -144.5 -60.5t-60.5 -145.5v-1029q0 -73 -73 -73t-73 73v1029q0 145 103.5 248t247.5 103q134 0 228.5 -94.5t94.5 -227.5q0 -105 -48 -179q-18 -28 -90 -100q-48 -48 -48 -89q0 -97 113 -109q147 -15 234 -96q93 -87 93 -231z" />
<glyph unicode="&#xe0;" horiz-adv-x="872" d="M630 1238q0 -30 -20.5 -53.5t-50.5 -23.5q-17 0 -34 9l-291 145q-41 21 -41 63q0 30 21 53t50 23q17 0 35 -9l291 -145q40 -20 40 -62zM775 73q0 -73 -73 -73t-72 73q-97 -73 -218 -73q-150 0 -257 106.5t-107 256.5t107 257t257 107q121 0 218 -73q0 90 -64 154t-154 64 q-63 0 -126.5 -43.5t-78.5 -43.5q-30 0 -52.5 22.5t-22.5 52.5q0 24 23 51q89 106 257 106q150 0 256.5 -106.5t106.5 -256.5v-581zM630 363q0 90 -64 154t-154 64t-154 -64t-64 -154t64 -154t154 -64t154 64t64 154z" />
<glyph unicode="&#xe1;" horiz-adv-x="872" d="M630 1378q0 -42 -40 -63l-291 -145q-18 -9 -35 -9q-29 0 -50 23.5t-21 53.5q0 42 41 62l291 145q17 9 34 9q30 0 50.5 -23t20.5 -53zM775 73q0 -73 -73 -73t-72 73q-97 -73 -218 -73q-150 0 -257 106.5t-107 256.5t107 257t257 107q121 0 218 -73q0 90 -64 154t-154 64 q-63 0 -126.5 -43.5t-78.5 -43.5q-30 0 -52.5 22.5t-22.5 52.5q0 24 23 51q89 106 257 106q150 0 256.5 -106.5t106.5 -256.5v-581zM630 363q0 90 -64 154t-154 64t-154 -64t-64 -154t64 -154t154 -64t154 64t64 154z" />
<glyph unicode="&#xe2;" horiz-adv-x="872" d="M703 1237q0 -29 -21.5 -52.5t-50.5 -23.5q-21 0 -42 14l-177 118l-178 -118q-20 -14 -41 -14q-30 0 -51.5 23.5t-21.5 52.5q0 36 33 59l213 141q26 17 46 17t46 -17l212 -141q33 -23 33 -59zM775 73q0 -73 -73 -73t-72 73q-97 -73 -218 -73q-150 0 -257 106.5t-107 256.5 t107 257t257 107q121 0 218 -73q0 90 -64 154t-154 64q-63 0 -126.5 -43.5t-78.5 -43.5q-30 0 -52.5 22.5t-22.5 52.5q0 24 23 51q89 106 257 106q150 0 256.5 -106.5t106.5 -256.5v-581zM630 363q0 90 -64 154t-154 64t-154 -64t-64 -154t64 -154t154 -64t154 64t64 154z " />
<glyph unicode="&#xe3;" horiz-adv-x="873" d="M776 1311q0 -24 -17 -52q-57 -96 -201 -96q-82 0 -171 72.5t-120 72.5q-49 0 -76 -23q-17 -50 -67 -50q-76 0 -76 70q0 23 17 52q58 96 202 96q82 0 171 -72.5t120 -72.5q58 0 83 36.5t60 36.5q30 0 52.5 -20.5t22.5 -49.5zM776 73q0 -73 -73 -73t-73 73 q-96 -73 -218 -73q-149 0 -256 106.5t-107 256.5t107 257t256 107q122 0 218 -73q0 90 -64 154t-154 64q-63 0 -126 -43.5t-79 -43.5q-29 0 -51.5 22.5t-22.5 52.5q0 24 22 51q90 106 257 106q150 0 257 -106.5t107 -256.5v-581zM630 363q0 90 -64 154t-154 64 q-89 0 -153.5 -64t-64.5 -154t64.5 -154t153.5 -64q90 0 154 64t64 154z" />
<glyph unicode="&#xe4;" horiz-adv-x="872" d="M739 1272q0 -45 -32 -77t-77 -32t-77 32t-32 77t31.5 76.5t77.5 31.5q45 0 77 -31.5t32 -76.5zM303 1272q0 -45 -32 -77t-77 -32t-77 32t-32 77t31.5 76.5t77.5 31.5q45 0 77 -31.5t32 -76.5zM775 73q0 -73 -73 -73t-72 73q-97 -73 -218 -73q-150 0 -257 106.5 t-107 256.5t107 257t257 107q121 0 218 -73q0 90 -64 154t-154 64q-63 0 -126.5 -43.5t-78.5 -43.5q-30 0 -52.5 22.5t-22.5 52.5q0 24 23 51q89 106 257 106q150 0 256.5 -106.5t106.5 -256.5v-581zM630 363q0 90 -64 154t-154 64t-154 -64t-64 -154t64 -154t154 -64 t154 64t64 154z" />
<glyph unicode="&#xe5;" horiz-adv-x="872" d="M622 1270q0 -87 -61.5 -147t-148.5 -60t-149 60t-62 147q0 86 62 148t149 62q86 0 148 -62t62 -148zM775 73q0 -73 -73 -73t-72 73q-97 -73 -218 -73q-150 0 -257 106.5t-107 256.5t107 257t257 107q121 0 218 -73q0 90 -64 154t-154 64q-63 0 -126.5 -43.5t-78.5 -43.5 q-30 0 -52.5 22.5t-22.5 52.5q0 24 23 51q89 106 257 106q150 0 256.5 -106.5t106.5 -256.5v-581zM477 1270q0 65 -65 65q-66 0 -66 -65q0 -62 66 -62q65 0 65 62zM630 363q0 90 -64 154t-154 64t-154 -64t-64 -154t64 -154t154 -64t154 64t64 154z" />
<glyph unicode="&#xe6;" horiz-adv-x="1638" d="M1590 292q0 -17 -11 -38q-59 -114 -186 -185q-122 -69 -255 -69q-250 0 -403 198q-46 -91 -133.5 -144.5t-189.5 -53.5q-150 0 -257 106.5t-107 256.5t107 257t257 107q121 0 218 -73q0 90 -64 154t-154 64q-64 0 -126.5 -43.5t-78.5 -43.5q-30 0 -52.5 22.5t-22.5 52.5 q0 24 23 51q90 106 257 106q102 0 189.5 -53.5t133.5 -144.5q153 198 403 198q81 0 170 -32.5t174 -101.5q106 -85 106 -160q0 -39 -36 -59l-686 -396q109 -123 272 -123q166 0 271 121q14 21 44 61q28 37 61 37q29 0 52.5 -21t23.5 -51zM1410 749q-108 123 -272 123 q-150 0 -256.5 -107t-106.5 -256q0 -60 19 -116zM630 363q0 90 -64 154t-154 64t-154 -64t-64 -154t64 -154t154 -64t154 64t64 154z" />
<glyph unicode="&#xe7;" horiz-adv-x="988" d="M939 818q0 -30 -22.5 -52.5t-52.5 -22.5q-9 0 -107.5 64.5t-199.5 64.5q-150 0 -256.5 -107t-106.5 -256q0 -150 106.5 -257t256.5 -107q100 0 198.5 64.5t108.5 64.5q29 0 51.5 -23t22.5 -52q0 -73 -164 -151q74 -82 74 -193q0 -120 -85.5 -205.5t-205.5 -85.5 q-173 0 -252 146q-11 20 -11 38q0 29 23.5 50.5t52.5 21.5t75.5 -55.5t111.5 -55.5q60 0 102.5 43t42.5 103t-42.5 102.5t-102.5 42.5q-210 0 -359.5 149t-149.5 360q0 210 149.5 359t359.5 149q95 0 195 -39q108 -42 164 -110q23 -27 23 -50z" />
<glyph unicode="&#xe8;" horiz-adv-x="1057" d="M776 1238q0 -30 -21 -53.5t-50 -23.5q-18 0 -35 9l-291 145q-41 21 -41 63q0 30 21 53t51 23q17 0 34 -9l291 -145q41 -20 41 -62zM1008 292q0 -17 -10 -38q-61 -115 -184.5 -184.5t-256.5 -69.5q-210 0 -359.5 149t-149.5 360q0 210 149.5 359t359.5 149q75 0 157 -28 q93 -32 182 -102q111 -87 111 -164q0 -39 -36 -59l-686 -396q108 -123 272 -123q172 0 274 125q13 19 41.5 56.5t59.5 37.5q30 0 53 -21t23 -51zM829 749q-109 123 -272 123q-150 0 -256.5 -107t-106.5 -256q0 -60 18 -116z" />
<glyph unicode="&#xe9;" horiz-adv-x="1057" d="M776 1378q0 -42 -41 -63l-291 -145q-17 -9 -34 -9q-30 0 -51 23.5t-21 53.5q0 42 41 62l291 145q17 9 35 9q29 0 50 -23t21 -53zM1008 292q0 -17 -10 -38q-61 -115 -184.5 -184.5t-256.5 -69.5q-210 0 -359.5 149t-149.5 360q0 210 149.5 359t359.5 149q75 0 157 -28 q93 -32 182 -102q111 -87 111 -164q0 -39 -36 -59l-686 -396q108 -123 272 -123q172 0 274 125q13 19 41.5 56.5t59.5 37.5q30 0 53 -21t23 -51zM829 749q-109 123 -272 123q-150 0 -256.5 -107t-106.5 -256q0 -60 18 -116z" />
<glyph unicode="&#xea;" horiz-adv-x="1057" d="M849 1237q0 -29 -22 -52.5t-51 -23.5q-21 0 -41 14l-178 118l-178 -118q-20 -14 -41 -14q-29 0 -51 23.5t-22 52.5q0 36 34 59l212 141q26 17 46 17t46 -17l212 -141q34 -23 34 -59zM1008 292q0 -17 -10 -38q-61 -115 -184.5 -184.5t-256.5 -69.5q-210 0 -359.5 149 t-149.5 360q0 210 149.5 359t359.5 149q75 0 157 -28q93 -32 182 -102q111 -87 111 -164q0 -39 -36 -59l-686 -396q108 -123 272 -123q172 0 274 125q13 19 41.5 56.5t59.5 37.5q30 0 53 -21t23 -51zM829 749q-109 123 -272 123q-150 0 -256.5 -107t-106.5 -256 q0 -60 18 -116z" />
<glyph unicode="&#xeb;" horiz-adv-x="1057" d="M884 1272q0 -45 -32 -77t-77 -32t-77 32t-32 77t32 76.5t77 31.5t77 -31.5t32 -76.5zM449 1272q0 -45 -32.5 -77t-77.5 -32t-76.5 32t-31.5 77t31.5 76.5t76.5 31.5t77.5 -31.5t32.5 -76.5zM1008 292q0 -17 -10 -38q-61 -115 -184.5 -184.5t-256.5 -69.5 q-210 0 -359.5 149t-149.5 360q0 210 149.5 359t359.5 149q75 0 157 -28q93 -32 182 -102q111 -87 111 -164q0 -39 -36 -59l-686 -396q108 -123 272 -123q172 0 274 125q13 19 41.5 56.5t59.5 37.5q30 0 53 -21t23 -51zM829 749q-109 123 -272 123q-150 0 -256.5 -107 t-106.5 -256q0 -60 18 -116z" />
<glyph unicode="&#xec;" horiz-adv-x="436" d="M437 1238q0 -30 -21 -53.5t-51 -23.5q-17 0 -34 9l-291 145q-41 21 -41 63q0 30 21 53t50 23q18 0 35 -9l291 -145q41 -20 41 -62zM291 945v-872q0 -73 -73 -73t-73 73v872q0 72 73 72t73 -72z" />
<glyph unicode="&#xed;" horiz-adv-x="436" d="M437 1378q0 -42 -41 -63l-291 -145q-17 -9 -35 -9q-29 0 -50 23.5t-21 53.5q0 42 41 62l291 145q17 9 34 9q30 0 51 -23t21 -53zM291 945v-872q0 -73 -73 -73t-73 73v872q0 72 73 72t73 -72z" />
<glyph unicode="&#xee;" horiz-adv-x="436" d="M510 1237q0 -29 -22 -52.5t-51 -23.5q-21 0 -41 14l-178 118l-178 -118q-20 -14 -41 -14q-29 0 -51 23.5t-22 52.5q0 36 34 59l212 141q26 17 46 17t46 -17l212 -141q34 -23 34 -59zM291 945v-872q0 -73 -73 -73t-73 73v872q0 72 73 72t73 -72z" />
<glyph unicode="&#xef;" horiz-adv-x="436" d="M545 1272q0 -45 -32.5 -77t-77.5 -32t-76.5 32t-31.5 77t31.5 76.5t76.5 31.5q46 0 78 -31.5t32 -76.5zM109 1272q0 -45 -32.5 -77t-76.5 -32q-46 0 -77.5 32t-31.5 77t31.5 76.5t77.5 31.5q45 0 77 -31.5t32 -76.5zM290 945v-872q0 -73 -73 -73q-72 0 -72 73v872 q0 72 72 72q73 0 73 -72z" />
<glyph unicode="&#xf0;" d="M1066 509q0 -211 -149.5 -360t-359.5 -149t-359.5 149t-149.5 360t152 363q146 145 347 145h16l-145 146h-224q-73 0 -73 72q0 56 53 69q18 4 74 4h24q-44 37 -44 72q0 29 22.5 51.5t52.5 22.5q28 0 51 -22l124 -124h442q73 0 73 -73q0 -72 -73 -72h-297l300 -300 q143 -142 143 -354zM920 509q0 149 -106.5 256t-256.5 107t-256.5 -107t-106.5 -256q0 -150 106.5 -257t256.5 -107t256.5 107t106.5 257z" />
<glyph unicode="&#xf1;" horiz-adv-x="970" d="M873 1311q0 -24 -17 -52q-57 -96 -201 -96q-82 0 -171.5 72.5t-119.5 72.5q-49 0 -76 -23q-17 -50 -67 -50q-76 0 -76 70q0 23 17 52q57 96 202 96q82 0 171 -72.5t120 -72.5q58 0 83 36.5t60 36.5q30 0 52.5 -20.5t22.5 -49.5zM873 73q0 -73 -73 -73t-73 73v581 q0 90 -64 154t-154 64t-154 -64t-64 -154v-581q0 -73 -72 -73q-73 0 -73 73v872q0 72 73 72t72 -72q97 72 218 72q150 0 257 -106.5t107 -256.5v-581z" />
<glyph unicode="&#xf2;" d="M776 1238q0 -30 -21 -53.5t-50 -23.5q-18 0 -35 9l-291 145q-41 21 -41 63q0 30 21 53t51 23q17 0 34 -9l291 -145q41 -20 41 -62zM1066 509q0 -211 -149.5 -360t-359.5 -149t-359.5 149t-149.5 360q0 210 149.5 359t359.5 149t359.5 -149t149.5 -359zM920 509 q0 149 -106.5 256t-256.5 107t-256.5 -107t-106.5 -256q0 -150 106.5 -257t256.5 -107t256.5 107t106.5 257z" />
<glyph unicode="&#xf3;" d="M776 1378q0 -42 -41 -63l-291 -145q-17 -9 -34 -9q-30 0 -51 23.5t-21 53.5q0 42 41 62l291 145q17 9 35 9q29 0 50 -23t21 -53zM1066 509q0 -211 -149.5 -360t-359.5 -149t-359.5 149t-149.5 360q0 210 149.5 359t359.5 149t359.5 -149t149.5 -359zM920 509 q0 149 -106.5 256t-256.5 107t-256.5 -107t-106.5 -256q0 -150 106.5 -257t256.5 -107t256.5 107t106.5 257z" />
<glyph unicode="&#xf4;" d="M849 1237q0 -29 -22 -52.5t-51 -23.5q-21 0 -41 14l-178 118l-178 -118q-20 -14 -41 -14q-29 0 -51 23.5t-22 52.5q0 36 34 59l212 141q26 17 46 17t46 -17l212 -141q34 -23 34 -59zM1066 509q0 -211 -149.5 -360t-359.5 -149t-359.5 149t-149.5 360q0 210 149.5 359 t359.5 149t359.5 -149t149.5 -359zM920 509q0 149 -106.5 256t-256.5 107t-256.5 -107t-106.5 -256q0 -150 106.5 -257t256.5 -107t256.5 107t106.5 257z" />
<glyph unicode="&#xf5;" d="M921 1311q0 -24 -17 -52q-57 -96 -202 -96q-81 0 -170.5 72.5t-119.5 72.5q-49 0 -77 -23q-16 -50 -66 -50q-76 0 -76 70q0 23 17 52q57 96 202 96q81 0 170.5 -72.5t119.5 -72.5q59 0 84 36.5t59 36.5q30 0 53 -20.5t23 -49.5zM1066 509q0 -211 -149.5 -360t-359.5 -149 t-359.5 149t-149.5 360q0 210 149.5 359t359.5 149t359.5 -149t149.5 -359zM920 509q0 149 -106.5 256t-256.5 107t-256.5 -107t-106.5 -256q0 -150 106.5 -257t256.5 -107t256.5 107t106.5 257z" />
<glyph unicode="&#xf6;" d="M884 1272q0 -45 -32 -77t-77 -32t-77 32t-32 77t32 76.5t77 31.5t77 -31.5t32 -76.5zM449 1272q0 -45 -32.5 -77t-77.5 -32t-76.5 32t-31.5 77t31.5 76.5t76.5 31.5t77.5 -31.5t32.5 -76.5zM1066 509q0 -211 -149.5 -360t-359.5 -149t-359.5 149t-149.5 360 q0 210 149.5 359t359.5 149t359.5 -149t149.5 -359zM920 509q0 149 -106.5 256t-256.5 107t-256.5 -107t-106.5 -256q0 -150 106.5 -257t256.5 -107t256.5 107t106.5 257z" />
<glyph unicode="&#xf7;" d="M667 1019q0 -45 -32.5 -78t-77.5 -33t-77.5 33t-32.5 78t32.5 76t77.5 31t77.5 -31t32.5 -76zM920 618q0 -73 -72 -73h-582q-72 0 -72 73q0 72 72 72h582q72 0 72 -72zM667 219q0 -45 -32.5 -77.5t-77.5 -32.5t-77.5 32.5t-32.5 77.5q0 46 32.5 77t77.5 31t77.5 -31 t32.5 -77z" />
<glyph unicode="&#xf8;" horiz-adv-x="1117" d="M1068 944q0 -34 -102 -131q101 -135 101 -304q0 -211 -149 -360t-360 -149q-169 0 -304 101q-97 -102 -131 -102q-29 0 -52 22.5t-23 51.5q0 34 103 131q-101 135 -101 305q0 210 149 359t359 149q170 0 305 -101q97 102 131 102q29 0 51.5 -22.5t22.5 -51.5zM759 812 q-91 60 -201 60q-149 0 -256 -107t-107 -256q0 -110 60 -201zM922 509q0 109 -61 200l-503 -503q91 -61 200 -61q150 0 257 107t107 257z" />
<glyph unicode="&#xf9;" horiz-adv-x="920" d="M679 1238q0 -30 -21 -53.5t-50 -23.5q-18 0 -35 9l-291 145q-41 21 -41 63q0 30 21 53t51 23q17 0 34 -9l291 -145q41 -20 41 -62zM823 363q0 -150 -106.5 -256.5t-256.5 -106.5t-256.5 106.5t-106.5 256.5v582q0 72 73 72q72 0 72 -72v-582q0 -90 64 -154t154 -64 t154 64t64 154v582q0 72 73 72q72 0 72 -72v-582z" />
<glyph unicode="&#xfa;" horiz-adv-x="920" d="M679 1378q0 -42 -41 -63l-291 -145q-17 -9 -34 -9q-30 0 -51 23.5t-21 53.5q0 42 41 62l291 145q17 9 35 9q29 0 50 -23t21 -53zM823 363q0 -150 -106.5 -256.5t-256.5 -106.5t-256.5 106.5t-106.5 256.5v582q0 72 73 72q72 0 72 -72v-582q0 -90 64 -154t154 -64t154 64 t64 154v582q0 72 73 72q72 0 72 -72v-582z" />
<glyph unicode="&#xfb;" horiz-adv-x="920" d="M752 1237q0 -29 -21.5 -52.5t-51.5 -23.5q-21 0 -41 14l-178 118l-178 -118q-20 -14 -41 -14q-29 0 -51 23.5t-22 52.5q0 36 34 59l212 141q26 17 46 17t46 -17l212 -141q34 -23 34 -59zM823 363q0 -150 -106.5 -256.5t-256.5 -106.5t-256.5 106.5t-106.5 256.5v582 q0 72 73 72q72 0 72 -72v-582q0 -90 64 -154t154 -64t154 64t64 154v582q0 72 73 72q72 0 72 -72v-582z" />
<glyph unicode="&#xfc;" horiz-adv-x="920" d="M788 1272q0 -45 -32.5 -77t-77.5 -32t-76.5 32t-31.5 77t31.5 76.5t76.5 31.5t77.5 -31.5t32.5 -76.5zM352 1272q0 -45 -32.5 -77t-77.5 -32t-76.5 32t-31.5 77t31.5 76.5t76.5 31.5t77.5 -31.5t32.5 -76.5zM823 363q0 -150 -106.5 -256.5t-256.5 -106.5t-256.5 106.5 t-106.5 256.5v582q0 72 73 72q72 0 72 -72v-582q0 -90 64 -154t154 -64t154 64t64 154v582q0 72 73 72q72 0 72 -72v-582z" />
<glyph unicode="&#xfd;" horiz-adv-x="969" d="M679 1378q0 -42 -41 -63l-291 -145q-17 -9 -34 -9q-30 0 -51 23.5t-21 53.5q0 42 41 62l291 145q17 9 35 9q29 0 50 -23t21 -53zM823 -73q0 -149 -106.5 -256t-256.5 -107q-94 0 -181 49q-90 50 -133 131q-11 22 -11 39q0 29 23.5 50.5t52.5 21.5q25 0 90.5 -73 t158.5 -73q90 0 154 64t64 154v146q-97 -73 -218 -73q-150 0 -256.5 106.5t-106.5 256.5v582q0 72 73 72q72 0 72 -72v-582q0 -90 64 -154t154 -64t154 64t64 154v582q0 72 73 72q72 0 72 -72v-1018z" />
<glyph unicode="&#xfe;" horiz-adv-x="1211" d="M1163 509q0 -211 -149.5 -360t-359.5 -149q-214 0 -363 153v-516q0 -73 -73 -73t-73 73v1743q0 73 73 73t73 -73v-515q149 152 363 152q210 0 359.5 -149t149.5 -359zM1017 509q0 149 -106.5 256t-256.5 107t-256.5 -107t-106.5 -256q0 -150 106.5 -257t256.5 -107 t256.5 107t106.5 257z" />
<glyph unicode="&#xff;" horiz-adv-x="969" d="M788 1259q0 -45 -32.5 -77t-77.5 -32t-76.5 32t-31.5 77q0 46 31.5 77.5t76.5 31.5t77.5 -32t32.5 -77zM352 1259q0 -45 -32.5 -77t-77.5 -32t-76.5 32t-31.5 77q0 46 31.5 77.5t76.5 31.5t77.5 -32t32.5 -77zM823 -73q0 -149 -106.5 -256t-256.5 -107q-94 0 -181 49 q-90 50 -133 131q-11 22 -11 39q0 29 23.5 50.5t52.5 21.5q25 0 90.5 -73t158.5 -73q90 0 154 64t64 154v146q-97 -73 -218 -73q-150 0 -256.5 106.5t-106.5 256.5v582q0 72 73 72q72 0 72 -72v-582q0 -90 64 -154t154 -64t154 64t64 154v582q0 72 73 72q72 0 72 -72v-1018z " />
<glyph unicode="&#x100;" horiz-adv-x="1552" d="M1503 1744q0 -73 -73 -73h-1308q-73 0 -73 73q0 72 73 72h1308q73 0 73 -72zM1504 70q0 -29 -23.5 -50t-52.5 -21q-43 0 -63 41l-200 400q-12 -4 -26 -4h-726q-14 0 -26 4l-200 -400q-20 -41 -62 -41q-30 0 -53.5 21t-23.5 50q0 18 9 35l648 1295q26 54 71 54t71 -54 l648 -1295q9 -17 9 -35zM1094 581l-318 637l-318 -637h636z" />
<glyph unicode="&#x101;" horiz-adv-x="823" d="M775 1308q0 -73 -73 -73h-581q-73 0 -73 73q0 72 73 72h581q73 0 73 -72zM775 73q0 -73 -73 -73t-72 73q-97 -73 -218 -73q-150 0 -257 106.5t-107 256.5t107 257t257 107q121 0 218 -73q0 90 -64 154t-154 64q-63 0 -126.5 -43.5t-78.5 -43.5q-30 0 -52.5 22.5 t-22.5 52.5q0 24 23 51q89 106 257 106q150 0 256.5 -106.5t106.5 -256.5v-581zM630 363q0 90 -64 154t-154 64t-154 -64t-64 -154t64 -154t154 -64t154 64t64 154z" />
<glyph unicode="&#x102;" horiz-adv-x="1552" d="M1069 1818q0 -26 -36 -70q-122 -150 -257 -150q-75 0 -159 56q-80 53 -119 122q-14 23 -14 42q0 29 23.5 50.5t52.5 21.5t93.5 -73t122.5 -73q57 0 121.5 73t94.5 73t53.5 -21.5t23.5 -50.5zM1504 70q0 -29 -23.5 -50t-52.5 -21q-43 0 -63 41l-200 400q-12 -4 -26 -4 h-726q-14 0 -26 4l-200 -400q-20 -41 -62 -41q-30 0 -53.5 21t-23.5 50q0 18 9 35l648 1295q26 54 71 54t71 -54l648 -1295q9 -17 9 -35zM1094 581l-318 637l-318 -637h636z" />
<glyph unicode="&#x103;" horiz-adv-x="823" d="M705 1381q0 -28 -42 -72q-133 -144 -257 -144q-73 0 -152 54q-70 48 -117 116q-17 25 -17 46q0 29 23 51t52 22q31 0 95.5 -72t120.5 -72q57 0 122 72t95 72t53.5 -22t23.5 -51zM775 73q0 -73 -73 -73t-72 73q-97 -73 -218 -73q-150 0 -257 106.5t-107 256.5t107 257 t257 107q121 0 218 -73q0 90 -64 154t-154 64q-63 0 -126.5 -43.5t-78.5 -43.5q-30 0 -52.5 22.5t-22.5 52.5q0 24 23 51q89 106 257 106q150 0 256.5 -106.5t106.5 -256.5v-581zM630 363q0 90 -64 154t-154 64t-154 -64t-64 -154t64 -154t154 -64t154 64t64 154z" />
<glyph unicode="&#x104;" horiz-adv-x="1741" d="M1693 -252q0 -17 -11 -38q-35 -66 -105.5 -106t-146.5 -40q-120 0 -205.5 85.5t-85.5 205.5q0 89 50.5 163t133.5 107l-158 315q-12 -4 -26 -4h-726q-14 0 -26 4l-200 -400q-20 -41 -62 -41q-30 0 -53.5 21t-23.5 50q0 18 9 35l648 1295q27 54 71 54q45 0 71 -54 l648 -1295q11 -22 11 -42q0 -63 -76 -63q-60 0 -102.5 -42.5t-42.5 -102.5t42.5 -103t102.5 -43q65 0 111.5 55.5t75.5 55.5t52.5 -21.5t23.5 -50.5zM1094 581l-318 637l-318 -637h636z" />
<glyph unicode="&#x105;" horiz-adv-x="1014" d="M965 -252q0 -17 -11 -38q-34 -66 -104.5 -106t-147.5 -40q-120 0 -205 85.5t-85 205.5q0 79 40 147q-20 -2 -40 -2q-150 0 -257 106.5t-107 256.5t107 257t257 107q121 0 218 -73q0 90 -64 154t-154 64q-64 0 -126.5 -43.5t-78.5 -43.5q-30 0 -52.5 22.5t-22.5 52.5 q0 24 23 51q89 106 257 106q150 0 256.5 -106.5t106.5 -256.5v-581q0 -29 -22 -51t-51 -22q-60 0 -102.5 -42.5t-42.5 -102.5t42.5 -103t102.5 -43q66 0 112 55.5t75 55.5q30 0 53 -21.5t23 -50.5zM630 363q0 90 -64 154t-154 64t-154 -64t-64 -154t64 -154t154 -64t154 64 t64 154z" />
<glyph unicode="&#x106;" horiz-adv-x="1360" d="M994 1814q0 -42 -41 -63l-291 -145q-17 -9 -34 -9q-30 0 -51 23.5t-21 53.5q0 42 41 62l291 145q17 9 34 9q30 0 51 -23t21 -53zM1311 263q0 -24 -23 -50q-84 -98 -234 -158q-141 -55 -279 -55q-301 0 -514 213t-213 514q0 300 213.5 513t513.5 213q138 0 279 -55 q150 -60 234 -157q23 -27 23 -51q0 -30 -22.5 -52.5t-52.5 -22.5q-23 0 -50 23q-22 20 -68 58q-147 112 -343 112q-240 0 -410.5 -170.5t-170.5 -410.5q0 -241 170.5 -411.5t410.5 -170.5q196 0 343 112q22 20 68 58q27 23 50 23q30 0 52.5 -22.5t22.5 -52.5z" />
<glyph unicode="&#x107;" horiz-adv-x="988" d="M776 1378q0 -42 -41 -63l-291 -145q-17 -9 -34 -9q-30 0 -51 23.5t-21 53.5q0 42 41 62l291 145q17 9 35 9q29 0 50 -23t21 -53zM939 818q0 -30 -22.5 -52.5t-52.5 -22.5q-9 0 -107.5 64.5t-199.5 64.5q-150 0 -256.5 -107t-106.5 -256q0 -150 106.5 -257t256.5 -107 q100 0 198.5 64.5t108.5 64.5q29 0 51.5 -23t22.5 -52q0 -24 -22 -51q-58 -68 -164 -109q-99 -39 -195 -39q-210 0 -359.5 149t-149.5 360q0 210 149.5 359t359.5 149q96 0 195 -39q106 -42 164 -110q23 -26 23 -50z" />
<glyph unicode="&#x108;" horiz-adv-x="1360" d="M1067 1673q0 -29 -22 -52.5t-51 -23.5q-21 0 -41 14l-178 118l-178 -118q-20 -14 -41 -14q-29 0 -51 23.5t-22 52.5q0 36 34 59l212 141q26 17 46 17t46 -17l212 -141q34 -23 34 -59zM1311 263q0 -24 -23 -50q-84 -98 -234 -158q-141 -55 -279 -55q-301 0 -514 213 t-213 514q0 300 213.5 513t513.5 213q138 0 279 -55q150 -60 234 -157q23 -27 23 -51q0 -30 -22.5 -52.5t-52.5 -22.5q-23 0 -50 23q-22 20 -68 58q-147 112 -343 112q-240 0 -410.5 -170.5t-170.5 -410.5q0 -241 170.5 -411.5t410.5 -170.5q196 0 343 112q22 20 68 58 q27 23 50 23q30 0 52.5 -22.5t22.5 -52.5z" />
<glyph unicode="&#x109;" horiz-adv-x="988" d="M849 1237q0 -29 -22 -52.5t-51 -23.5q-21 0 -41 14l-178 118l-178 -118q-20 -14 -41 -14q-29 0 -51 23.5t-22 52.5q0 36 34 59l212 141q26 17 46 17t46 -17l212 -141q34 -23 34 -59zM939 818q0 -30 -22.5 -52.5t-52.5 -22.5q-9 0 -107.5 64.5t-199.5 64.5 q-150 0 -256.5 -107t-106.5 -256q0 -150 106.5 -257t256.5 -107q100 0 198.5 64.5t108.5 64.5q29 0 51.5 -23t22.5 -52q0 -24 -22 -51q-58 -68 -164 -109q-99 -39 -195 -39q-210 0 -359.5 149t-149.5 360q0 210 149.5 359t359.5 149q96 0 195 -39q106 -42 164 -110 q23 -26 23 -50z" />
<glyph unicode="&#x10a;" horiz-adv-x="1360" d="M884 1708q0 -45 -32 -77.5t-77 -32.5t-76.5 32.5t-31.5 77.5t31.5 76.5t76.5 31.5t77 -31.5t32 -76.5zM1311 263q0 -24 -23 -50q-84 -98 -234 -158q-141 -55 -279 -55q-301 0 -514 213t-213 514q0 300 213.5 513t513.5 213q138 0 279 -55q150 -60 234 -157q23 -27 23 -51 q0 -30 -22.5 -52.5t-52.5 -22.5q-23 0 -50 23q-22 20 -68 58q-147 112 -343 112q-240 0 -410.5 -170.5t-170.5 -410.5q0 -241 170.5 -411.5t410.5 -170.5q196 0 343 112q22 20 68 58q27 23 50 23q30 0 52.5 -22.5t22.5 -52.5z" />
<glyph unicode="&#x10b;" horiz-adv-x="988" d="M667 1343q0 -45 -32.5 -76.5t-77.5 -31.5t-77.5 31.5t-32.5 76.5t32.5 77.5t77.5 32.5t77.5 -32.5t32.5 -77.5zM939 818q0 -30 -22.5 -52.5t-52.5 -22.5q-9 0 -107.5 64.5t-199.5 64.5q-150 0 -256.5 -107t-106.5 -256q0 -150 106.5 -257t256.5 -107q100 0 198.5 64.5 t108.5 64.5q29 0 51.5 -23t22.5 -52q0 -24 -22 -51q-58 -68 -164 -109q-99 -39 -195 -39q-210 0 -359.5 149t-149.5 360q0 210 149.5 359t359.5 149q96 0 195 -39q106 -42 164 -110q23 -26 23 -50z" />
<glyph unicode="&#x10c;" horiz-adv-x="1360" d="M1067 1814q0 -36 -34 -58l-212 -141q-26 -18 -46 -18t-46 18l-212 141q-34 22 -34 58q0 30 22 53t51 23q21 0 41 -13l178 -119l178 119q20 13 41 13q29 0 51 -23t22 -53zM1311 263q0 -24 -23 -50q-84 -98 -234 -158q-141 -55 -279 -55q-301 0 -514 213t-213 514 q0 300 213.5 513t513.5 213q138 0 279 -55q150 -60 234 -157q23 -27 23 -51q0 -30 -22.5 -52.5t-52.5 -22.5q-23 0 -50 23q-22 20 -68 58q-147 112 -343 112q-240 0 -410.5 -170.5t-170.5 -410.5q0 -241 170.5 -411.5t410.5 -170.5q196 0 343 112q22 20 68 58q27 23 50 23 q30 0 52.5 -22.5t22.5 -52.5z" />
<glyph unicode="&#x10d;" horiz-adv-x="988" d="M849 1378q0 -32 -34 -58q-199 -154 -258 -154t-258 154q-34 26 -34 58q0 30 22 53t51 23q21 0 41 -13l178 -119l178 119q20 13 41 13q29 0 51 -23t22 -53zM939 818q0 -30 -22.5 -52.5t-52.5 -22.5q-9 0 -107.5 64.5t-199.5 64.5q-150 0 -256.5 -107t-106.5 -256 q0 -150 106.5 -257t256.5 -107q100 0 198.5 64.5t108.5 64.5q29 0 51.5 -23t22.5 -52q0 -24 -22 -51q-58 -68 -164 -109q-99 -39 -195 -39q-210 0 -359.5 149t-149.5 360q0 210 149.5 359t359.5 149q96 0 195 -39q106 -42 164 -110q23 -26 23 -50z" />
<glyph unicode="&#x10e;" horiz-adv-x="1380" d="M897 1814q0 -36 -33 -58l-212 -141q-26 -18 -47 -18q-20 0 -46 18l-212 141q-33 22 -33 58q0 30 21.5 53t50.5 23q22 0 42 -13l177 -119l178 119q20 13 42 13q29 0 50.5 -23t21.5 -53zM1332 727q0 -301 -213 -514t-514 -213h-435q-29 0 -51 22t-22 51v1307q0 29 22 51 t51 22h435q301 0 514 -213t213 -513zM1187 727q0 240 -170.5 410.5t-411.5 170.5h-363v-1163h363q241 0 411.5 170.5t170.5 411.5z" />
<glyph unicode="&#x10f;" horiz-adv-x="1211" d="M849 1814q0 -36 -34 -58l-212 -141q-26 -18 -46 -18t-46 18l-212 141q-34 22 -34 58q0 30 22 53t51 23q21 0 41 -13l178 -119l178 119q20 13 41 13q29 0 51 -23t22 -53zM1066 73q0 -73 -73 -73q-56 0 -69 54q-4 17 -4 75v24q-149 -153 -363 -153q-210 0 -359.5 149 t-149.5 360q0 210 149.5 359t359.5 149q214 0 363 -152v515q0 73 73 73t73 -73v-1307zM920 509q0 149 -106.5 256t-256.5 107t-256.5 -107t-106.5 -256q0 -150 106.5 -257t256.5 -107t256.5 107t106.5 257z" />
<glyph unicode="&#x110;" horiz-adv-x="1560" d="M1512 727q0 -301 -213 -514t-514 -213h-436q-29 0 -50.5 22t-21.5 51v553q-126 -45 -149 -45q-70 0 -70 75q0 50 50 67l169 56v601q0 29 21.5 51t50.5 22h436q301 0 514 -213t213 -513zM1366 727q0 240 -170 410.5t-411 170.5h-363v-481q123 46 148 46q70 0 70 -76 q0 -50 -50 -67l-168 -56v-529h363q241 0 411 170.5t170 411.5z" />
<glyph unicode="&#x111;" horiz-adv-x="1284" d="M1284 1163q0 -73 -73 -73h-145v-1017q0 -73 -73 -73q-56 0 -69 54q-4 17 -4 74v25q-149 -153 -363 -153q-210 0 -359.5 149t-149.5 360q0 210 149.5 359t359.5 149q214 0 363 -152v225h-363q-73 0 -73 73q0 72 73 72h363v145q0 73 73 73t73 -73v-145h145q73 0 73 -72z M920 509q0 149 -106.5 256t-256.5 107t-256.5 -107t-106.5 -256q0 -150 106.5 -257t256.5 -107t256.5 107t106.5 257z" />
<glyph unicode="&#x112;" horiz-adv-x="1066" d="M1017 1744q0 -73 -72 -73h-727q-73 0 -73 73q0 72 73 72h727q72 0 72 -72zM1017 73q0 -73 -72 -73h-727q-29 0 -51 22t-22 51v1307q0 29 22 51t51 22h727q72 0 72 -73q0 -72 -72 -72h-654v-509h508q73 0 73 -72q0 -73 -73 -73h-508v-509h654q72 0 72 -72z" />
<glyph unicode="&#x113;" horiz-adv-x="1057" d="M1007 1308q0 -73 -72 -73h-814q-73 0 -73 73q0 72 73 72h814q72 0 72 -72zM1008 292q0 -17 -10 -38q-61 -115 -184.5 -184.5t-256.5 -69.5q-210 0 -359.5 149t-149.5 360q0 210 149.5 359t359.5 149q75 0 157 -28q93 -32 182 -102q111 -87 111 -164q0 -39 -36 -59 l-686 -396q108 -123 272 -123q172 0 274 125q13 19 41.5 56.5t59.5 37.5q30 0 53 -21t23 -51zM829 749q-109 123 -272 123q-150 0 -256.5 -107t-106.5 -256q0 -60 18 -116z" />
<glyph unicode="&#x114;" horiz-adv-x="1066" d="M874 1817q0 -28 -41 -72q-135 -147 -251 -147q-69 0 -154 58q-78 52 -122 115q-17 25 -17 46q0 29 23 51t53 22q29 0 99 -73t117 -73t117 73t99 73q30 0 53.5 -22t23.5 -51zM1017 73q0 -73 -72 -73h-727q-29 0 -51 22t-22 51v1307q0 29 22 51t51 22h727q72 0 72 -73 q0 -72 -72 -72h-654v-509h508q73 0 73 -72q0 -73 -73 -73h-508v-509h654q72 0 72 -72z" />
<glyph unicode="&#x115;" horiz-adv-x="1057" d="M836 1381q0 -28 -41 -72q-134 -144 -257 -144q-74 0 -153 54q-70 48 -117 116q-17 25 -17 46q0 29 23 51t52 22q31 0 95.5 -72t120.5 -72q57 0 122 72t95 72t53.5 -22t23.5 -51zM1008 292q0 -17 -10 -38q-61 -115 -184.5 -184.5t-256.5 -69.5q-210 0 -359.5 149 t-149.5 360q0 210 149.5 359t359.5 149q75 0 157 -28q93 -32 182 -102q111 -87 111 -164q0 -39 -36 -59l-686 -396q108 -123 272 -123q172 0 274 125q13 19 41.5 56.5t59.5 37.5q30 0 53 -21t23 -51zM829 749q-109 123 -272 123q-150 0 -256.5 -107t-106.5 -256 q0 -60 18 -116z" />
<glyph unicode="&#x116;" horiz-adv-x="1066" d="M691 1708q0 -45 -32.5 -77.5t-77.5 -32.5t-76.5 32.5t-31.5 77.5t31.5 76.5t76.5 31.5t77.5 -31.5t32.5 -76.5zM1017 73q0 -73 -72 -73h-727q-29 0 -51 22t-22 51v1307q0 29 22 51t51 22h727q72 0 72 -73q0 -72 -72 -72h-654v-509h508q73 0 73 -72q0 -73 -73 -73h-508 v-509h654q72 0 72 -72z" />
<glyph unicode="&#x117;" horiz-adv-x="1057" d="M667 1343q0 -45 -32.5 -76.5t-77.5 -31.5t-77.5 31.5t-32.5 76.5t32.5 77.5t77.5 32.5t77.5 -32.5t32.5 -77.5zM1008 292q0 -17 -10 -38q-61 -115 -184.5 -184.5t-256.5 -69.5q-210 0 -359.5 149t-149.5 360q0 210 149.5 359t359.5 149q75 0 157 -28q93 -32 182 -102 q111 -87 111 -164q0 -39 -36 -59l-686 -396q108 -123 272 -123q172 0 274 125q13 19 41.5 56.5t59.5 37.5q30 0 53 -21t23 -51zM829 749q-109 123 -272 123q-150 0 -256.5 -107t-106.5 -256q0 -60 18 -116z" />
<glyph unicode="&#x118;" horiz-adv-x="1256" d="M1207 -252q0 -16 -10 -38q-32 -65 -107 -106q-70 -40 -145 -40q-120 0 -205.5 85.5t-85.5 205.5q0 78 39 145h-475q-29 0 -51 22t-22 51v1307q0 29 22 51t51 22h727q72 0 72 -73q0 -72 -72 -72h-654v-509h508q73 0 73 -72q0 -73 -73 -73h-508v-509h654q75 0 75 -72 q0 -73 -75 -73q-60 0 -103 -42.5t-43 -102.5t43 -103t103 -43q64 0 111 55.5t75 55.5q30 0 53 -21.5t23 -50.5z" />
<glyph unicode="&#x119;" horiz-adv-x="1057" d="M1008 292q0 -16 -10 -38q-59 -114 -186 -185q-123 -69 -255 -69q-60 0 -102.5 -42.5t-42.5 -102.5t42.5 -103t102.5 -43q65 0 111.5 55.5t75.5 55.5t52.5 -21.5t23.5 -50.5q0 -18 -11 -38q-77 -146 -252 -146q-120 0 -205.5 85.5t-85.5 205.5q0 111 74 193 q-133 63 -212.5 188t-79.5 273q0 210 149.5 359t359.5 149q81 0 168 -32q91 -34 176 -102q106 -85 106 -160q0 -39 -36 -59l-686 -396q108 -123 272 -123q170 0 275 126q13 19 40.5 56t59.5 37q30 0 53 -21t23 -51zM829 749q-109 123 -272 123q-150 0 -256.5 -107 t-106.5 -256q0 -60 18 -116z" />
<glyph unicode="&#x11a;" horiz-adv-x="1066" d="M873 1814q0 -36 -33 -58l-213 -141q-26 -18 -46 -18t-46 18l-212 141q-33 22 -33 58q0 30 21.5 53t50.5 23q21 0 42 -13l177 -119l178 119q20 13 41 13q30 0 51.5 -23t21.5 -53zM1017 73q0 -73 -72 -73h-727q-29 0 -51 22t-22 51v1307q0 29 22 51t51 22h727q72 0 72 -73 q0 -72 -72 -72h-654v-509h508q73 0 73 -72q0 -73 -73 -73h-508v-509h654q72 0 72 -72z" />
<glyph unicode="&#x11b;" horiz-adv-x="1057" d="M849 1378q0 -32 -34 -58q-199 -154 -258 -154t-258 154q-34 26 -34 58q0 30 22 53t51 23q21 0 41 -13l178 -119l178 119q20 13 41 13q29 0 51 -23t22 -53zM1008 292q0 -17 -10 -38q-61 -115 -184.5 -184.5t-256.5 -69.5q-210 0 -359.5 149t-149.5 360q0 210 149.5 359 t359.5 149q75 0 157 -28q93 -32 182 -102q111 -87 111 -164q0 -39 -36 -59l-686 -396q108 -123 272 -123q172 0 274 125q13 19 41.5 56.5t59.5 37.5q30 0 53 -21t23 -51zM829 749q-109 123 -272 123q-150 0 -256.5 -107t-106.5 -256q0 -60 18 -116z" />
<glyph unicode="&#x11c;" horiz-adv-x="1440" d="M1098 1673q0 -29 -21.5 -52.5t-50.5 -23.5q-21 0 -42 14l-177 118l-178 -118q-20 -14 -41 -14q-30 0 -51.5 23.5t-21.5 52.5q0 36 33 59l213 141q26 17 46 17t46 -17l212 -141q33 -23 33 -59zM1343 1190q0 -30 -22.5 -52.5t-52.5 -22.5q-22 0 -51 23q-116 93 -188 126 q-96 44 -222 44q-241 0 -411.5 -170.5t-170.5 -410.5q0 -241 170.5 -411.5t411.5 -170.5q223 0 389 150v432q0 72 73 72q72 0 72 -72v-463q0 -107 -219 -192q-184 -72 -315 -72q-301 0 -514 213t-213 514q0 300 213 513t514 213q139 0 278 -55q147 -59 235 -157 q23 -26 23 -51z" />
<glyph unicode="&#x11d;" horiz-adv-x="969" d="M776 1237q0 -29 -21.5 -52.5t-50.5 -23.5q-22 0 -42 14l-178 118l-177 -118q-20 -14 -42 -14q-29 0 -50.5 23.5t-21.5 52.5q0 36 33 59l212 141q26 17 46 17t46 -17l213 -141q33 -23 33 -59zM920 945q0 -55 -50 -69q-17 -4 -72 -4h-23q73 -97 73 -218q0 -173 -135 -283 q207 -128 207 -371q0 -180 -127.5 -308t-308.5 -128q-180 0 -308 128t-128 308q0 73 73 73t73 -73q0 -120 85.5 -205.5t204.5 -85.5q120 0 205.5 85.5t85.5 205.5t-85.5 205.5t-205.5 85.5q-149 0 -256 106.5t-107 256.5t107 256.5t256 106.5h364q72 0 72 -72zM702 654 q0 90 -64 154t-154 64t-154 -64t-64 -154t64 -154t154 -64t154 64t64 154z" />
<glyph unicode="&#x11e;" horiz-adv-x="1440" d="M1100 1817q0 -28 -42 -72q-133 -144 -256 -144q-74 0 -153 54q-70 48 -117 116q-17 25 -17 46q0 29 23 51t52 22q31 0 95.5 -72t120.5 -72q57 0 121.5 72t95.5 72q30 0 53.5 -22t23.5 -51zM1343 1190q0 -30 -22.5 -52.5t-52.5 -22.5q-22 0 -51 23q-116 93 -188 126 q-96 44 -222 44q-241 0 -411.5 -170.5t-170.5 -410.5q0 -241 170.5 -411.5t411.5 -170.5q223 0 389 150v432q0 72 73 72q72 0 72 -72v-463q0 -107 -219 -192q-184 -72 -315 -72q-301 0 -514 213t-213 514q0 300 213 513t514 213q139 0 278 -55q147 -59 235 -157 q23 -26 23 -51z" />
<glyph unicode="&#x11f;" horiz-adv-x="969" d="M777 1381q0 -28 -41 -72q-134 -144 -257 -144q-73 0 -153 54q-70 48 -117 116q-17 25 -17 46q0 29 23 51t53 22t94.5 -72t121.5 -72q56 0 121 72t96 72q29 0 52.5 -22t23.5 -51zM920 945q0 -55 -50 -69q-17 -4 -72 -4h-23q73 -97 73 -218q0 -173 -135 -283 q207 -128 207 -371q0 -180 -127.5 -308t-308.5 -128q-180 0 -308 128t-128 308q0 73 73 73t73 -73q0 -120 85.5 -205.5t204.5 -85.5q120 0 205.5 85.5t85.5 205.5t-85.5 205.5t-205.5 85.5q-149 0 -256 106.5t-107 256.5t107 256.5t256 106.5h364q72 0 72 -72zM702 654 q0 90 -64 154t-154 64t-154 -64t-64 -154t64 -154t154 -64t154 64t64 154z" />
<glyph unicode="&#x120;" horiz-adv-x="1440" d="M916 1708q0 -45 -32 -77.5t-77 -32.5t-77 32.5t-32 77.5t31.5 76.5t77.5 31.5q45 0 77 -31.5t32 -76.5zM1343 1190q0 -30 -22.5 -52.5t-52.5 -22.5q-22 0 -51 23q-116 93 -188 126q-96 44 -222 44q-241 0 -411.5 -170.5t-170.5 -410.5q0 -241 170.5 -411.5t411.5 -170.5 q223 0 389 150v432q0 72 73 72q72 0 72 -72v-463q0 -107 -219 -192q-184 -72 -315 -72q-301 0 -514 213t-213 514q0 300 213 513t514 213q139 0 278 -55q147 -59 235 -157q23 -26 23 -51z" />
<glyph unicode="&#x121;" horiz-adv-x="969" d="M595 1343q0 -45 -32.5 -76.5t-78.5 -31.5q-45 0 -77.5 31.5t-32.5 76.5t32.5 77.5t77.5 32.5t78 -32.5t33 -77.5zM920 945q0 -55 -50 -69q-17 -4 -72 -4h-23q73 -97 73 -218q0 -173 -135 -283q207 -128 207 -371q0 -180 -127.5 -308t-308.5 -128q-180 0 -308 128 t-128 308q0 73 73 73t73 -73q0 -120 85.5 -205.5t204.5 -85.5q120 0 205.5 85.5t85.5 205.5t-85.5 205.5t-205.5 85.5q-149 0 -256 106.5t-107 256.5t107 256.5t256 106.5h364q72 0 72 -72zM702 654q0 90 -64 154t-154 64t-154 -64t-64 -154t64 -154t154 -64t154 64t64 154z " />
<glyph unicode="&#x122;" horiz-adv-x="1440" d="M1343 1190q0 -30 -22.5 -52.5t-52.5 -22.5q-23 0 -50 23l-68 58q-146 112 -343 112q-241 0 -411 -170.5t-170 -410.5q0 -241 170 -411.5t411 -170.5q223 0 389 150v432q0 72 73 72t73 -72v-463q0 -134 -312 -223q67 -81 67 -186q0 -120 -85 -205.5t-205 -85.5 q-169 0 -252 146q-11 19 -11 38q0 29 23 50.5t53 21.5q29 0 75.5 -55.5t111.5 -55.5q60 0 102.5 43t42.5 103t-42.5 102.5t-102.5 42.5q-301 0 -514 213t-213 514q0 300 213 513t514 213q136 0 279 -56q153 -60 234 -156q23 -27 23 -51z" />
<glyph unicode="&#x123;" horiz-adv-x="969" d="M747 1439q0 -29 -23 -50.5t-53 -21.5q-28 0 -75 55t-112 55q-60 0 -102.5 -42.5t-42.5 -102.5t42.5 -102.5t102.5 -42.5q73 0 73 -73t-73 -73q-119 0 -204.5 85.5t-85.5 205.5t85.5 205.5t204.5 85.5q76 0 147.5 -40.5t104.5 -105.5q11 -22 11 -38zM920 945 q0 -55 -50 -69q-17 -4 -72 -4h-23q73 -97 73 -218q0 -173 -135 -283q207 -128 207 -371q0 -180 -127.5 -308t-308.5 -128q-180 0 -308 128t-128 308q0 73 73 73t73 -73q0 -120 85.5 -205.5t204.5 -85.5q120 0 205.5 85.5t85.5 205.5t-85.5 205.5t-205.5 85.5 q-149 0 -256 106.5t-107 256.5t107 256.5t256 106.5h364q72 0 72 -72zM702 654q0 90 -64 154t-154 64t-154 -64t-64 -154t64 -154t154 -64t154 64t64 154z" />
<glyph unicode="&#x124;" horiz-adv-x="1308" d="M946 1673q0 -29 -22 -52.5t-51 -23.5q-21 0 -41 14l-178 118l-178 -118q-20 -14 -41 -14q-30 0 -51.5 23.5t-21.5 52.5q0 36 34 59l212 141q26 17 46 17t46 -17l212 -141q34 -23 34 -59zM1163 73q0 -73 -73 -73t-73 73v581h-726v-581q0 -73 -73 -73t-73 73v1307 q0 73 73 73t73 -73v-581h726v581q0 73 73 73t73 -73v-1307z" />
<glyph unicode="&#x125;" horiz-adv-x="969" d="M800 1673q0 -29 -21.5 -52.5t-50.5 -23.5q-22 0 -42 14l-177 118l-178 -118q-20 -14 -42 -14q-29 0 -50.5 23.5t-21.5 52.5q0 36 33 59l212 141q26 17 47 17q20 0 46 -17l212 -141q33 -23 33 -59zM872 73q0 -73 -73 -73q-72 0 -72 73v581q0 90 -64.5 154t-153.5 64 q-90 0 -154 -64t-64 -154v-581q0 -73 -73 -73t-73 73v1307q0 73 73 73t73 -73v-435q96 72 218 72q149 0 256 -106.5t107 -256.5v-581z" />
<glyph unicode="&#x126;" horiz-adv-x="1309" d="M1309 1163q0 -56 -50 -69q-18 -4 -95 -4v-1017q0 -73 -73 -73q-72 0 -72 73v581h-727v-581q0 -73 -73 -73q-72 0 -72 73v1017q-6 0 -22 -1h-23q-101 0 -101 74q0 55 51 68q18 4 95 4v145q0 73 72 73q73 0 73 -73v-145h727v145q0 73 72 73q73 0 73 -73v-145q6 0 22 1h22 q101 0 101 -73zM1019 799v291h-727v-291h727z" />
<glyph unicode="&#x127;" horiz-adv-x="1041" d="M945 73q0 -73 -73 -73t-73 73v581q0 90 -64 154t-154 64t-154 -64t-64 -154v-581q0 -73 -72 -73q-73 0 -73 73v1017h-145q-73 0 -73 73q0 72 73 72h145v145q0 73 73 73q72 0 72 -73v-145h146q72 0 72 -72q0 -73 -72 -73h-146v-145q97 72 218 72q150 0 257 -106.5 t107 -256.5v-581z" />
<glyph unicode="&#x128;" horiz-adv-x="436" d="M582 1747q0 -24 -17 -52q-57 -97 -202 -97q-82 0 -171 73t-119 73q-49 0 -77 -23q-16 -50 -66 -50q-76 0 -76 70q0 23 17 52q57 96 202 96q81 0 170.5 -72.5t119.5 -72.5q59 0 84 36.5t59 36.5q30 0 53 -20.5t23 -49.5zM291 73q0 -73 -73 -73t-73 73v1307q0 73 73 73 t73 -73v-1307z" />
<glyph unicode="&#x129;" horiz-adv-x="436" d="M582 1311q0 -24 -17 -52q-57 -96 -202 -96q-82 0 -171 72.5t-119 72.5q-49 0 -77 -23q-16 -50 -66 -50q-76 0 -76 70q0 23 17 52q57 96 202 96q81 0 170.5 -72.5t119.5 -72.5q59 0 84 36.5t59 36.5q30 0 53 -20.5t23 -49.5zM291 945v-872q0 -73 -73 -73t-73 73v872 q0 72 73 72t73 -72z" />
<glyph unicode="&#x12a;" horiz-adv-x="436" d="M509 1744q0 -73 -73 -73h-436q-73 0 -73 73q0 72 73 72h436q73 0 73 -72zM291 73q0 -73 -73 -73t-73 73v1307q0 73 73 73t73 -73v-1307z" />
<glyph unicode="&#x12b;" horiz-adv-x="436" d="M460 1308q0 -73 -72 -73h-340q-72 0 -72 73q0 72 72 72h340q72 0 72 -72zM291 945v-872q0 -73 -73 -73t-73 73v872q0 72 73 72t73 -72z" />
<glyph unicode="&#x12c;" horiz-adv-x="436" d="M510 1817q0 -28 -41 -72q-134 -144 -257 -144q-73 0 -153 54q-69 48 -117 116q-17 25 -17 46q0 29 23 51t53 22t94.5 -72t121.5 -72q56 0 121 72t96 72q29 0 52.5 -22t23.5 -51zM290 73q0 -73 -73 -73q-72 0 -72 73v1307q0 73 72 73q73 0 73 -73v-1307z" />
<glyph unicode="&#x12d;" horiz-adv-x="436" d="M510 1381q0 -28 -41 -72q-134 -144 -257 -144q-73 0 -153 54q-69 48 -117 116q-17 25 -17 46q0 29 23 51t53 22t94.5 -72t121.5 -72q56 0 121 72t96 72q29 0 52.5 -22t23.5 -51zM290 945v-872q0 -73 -73 -73q-72 0 -72 73v872q0 72 72 72q73 0 73 -72z" />
<glyph unicode="&#x12e;" horiz-adv-x="436" d="M481 -252q0 -17 -11 -38q-33 -66 -104.5 -106t-147.5 -40q-120 0 -205.5 85.5t-85.5 205.5q0 99 61.5 177.5t156.5 103.5v1244q0 73 73 73t73 -73v-1307q0 -29 -22 -51t-51 -22q-60 0 -102.5 -42.5t-42.5 -102.5t42.5 -103t102.5 -43q65 0 111.5 55.5t75.5 55.5 t52.5 -21.5t23.5 -50.5z" />
<glyph unicode="&#x12f;" horiz-adv-x="436" d="M328 1343q0 -45 -32.5 -76.5t-77.5 -31.5t-77.5 31.5t-32.5 76.5t32.5 77.5t77.5 32.5t77.5 -32.5t32.5 -77.5zM481 -252q0 -17 -11 -38q-33 -66 -104.5 -106t-147.5 -40q-120 0 -205.5 85.5t-85.5 205.5q0 99 61.5 177.5t156.5 103.5v809q0 72 73 72t73 -72v-872 q0 -29 -22 -51t-51 -22q-60 0 -102.5 -42.5t-42.5 -102.5t42.5 -103t102.5 -43q65 0 111.5 55.5t75.5 55.5t52.5 -21.5t23.5 -50.5z" />
<glyph unicode="&#x130;" horiz-adv-x="436" d="M327 1708q0 -45 -32.5 -77.5t-77.5 -32.5t-76.5 32.5t-31.5 77.5t31.5 76.5t76.5 31.5q46 0 78 -31.5t32 -76.5zM290 73q0 -73 -73 -73q-72 0 -72 73v1307q0 73 72 73q73 0 73 -73v-1307z" />
<glyph unicode="&#x131;" horiz-adv-x="436" d="M291 945v-872q0 -73 -73 -73t-73 73v872q0 72 73 72t73 -72z" />
<glyph unicode="&#x132;" horiz-adv-x="1017" d="M872 1380v-1453q0 -150 -107 -256.5t-256 -106.5q-95 0 -183 49q-91 52 -132 134q-11 21 -11 38q0 29 23 50.5t53 21.5q25 0 90.5 -74t159.5 -74q89 0 153.5 64t64.5 154v1453q0 73 72 73q73 0 73 -73zM291 73q0 -73 -73 -73t-73 73v1307q0 73 73 73t73 -73v-1307z" />
<glyph unicode="&#x133;" horiz-adv-x="872" d="M764 1343q0 -45 -32.5 -76.5t-77.5 -31.5t-78 31.5t-33 76.5t33 77.5t78 32.5t77.5 -32.5t32.5 -77.5zM328 1343q0 -45 -32.5 -76.5t-77.5 -31.5t-77.5 31.5t-32.5 76.5t32.5 77.5t77.5 32.5t77.5 -32.5t32.5 -77.5zM727 -145q0 -120 -85.5 -205.5t-205.5 -85.5 q-82 0 -142 30q-76 38 -76 112q0 75 58 75q21 0 66 -36t94 -36q60 0 102.5 43t42.5 103v1090q0 72 73 72t73 -72v-1090zM291 945v-872q0 -73 -73 -73t-73 73v872q0 72 73 72t73 -72z" />
<glyph unicode="&#x134;" horiz-adv-x="535" d="M413 1673q0 -29 -21.5 -52.5t-51.5 -23.5q-21 0 -41 14l-178 118l-178 -118q-20 -14 -41 -14q-29 0 -51 23.5t-22 52.5q0 36 34 59l212 141q26 17 46 17t46 -17l212 -141q34 -23 34 -59zM412 1380v-1453q0 -150 -107 -256.5t-257 -106.5q-94 0 -182 49q-91 52 -132 134 q-11 21 -11 38q0 29 23 50.5t53 21.5q25 0 90.5 -74t158.5 -74q90 0 154 64t64 154v1453q0 73 73 73t73 -73z" />
<glyph unicode="&#x135;" horiz-adv-x="436" d="M510 1237q0 -29 -22 -52.5t-51 -23.5q-21 0 -41 14l-178 118l-178 -118q-20 -14 -41 -14q-29 0 -51 23.5t-22 52.5q0 36 34 59l212 141q26 17 46 17t46 -17l212 -141q34 -23 34 -59zM291 -145q0 -120 -85.5 -205.5t-205.5 -85.5q-82 0 -142 30q-76 38 -76 112q0 75 58 75 q21 0 66 -36t94 -36q60 0 102.5 43t42.5 103v1090q0 72 73 72t73 -72v-1090z" />
<glyph unicode="&#x136;" horiz-adv-x="1140" d="M1091 73q0 -29 -22.5 -51.5t-51.5 -22.5t-51 22l-654 654q-17 17 -21 38v-640q0 -73 -73 -73t-73 73v1307q0 73 73 73t73 -73v-640q4 21 21 38l654 654q22 22 51 22t51.5 -22.5t22.5 -51.5q0 -28 -22 -51l-603 -602l603 -603q22 -23 22 -51zM872 -145 q0 -120 -85.5 -205.5t-205.5 -85.5q-75 0 -146.5 40t-105.5 106q-11 21 -11 38q0 29 23.5 50.5t53.5 21.5q28 0 75 -55.5t111 -55.5q60 0 103 43t43 103t-43 102.5t-103 42.5q-72 0 -72 73q0 72 72 72q120 0 205.5 -85t85.5 -205z" />
<glyph unicode="&#x137;" horiz-adv-x="922" d="M873 73q0 -29 -22.5 -51.5t-51.5 -22.5t-51 22l-436 436q-17 17 -21 38v-422q0 -73 -73 -73t-73 73v1307q0 73 73 73t73 -73v-858q4 21 21 38l436 436q22 22 51 22t51.5 -22.5t22.5 -51.5q0 -28 -22 -51l-385 -384l385 -385q22 -23 22 -51zM736 -145q0 -120 -85 -205.5 t-205 -85.5q-76 0 -146 39q-73 41 -106 107q-11 21 -11 38q0 29 23 50.5t53 21.5q28 0 75 -55.5t112 -55.5q60 0 102.5 43t42.5 103t-42.5 102.5t-102.5 42.5q-73 0 -73 73q0 72 73 72q120 0 205 -85t85 -205z" />
<glyph unicode="&#x138;" horiz-adv-x="922" d="M873 73q0 -29 -22.5 -51.5t-51.5 -22.5t-51 22l-436 436q-17 17 -21 38v-422q0 -73 -73 -73t-73 73v872q0 72 73 72t73 -72v-423q4 21 21 38l436 436q22 22 51 22t51.5 -22.5t22.5 -51.5q0 -28 -22 -51l-385 -384l385 -385q22 -23 22 -51z" />
<glyph unicode="&#x139;" horiz-adv-x="1066" d="M800 1814q0 -42 -41 -63l-291 -145q-17 -9 -34 -9q-30 0 -50.5 23.5t-20.5 53.5q0 42 40 62l291 145q18 9 35 9q29 0 50 -23t21 -53zM1017 73q0 -73 -72 -73h-727q-29 0 -51 22t-22 51v1307q0 73 73 73t73 -73v-1235h654q72 0 72 -72z" />
<glyph unicode="&#x13a;" horiz-adv-x="583" d="M534 1814q0 -42 -41 -63l-290 -145q-18 -9 -35 -9q-29 0 -50 23.5t-21 53.5q0 42 41 62l290 145q18 9 35 9q30 0 50.5 -23t20.5 -53zM461 73q0 -73 -73 -73q-120 0 -205 85.5t-85 205.5v1089q0 73 72 73q73 0 73 -73v-1089q0 -60 42.5 -103t102.5 -43q73 0 73 -72z" />
<glyph unicode="&#x13b;" horiz-adv-x="1066" d="M1017 73q0 -73 -72 -73h-112q39 -67 39 -145q0 -120 -85.5 -205.5t-205.5 -85.5q-75 0 -146 40q-74 41 -106 106q-11 22 -11 38q0 29 23.5 50.5t52.5 21.5t75.5 -55.5t111.5 -55.5q60 0 103 43t43 103t-43 102.5t-103 42.5h-363q-29 0 -51 22t-22 51v1307q0 73 73 73 t73 -73v-1235h654q72 0 72 -72z" />
<glyph unicode="&#x13c;" horiz-adv-x="727" d="M678 -145q0 -120 -85.5 -205.5t-205.5 -85.5q-76 0 -145 39q-72 41 -107 107q-10 21 -10 38q0 29 23 50.5t53 21.5q28 0 75 -55.5t111 -55.5q60 0 103 43t43 103t-43 102.5t-103 42.5q-119 0 -204.5 85.5t-85.5 205.5v1089q0 73 73 73q72 0 72 -73v-1089q0 -60 43 -103 t102 -43q120 0 205.5 -85t85.5 -205z" />
<glyph unicode="&#x13d;" horiz-adv-x="1066" d="M873 1814q0 -36 -33 -58l-213 -141q-26 -18 -46 -18t-46 18l-212 141q-33 22 -33 58q0 30 21.5 53t50.5 23q21 0 42 -13l177 -119l178 119q20 13 41 13q30 0 51.5 -23t21.5 -53zM1017 73q0 -73 -72 -73h-727q-29 0 -51 22t-22 51v1307q0 73 73 73t73 -73v-1235h654 q72 0 72 -72z" />
<glyph unicode="&#x13e;" horiz-adv-x="729" d="M680 1814q0 -36 -33 -58l-212 -141q-26 -18 -46 -18q-21 0 -47 18l-212 141q-33 22 -33 58q0 30 21.5 53t50.5 23q22 0 42 -13l178 -119l177 119q20 13 42 13q29 0 50.5 -23t21.5 -53zM679 73q0 -73 -72 -73q-120 0 -205.5 85.5t-85.5 205.5v1089q0 73 73 73q72 0 72 -73 v-1089q0 -60 43 -103t103 -43q72 0 72 -72z" />
<glyph unicode="&#x13f;" horiz-adv-x="1066" d="M739 727q0 -45 -32 -77.5t-77 -32.5t-77 32t-32 78q0 45 31.5 76.5t77.5 31.5q45 0 77 -31.5t32 -76.5zM1017 73q0 -73 -72 -73h-727q-29 0 -51 22t-22 51v1307q0 73 73 73t73 -73v-1235h654q72 0 72 -72z" />
<glyph unicode="&#x140;" horiz-adv-x="581" d="M533 727q0 -45 -32.5 -77.5t-77.5 -32.5t-76.5 32t-31.5 78q0 45 31.5 76.5t76.5 31.5q46 0 78 -31.5t32 -76.5zM460 73q0 -73 -73 -73q-119 0 -204.5 85.5t-85.5 205.5v1089q0 73 73 73q72 0 72 -73v-1089q0 -60 43 -103t102 -43q73 0 73 -72z" />
<glyph unicode="&#x141;" horiz-adv-x="1284" d="M1236 73q0 -73 -73 -73h-727q-28 0 -50 22t-22 51v553q-134 -45 -148 -45q-30 0 -50.5 22.5t-20.5 52.5q0 50 50 67l169 56v601q0 73 72 73q73 0 73 -73v-553q134 46 148 46q70 0 70 -76q0 -50 -50 -67l-168 -56v-529h654q73 0 73 -72z" />
<glyph unicode="&#x142;" horiz-adv-x="727" d="M679 797q0 -50 -50 -67l-168 -56v-383q0 -60 42.5 -103t102.5 -43q73 0 73 -72q0 -73 -73 -73q-120 0 -205.5 85.5t-85.5 205.5v335q-133 -45 -148 -45q-70 0 -70 75q0 50 50 67l168 56v601q0 73 73 73t73 -73v-553q133 46 148 46q70 0 70 -76z" />
<glyph unicode="&#x143;" horiz-adv-x="1456" d="M947 1814q0 -42 -41 -63l-291 -145q-17 -9 -35 -9q-29 0 -50 23.5t-21 53.5q0 42 41 62l291 145q17 9 34 9q30 0 51 -23t21 -53zM1310 73q0 -74 -75 -74q-34 0 -64 39l-879 1131v-1096q0 -73 -73 -73q-72 0 -72 73l-2 1307q0 74 76 74q33 0 63 -39l880 -1131v1096 q0 73 72 73q73 0 73 -73z" />
<glyph unicode="&#x144;" horiz-adv-x="969" d="M727 1378q0 -42 -41 -63l-290 -145q-18 -9 -35 -9q-29 0 -50 23.5t-21 53.5q0 42 41 62l290 145q18 9 35 9q30 0 50.5 -23t20.5 -53zM872 73q0 -73 -73 -73q-72 0 -72 73v581q0 90 -64.5 154t-153.5 64q-90 0 -154 -64t-64 -154v-581q0 -73 -73 -73t-73 73v872 q0 72 73 72t73 -72q96 72 218 72q149 0 256 -106.5t107 -256.5v-581z" />
<glyph unicode="&#x145;" horiz-adv-x="1456" d="M1310 73q0 -74 -75 -74q-34 0 -64 39l-879 1131v-1096q0 -73 -73 -73q-72 0 -72 73l-2 1307q0 74 76 74q33 0 63 -39l880 -1131v1096q0 73 72 73q73 0 73 -73zM1018 -145q0 -120 -85 -205.5t-205 -85.5q-76 0 -146 39q-73 41 -106 107q-11 21 -11 38q0 29 23 50.5 t53 21.5q28 0 75 -55.5t112 -55.5q60 0 102.5 43t42.5 103t-42.5 102.5t-102.5 42.5q-73 0 -73 73q0 72 73 72q120 0 205 -85t85 -205z" />
<glyph unicode="&#x146;" horiz-adv-x="969" d="M872 73q0 -73 -73 -73q-30 0 -51 19q51 -74 51 -164q0 -120 -85.5 -205.5t-204.5 -85.5q-76 0 -146 40q-74 41 -106 106q-11 22 -11 38q0 29 23 50.5t53 21.5q28 0 75 -55.5t112 -55.5q60 0 102.5 43t42.5 103t-42.5 102.5t-102.5 42.5q-73 0 -73 73q0 72 73 72 q138 0 225 -107q-7 16 -7 35v581q0 90 -64.5 154t-153.5 64q-90 0 -154 -64t-64 -154v-581q0 -73 -73 -73t-73 73v872q0 72 73 72t73 -72q96 72 218 72q149 0 256 -106.5t107 -256.5v-581z" />
<glyph unicode="&#x147;" horiz-adv-x="1456" d="M1019 1814q0 -36 -33 -58l-212 -141q-26 -18 -46 -18t-46 18l-212 141q-34 22 -34 58q0 30 21.5 53t51.5 23q21 0 41 -13l178 -119l177 119q21 13 42 13q29 0 50.5 -23t21.5 -53zM1310 73q0 -74 -75 -74q-34 0 -64 39l-879 1131v-1096q0 -73 -73 -73q-72 0 -72 73 l-2 1307q0 74 76 74q33 0 63 -39l880 -1131v1096q0 73 72 73q73 0 73 -73z" />
<glyph unicode="&#x148;" horiz-adv-x="969" d="M800 1378q0 -36 -33 -58l-212 -141q-26 -18 -46 -18q-21 0 -47 18l-212 141q-33 22 -33 58q0 30 21.5 53t50.5 23q22 0 42 -13l178 -119l177 119q20 13 42 13q29 0 50.5 -23t21.5 -53zM872 73q0 -73 -73 -73q-72 0 -72 73v581q0 90 -64.5 154t-153.5 64q-90 0 -154 -64 t-64 -154v-581q0 -73 -73 -73t-73 73v872q0 72 73 72t73 -72q96 72 218 72q149 0 256 -106.5t107 -256.5v-581z" />
<glyph unicode="&#x149;" horiz-adv-x="1260" d="M341 1383q0 -14 -6 -30l-146 -363q-18 -46 -65 -46q-30 0 -53 20.5t-23 50.5q0 14 6 29l146 363q18 47 65 47q30 0 53 -20.5t23 -50.5zM1163 73q0 -73 -72 -73q-73 0 -73 73v581q0 90 -64 154t-154 64t-154 -64t-64 -154v-581q0 -73 -73 -73q-72 0 -72 73v872q0 72 72 72 q74 0 73 -72q97 72 218 72q150 0 256.5 -106.5t106.5 -256.5v-581z" />
<glyph unicode="&#x14a;" horiz-adv-x="1454" d="M1309 -73q0 -151 -106 -257t-257 -106q-95 0 -183.5 50t-131.5 133q-11 21 -11 38q0 29 23.5 50.5t52.5 21.5q24 0 92.5 -74t157.5 -74t153.5 64.5t64.5 153.5v121l-872 1121v-1096q0 -73 -73 -73q-72 0 -72 73l-2 1307q0 31 22.5 52.5t53.5 21.5q33 0 63 -39l880 -1131 v1096q0 73 72 73q73 0 73 -73v-1453z" />
<glyph unicode="&#x14b;" horiz-adv-x="969" d="M872 -145q0 -120 -85.5 -205.5t-205.5 -85.5q-82 0 -141 30q-76 38 -76 112q0 75 58 75q20 0 65 -36t94 -36q60 0 103 43t43 103v799q0 90 -64.5 154t-153.5 64q-90 0 -154 -64t-64 -154v-581q0 -73 -73 -73t-73 73v872q0 72 73 72t73 -72q96 72 218 72q149 0 256 -106.5 t107 -256.5v-799z" />
<glyph unicode="&#x14c;" horiz-adv-x="1550" d="M1502 1744q0 -73 -73 -73h-1308q-73 0 -73 73q0 72 73 72h1308q73 0 73 -72zM1502 727q0 -301 -213.5 -514t-513.5 -213t-513.5 213t-213.5 514q0 300 213.5 513t513.5 213t513.5 -213t213.5 -513zM1356 727q0 240 -170.5 410.5t-410.5 170.5t-410.5 -170.5 t-170.5 -410.5q0 -241 170.5 -411.5t410.5 -170.5t410.5 170.5t170.5 411.5z" />
<glyph unicode="&#x14d;" d="M1066 1308q0 -73 -73 -73h-872q-73 0 -73 73q0 72 73 72h872q73 0 73 -72zM1066 509q0 -211 -149.5 -360t-359.5 -149t-359.5 149t-149.5 360q0 210 149.5 359t359.5 149t359.5 -149t149.5 -359zM920 509q0 149 -106.5 256t-256.5 107t-256.5 -107t-106.5 -256 q0 -150 106.5 -257t256.5 -107t256.5 107t106.5 257z" />
<glyph unicode="&#x14e;" horiz-adv-x="1550" d="M1068 1817q0 -28 -41 -72q-134 -144 -257 -144q-73 0 -153 54q-70 48 -117 116q-17 25 -17 46q0 29 23 51t53 22t94.5 -72t121.5 -72q56 0 121 72t95 72t53.5 -22t23.5 -51zM1502 727q0 -301 -213.5 -514t-513.5 -213t-513.5 213t-213.5 514q0 300 213.5 513t513.5 213 t513.5 -213t213.5 -513zM1356 727q0 240 -170.5 410.5t-410.5 170.5t-410.5 -170.5t-170.5 -410.5q0 -241 170.5 -411.5t410.5 -170.5t410.5 170.5t170.5 411.5z" />
<glyph unicode="&#x14f;" d="M850 1381q0 -28 -41 -72q-134 -144 -257 -144q-74 0 -153 54q-70 48 -117 116q-17 25 -17 46q0 29 23 51t53 22t94.5 -72t120.5 -72q57 0 122 72t95 72t53.5 -22t23.5 -51zM1066 509q0 -211 -149.5 -360t-359.5 -149t-359.5 149t-149.5 360q0 210 149.5 359t359.5 149 t359.5 -149t149.5 -359zM920 509q0 149 -106.5 256t-256.5 107t-256.5 -107t-106.5 -256q0 -150 106.5 -257t256.5 -107t256.5 107t106.5 257z" />
<glyph unicode="&#x150;" horiz-adv-x="1550" d="M1212 1814q0 -42 -41 -63l-291 -145q-17 -9 -35 -9q-29 0 -50 23.5t-21 53.5q0 42 41 62l291 145q17 9 34 9q30 0 51 -23t21 -53zM776 1814q0 -42 -41 -63l-291 -145q-17 -9 -34 -9q-30 0 -51 23.5t-21 53.5q0 42 41 62l291 145q17 9 35 9q29 0 50 -23t21 -53zM1502 727 q0 -301 -213.5 -514t-513.5 -213t-513.5 213t-213.5 514q0 300 213.5 513t513.5 213t513.5 -213t213.5 -513zM1356 727q0 240 -170.5 410.5t-410.5 170.5t-410.5 -170.5t-170.5 -410.5q0 -241 170.5 -411.5t410.5 -170.5t410.5 170.5t170.5 411.5z" />
<glyph unicode="&#x151;" d="M994 1378q0 -42 -41 -63l-291 -145q-17 -9 -34 -9q-30 0 -51 23.5t-21 53.5q0 42 41 62l291 145q17 9 34 9q30 0 51 -23t21 -53zM558 1378q0 -42 -41 -63l-291 -145q-17 -9 -34 -9q-30 0 -51 23.5t-21 53.5q0 42 41 62l291 145q17 9 35 9q29 0 50 -23t21 -53zM1066 509 q0 -211 -149.5 -360t-359.5 -149t-359.5 149t-149.5 360q0 210 149.5 359t359.5 149t359.5 -149t149.5 -359zM920 509q0 149 -106.5 256t-256.5 107t-256.5 -107t-106.5 -256q0 -150 106.5 -257t256.5 -107t256.5 107t106.5 257z" />
<glyph unicode="&#x152;" horiz-adv-x="2277" d="M2228 73q0 -73 -73 -73h-726q-29 0 -51 22t-22 51v218q-102 -137 -256 -214t-325 -77q-301 0 -514 213t-213 514q0 300 213.5 513t513.5 213q171 0 324.5 -77t256.5 -213v217q0 29 22 51t51 22h726q73 0 73 -73q0 -72 -73 -72h-653v-509h508q73 0 73 -72q0 -73 -73 -73 h-508v-509h653q73 0 73 -72zM1356 727q0 240 -170.5 410.5t-410.5 170.5t-410.5 -170.5t-170.5 -410.5q0 -241 170.5 -411.5t410.5 -170.5t410.5 170.5t170.5 411.5z" />
<glyph unicode="&#x153;" horiz-adv-x="1929" d="M1880 292q0 -18 -11 -38q-63 -116 -184.5 -185t-255.5 -69q-133 0 -250 66t-186 180q-69 -114 -186 -180t-250 -66q-210 0 -359.5 149t-149.5 360q0 210 149.5 359t359.5 149q133 0 250 -66t186 -180q69 114 186 180t250 66q85 0 177 -36q89 -34 171 -101 q102 -84 102 -157q0 -39 -36 -59l-686 -396q108 -123 272 -123q165 0 267 117l48 65q28 37 60 37q30 0 53 -21t23 -51zM1701 749q-109 123 -272 123q-150 0 -256.5 -107t-106.5 -256q0 -60 18 -116zM920 509q0 149 -106.5 256t-256.5 107t-256.5 -107t-106.5 -256 q0 -150 106.5 -257t256.5 -107t256.5 107t106.5 257z" />
<glyph unicode="&#x154;" horiz-adv-x="1067" d="M800 1814q0 -42 -41 -63l-291 -145q-17 -9 -34 -9q-30 0 -50.5 23.5t-20.5 53.5q0 42 40 62l291 145q18 9 35 9q29 0 50 -23t21 -53zM1018 73q0 -29 -22.5 -51.5t-51.5 -22.5q-28 0 -51 22l-571 572q-27 26 -31 47v-567q0 -73 -73 -73t-73 73v1308q0 72 72 72h364 q181 0 308.5 -128t127.5 -308t-127.5 -308t-308.5 -128h-42l457 -457q22 -23 22 -51zM872 1017q0 120 -85.5 205.5t-205.5 85.5h-290v-642q10 61 86 61h204q120 0 205.5 85t85.5 205z" />
<glyph unicode="&#x155;" horiz-adv-x="747" d="M655 1378q0 -42 -41 -63l-291 -145q-17 -9 -35 -9q-29 0 -50 23.5t-21 53.5q0 42 41 62l291 145q17 9 34 9q30 0 51 -23t21 -53zM699 833q0 -29 -23.5 -50t-52.5 -21t-76 55t-111 55q-60 0 -102.5 -43t-42.5 -102v-654q0 -73 -73 -73t-73 73v872q0 72 73 72q49 0 67 -42 q69 42 151 42q75 0 146.5 -40t105.5 -105q11 -22 11 -39z" />
<glyph unicode="&#x156;" horiz-adv-x="1067" d="M1018 73q0 -29 -22.5 -51.5t-51.5 -22.5q-28 0 -51 22l-571 572q-27 26 -31 47v-567q0 -73 -73 -73t-73 73v1308q0 72 72 72h364q181 0 308.5 -128t127.5 -308t-127.5 -308t-308.5 -128h-42l457 -457q22 -23 22 -51zM872 -145q0 -120 -85.5 -205.5t-205.5 -85.5 q-76 0 -147 40t-105 106q-11 21 -11 38q0 29 23.5 50.5t52.5 21.5t76 -55.5t111 -55.5q60 0 103 43t43 103t-43 102.5t-103 42.5q-72 0 -72 73q0 72 72 72q120 0 205.5 -85t85.5 -205zM872 1017q0 120 -85.5 205.5t-205.5 85.5h-290v-642q10 61 86 61h204q120 0 205.5 85 t85.5 205z" />
<glyph unicode="&#x157;" horiz-adv-x="747" d="M699 833q0 -29 -23.5 -50t-52.5 -21t-76 55t-111 55q-60 0 -102.5 -43t-42.5 -102v-591q95 -25 156.5 -103.5t61.5 -177.5q0 -120 -85.5 -205.5t-205.5 -85.5q-75 0 -146 40q-74 41 -106 106q-11 22 -11 38q0 29 23.5 50.5t52.5 21.5t75.5 -55.5t111.5 -55.5 q60 0 102.5 43t42.5 103t-42.5 102.5t-102.5 42.5q-29 0 -51 22t-22 51v872q0 72 73 72q49 0 67 -42q69 42 151 42q75 0 147 -40t105 -105q11 -22 11 -39z" />
<glyph unicode="&#x158;" horiz-adv-x="1067" d="M873 1814q0 -36 -33 -58l-213 -141q-26 -18 -46 -18t-46 18l-212 141q-33 22 -33 58q0 30 21.5 53t50.5 23q21 0 42 -13l177 -119l178 119q20 13 41 13q30 0 51.5 -23t21.5 -53zM1018 73q0 -29 -22.5 -51.5t-51.5 -22.5q-28 0 -51 22l-571 572q-27 26 -31 47v-567 q0 -73 -73 -73t-73 73v1308q0 72 72 72h364q181 0 308.5 -128t127.5 -308t-127.5 -308t-308.5 -128h-42l457 -457q22 -23 22 -51zM872 1017q0 120 -85.5 205.5t-205.5 85.5h-290v-642q10 61 86 61h204q120 0 205.5 85t85.5 205z" />
<glyph unicode="&#x159;" horiz-adv-x="777" d="M729 1378q0 -36 -34 -58l-212 -141q-26 -18 -46 -18t-46 18l-212 141q-34 22 -34 58q0 30 22 53t51 23q21 0 41 -13l178 -119l178 119q20 13 41 13q29 0 51 -23t22 -53zM700 833q0 -29 -23.5 -50t-52.5 -21t-76 55t-111 55q-60 0 -102.5 -43t-42.5 -102v-654 q0 -73 -73 -73t-73 73v872q0 72 73 72q49 0 67 -42q69 42 151 42q75 0 146.5 -40t105.5 -105q11 -22 11 -39z" />
<glyph unicode="&#x15a;" horiz-adv-x="922" d="M656 1814q0 -42 -41 -63l-291 -145q-17 -9 -34 -9q-30 0 -51 23.5t-21 53.5q0 42 41 62l291 145q17 9 35 9q29 0 50 -23t21 -53zM873 436q0 -180 -128 -308t-308 -128q-114 0 -218 59q-107 60 -160 159q-11 21 -11 38q0 30 23.5 51t53.5 21q31 0 60 -37q11 -17 35 -49 q84 -97 217 -97q120 0 205.5 85.5t85.5 205.5t-85.5 205.5t-205.5 85.5q-150 0 -256.5 106.5t-106.5 256.5t106.5 256.5t256.5 106.5q95 0 182.5 -49t131.5 -131q11 -21 11 -39q0 -29 -23 -50t-53 -21q-24 0 -91 72.5t-158 72.5q-90 0 -154 -64t-64 -154t64 -154t154 -64 q180 0 308 -128t128 -308z" />
<glyph unicode="&#x15b;" horiz-adv-x="735" d="M573 1378q0 -42 -40 -63l-291 -145q-18 -9 -35 -9q-29 0 -50 23.5t-21 53.5q0 42 41 62l291 145q17 9 34 9q30 0 50.5 -23t20.5 -53zM687 327q0 -135 -96.5 -231t-230.5 -96q-101 0 -186.5 58.5t-119.5 151.5q-6 16 -6 29q0 30 23 50.5t53 20.5q34 0 63 -43 q45 -68 56 -79q44 -43 117 -43q74 0 127.5 53.5t53.5 128.5q0 166 -186 182q-112 9 -181 74q-74 69 -74 180q0 105 75 179.5t180 74.5q152 0 219 -126q11 -21 11 -38q0 -30 -23 -51t-53 -21t-67 45.5t-87 45.5q-45 0 -77 -32.5t-32 -76.5q0 -98 114 -109q145 -14 233 -96 q94 -88 94 -231z" />
<glyph unicode="&#x15c;" horiz-adv-x="922" d="M729 1673q0 -29 -21.5 -52.5t-51.5 -23.5q-21 0 -41 14l-178 118l-177 -118q-21 -14 -42 -14q-29 0 -50.5 23.5t-21.5 52.5q0 36 33 59l212 141q26 17 46 17t46 -17l212 -141q34 -23 34 -59zM873 436q0 -180 -128 -308t-308 -128q-114 0 -218 59q-107 60 -160 159 q-11 21 -11 38q0 30 23.5 51t53.5 21q31 0 60 -37q11 -17 35 -49q84 -97 217 -97q120 0 205.5 85.5t85.5 205.5t-85.5 205.5t-205.5 85.5q-150 0 -256.5 106.5t-106.5 256.5t106.5 256.5t256.5 106.5q95 0 182.5 -49t131.5 -131q11 -21 11 -39q0 -29 -23 -50t-53 -21 q-24 0 -91 72.5t-158 72.5q-90 0 -154 -64t-64 -154t64 -154t154 -64q180 0 308 -128t128 -308z" />
<glyph unicode="&#x15d;" horiz-adv-x="735" d="M646 1237q0 -29 -21.5 -52.5t-50.5 -23.5q-21 0 -42 14l-177 118l-178 -118q-20 -14 -41 -14q-30 0 -51.5 23.5t-21.5 52.5q0 36 33 59l213 141q26 17 46 17t46 -17l212 -141q33 -23 33 -59zM687 327q0 -135 -96.5 -231t-230.5 -96q-101 0 -186.5 58.5t-119.5 151.5 q-6 16 -6 29q0 30 23 50.5t53 20.5q34 0 63 -43q45 -68 56 -79q44 -43 117 -43q74 0 127.5 53.5t53.5 128.5q0 166 -186 182q-112 9 -181 74q-74 69 -74 180q0 105 75 179.5t180 74.5q152 0 219 -126q11 -21 11 -38q0 -30 -23 -51t-53 -21t-67 45.5t-87 45.5 q-45 0 -77 -32.5t-32 -76.5q0 -98 114 -109q145 -14 233 -96q94 -88 94 -231z" />
<glyph unicode="&#x15e;" horiz-adv-x="922" d="M873 436q0 -118 -60.5 -221t-164.5 -161q80 -84 80 -199q0 -120 -85.5 -205.5t-205.5 -85.5q-173 0 -252 146q-11 20 -11 38q0 29 23.5 50.5t52.5 21.5t75.5 -55.5t111.5 -55.5q60 0 103 43t43 103t-43 102.5t-103 42.5q-114 0 -218 59q-108 61 -160 159q-11 21 -11 38 q0 30 23.5 51t53.5 21q29 0 69 -47q55 -67 85 -88q66 -48 158 -48q120 0 205.5 85.5t85.5 205.5t-85.5 205.5t-205.5 85.5q-150 0 -256.5 106.5t-106.5 256.5t106.5 256.5t256.5 106.5q95 0 182.5 -49t131.5 -131q11 -21 11 -39q0 -29 -23 -50t-53 -21q-25 0 -91 72.5 t-158 72.5q-90 0 -154 -64t-64 -154t64 -154t154 -64q180 0 308 -128t128 -308z" />
<glyph unicode="&#x15f;" horiz-adv-x="735" d="M687 327q0 -162 -129 -260q92 -86 92 -212q0 -120 -85.5 -205.5t-204.5 -85.5q-77 0 -146 39q-73 41 -106 107q-11 21 -11 38q0 29 23 50.5t53 21.5q28 0 75 -55.5t112 -55.5q60 0 102.5 43t42.5 103t-42.5 102.5t-102.5 42.5q-101 0 -186.5 58.5t-119.5 151.5 q-6 16 -6 29q0 30 23 50.5t53 20.5q34 0 63 -43q45 -68 56 -79q44 -43 117 -43q74 0 127.5 53.5t53.5 128.5q0 80 -54 129q-51 46 -132 53q-112 8 -181 74q-74 70 -74 180q0 105 75 179.5t180 74.5q153 0 219 -126q11 -21 11 -38q0 -30 -23 -51t-53 -21t-67 45.5t-87 45.5 q-45 0 -77 -32.5t-32 -76.5q0 -99 114 -109q144 -13 233 -96q94 -88 94 -231z" />
<glyph unicode="&#x160;" horiz-adv-x="922" d="M729 1814q0 -32 -34 -58q-199 -154 -258 -154q-58 0 -258 154q-33 26 -33 58q0 30 21.5 53t50.5 23q21 0 42 -13l177 -119l178 119q20 13 41 13q30 0 51.5 -23t21.5 -53zM873 436q0 -180 -128 -308t-308 -128q-114 0 -218 59q-107 60 -160 159q-11 21 -11 38 q0 30 23.5 51t53.5 21q31 0 60 -37q11 -17 35 -49q84 -97 217 -97q120 0 205.5 85.5t85.5 205.5t-85.5 205.5t-205.5 85.5q-150 0 -256.5 106.5t-106.5 256.5t106.5 256.5t256.5 106.5q95 0 182.5 -49t131.5 -131q11 -21 11 -39q0 -29 -23 -50t-53 -21q-24 0 -91 72.5 t-158 72.5q-90 0 -154 -64t-64 -154t64 -154t154 -64q180 0 308 -128t128 -308z" />
<glyph unicode="&#x161;" horiz-adv-x="735" d="M649 1378q0 -32 -34 -58q-199 -154 -258 -154q-58 0 -258 154q-33 26 -33 58q0 30 21.5 53t50.5 23q21 0 42 -13l177 -119l178 119q20 13 41 13q30 0 51.5 -23t21.5 -53zM687 327q0 -135 -96.5 -231t-230.5 -96q-101 0 -186.5 58.5t-119.5 151.5q-6 16 -6 29 q0 30 23 50.5t53 20.5q34 0 63 -43q45 -68 56 -79q44 -43 117 -43q75 0 128 53.5t53 128.5q0 166 -186 182q-112 9 -181 74q-74 69 -74 180q0 105 75 179.5t180 74.5q152 0 219 -126q11 -21 11 -38q0 -30 -23 -51t-53 -21t-67 45.5t-87 45.5q-45 0 -77 -32.5t-32 -76.5 q0 -98 114 -109q145 -14 233 -96q94 -88 94 -231z" />
<glyph unicode="&#x162;" horiz-adv-x="1066" d="M1066 1380q0 -72 -73 -72h-363v-1172q95 -25 156.5 -103.5t61.5 -177.5q0 -120 -85.5 -205.5t-205.5 -85.5q-75 0 -146 40q-74 41 -106 106q-11 22 -11 38q0 29 23.5 50.5t52.5 21.5t75.5 -55.5t111.5 -55.5q60 0 102.5 43t42.5 103t-42.5 102.5t-102.5 42.5 q-29 0 -51 22t-22 51v1235h-363q-73 0 -73 72q0 73 73 73h872q73 0 73 -73z" />
<glyph unicode="&#x163;" horiz-adv-x="823" d="M848 -145q0 -120 -85.5 -205.5t-205.5 -85.5q-75 0 -146 40q-74 41 -106 106q-11 22 -11 38q0 29 23.5 50.5t52.5 21.5t75.5 -55.5t111.5 -55.5q60 0 102.5 43t42.5 103t-42.5 102.5t-102.5 42.5q-120 0 -205.5 85.5t-85.5 205.5v581h-145q-73 0 -73 73q0 72 73 72h145 v363q0 73 73 73t73 -73v-363h145q73 0 73 -72q0 -73 -73 -73h-145v-581q0 -60 42.5 -103t102.5 -43q49 0 94 36t66 36q58 0 58 -75q0 -38 -25 -70q98 -87 98 -217z" />
<glyph unicode="&#x164;" horiz-adv-x="1066" d="M849 1814q0 -36 -34 -58l-212 -141q-26 -18 -46 -18t-46 18l-212 141q-34 22 -34 58q0 30 22 53t51 23q21 0 41 -13l178 -119l178 119q20 13 41 13q29 0 51 -23t22 -53zM1066 1380q0 -72 -73 -72h-363v-1235q0 -73 -73 -73t-73 73v1235h-363q-73 0 -73 72q0 73 73 73h872 q73 0 73 -73z" />
<glyph unicode="&#x165;" horiz-adv-x="824" d="M632 1814q0 -36 -34 -58l-212 -141q-26 -18 -46 -18t-46 18l-212 141q-34 22 -34 58q0 30 22 53t51 23q21 0 41 -13l178 -119l178 119q20 13 41 13q30 0 51.5 -23t21.5 -53zM776 142q0 -74 -76 -112q-60 -30 -142 -30q-120 0 -205.5 85.5t-85.5 205.5v581h-145 q-73 0 -73 73q0 72 73 72h145v363q0 73 73 73t73 -73v-363h145q73 0 73 -72q0 -73 -73 -73h-145v-581q0 -60 42.5 -103t102.5 -43q49 0 94 36t66 36q58 0 58 -75z" />
<glyph unicode="&#x166;" horiz-adv-x="1066" d="M1066 1380q0 -72 -73 -72h-363v-509h145q73 0 73 -72q0 -73 -73 -73h-145v-581q0 -73 -73 -73t-73 73v581h-145q-73 0 -73 73q0 72 73 72h145v509h-363q-73 0 -73 72q0 73 73 73h872q73 0 73 -73z" />
<glyph unicode="&#x167;" horiz-adv-x="823" d="M775 142q0 -74 -76 -112q-60 -30 -142 -30q-120 0 -205.5 85.5t-85.5 205.5v145h-145q-73 0 -73 73q0 72 73 72h145v291h-145q-73 0 -73 73q0 72 73 72h145v363q0 73 73 73t73 -73v-363h145q73 0 73 -72q0 -73 -73 -73h-145v-291h145q73 0 73 -72q0 -73 -73 -73h-145 v-145q0 -60 42.5 -103t102.5 -43q49 0 94 36t66 36q58 0 58 -75z" />
<glyph unicode="&#x168;" horiz-adv-x="1211" d="M969 1747q0 -24 -17 -52q-57 -97 -201 -97q-82 0 -171 73t-120 73q-49 0 -76 -23q-17 -50 -67 -50q-75 0 -75 70q0 23 17 52q57 96 201 96q82 0 171 -72.5t120 -72.5q58 0 83.5 36.5t59.5 36.5q30 0 52.5 -20.5t22.5 -49.5zM1114 509q0 -211 -149 -360t-360 -149 q-210 0 -359 149t-149 360v871q0 73 73 73q72 0 72 -73v-871q0 -150 107 -257t256 -107q150 0 257 107t107 257v871q0 73 72 73q73 0 73 -73v-871z" />
<glyph unicode="&#x169;" horiz-adv-x="922" d="M825 1311q0 -24 -17 -52q-57 -96 -202 -96q-82 0 -171 72.5t-119 72.5q-49 0 -77 -23q-16 -50 -67 -50q-75 0 -75 70q0 23 17 52q57 96 202 96q81 0 170.5 -72.5t119.5 -72.5q59 0 84 36.5t59 36.5q30 0 53 -20.5t23 -49.5zM824 363q0 -150 -106.5 -256.5t-256.5 -106.5 t-256.5 106.5t-106.5 256.5v582q0 72 72 72q73 0 73 -72v-582q0 -90 64 -154t154 -64t154 64t64 154v582q0 72 72 72q73 0 73 -72v-582z" />
<glyph unicode="&#x16a;" horiz-adv-x="1211" d="M1114 1744q0 -73 -73 -73h-871q-73 0 -73 73q0 72 73 72h871q73 0 73 -72zM1114 509q0 -211 -149 -360t-360 -149q-210 0 -359 149t-149 360v871q0 73 73 73q72 0 72 -73v-871q0 -150 107 -257t256 -107q150 0 257 107t107 257v871q0 73 72 73q73 0 73 -73v-871z" />
<glyph unicode="&#x16b;" horiz-adv-x="920" d="M823 1308q0 -73 -72 -73h-581q-73 0 -73 73q0 72 73 72h581q72 0 72 -72zM823 363q0 -150 -106.5 -256.5t-256.5 -106.5t-256.5 106.5t-106.5 256.5v582q0 72 73 72q72 0 72 -72v-582q0 -90 64 -154t154 -64t154 64t64 154v582q0 72 73 72q72 0 72 -72v-582z" />
<glyph unicode="&#x16c;" horiz-adv-x="1211" d="M899 1817q0 -28 -42 -72q-133 -144 -256 -144q-74 0 -153 54q-70 48 -117 116q-17 25 -17 46q0 29 23 51t52 22q30 0 95 -72t121 -72q57 0 121.5 72t95.5 72q29 0 53 -22t24 -51zM1114 509q0 -211 -149 -360t-360 -149q-210 0 -359 149t-149 360v871q0 73 73 73 q72 0 72 -73v-871q0 -150 107 -257t256 -107q150 0 257 107t107 257v871q0 73 72 73q73 0 73 -73v-871z" />
<glyph unicode="&#x16d;" horiz-adv-x="920" d="M753 1381q0 -28 -41 -72q-134 -144 -257 -144q-74 0 -153 54q-70 48 -117 116q-17 25 -17 46q0 29 23 51t53 22t94.5 -72t121.5 -72q56 0 121 72t95 72t53.5 -22t23.5 -51zM823 363q0 -150 -106.5 -256.5t-256.5 -106.5t-256.5 106.5t-106.5 256.5v582q0 72 73 72 q72 0 72 -72v-582q0 -90 64 -154t154 -64t154 64t64 154v582q0 72 73 72q72 0 72 -72v-582z" />
<glyph unicode="&#x16e;" horiz-adv-x="1211" d="M816 1677q0 -87 -62 -147.5t-149 -60.5q-86 0 -148 60.5t-62 147.5q0 86 62 148t148 62q87 0 149 -62t62 -148zM1114 509q0 -211 -149 -360t-360 -149q-210 0 -359 149t-149 360v871q0 73 73 73q72 0 72 -73v-871q0 -150 107 -257t256 -107q150 0 257 107t107 257v871 q0 73 72 73q73 0 73 -73v-871zM671 1677q0 65 -66 65q-65 0 -65 -65q0 -62 65 -62q66 0 66 62z" />
<glyph unicode="&#x16f;" horiz-adv-x="920" d="M671 1270q0 -87 -62 -147t-149 -60t-149 60t-62 147q0 86 62 148t149 62t149 -62t62 -148zM823 363q0 -150 -106.5 -256.5t-256.5 -106.5t-256.5 106.5t-106.5 256.5v582q0 72 73 72q72 0 72 -72v-582q0 -90 64 -154t154 -64t154 64t64 154v582q0 72 73 72q72 0 72 -72 v-582zM526 1270q0 65 -66 65q-65 0 -65 -65q0 -62 65 -62q66 0 66 62z" />
<glyph unicode="&#x170;" horiz-adv-x="1211" d="M1042 1814q0 -42 -41 -63l-290 -145q-18 -9 -35 -9q-29 0 -50 23.5t-21 53.5q0 42 41 62l290 145q18 9 35 9q29 0 50 -23t21 -53zM606 1814q0 -42 -41 -63l-290 -145q-18 -9 -35 -9q-29 0 -50 23.5t-21 53.5q0 42 41 62l290 145q18 9 35 9q29 0 50 -23t21 -53zM1114 509 q0 -211 -149 -360t-360 -149q-210 0 -359 149t-149 360v871q0 73 73 73q72 0 72 -73v-871q0 -150 107 -257t256 -107q150 0 257 107t107 257v871q0 73 72 73q73 0 73 -73v-871z" />
<glyph unicode="&#x171;" horiz-adv-x="1067" d="M970 1378q0 -42 -41 -63l-290 -145q-18 -9 -35 -9q-29 0 -50 23.5t-21 53.5q0 42 41 62l290 145q18 9 35 9q29 0 50 -23t21 -53zM534 1378q0 -42 -41 -63l-290 -145q-18 -9 -35 -9q-29 0 -50 23.5t-21 53.5q0 42 41 62l290 145q18 9 35 9q30 0 50.5 -23t20.5 -53z M897 363q0 -150 -107 -256.5t-256 -106.5q-150 0 -257 106.5t-107 256.5v582q0 72 73 72t73 -72v-582q0 -90 64 -154t154 -64q89 0 153.5 64t64.5 154v582q0 72 72 72q73 0 73 -72v-582z" />
<glyph unicode="&#x172;" horiz-adv-x="1211" d="M1114 509q0 -211 -149 -360t-360 -149q-59 0 -102 -42.5t-43 -102.5t43 -103t102 -43q66 0 112.5 55.5t74.5 55.5q30 0 53 -21.5t23 -50.5q0 -18 -10 -38q-80 -146 -253 -146q-119 0 -204.5 85.5t-85.5 205.5q0 111 74 193q-133 63 -212.5 188t-79.5 273v871q0 73 73 73 q72 0 72 -73v-871q0 -150 107 -257t256 -107q150 0 257 107t107 257v871q0 73 72 73q73 0 73 -73v-871z" />
<glyph unicode="&#x173;" horiz-adv-x="920" d="M823 363q0 -150 -106.5 -256.5t-256.5 -106.5q-60 0 -102.5 -42.5t-42.5 -102.5t42.5 -103t102.5 -43q65 0 111.5 55.5t75.5 55.5t52.5 -21.5t23.5 -50.5q0 -17 -11 -38q-34 -66 -105 -106t-147 -40q-120 0 -205 85.5t-85 205.5q0 122 87 207q-160 109 -160 301v582 q0 72 73 72q72 0 72 -72v-582q0 -90 64 -154t154 -64t154 64t64 154v582q0 72 73 72q72 0 72 -72v-582z" />
<glyph unicode="&#x174;" horiz-adv-x="2158" d="M1395 1673q0 -29 -22 -52.5t-51 -23.5q-21 0 -41 14l-178 118l-178 -118q-20 -14 -41 -14q-29 0 -51 23.5t-22 52.5q0 36 34 59l212 141q26 17 46 17t46 -17l212 -141q34 -23 34 -59zM2158 1383q0 -18 -9 -35l-648 -1295q-26 -54 -71 -54t-71 54l-256 511l-256 -511 q-26 -54 -71 -54q-44 0 -71 54l-648 1295q-9 17 -9 35q0 29 23.5 50t53.5 21q42 0 62 -41l589 -1178l246 492l-311 621q-9 17 -9 35q0 29 23.5 50t52.5 21q43 0 63 -41l262 -524l262 524q20 41 63 41q29 0 52.5 -21t23.5 -50q0 -18 -9 -35l-311 -621l246 -492l589 1178 q20 41 62 41q30 0 53.5 -21t23.5 -50z" />
<glyph unicode="&#x175;" horiz-adv-x="1697" d="M1140 1237q0 -29 -21.5 -52.5t-50.5 -23.5q-21 0 -42 14l-177 118l-178 -118q-20 -14 -41 -14q-30 0 -51.5 23.5t-21.5 52.5q0 36 33 59l213 141q26 17 46 17t46 -17l212 -141q33 -23 33 -59zM1649 947q0 -18 -9 -35l-429 -859q-27 -54 -72 -54q-44 0 -71 54l-219 438 l-220 -438q-26 -54 -71 -54q-44 0 -71 54l-430 859q-9 17 -9 35q0 29 23.5 50t53.5 21q42 0 62 -41l371 -742l210 418l-130 259q-8 17 -8 35q0 29 23 50t53 21q42 0 62 -41l371 -742l371 742q21 41 63 41q30 0 53 -21t23 -50z" />
<glyph unicode="&#x176;" horiz-adv-x="1214" d="M923 1673q0 -29 -22 -52.5t-51 -23.5q-21 0 -41 14l-178 118l-178 -118q-20 -14 -41 -14q-29 0 -51 23.5t-22 52.5q0 36 34 59l212 141q26 17 46 17t46 -17l212 -141q34 -23 34 -59zM1214 1381q0 -24 -17 -45l-493 -634v-629q0 -73 -73 -73t-73 73v629l-493 634 q-17 21 -17 45q0 29 23.5 51t52.5 22q33 0 56 -29l451 -580l451 580q23 29 56 29q29 0 52.5 -22t23.5 -51z" />
<glyph unicode="&#x177;" horiz-adv-x="969" d="M752 1237q0 -29 -21.5 -52.5t-51.5 -23.5q-21 0 -41 14l-178 118l-178 -118q-20 -14 -41 -14q-29 0 -51 23.5t-22 52.5q0 36 34 59l212 141q26 17 46 17t46 -17l212 -141q34 -23 34 -59zM823 -73q0 -149 -106.5 -256t-256.5 -107q-94 0 -181 49q-90 50 -133 131 q-11 22 -11 39q0 29 23.5 50.5t52.5 21.5q25 0 90.5 -73t158.5 -73q90 0 154 64t64 154v146q-97 -73 -218 -73q-150 0 -256.5 106.5t-106.5 256.5v582q0 72 73 72q72 0 72 -72v-582q0 -90 64 -154t154 -64t154 64t64 154v582q0 72 73 72q72 0 72 -72v-1018z" />
<glyph unicode="&#x178;" horiz-adv-x="1214" d="M958 1708q0 -45 -32.5 -77.5t-77.5 -32.5t-76.5 32.5t-31.5 77.5t31.5 76.5t76.5 31.5q46 0 78 -31.5t32 -76.5zM522 1708q0 -45 -32.5 -77.5t-76.5 -32.5q-46 0 -77.5 32.5t-31.5 77.5t31.5 76.5t77.5 31.5q45 0 77 -31.5t32 -76.5zM1214 1381q0 -24 -17 -45l-493 -634 v-629q0 -73 -73 -73t-73 73v629l-493 634q-17 21 -17 45q0 29 23.5 51t52.5 22q33 0 56 -29l451 -580l451 580q23 29 56 29q29 0 52.5 -22t23.5 -51z" />
<glyph unicode="&#x179;" horiz-adv-x="1261" d="M849 1814q0 -42 -41 -63l-290 -145q-18 -9 -35 -9q-29 0 -50 23.5t-21 53.5q0 42 41 62l290 145q18 9 35 9q29 0 50 -23t21 -53zM1213 1381q0 -24 -25 -56l-917 -1180h868q73 0 73 -72q0 -73 -73 -73l-1014 -1q-77 0 -77 73q0 24 25 56l918 1180h-869q-73 0 -73 72 q0 73 73 73h1015q76 0 76 -72z" />
<glyph unicode="&#x17a;" horiz-adv-x="971" d="M704 1378q0 -42 -41 -63l-291 -145q-17 -9 -34 -9q-30 0 -50.5 23.5t-20.5 53.5q0 42 40 62l291 145q18 9 35 9q29 0 50 -23t21 -53zM922 944q0 -25 -27 -57l-618 -742h572q72 0 72 -72q0 -73 -72 -73h-725q-76 0 -76 73q0 25 27 57l618 742h-571q-73 0 -73 73 q0 72 73 72h724q76 0 76 -73z" />
<glyph unicode="&#x17b;" horiz-adv-x="1261" d="M740 1708q0 -45 -32.5 -77.5t-77.5 -32.5t-76.5 32.5t-31.5 77.5t31.5 76.5t76.5 31.5t77.5 -31.5t32.5 -76.5zM1213 1381q0 -24 -25 -56l-917 -1180h868q73 0 73 -72q0 -73 -73 -73l-1014 -1q-77 0 -77 73q0 24 25 56l918 1180h-869q-73 0 -73 72q0 73 73 73h1015 q76 0 76 -72z" />
<glyph unicode="&#x17c;" horiz-adv-x="984" d="M595 1272q0 -45 -32.5 -77t-76.5 -32q-46 0 -77.5 32t-31.5 77t31.5 76.5t77.5 31.5q45 0 77 -31.5t32 -76.5zM935 956q0 -29 -24 -58l-627 -753h571q73 0 73 -72q0 -73 -73 -73h-726q-81 0 -81 61q0 29 25 58l627 753h-571q-73 0 -73 73q0 72 73 72h726q80 0 80 -61z " />
<glyph unicode="&#x17d;" horiz-adv-x="1261" d="M925 1814q0 -32 -34 -58q-199 -154 -258 -154t-258 154q-34 26 -34 58q0 30 22 53t51 23q21 0 41 -13l178 -119l178 119q20 13 41 13q29 0 51 -23t22 -53zM1213 1381q0 -24 -25 -56l-917 -1180h868q73 0 73 -72q0 -73 -73 -73l-1014 -1q-77 0 -77 73q0 24 25 56l918 1180 h-869q-73 0 -73 72q0 73 73 73h1015q76 0 76 -72z" />
<glyph unicode="&#x17e;" horiz-adv-x="984" d="M784 1378q0 -32 -34 -58q-200 -154 -258 -154q-59 0 -258 154q-34 26 -34 58q0 30 21.5 53t51.5 23q21 0 41 -13l178 -119l178 119q20 13 41 13q29 0 51 -23t22 -53zM935 956q0 -29 -24 -58l-627 -753h571q73 0 73 -72q0 -73 -73 -73h-726q-81 0 -81 61q0 29 25 58 l627 753h-571q-73 0 -73 73q0 72 73 72h726q80 0 80 -61z" />
<glyph unicode="&#x17f;" horiz-adv-x="654" d="M654 1311q0 -74 -58 -74q-21 0 -66 35.5t-94 35.5q-60 0 -102.5 -43t-42.5 -102v-1090q0 -73 -73 -73t-73 73v1090q0 119 85.5 204.5t205.5 85.5q82 0 142 -30q76 -38 76 -112z" />
<glyph unicode="&#x192;" horiz-adv-x="871" d="M871 1311q0 -75 -58 -75q-20 0 -65.5 36t-93.5 36q-60 0 -103 -43t-43 -102v-146h146q72 0 72 -72q0 -73 -72 -73h-146v-1017q0 -120 -85 -205.5t-205 -85.5q-82 0 -142 30q-76 38 -76 112q0 75 58 75q20 0 65.5 -36t94.5 -36q60 0 102.5 43t42.5 103v1017h-145 q-73 0 -73 73q0 72 73 72h145v146q0 119 85.5 204.5t205.5 85.5q81 0 141 -30q76 -38 76 -112z" />
<glyph unicode="&#x1fa;" horiz-adv-x="1552" d="M1009 1815q0 -44 -43 -63l-291 -131q-16 -8 -32 -8q-30 0 -50.5 23.5t-20.5 52.5q0 45 44 64l290 131q17 7 32 7q30 0 50.5 -23t20.5 -53zM1504 64q0 -30 -23.5 -51t-52.5 -21q-40 0 -61 38l-200 360q-13 -5 -28 -5h-726q-15 0 -28 5l-199 -360q-21 -38 -61 -38 q-30 0 -53.5 21t-23.5 51q0 18 11 37l638 1148q-132 49 -132 180q0 83 65 141q62 56 146 56q85 0 148 -57t63 -140q0 -131 -132 -180l639 -1148q10 -19 10 -37zM842 1429q0 51 -66 51q-65 0 -65 -51q0 -49 65 -49q66 0 66 49zM1089 530l-313 563l-312 -563h625z" />
<glyph unicode="&#x1fb;" horiz-adv-x="872" d="M630 1741q0 -42 -40 -62l-291 -146q-18 -8 -35 -8q-29 0 -50 23t-21 53q0 42 41 62l291 146q17 8 34 8q30 0 50.5 -23t20.5 -53zM622 1270q0 -87 -61.5 -147t-148.5 -60t-149 60t-62 147q0 86 62 148t149 62q86 0 148 -62t62 -148zM775 73q0 -73 -73 -73t-72 73 q-97 -73 -218 -73q-150 0 -257 106.5t-107 256.5t107 257t257 107q121 0 218 -73q0 90 -64 154t-154 64q-63 0 -126.5 -43.5t-78.5 -43.5q-30 0 -52.5 22.5t-22.5 52.5q0 24 23 51q89 106 257 106q150 0 256.5 -106.5t106.5 -256.5v-581zM477 1270q0 65 -65 65 q-66 0 -66 -65q0 -62 66 -62q65 0 65 62zM630 363q0 90 -64 154t-154 64t-154 -64t-64 -154t64 -154t154 -64t154 64t64 154z" />
<glyph unicode="&#x1fc;" horiz-adv-x="1842" d="M1213 1741q0 -42 -41 -62l-291 -146q-17 -8 -34 -8q-30 0 -50.5 23t-20.5 53q0 42 40 62l291 146q17 8 35 8q29 0 50 -23t21 -53zM1793 1380q0 -72 -72 -72h-654v-509h508q73 0 73 -72q0 -73 -73 -73h-508v-509l653 -1q73 0 73 -72q0 -73 -73 -73l-726 1q-29 0 -50.5 22 t-21.5 51v363h-470l-269 -404q-22 -33 -59 -33q-29 0 -52.5 21.5t-23.5 50.5q0 22 14 42l872 1308q22 33 58 33l729 -1q72 0 72 -73zM922 581v560l-373 -560h373z" />
<glyph unicode="&#x1fd;" horiz-adv-x="1638" d="M1125 1378q0 -42 -41 -63l-291 -145q-17 -9 -34 -9q-30 0 -51 23.5t-21 53.5q0 42 41 62l291 145q17 9 35 9q29 0 50 -23t21 -53zM1590 292q0 -17 -11 -38q-59 -114 -186 -185q-122 -69 -255 -69q-250 0 -403 198q-46 -91 -133.5 -144.5t-189.5 -53.5q-150 0 -257 106.5 t-107 256.5t107 257t257 107q121 0 218 -73q0 90 -64 154t-154 64q-64 0 -126.5 -43.5t-78.5 -43.5q-30 0 -52.5 22.5t-22.5 52.5q0 24 23 51q90 106 257 106q102 0 189.5 -53.5t133.5 -144.5q153 198 403 198q81 0 170 -32.5t174 -101.5q106 -85 106 -160q0 -39 -36 -59 l-686 -396q109 -123 272 -123q166 0 271 121q14 21 44 61q28 37 61 37q29 0 52.5 -21t23.5 -51zM1410 749q-108 123 -272 123q-150 0 -256.5 -107t-106.5 -256q0 -60 19 -116zM630 363q0 90 -64 154t-154 64t-154 -64t-64 -154t64 -154t154 -64t154 64t64 154z" />
<glyph unicode="&#x1fe;" horiz-adv-x="1553" d="M980 1814q0 -42 -40 -63l-291 -145q-17 -9 -35 -9q-29 0 -50 23.5t-21 53.5q0 42 41 62l291 145q17 9 34 9q30 0 50.5 -23t20.5 -53zM1504 1380q0 -28 -22 -51l-143 -143q164 -200 164 -459q0 -301 -213 -514t-514 -213q-259 0 -460 164l-142 -143q-23 -22 -51 -22 q-29 0 -52 22.5t-23 51.5q0 28 23 51l143 143q-164 200 -164 460q0 300 213 513t513 213q260 0 460 -164l143 143q22 22 51 22t51.5 -22.5t22.5 -51.5zM1133 1186q-157 122 -357 122q-240 0 -410.5 -170.5t-170.5 -410.5q0 -200 122 -357zM1358 727q0 199 -123 356 l-815 -816q157 -122 356 -122q241 0 411.5 170.5t170.5 411.5z" />
<glyph unicode="&#x1ff;" horiz-adv-x="1117" d="M777 1378q0 -42 -41 -63l-290 -145q-18 -9 -35 -9q-30 0 -50.5 23.5t-20.5 53.5q0 42 41 62l290 145q18 9 35 9q29 0 50 -23t21 -53zM1068 944q0 -34 -102 -131q101 -135 101 -304q0 -211 -149 -360t-360 -149q-169 0 -304 101q-97 -102 -131 -102q-29 0 -52 22.5 t-23 51.5q0 34 103 131q-101 135 -101 305q0 210 149 359t359 149q170 0 305 -101q97 102 131 102q29 0 51.5 -22.5t22.5 -51.5zM759 812q-91 60 -201 60q-149 0 -256 -107t-107 -256q0 -110 60 -201zM922 509q0 109 -61 200l-503 -503q91 -61 200 -61q150 0 257 107 t107 257z" />
<glyph unicode="&#x2c6;" horiz-adv-x="680" d="M632 1673q0 -29 -21.5 -52.5t-51.5 -23.5q-21 0 -41 14l-178 118l-178 -118q-20 -14 -41 -14q-29 0 -51 23.5t-22 52.5q0 33 34 59q199 154 258 154t258 -154q34 -26 34 -59z" />
<glyph unicode="&#x2c7;" horiz-adv-x="680" d="M632 1814q0 -32 -34 -58q-199 -154 -258 -154t-258 154q-34 26 -34 58q0 30 22 53t51 23q21 0 41 -13l178 -119l178 119q20 13 41 13q30 0 51.5 -23t21.5 -53z" />
<glyph unicode="&#x2d8;" horiz-adv-x="682" d="M633 1817q0 -28 -41 -72q-134 -144 -257 -144q-74 0 -153 54q-70 48 -117 116q-17 25 -17 46q0 29 23 51t53 22t94.5 -72t121.5 -72q56 0 121 72t96 72q29 0 52.5 -22t23.5 -51z" />
<glyph unicode="&#x2d9;" horiz-adv-x="315" d="M266 1708q0 -45 -32 -77.5t-77 -32.5t-77 32.5t-32 77.5t32 76.5t77 31.5t77 -31.5t32 -76.5z" />
<glyph unicode="&#x2da;" horiz-adv-x="518" d="M470 1677q0 -87 -62 -147.5t-149 -60.5t-149 60.5t-62 147.5q0 86 62 148t149 62t149 -62t62 -148zM325 1677q0 65 -66 65q-65 0 -65 -65q0 -62 65 -62q66 0 66 62z" />
<glyph unicode="&#x2db;" horiz-adv-x="650" d="M602 -252q0 -17 -11 -38q-33 -66 -104.5 -106t-147.5 -40q-120 0 -205.5 85.5t-85.5 205.5t85.5 205t205.5 85q73 0 73 -72q0 -73 -73 -73q-60 0 -102.5 -42.5t-42.5 -102.5t42.5 -103t102.5 -43q65 0 112 55.5t75 55.5q29 0 52.5 -21.5t23.5 -50.5z" />
<glyph unicode="&#x2dc;" horiz-adv-x="825" d="M776 1747q0 -24 -17 -52q-57 -97 -201 -97q-82 0 -171 73t-120 73q-49 0 -76 -23q-17 -50 -67 -50q-76 0 -76 70q0 23 17 52q58 96 202 96q82 0 171 -72.5t120 -72.5q58 0 83 36.5t60 36.5q30 0 52.5 -20.5t22.5 -49.5z" />
<glyph unicode="&#x2dd;" horiz-adv-x="970" d="M922 1814q0 -42 -41 -63l-291 -145q-17 -9 -34 -9q-30 0 -51 23.5t-21 53.5q0 42 41 62l291 145q17 9 35 9q29 0 50 -23t21 -53zM486 1814q0 -42 -41 -63l-291 -145q-17 -9 -34 -9q-30 0 -51 23.5t-21 53.5q0 42 41 62l291 145q17 9 35 9q29 0 50 -23t21 -53z" />
<glyph unicode="&#x384;" horiz-adv-x="242" d="M194 1623q0 -73 -73 -73t-73 73v193q0 73 73 73t73 -73v-193z" />
<glyph unicode="&#x385;" horiz-adv-x="896" d="M848 1708q0 -45 -32.5 -77.5t-77.5 -32.5t-76.5 32.5t-31.5 77.5t31.5 76.5t76.5 31.5t77.5 -31.5t32.5 -76.5zM520 1623q0 -73 -72 -73q-73 0 -73 73v193q0 73 73 73q72 0 72 -73v-193zM266 1708q0 -45 -32 -77.5t-77 -32.5t-77 32.5t-32 77.5t32 76.5t77 31.5t77 -31.5 t32 -76.5z" />
<glyph unicode="&#x386;" horiz-adv-x="1552" d="M849 1623q0 -73 -73 -73t-73 73v193q0 73 73 73t73 -73v-193zM1504 70q0 -29 -23.5 -50t-52.5 -21q-43 0 -63 41l-200 400q-12 -4 -26 -4h-726q-14 0 -26 4l-200 -400q-20 -41 -62 -41q-30 0 -53.5 21t-23.5 50q0 18 9 35l648 1295q26 54 71 54t71 -54l648 -1295 q9 -17 9 -35zM1094 581l-318 637l-318 -637h636z" />
<glyph unicode="&#x387;" horiz-adv-x="318" d="M269 618q0 -45 -32.5 -78t-77.5 -33t-78 33t-33 78t32.5 76t78.5 31q45 0 77.5 -31t32.5 -76z" />
<glyph unicode="&#x388;" horiz-adv-x="1066" d="M654 1623q0 -73 -73 -73q-72 0 -72 73v193q0 73 72 73q73 0 73 -73v-193zM1017 73q0 -73 -72 -73h-727q-29 0 -51 22t-22 51v1307q0 29 22 51t51 22h727q72 0 72 -73q0 -72 -72 -72h-654v-509h508q73 0 73 -72q0 -73 -73 -73h-508v-509h654q72 0 72 -72z" />
<glyph unicode="&#x389;" horiz-adv-x="1308" d="M727 1623q0 -73 -73 -73t-73 73v193q0 73 73 73t73 -73v-193zM1163 73q0 -73 -73 -73t-73 73v581h-726v-581q0 -73 -73 -73t-73 73v1307q0 73 73 73t73 -73v-581h726v581q0 73 73 73t73 -73v-1307z" />
<glyph unicode="&#x38a;" horiz-adv-x="436" d="M291 1623q0 -73 -73 -73t-73 73v193q0 73 73 73t73 -73v-193zM291 73q0 -73 -73 -73t-73 73v1307q0 73 73 73t73 -73v-1307z" />
<glyph unicode="&#x38c;" horiz-adv-x="1550" d="M848 1623q0 -73 -73 -73t-73 73v193q0 73 73 73t73 -73v-193zM1502 727q0 -301 -213.5 -514t-513.5 -213t-513.5 213t-213.5 514q0 300 213.5 513t513.5 213t513.5 -213t213.5 -513zM1356 727q0 240 -170.5 410.5t-410.5 170.5t-410.5 -170.5t-170.5 -410.5 q0 -241 170.5 -411.5t410.5 -170.5t410.5 170.5t170.5 411.5z" />
<glyph unicode="&#x38e;" horiz-adv-x="1214" d="M704 1623q0 -73 -73 -73t-73 73v193q0 73 73 73t73 -73v-193zM1214 1381q0 -24 -17 -45l-493 -634v-629q0 -73 -73 -73t-73 73v629l-493 634q-17 21 -17 45q0 29 23.5 51t52.5 22q33 0 56 -29l451 -580l451 580q23 29 56 29q29 0 52.5 -22t23.5 -51z" />
<glyph unicode="&#x38f;" horiz-adv-x="1550" d="M848 1623q0 -73 -73 -73t-73 73v193q0 73 73 73t73 -73v-193zM1502 73q0 -73 -73 -73l-434 -1q-76 0 -76 74q0 29 33 61l276 249q128 139 128 344q0 240 -170.5 410.5t-410.5 170.5t-410.5 -170.5t-170.5 -410.5q0 -205 128 -344l276 -249q33 -32 33 -61q0 -74 -76 -74 l-434 1q-73 0 -73 73q0 72 73 72h248q-181 154 -239 248q-82 130 -82 334q0 300 213.5 513t513.5 213q301 0 514 -213t213 -513q0 -204 -82 -334q-58 -94 -239 -248h248q73 0 73 -72z" />
<glyph unicode="&#x390;" horiz-adv-x="436" d="M618 1708q0 -45 -32.5 -77.5t-77.5 -32.5t-76.5 32.5t-31.5 77.5t31.5 76.5t76.5 31.5t77.5 -31.5t32.5 -76.5zM290 1623q0 -73 -73 -73q-72 0 -72 73v193q0 73 72 73q73 0 73 -73v-193zM36 1708q0 -45 -32 -77.5t-77 -32.5t-77 32.5t-32 77.5t31.5 76.5t77.5 31.5 q45 0 77 -31.5t32 -76.5zM290 73q0 -73 -73 -73q-72 0 -72 73v1307q0 73 72 73q73 0 73 -73v-1307z" />
<glyph unicode="&#x391;" horiz-adv-x="1552" d="M1504 70q0 -29 -23.5 -50t-52.5 -21q-43 0 -63 41l-200 400q-12 -4 -26 -4h-726q-14 0 -26 4l-200 -400q-20 -41 -62 -41q-30 0 -53.5 21t-23.5 50q0 18 9 35l648 1295q26 54 71 54t71 -54l648 -1295q9 -17 9 -35zM1094 581l-318 637l-318 -637h636z" />
<glyph unicode="&#x392;" horiz-adv-x="1066" d="M1017 436q0 -181 -128 -308.5t-308 -127.5h-363q-29 0 -51 22t-22 51v1307q0 29 22 51t51 22h363q150 0 257 -106.5t107 -256.5q0 -173 -136 -283q208 -128 208 -371zM799 1090q0 90 -64 154t-154 64h-290v-436h290q90 0 154 64t64 154zM872 436q0 120 -85.5 205.5 t-205.5 85.5h-290v-582h290q120 0 205.5 85.5t85.5 205.5z" />
<glyph unicode="&#x393;" horiz-adv-x="1017" d="M1017 1380q0 -72 -72 -72h-654v-1235q0 -73 -73 -73t-73 73v1307q0 29 22 51t51 22h727q72 0 72 -73z" />
<glyph unicode="&#x394;" horiz-adv-x="1552" d="M1503 71q0 -72 -74 -72h-1306q-75 0 -75 72q0 17 15 46l642 1283q26 54 71 54q44 0 71 -54l642 -1283q14 -29 14 -46zM1312 145l-536 1073l-537 -1073h1073z" />
<glyph unicode="&#x395;" horiz-adv-x="1066" d="M1017 73q0 -73 -72 -73h-727q-29 0 -51 22t-22 51v1307q0 29 22 51t51 22h727q72 0 72 -73q0 -72 -72 -72h-654v-509h508q73 0 73 -72q0 -73 -73 -73h-508v-509h654q72 0 72 -72z" />
<glyph unicode="&#x396;" horiz-adv-x="1261" d="M1213 1381q0 -24 -25 -56l-917 -1180h868q73 0 73 -72q0 -73 -73 -73h-1014q-77 0 -77 72q0 24 25 56l918 1180h-869q-73 0 -73 72q0 73 73 73l1015 1q76 0 76 -73z" />
<glyph unicode="&#x397;" horiz-adv-x="1308" d="M1163 73q0 -73 -73 -73t-73 73v581h-726v-581q0 -73 -73 -73t-73 73v1307q0 73 73 73t73 -73v-581h726v581q0 73 73 73t73 -73v-1307z" />
<glyph unicode="&#x398;" horiz-adv-x="1550" d="M1502 727q0 -301 -213.5 -514t-513.5 -213t-513.5 213t-213.5 514q0 300 213.5 513t513.5 213t513.5 -213t213.5 -513zM1356 727q0 240 -170.5 410.5t-410.5 170.5t-410.5 -170.5t-170.5 -410.5q0 -241 170.5 -411.5t410.5 -170.5t410.5 170.5t170.5 411.5zM1211 727 q0 -73 -73 -73h-726q-73 0 -73 73q0 72 73 72h726q73 0 73 -72z" />
<glyph unicode="&#x472;" horiz-adv-x="1550" d="M1502 727q0 -301 -213.5 -514t-513.5 -213t-513.5 213t-213.5 514q0 300 213.5 513t513.5 213t513.5 -213t213.5 -513zM1356 727q0 240 -170.5 410.5t-410.5 170.5t-410.5 -170.5t-170.5 -410.5q0 -241 170.5 -411.5t410.5 -170.5t410.5 170.5t170.5 411.5zM1211 727 q0 -73 -73 -73h-726q-73 0 -73 73q0 72 73 72h726q73 0 73 -72z" />
<glyph unicode="&#x399;" horiz-adv-x="436" d="M291 73q0 -73 -73 -73t-73 73v1307q0 73 73 73t73 -73v-1307z" />
<glyph unicode="&#x39a;" horiz-adv-x="1140" d="M1091 73q0 -29 -22.5 -51.5t-51.5 -22.5t-51 22l-654 654q-21 21 -21 52q0 30 21 51l654 654q22 22 51 22t51.5 -22.5t22.5 -51.5q0 -28 -22 -51l-603 -602l603 -603q22 -23 22 -51zM291 73q0 -73 -73 -73t-73 73v1307q0 73 73 73t73 -73v-1307z" />
<glyph unicode="&#x39b;" horiz-adv-x="1552" d="M1504 70q0 -29 -23.5 -50t-52.5 -21q-43 0 -63 41l-589 1178l-589 -1178q-20 -41 -62 -41q-30 0 -53.5 21t-23.5 50q0 18 9 35l648 1295q26 54 71 54t71 -54l648 -1295q9 -17 9 -35z" />
<glyph unicode="&#x39c;" horiz-adv-x="1696" d="M1648 70q0 -70 -75 -70q-57 0 -69 57l-242 1088l-342 -798q-24 -57 -72 -57t-72 57l-342 798l-242 -1088q-12 -57 -69 -57q-75 0 -75 70q0 9 3 18l288 1296q15 70 74 70q47 0 71 -56l364 -850l364 850q24 56 71 56q59 0 75 -70l288 -1296q2 -9 2 -18z" />
<glyph unicode="&#x39d;" horiz-adv-x="1426" d="M1281 73q0 -74 -74 -74q-34 0 -64 39l-879 1131v-1096q0 -73 -73 -73t-73 73v1307q0 74 74 74q34 0 64 -39l879 -1131v1096q0 73 73 73t73 -73v-1307z" />
<glyph unicode="&#x39e;" d="M1066 1380q0 -72 -73 -72h-872q-73 0 -73 72q0 73 73 73h872q73 0 73 -73zM920 727q0 -73 -72 -73h-582q-72 0 -72 73q0 72 72 72h582q72 0 72 -72zM1066 73q0 -73 -73 -73h-872q-73 0 -73 73q0 72 73 72h872q73 0 73 -72z" />
<glyph unicode="&#x39f;" horiz-adv-x="1550" d="M1502 727q0 -301 -213.5 -514t-513.5 -213t-513.5 213t-213.5 514q0 300 213.5 513t513.5 213t513.5 -213t213.5 -513zM1356 727q0 240 -170.5 410.5t-410.5 170.5t-410.5 -170.5t-170.5 -410.5q0 -241 170.5 -411.5t410.5 -170.5t410.5 170.5t170.5 411.5z" />
<glyph unicode="&#x3a0;" horiz-adv-x="1163" d="M1017 73q0 -73 -72 -73q-73 0 -73 73v1235h-581v-1235q0 -73 -73 -73t-73 73v1307q0 29 22 51t51 22h727q72 0 72 -72v-1308z" />
<glyph unicode="&#x3a1;" horiz-adv-x="1066" d="M291 654q0 73 72 73h218q120 0 205.5 85t85.5 205t-85.5 205.5t-205.5 85.5h-290v-654zM145 73v1307q0 29 22 51t51 22h363q181 0 308.5 -127.5t127.5 -308.5q0 -180 -127.5 -308t-308.5 -128h-218q-72 0 -72 73v-581q0 -73 -73 -73t-73 73z" />
<glyph unicode="&#x3a3;" horiz-adv-x="970" d="M921 1380q0 -72 -72 -72h-552l530 -530q23 -23 23 -50q0 -30 -23 -53l-530 -530h552q72 0 72 -72q0 -73 -72 -73h-725q-76 0 -76 73q0 29 32 61l593 593l-593 592q-32 32 -32 61q0 73 76 73h725q72 0 72 -73z" />
<glyph unicode="&#x3a4;" horiz-adv-x="1066" d="M1066 1380q0 -72 -73 -72h-363v-1235q0 -73 -73 -73t-73 73v1235h-363q-73 0 -73 72q0 73 73 73h872q73 0 73 -73z" />
<glyph unicode="&#x3a5;" horiz-adv-x="1214" d="M1214 1381q0 -24 -17 -45l-493 -634v-629q0 -73 -73 -73t-73 73v629l-493 634q-17 21 -17 45q0 29 23.5 51t52.5 22q33 0 56 -29l451 -580l451 580q23 29 56 29q29 0 52.5 -22t23.5 -51z" />
<glyph unicode="&#x3a6;" horiz-adv-x="1550" d="M1502 727q0 -224 -223 -368q-187 -121 -431 -138v-148q0 -73 -73 -73t-73 73v148q-244 17 -431 138q-223 144 -223 368t223 368q187 120 431 138v147q0 73 73 73t73 -73v-147q244 -18 431 -138q223 -145 223 -368zM1356 727q0 108 -99 200q-81 75 -199 117 q-98 34 -210 43v-721q119 9 222 48q114 42 192 117q94 90 94 196zM702 366v721q-112 -8 -210 -43q-118 -42 -199 -117q-99 -92 -99 -200q0 -106 94 -196q78 -75 192 -117q103 -39 222 -48z" />
<glyph unicode="&#x3a7;" horiz-adv-x="1262" d="M1214 72q0 -29 -23.5 -51t-52.5 -22q-33 0 -56 29l-451 580l-451 -580q-23 -29 -56 -29q-29 0 -52.5 22t-23.5 51q0 24 17 45l474 610l-474 609q-17 21 -17 45q0 29 23.5 51t52.5 22q33 0 56 -29l451 -580l451 580q23 29 56 29q29 0 52.5 -22t23.5 -51q0 -24 -17 -45 l-474 -609l474 -610q17 -21 17 -45z" />
<glyph unicode="&#x3a8;" horiz-adv-x="1550" d="M1502 1380q0 -899 -654 -942v-365q0 -73 -73 -73t-73 73v365q-654 43 -654 942q0 73 73 73t73 -73q0 -340 87 -522q120 -249 421 -274v796q0 73 73 73t73 -73v-796q301 25 421 274q87 182 87 522q0 73 73 73t73 -73z" />
<glyph unicode="&#x470;" horiz-adv-x="1550" d="M1502 1380q0 -899 -654 -942v-365q0 -73 -73 -73t-73 73v365q-654 43 -654 942q0 73 73 73t73 -73q0 -340 87 -522q120 -249 421 -274v796q0 73 73 73t73 -73v-796q301 25 421 274q87 182 87 522q0 73 73 73t73 -73z" />
<glyph unicode="&#x3a9;" horiz-adv-x="1550" d="M1502 73q0 -73 -73 -73l-434 -1q-76 0 -76 74q0 29 33 61l276 249q128 139 128 344q0 240 -170.5 410.5t-410.5 170.5t-410.5 -170.5t-170.5 -410.5q0 -205 128 -344l276 -249q33 -32 33 -61q0 -74 -76 -74l-434 1q-73 0 -73 73q0 72 73 72h248q-181 154 -239 248 q-82 130 -82 334q0 300 213.5 513t513.5 213q301 0 514 -213t213 -513q0 -204 -82 -334q-58 -94 -239 -248h248q73 0 73 -72z" />
<glyph unicode="&#x3aa;" horiz-adv-x="436" d="M545 1708q0 -45 -32.5 -77.5t-77.5 -32.5t-76.5 32.5t-31.5 77.5t31.5 76.5t76.5 31.5q46 0 78 -31.5t32 -76.5zM109 1708q0 -45 -32.5 -77.5t-76.5 -32.5q-46 0 -77.5 32.5t-31.5 77.5t31.5 76.5t77.5 31.5q45 0 77 -31.5t32 -76.5zM290 73q0 -73 -73 -73q-72 0 -72 73 v1307q0 73 72 73q73 0 73 -73v-1307z" />
<glyph unicode="&#x3ab;" horiz-adv-x="1214" d="M958 1708q0 -45 -32 -77.5t-77 -32.5t-77 32.5t-32 77.5t32 76.5t77 31.5t77 -31.5t32 -76.5zM523 1708q0 -45 -32.5 -77.5t-77.5 -32.5t-76.5 32.5t-31.5 77.5t31.5 76.5t76.5 31.5t77.5 -31.5t32.5 -76.5zM1214 1381q0 -24 -17 -45l-493 -634v-629q0 -73 -73 -73 t-73 73v629l-493 634q-17 21 -17 45q0 29 23.5 51t52.5 22q33 0 56 -29l451 -580l451 580q23 29 56 29q29 0 52.5 -22t23.5 -51z" />
<glyph unicode="&#x3ac;" horiz-adv-x="1332" d="M630 1235q0 -72 -73 -72t-73 72v194q0 73 73 73t73 -73v-194zM1284 73q0 -73 -73 -73t-73 73q0 142 -61 290q-243 -363 -520 -363q-210 0 -359.5 149t-149.5 360q0 210 149.5 359t359.5 149q277 0 520 -363q61 148 61 291q0 72 73 72t73 -72q0 -196 -122 -436 q122 -240 122 -436zM1002 509q-78 124 -191 229q-145 134 -254 134q-150 0 -256.5 -107t-106.5 -256q0 -150 106.5 -257t256.5 -107q109 0 254 134q113 105 191 230z" />
<glyph unicode="&#x3ad;" horiz-adv-x="948" d="M521 1235q0 -72 -73 -72t-73 72v194q0 73 73 73t73 -73v-194zM900 292q0 -16 -11 -38q-59 -114 -186 -185q-123 -69 -255 -69q-146 0 -263 71q-137 83 -137 220q0 134 134 218q-134 83 -134 218q0 137 137 219q117 71 263 71q132 0 255 -68q127 -72 186 -186 q11 -21 11 -38q0 -29 -23.5 -50.5t-53.5 -21.5q-33 0 -60 37l-40 56q-106 126 -275 126t-235 -94q-19 -27 -19 -51t19 -52q66 -94 235 -94q73 0 73 -72q0 -73 -73 -73q-169 0 -235 -94q-19 -27 -19 -51t19 -52q66 -94 235 -94t275 126l40 56q27 37 60 37q30 0 53.5 -21 t23.5 -51z" />
<glyph unicode="&#x3ae;" horiz-adv-x="969" d="M581 1235q0 -72 -72 -72q-73 0 -73 72v194q0 73 73 73q72 0 72 -73v-194zM872 -363q0 -73 -73 -73q-72 0 -72 73v1017q0 90 -64.5 154t-153.5 64q-90 0 -154 -64t-64 -154v-581q0 -73 -73 -73t-73 73v872q0 72 73 72t73 -72q96 72 218 72q149 0 256 -106.5t107 -256.5 v-1017z" />
<glyph unicode="&#x3af;" horiz-adv-x="509" d="M242 1235q0 -72 -72 -72q-73 0 -73 72v194q0 73 73 73q72 0 72 -73v-194zM460 73q0 -73 -73 -73q-119 0 -204.5 85.5t-85.5 205.5v654q0 72 73 72q72 0 72 -72v-654q0 -60 43 -103t102 -43q73 0 73 -72z" />
<glyph unicode="&#x3b0;" horiz-adv-x="909" d="M860 1272q0 -45 -32 -77t-77 -32t-77 32t-32 77t31.5 76.5t77.5 31.5q45 0 77 -31.5t32 -76.5zM533 1187q0 -73 -73 -73t-73 73v193q0 73 73 73t73 -73v-193zM279 1272q0 -45 -32.5 -77t-76.5 -32q-46 0 -77.5 32t-31.5 77t31.5 76.5t77.5 31.5q45 0 77 -31.5t32 -76.5z M823 363q0 -150 -106.5 -256.5t-256.5 -106.5t-256.5 106.5t-106.5 256.5v582q0 72 73 72q72 0 72 -72v-582q0 -90 64 -154t154 -64t154 64t64 154v364q0 59 -42.5 102t-102.5 43q-73 0 -73 73q0 72 73 72q120 0 205 -85.5t85 -204.5v-364z" />
<glyph unicode="&#x3b1;" horiz-adv-x="1332" d="M1284 73q0 -73 -73 -73t-73 73q0 142 -61 290q-243 -363 -520 -363q-210 0 -359.5 149t-149.5 360q0 210 149.5 359t359.5 149q277 0 520 -363q61 148 61 291q0 72 73 72t73 -72q0 -196 -122 -436q122 -240 122 -436zM1002 509q-78 124 -191 229q-145 134 -254 134 q-150 0 -256.5 -107t-106.5 -256q0 -150 106.5 -257t256.5 -107q109 0 254 134q113 105 191 230z" />
<glyph unicode="&#x3b2;" horiz-adv-x="993" d="M945 400q0 -166 -117.5 -283t-282.5 -117q-144 0 -254 91v-454q0 -73 -73 -73t-73 73v1417q0 165 117.5 282t282.5 117t282.5 -117t117.5 -282q0 -208 -170 -327q170 -120 170 -327zM799 400q0 105 -74.5 179.5t-179.5 74.5q-73 0 -73 73q0 64 77 72q28 3 85 16 q165 58 165 239q0 104 -74.5 179t-179.5 75t-179.5 -75t-74.5 -179v-654q0 -105 74.5 -180t179.5 -75t179.5 75t74.5 180z" />
<glyph unicode="&#x3b3;" horiz-adv-x="1115" d="M1067 944q0 -23 -21 -51l-65 -71q-145 -165 -238 -348q-112 -220 -112 -401v-436q0 -73 -73 -73q-72 0 -72 73v436q0 316 -300 690l-115 130q-23 28 -23 51q0 29 23 52t52 23q37 0 122 -99q212 -248 313 -505q101 257 314 505q85 99 122 99q29 0 51 -22.5t22 -52.5z" />
<glyph unicode="&#x3b4;" d="M1066 509q0 -211 -149.5 -360t-359.5 -149t-359.5 149t-149.5 360q0 147 79.5 272t212.5 188q-74 83 -74 194q0 119 85.5 204.5t205.5 85.5q167 0 252 -146q11 -18 11 -38q0 -29 -23.5 -50.5t-52.5 -21.5t-75.5 55.5t-111.5 55.5q-60 0 -102.5 -43t-42.5 -102 q0 -60 42.5 -103t102.5 -43q210 0 359.5 -149t149.5 -359zM920 509q0 149 -106.5 256t-256.5 107t-256.5 -107t-106.5 -256q0 -150 106.5 -257t256.5 -107t256.5 107t106.5 257z" />
<glyph unicode="&#x3b5;" horiz-adv-x="948" d="M900 292q0 -16 -11 -38q-59 -114 -186 -185q-123 -69 -255 -69q-146 0 -263 71q-137 83 -137 220q0 134 134 218q-134 83 -134 218q0 137 137 219q117 71 263 71q132 0 255 -68q127 -72 186 -186q11 -21 11 -38q0 -29 -23.5 -50.5t-53.5 -21.5q-33 0 -60 37l-40 56 q-106 126 -275 126t-235 -94q-19 -27 -19 -51t19 -52q66 -94 235 -94q73 0 73 -72q0 -73 -73 -73q-169 0 -235 -94q-19 -27 -19 -51t19 -52q66 -94 235 -94t275 126l40 56q27 37 60 37q30 0 53.5 -21t23.5 -51z" />
<glyph unicode="&#x3b6;" horiz-adv-x="896" d="M848 -146q0 -119 -85.5 -204.5t-205.5 -85.5q-65 0 -140 36q-88 43 -88 100q0 29 22.5 51.5t52.5 22.5q20 0 63 -32.5t90 -32.5q60 0 102.5 42.5t42.5 102.5t-42.5 103t-102.5 43q-210 0 -359.5 149t-149.5 359v219q0 170 77 324t214 257h-218q-73 0 -73 72q0 73 73 73 h654q73 0 73 -73q0 -72 -73 -72q-240 0 -410.5 -170.5t-170.5 -410.5v-219q0 -150 106.5 -256.5t256.5 -106.5q120 0 205.5 -85.5t85.5 -205.5z" />
<glyph unicode="&#x3b7;" horiz-adv-x="969" d="M872 -363q0 -73 -73 -73q-72 0 -72 73v1017q0 90 -64.5 154t-153.5 64q-90 0 -154 -64t-64 -154v-581q0 -73 -73 -73t-73 73v872q0 72 73 72t73 -72q96 72 218 72q149 0 256 -106.5t107 -256.5v-1017z" />
<glyph unicode="&#x3b8;" d="M1066 727q0 -260 -123 -474q-145 -253 -386 -253t-387 253q-122 213 -122 474q0 260 122 473q146 253 387 253t386 -253q123 -213 123 -473zM918 799q-9 119 -48 223q-43 113 -117 191q-91 95 -196 95q-108 0 -200 -99q-75 -82 -117 -200q-35 -97 -44 -210h722zM918 654 h-722q9 -113 44 -210q42 -118 117 -199q92 -100 200 -100q105 0 196 95q74 78 117 192q39 103 48 222z" />
<glyph unicode="&#x473;" d="M1066 727q0 -260 -123 -474q-145 -253 -386 -253t-387 253q-122 213 -122 474q0 260 122 473q146 253 387 253t386 -253q123 -213 123 -473zM918 799q-9 119 -48 223q-43 113 -117 191q-91 95 -196 95q-108 0 -200 -99q-75 -82 -117 -200q-35 -97 -44 -210h722zM918 654 h-722q9 -113 44 -210q42 -118 117 -199q92 -100 200 -100q105 0 196 95q74 78 117 192q39 103 48 222z" />
<glyph unicode="&#x3b9;" horiz-adv-x="509" d="M460 73q0 -73 -73 -73q-119 0 -204.5 85.5t-85.5 205.5v654q0 72 73 72q72 0 72 -72v-654q0 -60 43 -103t102 -43q73 0 73 -72z" />
<glyph unicode="&#x3ba;" horiz-adv-x="1117" d="M1068 944q0 -23 -22 -51q-173 -213 -173 -397q0 -107 51 -204q28 -54 94 -135q50 -62 50 -84q0 -29 -22.5 -51.5t-51.5 -22.5q-25 0 -51 22q-96 84 -155 222q-57 134 -57 265q0 38 5 75l-562 -562q-23 -22 -51 -22q-29 0 -52 22.5t-23 51.5q0 24 23 51q91 110 123 169 q48 91 48 202q0 186 -171 398q-23 28 -23 51q0 29 23 51.5t52 22.5q45 0 120 -106q146 -208 146 -417q0 -28 -3 -56l553 553q26 27 55 27t51.5 -23t22.5 -52z" />
<glyph unicode="&#x3bb;" horiz-adv-x="1262" d="M1213 71q0 -29 -23 -50.5t-53 -21.5q-39 0 -60 37l-446 764l-446 -764q-22 -37 -60 -37q-30 0 -53.5 21.5t-23.5 50.5q0 19 12 38l487 836l-233 399q-11 19 -11 38q0 29 23 50.5t53 21.5q39 0 60 -37l763 -1308q11 -19 11 -38z" />
<glyph unicode="&#x3bc;" horiz-adv-x="1017" d="M872 73q0 -73 -73 -73t-72 73q-97 -73 -218 -73q-122 0 -218 73v-436q0 -73 -73 -73t-73 73v1308q0 72 73 72t73 -72v-582q0 -90 64 -154t154 -64q89 0 153.5 64t64.5 154v582q0 72 72 72q73 0 73 -72v-872z" />
<glyph unicode="&#x3bd;" horiz-adv-x="960" d="M912 810q0 -207 -209 -615l-74 -143q-27 -53 -71 -53t-71 54l-430 859q-9 17 -9 35q0 29 23.5 50t53.5 21q42 0 62 -41l371 -742q214 434 214 572q0 65 -69 65q-72 0 -72 73q0 72 72 72q209 0 209 -207z" />
<glyph unicode="&#x3be;" horiz-adv-x="896" d="M848 -146q0 -119 -85.5 -204.5t-205.5 -85.5q-65 0 -140 36q-88 43 -88 100q0 29 22.5 51.5t52.5 22.5q20 0 63.5 -32.5t89.5 -32.5q60 0 102.5 42.5t42.5 102.5q0 61 -42.5 103.5t-102.5 42.5q-17 0 -39 -1h-39q-181 0 -302 109q-127 113 -127 292q0 116 63.5 215 t169.5 148q-126 118 -126 290q0 144 92 255h-128q-73 0 -73 72q0 73 73 73h654q73 0 73 -73q0 -72 -73 -72h-218q-105 0 -179.5 -75t-74.5 -180t74.5 -179.5t179.5 -74.5q76 0 76 -72q0 -75 -113 -75q-12 0 -36.5 1t-36.5 1q-104 0 -178 -75t-74 -179q0 -109 74 -180 q71 -68 181 -75h107q120 0 205.5 -85.5t85.5 -205.5z" />
<glyph unicode="&#x3bf;" d="M1066 509q0 -211 -149.5 -360t-359.5 -149t-359.5 149t-149.5 360q0 210 149.5 359t359.5 149t359.5 -149t149.5 -359zM920 509q0 149 -106.5 256t-256.5 107t-256.5 -107t-106.5 -256q0 -150 106.5 -257t256.5 -107t256.5 107t106.5 257z" />
<glyph unicode="&#x3c0;" horiz-adv-x="1163" d="M1017 73q0 -73 -72 -73q-73 0 -73 73v799h-581v-799q0 -73 -73 -73t-73 73v872q0 28 22 50t51 22h727q72 0 72 -72v-872z" />
<glyph unicode="&#x3c1;" d="M1066 509q0 -148 -79.5 -273t-212.5 -188q74 -82 74 -193q0 -120 -85.5 -205.5t-205.5 -85.5q-167 0 -252 146q-11 19 -11 38q0 29 23.5 50.5t52.5 21.5t75.5 -55.5t111.5 -55.5q60 0 102.5 43t42.5 103t-42.5 102.5t-102.5 42.5q-210 0 -359.5 149t-149.5 360 q0 210 149.5 359t359.5 149t359.5 -149t149.5 -359zM920 509q0 149 -106.5 256t-256.5 107t-256.5 -107t-106.5 -256q0 -150 106.5 -257t256.5 -107t256.5 107t106.5 257z" />
<glyph unicode="&#x3c2;" horiz-adv-x="988" d="M939 817q0 -29 -22.5 -51.5t-51.5 -22.5q-10 0 -108.5 64.5t-199.5 64.5q-150 0 -256.5 -107t-106.5 -256q0 -150 106.5 -257t256.5 -107q120 0 205.5 -85t85.5 -205t-85.5 -205.5t-205.5 -85.5q-171 0 -252 146q-11 19 -11 38q0 29 23.5 50.5t52.5 21.5q28 0 75.5 -55.5 t111.5 -55.5q60 0 102.5 43t42.5 103t-42.5 102.5t-102.5 42.5q-210 0 -359.5 149t-149.5 360q0 210 149.5 359t359.5 149q96 0 195 -39q107 -42 165 -110q22 -26 22 -51z" />
<glyph unicode="&#x3c3;" horiz-adv-x="1259" d="M1211 945q0 -73 -73 -73h-225q153 -150 153 -363q0 -211 -149.5 -360t-359.5 -149t-359.5 149t-149.5 360q0 210 149.5 359t359.5 149h581q73 0 73 -72zM920 509q0 149 -106.5 256t-256.5 107t-256.5 -107t-106.5 -256q0 -150 106.5 -257t256.5 -107t256.5 107t106.5 257 z" />
<glyph unicode="&#x3c4;" horiz-adv-x="969" d="M920 945q0 -73 -72 -73h-291v-581q0 -60 42.5 -103t102.5 -43q73 0 73 -72q0 -73 -73 -73q-119 0 -204.5 85.5t-85.5 205.5v581h-291q-73 0 -73 73q0 72 73 72h727q72 0 72 -72z" />
<glyph unicode="&#x3c5;" horiz-adv-x="872" d="M823 363q0 -150 -106.5 -256.5t-256.5 -106.5t-256.5 106.5t-106.5 256.5v582q0 72 73 72q72 0 72 -72v-582q0 -90 64 -154t154 -64t154 64t64 154v364q0 59 -42.5 102t-102.5 43q-73 0 -73 73q0 72 73 72q120 0 205 -85.5t85 -204.5v-364z" />
<glyph unicode="&#x3c6;" horiz-adv-x="1405" d="M1356 654q0 -249 -166.5 -436t-414.5 -214v-367q0 -73 -73 -73q-72 0 -72 73v367q-248 27 -415 214t-167 436q0 150 107 256.5t257 106.5q72 0 72 -72q0 -73 -72 -73q-90 0 -154 -64t-64 -154q0 -189 124 -333t312 -171v504q0 150 106.5 256.5t256.5 106.5t256.5 -106.5 t106.5 -256.5zM1211 654q0 90 -64 154t-154 64t-154 -64t-64 -154v-504q187 27 311.5 171t124.5 333z" />
<glyph unicode="&#x3c7;" horiz-adv-x="971" d="M923 -365q0 -29 -23.5 -50.5t-53.5 -21.5q-39 0 -61 38l-299 540l-300 -540q-21 -38 -61 -38q-30 0 -53.5 21.5t-23.5 50.5q0 19 11 37l343 619l-343 618q-11 19 -11 37q0 30 23.5 51t53.5 21q40 0 61 -38l300 -540l299 540q22 38 61 38q30 0 53.5 -21t23.5 -51 q0 -18 -11 -37l-343 -618l343 -619q11 -18 11 -37z" />
<glyph unicode="&#x3c8;" horiz-adv-x="1405" d="M1356 945q0 -409 -93 -617q-134 -300 -488 -325v-366q0 -73 -73 -73q-72 0 -72 73v366q-354 25 -489 325q-93 208 -93 617q0 72 73 72t73 -72q0 -348 58 -508q96 -261 378 -288v1231q0 73 72 73q73 0 73 -73v-1231q281 27 377 288q59 160 59 508q0 72 73 72q72 0 72 -72z " />
<glyph unicode="&#x471;" horiz-adv-x="1405" d="M1356 945q0 -409 -93 -617q-134 -300 -488 -325v-366q0 -73 -73 -73q-72 0 -72 73v366q-354 25 -489 325q-93 208 -93 617q0 72 73 72t73 -72q0 -348 58 -508q96 -261 378 -288v1231q0 73 72 73q73 0 73 -73v-1231q281 27 377 288q59 160 59 508q0 72 73 72q72 0 72 -72z " />
<glyph unicode="&#x3c9;" horiz-adv-x="1405" d="M1356 509q0 -185 -88 -334q-103 -175 -275 -175q-185 0 -291 202q-106 -202 -290 -202q-172 0 -276 175q-88 149 -88 334q0 184 88 333q104 175 276 175q72 0 72 -72q0 -73 -72 -73q-37 0 -79 -27q-139 -91 -139 -336q0 -246 139 -337q42 -27 79 -27t78 27 q140 91 140 337q0 72 72 72q73 0 73 -72q0 -246 139 -337q42 -27 79 -27t79 27q139 91 139 337q0 245 -139 336q-42 27 -79 27q-73 0 -73 73q0 72 73 72q172 0 275 -175q88 -149 88 -333z" />
<glyph unicode="&#x3ca;" horiz-adv-x="627" d="M579 1272q0 -45 -32.5 -77t-77.5 -32t-76.5 32t-31.5 77t31.5 76.5t76.5 31.5t77.5 -31.5t32.5 -76.5zM143 1272q0 -45 -32.5 -77t-77.5 -32t-76.5 32t-31.5 77t31.5 76.5t76.5 31.5q46 0 78 -31.5t32 -76.5zM542 73q0 -73 -73 -73q-120 0 -205 85.5t-85 205.5v654 q0 72 72 72q73 0 73 -72v-654q0 -60 42.5 -103t102.5 -43q73 0 73 -72z" />
<glyph unicode="&#x3cb;" horiz-adv-x="872" d="M788 1272q0 -45 -32.5 -77t-77.5 -32t-76.5 32t-31.5 77t31.5 76.5t76.5 31.5t77.5 -31.5t32.5 -76.5zM352 1272q0 -45 -32.5 -77t-77.5 -32t-76.5 32t-31.5 77t31.5 76.5t76.5 31.5t77.5 -31.5t32.5 -76.5zM823 363q0 -150 -106.5 -256.5t-256.5 -106.5t-256.5 106.5 t-106.5 256.5v582q0 72 73 72q72 0 72 -72v-582q0 -90 64 -154t154 -64t154 64t64 154v364q0 59 -42.5 102t-102.5 43q-73 0 -73 73q0 72 73 72q120 0 205 -85.5t85 -204.5v-364z" />
<glyph unicode="&#x3cc;" d="M630 1235q0 -72 -73 -72t-73 72v194q0 73 73 73t73 -73v-194zM1066 509q0 -211 -149.5 -360t-359.5 -149t-359.5 149t-149.5 360q0 210 149.5 359t359.5 149t359.5 -149t149.5 -359zM920 509q0 149 -106.5 256t-256.5 107t-256.5 -107t-106.5 -256q0 -150 106.5 -257 t256.5 -107t256.5 107t106.5 257z" />
<glyph unicode="&#x3cd;" horiz-adv-x="872" d="M533 1251q0 -73 -73 -73t-73 73v193q0 73 73 73t73 -73v-193zM823 363q0 -150 -106.5 -256.5t-256.5 -106.5t-256.5 106.5t-106.5 256.5v582q0 72 73 72q72 0 72 -72v-582q0 -90 64 -154t154 -64t154 64t64 154v364q0 59 -42.5 102t-102.5 43q-73 0 -73 73q0 72 73 72 q120 0 205 -85.5t85 -204.5v-364z" />
<glyph unicode="&#x3ce;" horiz-adv-x="1405" d="M775 1235q0 -72 -73 -72q-72 0 -72 72v194q0 73 72 73q73 0 73 -73v-194zM1356 509q0 -185 -88 -334q-103 -175 -275 -175q-185 0 -291 202q-106 -202 -290 -202q-172 0 -276 175q-88 149 -88 334q0 184 88 333q104 175 276 175q72 0 72 -72q0 -73 -72 -73q-37 0 -79 -27 q-139 -91 -139 -336q0 -246 139 -337q42 -27 79 -27t78 27q140 91 140 337q0 72 72 72q73 0 73 -72q0 -246 139 -337q42 -27 79 -27t79 27q139 91 139 337q0 245 -139 336q-42 27 -79 27q-73 0 -73 73q0 72 73 72q172 0 275 -175q88 -149 88 -333z" />
<glyph unicode="&#x401;" horiz-adv-x="1066" d="M909 1708q0 -45 -32.5 -77.5t-77.5 -32.5t-76.5 32.5t-31.5 77.5t31.5 76.5t76.5 31.5t77.5 -31.5t32.5 -76.5zM473 1708q0 -45 -32.5 -77.5t-77.5 -32.5t-76.5 32.5t-31.5 77.5t31.5 76.5t76.5 31.5t77.5 -31.5t32.5 -76.5zM1017 73q0 -73 -72 -73h-727q-29 0 -51 22 t-22 51v1307q0 29 22 51t51 22h727q72 0 72 -73q0 -72 -72 -72h-654v-509h508q73 0 73 -72q0 -73 -73 -73h-508v-509h654q72 0 72 -72z" />
<glyph unicode="&#x402;" horiz-adv-x="1550" d="M1502 509q0 -211 -149.5 -360t-359.5 -149q-73 0 -73 73q0 72 73 72q150 0 256.5 107t106.5 257q0 149 -106.5 256t-256.5 107t-256.5 -107t-106.5 -256v-436q0 -73 -73 -73t-73 73v1235h-363q-73 0 -73 72q0 73 73 73h872q73 0 73 -73q0 -72 -73 -72h-363v-443 q149 152 363 152q210 0 359.5 -149t149.5 -359z" />
<glyph unicode="&#x403;" horiz-adv-x="1017" d="M800 1814q0 -42 -41 -63l-291 -145q-17 -9 -34 -9q-30 0 -50.5 23.5t-20.5 53.5q0 42 40 62l291 145q18 9 35 9q29 0 50 -23t21 -53zM1017 1380q0 -72 -72 -72h-654v-1235q0 -73 -73 -73t-73 73v1308q0 72 72 72h728q72 0 72 -73z" />
<glyph unicode="&#x404;" horiz-adv-x="1360" d="M1311 263q0 -24 -23 -50q-82 -98 -234 -157q-142 -56 -279 -56q-301 0 -514 213t-213 514q0 300 213.5 513t513.5 213q137 0 279 -55q152 -60 234 -157q23 -27 23 -51q0 -30 -22.5 -52.5t-52.5 -22.5q-23 0 -50 23l-60 52q-150 118 -351 118q-219 0 -384.5 -145.5 t-192.5 -363.5h1039q73 0 73 -72q0 -73 -73 -73h-1039q27 -218 192.5 -363.5t384.5 -145.5q201 0 351 119l60 51q27 23 50 23q30 0 52.5 -22.5t22.5 -52.5z" />
<glyph unicode="&#x405;" horiz-adv-x="922" d="M873 436q0 -180 -128 -308t-308 -128q-114 0 -218 59q-107 60 -160 159q-11 21 -11 38q0 30 23.5 51t53.5 21q31 0 60 -37q11 -17 35 -49q84 -97 217 -97q120 0 205.5 85.5t85.5 205.5t-85.5 205.5t-205.5 85.5q-150 0 -256.5 106.5t-106.5 256.5t106.5 256.5 t256.5 106.5q95 0 182.5 -49t131.5 -131q11 -21 11 -39q0 -29 -23 -50t-53 -21q-24 0 -91 72.5t-158 72.5q-90 0 -154 -64t-64 -154t64 -154t154 -64q180 0 308 -128t128 -308z" />
<glyph unicode="&#x406;" horiz-adv-x="436" d="M291 73q0 -73 -73 -73t-73 73v1307q0 73 73 73t73 -73v-1307z" />
<glyph unicode="&#x407;" horiz-adv-x="436" d="M545 1708q0 -45 -32.5 -77.5t-77.5 -32.5t-76.5 32.5t-31.5 77.5t31.5 76.5t76.5 31.5q46 0 78 -31.5t32 -76.5zM109 1708q0 -45 -32.5 -77.5t-76.5 -32.5q-46 0 -77.5 32.5t-31.5 77.5t31.5 76.5t77.5 31.5q45 0 77 -31.5t32 -76.5zM290 73q0 -73 -73 -73q-72 0 -72 73 v1307q0 73 72 73q73 0 73 -73v-1307z" />
<glyph unicode="&#x408;" horiz-adv-x="557" d="M412 1380v-1453q0 -150 -107 -256.5t-257 -106.5q-94 0 -182 49q-91 52 -132 134q-11 21 -11 38q0 29 23 50.5t53 21.5q25 0 90.5 -74t158.5 -74q90 0 154 64t64 154v1453q0 73 73 73t73 -73z" />
<glyph unicode="&#x409;" horiz-adv-x="1842" d="M1793 436q0 -181 -127.5 -308.5t-308.5 -127.5h-363q-29 0 -50.5 22t-21.5 51v1068l-739 -1109q-22 -33 -59 -33q-29 0 -52.5 21.5t-23.5 50.5q0 22 14 42l865 1298q29 43 66 43q74 0 74 -85v-497h291q180 0 307.5 -128t127.5 -308zM1648 436q0 120 -85.5 205.5 t-204.5 85.5h-291v-582h290q120 0 205.5 85.5t85.5 205.5z" />
<glyph unicode="&#x40a;" horiz-adv-x="1938" d="M1889 436q0 -181 -128 -308.5t-308 -127.5h-363q-29 0 -51 22t-22 51v654h-726v-654q0 -73 -73 -73t-73 73v1307q0 73 73 73t73 -73v-508h726v508q0 73 73 73t73 -73v-508h290q180 0 308 -128t128 -308zM1744 436q0 120 -85.5 205.5t-205.5 85.5h-290v-582h290 q120 0 205.5 85.5t85.5 205.5z" />
<glyph unicode="&#x40b;" horiz-adv-x="1308" d="M1211 73q0 -73 -73 -73q-72 0 -72 73v581q0 90 -64 154t-154 64t-154 -64t-64 -154v-581q0 -73 -73 -73t-73 73v1235h-363q-73 0 -73 72q0 73 73 73h872q73 0 73 -73q0 -72 -73 -72h-363v-363q96 72 218 72q149 0 256 -106.5t107 -256.5v-581z" />
<glyph unicode="&#x40c;" horiz-adv-x="1140" d="M857 1814q0 -42 -40 -63l-291 -145q-17 -9 -35 -9q-29 0 -50 23.5t-21 53.5q0 42 41 62l291 145q17 9 34 9q30 0 50.5 -23t20.5 -53zM1091 73q0 -29 -22.5 -51.5t-51.5 -22.5t-51 22l-654 654q-17 17 -21 38v-640q0 -73 -73 -73t-73 73v1307q0 73 73 73t73 -73v-640 q4 21 21 38l654 654q22 22 51 22t51.5 -22.5t22.5 -51.5q0 -28 -22 -51l-603 -602l603 -603q22 -23 22 -51z" />
<glyph unicode="&#x40e;" horiz-adv-x="1262" d="M924 1817q0 -28 -41 -72q-134 -144 -257 -144q-74 0 -153 54q-70 48 -117 116q-17 25 -17 46q0 29 23 51t53 22t94.5 -72t120.5 -72q57 0 122 72t95 72t53.5 -22t23.5 -51zM1214 1381q0 -24 -17 -45l-1017 -1308q-23 -29 -56 -29q-29 0 -52.5 22t-23.5 51q0 24 17 45 l474 610l-474 609q-17 21 -17 45q0 29 23.5 51t52.5 22q33 0 56 -29l451 -580l451 580q23 29 56 29q29 0 52.5 -22t23.5 -51z" />
<glyph unicode="&#x40f;" horiz-adv-x="1163" d="M1017 73q0 -73 -72 -73h-291v-363q0 -73 -73 -73q-72 0 -72 73v363h-291q-29 0 -51 22t-22 51v1307q0 73 73 73t73 -73v-1235h581v1235q0 73 73 73q72 0 72 -73v-1307z" />
<glyph unicode="&#x410;" horiz-adv-x="1552" d="M1504 70q0 -29 -23.5 -50t-52.5 -21q-43 0 -63 41l-200 400q-12 -4 -26 -4h-726q-14 0 -26 4l-200 -400q-20 -41 -62 -41q-30 0 -53.5 21t-23.5 50q0 18 9 35l648 1295q26 54 71 54t71 -54l648 -1295q9 -17 9 -35zM1094 581l-318 637l-318 -637h636z" />
<glyph unicode="&#x411;" horiz-adv-x="1066" d="M1017 436q0 -181 -128 -308.5t-308 -127.5h-363q-29 0 -51 22t-22 51v1307q0 29 22 51t51 22h727q72 0 72 -73q0 -72 -72 -72h-654v-436h290q181 0 308.5 -128t127.5 -308zM872 436q0 120 -85.5 205.5t-205.5 85.5h-290v-582h290q120 0 205.5 85.5t85.5 205.5z" />
<glyph unicode="&#x412;" horiz-adv-x="1066" d="M1017 436q0 -181 -128 -308.5t-308 -127.5h-363q-29 0 -51 22t-22 51v1307q0 29 22 51t51 22h363q150 0 257 -106.5t107 -256.5q0 -173 -136 -283q208 -128 208 -371zM799 1090q0 90 -64 154t-154 64h-290v-436h290q90 0 154 64t64 154zM872 436q0 120 -85.5 205.5 t-205.5 85.5h-290v-582h290q120 0 205.5 85.5t85.5 205.5z" />
<glyph unicode="&#x413;" horiz-adv-x="1017" d="M1017 1380q0 -72 -72 -72h-654v-1235q0 -73 -73 -73t-73 73v1307q0 29 22 51t51 22h727q72 0 72 -73z" />
<glyph unicode="&#x414;" horiz-adv-x="1552" d="M1503 71q0 -72 -74 -72h-1306q-75 0 -75 72q0 17 15 46l642 1283q26 54 71 54q44 0 71 -54l642 -1283q14 -29 14 -46zM1312 145l-536 1073l-537 -1073h1073z" />
<glyph unicode="&#x415;" horiz-adv-x="1066" d="M1017 73q0 -73 -72 -73h-727q-29 0 -51 22t-22 51v1307q0 29 22 51t51 22h727q72 0 72 -73q0 -72 -72 -72h-654v-509h508q73 0 73 -72q0 -73 -73 -73h-508v-509h654q72 0 72 -72z" />
<glyph unicode="&#x416;" horiz-adv-x="1843" d="M1795 73q0 -29 -22.5 -51.5t-52.5 -22.5q-28 0 -51 22l-653 654q-17 17 -22 38v-640q0 -73 -72 -73q-73 0 -73 73v640q-4 -21 -21 -38l-654 -654q-23 -22 -51 -22q-29 0 -52 22.5t-23 51.5q0 28 23 51l603 603l-603 602q-23 23 -23 51q0 29 23 51.5t52 22.5q28 0 51 -22 l654 -654q17 -17 21 -38v640q0 73 73 73q72 0 72 -73v-640q5 21 22 38l653 654q23 22 51 22q30 0 52.5 -22.5t22.5 -51.5q0 -28 -23 -51l-602 -602l602 -603q23 -23 23 -51z" />
<glyph unicode="&#x417;" horiz-adv-x="970" d="M921 435q0 -180 -128 -308t-308 -128q-181 0 -309 128t-128 308q0 73 73 73t73 -73q0 -120 85.5 -205.5t205.5 -85.5t205.5 85.5t85.5 205.5q0 121 -85.5 206.5t-205.5 85.5q-72 0 -72 72q0 73 72 73q90 0 154 64t64 154t-64 154t-155 64q-90 0 -154 -64t-64 -154 q0 -73 -72 -73q-73 0 -73 73q0 150 107 256.5t257 106.5t257 -106.5t107 -256.5q0 -174 -135 -283q207 -128 207 -372z" />
<glyph unicode="&#x418;" horiz-adv-x="1456" d="M1310 1380l-1 -1307q0 -73 -73 -73q-72 0 -72 73v1096l-880 -1131q-30 -39 -63 -39q-76 0 -76 74l2 1307q0 73 72 73q73 0 73 -73v-1096l879 1131q30 39 64 39q75 0 75 -74z" />
<glyph unicode="&#x419;" horiz-adv-x="1456" d="M1021 1817q0 -28 -41 -72q-136 -147 -252 -147q-68 0 -154 58q-77 52 -121 115q-17 25 -17 46q0 29 23 51t52 22t99.5 -73t116.5 -73q47 0 117.5 73t99.5 73q30 0 53.5 -22t23.5 -51zM1310 1380l-1 -1307q0 -73 -73 -73q-72 0 -72 73v1096l-880 -1131q-30 -39 -63 -39 q-76 0 -76 74l2 1307q0 73 72 73q73 0 73 -73v-1096l879 1131q30 39 64 39q75 0 75 -74z" />
<glyph unicode="&#x41a;" horiz-adv-x="1140" d="M1091 73q0 -29 -22.5 -51.5t-51.5 -22.5t-51 22l-654 654q-17 17 -21 38v-640q0 -73 -73 -73t-73 73v1307q0 73 73 73t73 -73v-640q4 21 21 38l654 654q22 22 51 22t51.5 -22.5t22.5 -51.5q0 -28 -22 -51l-603 -602l603 -603q22 -23 22 -51z" />
<glyph unicode="&#x41b;" horiz-adv-x="1552" d="M1504 70q0 -29 -23.5 -50t-52.5 -21q-43 0 -63 41l-589 1178l-589 -1178q-20 -41 -62 -41q-30 0 -53.5 21t-23.5 50q0 18 9 35l648 1295q26 54 71 54t71 -54l648 -1295q9 -17 9 -35z" />
<glyph unicode="&#x41c;" horiz-adv-x="1696" d="M1648 70q0 -70 -75 -70q-57 0 -69 57l-242 1088l-342 -798q-24 -57 -72 -57t-72 57l-342 798l-242 -1088q-12 -57 -69 -57q-75 0 -75 70q0 9 3 18l288 1296q15 70 74 70q47 0 71 -56l364 -850l364 850q24 56 71 56q59 0 75 -70l288 -1296q2 -9 2 -18z" />
<glyph unicode="&#x41d;" horiz-adv-x="1308" d="M1163 73q0 -73 -73 -73t-73 73v581h-726v-581q0 -73 -73 -73t-73 73v1307q0 73 73 73t73 -73v-581h726v581q0 73 73 73t73 -73v-1307z" />
<glyph unicode="&#x41e;" horiz-adv-x="1550" d="M1502 727q0 -301 -213.5 -514t-513.5 -213t-513.5 213t-213.5 514q0 300 213.5 513t513.5 213t513.5 -213t213.5 -513zM1356 727q0 240 -170.5 410.5t-410.5 170.5t-410.5 -170.5t-170.5 -410.5q0 -241 170.5 -411.5t410.5 -170.5t410.5 170.5t170.5 411.5z" />
<glyph unicode="&#x41f;" horiz-adv-x="1163" d="M1017 73q0 -73 -72 -73q-73 0 -73 73v1235h-581v-1235q0 -73 -73 -73t-73 73v1307q0 29 22 51t51 22h727q72 0 72 -72v-1308z" />
<glyph unicode="&#x420;" horiz-adv-x="1066" d="M291 654q0 73 72 73h218q120 0 205.5 85t85.5 205t-85.5 205.5t-205.5 85.5h-290v-654zM145 73v1307q0 29 22 51t51 22h363q181 0 308.5 -127.5t127.5 -308.5q0 -180 -127.5 -308t-308.5 -128h-218q-72 0 -72 73v-581q0 -73 -73 -73t-73 73z" />
<glyph unicode="&#x421;" horiz-adv-x="1360" d="M1311 263q0 -24 -23 -50q-84 -98 -234 -158q-141 -55 -279 -55q-301 0 -514 213t-213 514q0 300 213.5 513t513.5 213q138 0 279 -55q150 -60 234 -157q23 -27 23 -51q0 -30 -22.5 -52.5t-52.5 -22.5q-23 0 -50 23q-22 20 -68 58q-147 112 -343 112q-240 0 -410.5 -170.5 t-170.5 -410.5q0 -241 170.5 -411.5t410.5 -170.5q196 0 343 112q22 20 68 58q27 23 50 23q30 0 52.5 -22.5t22.5 -52.5z" />
<glyph unicode="&#x422;" horiz-adv-x="1066" d="M1066 1380q0 -72 -73 -72h-363v-1235q0 -73 -73 -73t-73 73v1235h-363q-73 0 -73 72q0 73 73 73h872q73 0 73 -73z" />
<glyph unicode="&#x423;" horiz-adv-x="1214" d="M1214 1381q0 -24 -17 -45l-1017 -1308q-23 -29 -56 -29q-29 0 -52.5 22t-23.5 51q0 24 17 45l474 610l-474 609q-17 21 -17 45q0 29 23.5 51t52.5 22q33 0 56 -29l451 -580l451 580q23 29 56 29q29 0 52.5 -22t23.5 -51z" />
<glyph unicode="&#x424;" horiz-adv-x="1550" d="M1502 727q0 -224 -223 -368q-187 -121 -431 -138v-148q0 -73 -73 -73t-73 73v148q-244 17 -431 138q-223 144 -223 368t223 368q187 120 431 138v147q0 73 73 73t73 -73v-147q244 -18 431 -138q223 -145 223 -368zM1356 727q0 108 -99 200q-81 75 -199 117 q-98 34 -210 43v-721q119 9 222 48q114 42 192 117q94 90 94 196zM702 366v721q-112 -8 -210 -43q-118 -42 -199 -117q-99 -92 -99 -200q0 -106 94 -196q78 -75 192 -117q103 -39 222 -48z" />
<glyph unicode="&#x425;" horiz-adv-x="1262" d="M1214 72q0 -29 -23.5 -51t-52.5 -22q-33 0 -56 29l-451 580l-451 -580q-23 -29 -56 -29q-29 0 -52.5 22t-23.5 51q0 24 17 45l474 610l-474 609q-17 21 -17 45q0 29 23.5 51t52.5 22q33 0 56 -29l451 -580l451 580q23 29 56 29q29 0 52.5 -22t23.5 -51q0 -24 -17 -45 l-474 -609l474 -610q17 -21 17 -45z" />
<glyph unicode="&#x426;" horiz-adv-x="1162" d="M1017 -363q0 -73 -72 -73q-73 0 -73 73v363h-654q-29 0 -51 22t-22 51v1307q0 73 73 73t73 -73v-1235h581v1235q0 73 73 73q72 0 72 -73v-1743z" />
<glyph unicode="&#x427;" horiz-adv-x="1211" d="M1066 73q0 -73 -73 -73t-73 73v581h-472q-165 0 -282.5 117t-117.5 283v326q0 73 73 73t73 -73v-326q0 -105 74.5 -180t179.5 -75h472v581q0 73 73 73t73 -73v-1307z" />
<glyph unicode="&#x428;" horiz-adv-x="1889" d="M1744 73q0 -73 -72 -73h-1454q-73 0 -73 72v1308q0 73 73 73t73 -73v-1235h581v1235q0 73 73 73q72 0 72 -73v-1235h581v1235q0 73 73 73t73 -73v-1307z" />
<glyph unicode="&#x429;" horiz-adv-x="1889" d="M1744 -364q0 -73 -73 -73t-73 73v363h-1380q-73 0 -73 72v1309q0 72 73 72t73 -72v-1235h581v1235q0 72 73 72q72 0 72 -72v-1235h581v1235q0 72 73 72t73 -72v-1744z" />
<glyph unicode="&#x42a;" horiz-adv-x="1647" d="M1598 435q0 -180 -127.5 -308t-308.5 -128l-363 1q-29 0 -50.5 22t-21.5 51v1235h-654q-73 0 -73 72q0 73 73 73h726q29 0 51 -22t22 -51v-508h291q180 0 307.5 -128t127.5 -309zM1453 435q0 120 -85.5 206t-204.5 86h-291v-582l290 -1q120 0 205.5 85.5t85.5 205.5z" />
<glyph unicode="&#x42b;" horiz-adv-x="1405" d="M1259 73q0 -73 -72 -73q-23 0 -48 25t-25 48v1307q0 73 73 73q72 0 72 -73v-1307zM1017 435q0 -180 -128 -308t-308 -128l-363 1q-29 0 -51 22t-22 51v1307q0 73 73 73t73 -73v-508h290q181 0 308.5 -128t127.5 -309zM872 435q0 120 -85.5 206t-205.5 86h-290v-582 l290 -1q120 0 205.5 85.5t85.5 205.5z" />
<glyph unicode="&#x42c;" horiz-adv-x="1066" d="M1017 435q0 -180 -128 -308t-308 -128l-363 1q-29 0 -51 22t-22 51v1307q0 73 73 73t73 -73v-508h290q181 0 308.5 -128t127.5 -309zM872 435q0 120 -85.5 206t-205.5 86h-290v-582l290 -1q120 0 205.5 85.5t85.5 205.5z" />
<glyph unicode="&#x42d;" horiz-adv-x="1360" d="M1311 727q0 -301 -213 -514t-513 -213q-138 0 -279 56q-152 59 -235 157q-23 26 -23 50q0 30 23 52.5t52 22.5q24 0 51 -23l59 -51q150 -119 352 -119q219 0 384 145.5t192 363.5h-1039q-72 0 -72 73q0 72 72 72h1039q-27 218 -192 363.5t-384 145.5q-202 0 -352 -118 q-19 -18 -59 -52q-27 -23 -51 -23q-29 0 -52 22.5t-23 52.5q0 24 23 51q82 97 235 157q141 55 279 55q299 0 512.5 -213.5t213.5 -512.5z" />
<glyph unicode="&#x42e;" horiz-adv-x="2083" d="M2034 727q0 -301 -213 -514t-513 -213q-280 0 -487.5 188t-235.5 466h-294v-581q0 -73 -73 -73t-73 73v1307q0 73 73 73t73 -73v-581h294q28 278 236 466t487 188q300 0 513 -213t213 -513zM1889 727q0 240 -170.5 410.5t-410.5 170.5q-241 0 -411 -170.5t-170 -410.5 q0 -241 170 -411.5t411 -170.5q240 0 410.5 170.5t170.5 411.5z" />
<glyph unicode="&#x42f;" horiz-adv-x="1067" d="M922 73q0 -73 -73 -73t-73 73v567q-5 -21 -31 -47l-571 -572q-23 -22 -51 -22q-29 0 -52 22.5t-23 51.5q0 28 23 51l457 457h-42q-181 0 -308.5 128t-127.5 308t127.5 308t308.5 128h364q72 0 72 -72v-1308zM776 666v642h-290q-120 0 -205.5 -85.5t-85.5 -205.5 t85.5 -205t205.5 -85h108q72 1 108 1q62 0 74 -62z" />
<glyph unicode="&#x430;" horiz-adv-x="872" d="M775 73q0 -73 -73 -73t-72 73q-97 -73 -218 -73q-150 0 -257 106.5t-107 256.5t107 257t257 107q121 0 218 -73q0 90 -64 154t-154 64q-63 0 -126.5 -43.5t-78.5 -43.5q-30 0 -52.5 22.5t-22.5 52.5q0 24 23 51q89 106 257 106q150 0 256.5 -106.5t106.5 -256.5v-581z M630 363q0 90 -64 154t-154 64t-154 -64t-64 -154t64 -154t154 -64t154 64t64 154z" />
<glyph unicode="&#x431;" d="M1066 1380q0 -72 -73 -72q-195 0 -368.5 -90.5t-285.5 -249.5q103 49 218 49q210 0 359.5 -149t149.5 -359q0 -211 -149.5 -360t-359.5 -149t-359.5 149t-149.5 360q0 390 277 667t668 277q73 0 73 -73zM920 509q0 149 -106.5 256t-256.5 107t-256.5 -107t-106.5 -256 q0 -150 106.5 -257t256.5 -107t256.5 107t106.5 257z" />
<glyph unicode="&#x432;" horiz-adv-x="884" d="M836 315q0 -137 -107 -228q-101 -88 -239 -88l-272 1q-29 0 -51 22t-22 51v872q0 28 22 50t51 22h272q116 0 202 -74q89 -78 89 -192q0 -109 -82 -186q137 -94 137 -250zM636 751q0 53 -47 88q-43 33 -99 33h-199v-242h199q56 0 99 32q47 35 47 89zM690 315q0 74 -64 123 q-59 46 -136 46h-199v-339h199q77 0 136 45q64 50 64 125z" />
<glyph unicode="&#x433;" horiz-adv-x="884" d="M836 945q0 -73 -73 -73h-472v-799q0 -73 -73 -73t-73 73v872q0 28 22 50t51 22h545q73 0 73 -72z" />
<glyph unicode="&#x434;" horiz-adv-x="1225" d="M1176 71q0 -72 -74 -72h-979q-75 0 -75 72q0 19 17 49l477 848q28 50 70 50t70 -50l478 -848q16 -30 16 -49zM979 145l-367 651l-366 -651h733z" />
<glyph unicode="&#x435;" horiz-adv-x="1057" d="M1008 292q0 -17 -10 -38q-61 -115 -184.5 -184.5t-256.5 -69.5q-210 0 -359.5 149t-149.5 360q0 210 149.5 359t359.5 149q75 0 157 -28q93 -32 182 -102q111 -87 111 -164q0 -39 -36 -59l-686 -396q108 -123 272 -123q172 0 274 125q13 19 41.5 56.5t59.5 37.5 q30 0 53 -21t23 -51zM829 749q-109 123 -272 123q-150 0 -256.5 -107t-106.5 -256q0 -60 18 -116z" />
<glyph unicode="&#x436;" horiz-adv-x="1407" d="M1359 73q0 -29 -22.5 -51.5t-52.5 -22.5q-28 0 -50 22l-436 436q-17 17 -22 38v-422q0 -73 -72 -73q-73 0 -73 73v422q-4 -21 -21 -38l-436 -436q-23 -22 -51 -22q-29 0 -52 22.5t-23 51.5q0 28 23 51l385 385l-385 384q-23 23 -23 51q0 29 23 51.5t52 22.5q28 0 51 -22 l436 -436q17 -17 21 -38v423q0 72 73 72q72 0 72 -72v-423q5 21 22 38l436 436q22 22 50 22q30 0 52.5 -22.5t22.5 -51.5q0 -28 -23 -51l-384 -384l384 -385q23 -23 23 -51z" />
<glyph unicode="&#x437;" horiz-adv-x="788" d="M739 314q0 -135 -106 -227q-102 -88 -239 -88t-239 88q-107 92 -107 227q0 73 73 73t73 -73.5t64 -123.5q59 -46 136 -46t136 46q64 50 64 124q0 75 -64 124q-59 46 -136 46q-72 0 -72 73q0 72 72 72q55 0 100.5 34t45.5 87q0 54 -48 89q-43 33 -98 33q-56 0 -99 -33 q-47 -35 -47 -89q0 -72 -72 -72q-73 0 -73 72q0 115 89 193q86 74 202 74t202 -75q89 -78 89 -192q0 -108 -82 -185q136 -94 136 -251z" />
<glyph unicode="&#x438;" horiz-adv-x="1201" d="M1056 944l-1 -871q0 -73 -73 -73t-73 73v678l-626 -716q-32 -36 -63 -36q-75 0 -75 75l2 871q0 72 72 72q73 0 73 -72v-679l627 716q31 36 62 36q75 0 75 -74z" />
<glyph unicode="&#x439;" horiz-adv-x="1201" d="M894 1381q0 -28 -42 -72q-133 -144 -256 -144q-74 0 -153 54q-70 48 -117 116q-17 25 -17 46q0 29 23 51t52 22q31 0 95.5 -72t120.5 -72q57 0 121.5 72t95.5 72q30 0 53.5 -22t23.5 -51zM1056 944l-1 -871q0 -73 -73 -73t-73 73v678l-626 -716q-32 -36 -63 -36 q-75 0 -75 75l2 871q0 72 72 72q73 0 73 -72v-679l627 716q31 36 62 36q75 0 75 -74z" />
<glyph unicode="&#x43a;" horiz-adv-x="922" d="M873 73q0 -29 -22.5 -51.5t-51.5 -22.5t-51 22l-436 436q-17 17 -21 38v-422q0 -73 -73 -73t-73 73v872q0 72 73 72t73 -72v-423q4 21 21 38l436 436q22 22 51 22t51.5 -22.5t22.5 -51.5q0 -28 -22 -51l-385 -384l385 -385q22 -23 22 -51z" />
<glyph unicode="&#x43b;" horiz-adv-x="1225" d="M1177 71q0 -29 -23.5 -50.5t-52.5 -21.5q-40 0 -61 38l-427 759l-427 -759q-22 -38 -61 -38q-30 0 -53.5 21.5t-23.5 50.5q0 19 11 37l484 860q28 50 70 50t70 -50l483 -860q11 -18 11 -37z" />
<glyph unicode="&#x43c;" horiz-adv-x="1333" d="M1285 70q0 -70 -76 -70q-54 0 -68 55l-169 677l-234 -485q-26 -54 -72 -54q-45 0 -71 54l-234 485l-169 -677q-14 -55 -69 -55q-75 0 -75 70q0 10 3 20l215 860q17 68 74 68q45 0 71 -54l255 -530l256 530q26 54 70 54q58 0 75 -68l215 -860q3 -10 3 -20z" />
<glyph unicode="&#x43d;" horiz-adv-x="1090" d="M945 73q0 -73 -73 -73t-73 73v363h-508v-363q0 -73 -73 -73t-73 73v872q0 72 73 72t73 -72v-364h508v364q0 72 73 72t73 -72v-872z" />
<glyph unicode="&#x43e;" d="M1066 509q0 -211 -149.5 -360t-359.5 -149t-359.5 149t-149.5 360q0 210 149.5 359t359.5 149t359.5 -149t149.5 -359zM920 509q0 149 -106.5 256t-256.5 107t-256.5 -107t-106.5 -256q0 -150 106.5 -257t256.5 -107t256.5 107t106.5 257z" />
<glyph unicode="&#x43f;" horiz-adv-x="981" d="M836 73q0 -73 -73 -73t-73 73v799h-399v-799q0 -73 -73 -73t-73 73v872q0 28 22 50t51 22h546q72 0 72 -72v-872z" />
<glyph unicode="&#x440;" horiz-adv-x="1211" d="M1163 509q0 -211 -149.5 -360t-359.5 -149q-214 0 -363 153v-516q0 -73 -73 -73t-73 73v1308q0 72 73 72q56 0 69 -54q4 -17 4 -74v-24q149 152 363 152q210 0 359.5 -149t149.5 -359zM1017 509q0 149 -106.5 256t-256.5 107t-256.5 -107t-106.5 -256q0 -150 106.5 -257 t256.5 -107t256.5 107t106.5 257z" />
<glyph unicode="&#x441;" horiz-adv-x="988" d="M939 818q0 -30 -22.5 -52.5t-52.5 -22.5q-9 0 -107.5 64.5t-199.5 64.5q-150 0 -256.5 -107t-106.5 -256q0 -150 106.5 -257t256.5 -107q100 0 198.5 64.5t108.5 64.5q29 0 51.5 -23t22.5 -52q0 -24 -22 -51q-58 -68 -164 -109q-99 -39 -195 -39q-210 0 -359.5 149 t-149.5 360q0 210 149.5 359t359.5 149q96 0 195 -39q106 -42 164 -110q23 -26 23 -50z" />
<glyph unicode="&#x442;" horiz-adv-x="896" d="M848 945q0 -73 -73 -73h-254v-799q0 -73 -73 -73t-73 73v799h-254q-73 0 -73 73q0 72 73 72h654q73 0 73 -72z" />
<glyph unicode="&#x443;" horiz-adv-x="920" d="M775 -73q0 -149 -106.5 -256t-256.5 -107q-95 0 -182 49q-90 50 -132 131q-11 22 -11 39q0 29 23 50.5t53 21.5q25 0 90.5 -73t158.5 -73q90 0 154 64t64 154v146q-97 -73 -218 -73q-150 0 -257 106.5t-107 256.5v582q0 72 73 72t73 -72v-582q0 -90 64 -154t154 -64 t154 64t64 154v582q0 72 72 72q73 0 73 -72v-1018z" />
<glyph unicode="&#x444;" horiz-adv-x="1405" d="M1356 509q0 -185 -88 -334q-103 -175 -275 -175q-124 0 -218 99v-462q0 -73 -73 -73q-72 0 -72 73v462q-94 -99 -218 -99q-172 0 -276 175q-88 149 -88 334q0 184 88 333q104 175 276 175q124 0 218 -99v462q0 73 72 73q73 0 73 -73v-462q94 99 218 99q172 0 275 -175 q88 -149 88 -333zM1211 509q0 82 -21 153q-22 78 -69 137q-59 73 -128 73q-38 0 -80 -28q-138 -92 -138 -335q0 -244 138 -336q42 -28 80 -28q69 0 128 73q47 59 69 137q21 71 21 154zM630 509q0 82 -21 153q-22 78 -70 137q-58 73 -127 73q-38 0 -80 -28 q-138 -92 -138 -335q0 -244 138 -336q42 -28 80 -28q69 0 127 73q48 59 70 137q21 71 21 154z" />
<glyph unicode="&#x445;" horiz-adv-x="971" d="M923 72q0 -29 -23 -51t-52 -22q-32 0 -55 27l-307 369l-307 -369q-23 -27 -54 -27q-30 0 -53 22t-23 51q0 25 19 47l323 390l-324 389q-19 22 -19 47q0 29 23 51t53 22q31 0 54 -27l308 -369l306 369q23 27 55 27q29 0 52 -22t23 -51q0 -25 -18 -47l-324 -389l325 -390 q18 -22 18 -47z" />
<glyph unicode="&#x446;" horiz-adv-x="981" d="M836 -218q0 -73 -73 -73t-73 73v218h-472q-29 0 -51 22t-22 51v872q0 72 73 72t73 -72v-800h399v800q0 72 73 72t73 -72v-1163z" />
<glyph unicode="&#x447;" horiz-adv-x="993" d="M848 73q0 -73 -73 -73t-73 73v363h-336q-126 0 -220 81q-98 85 -98 209v219q0 72 73 72t73 -72v-218q0 -64 55 -107q51 -39 117 -39h336v364q0 72 73 72t73 -72v-872z" />
<glyph unicode="&#x448;" horiz-adv-x="1526" d="M1380 73q0 -73 -71 -73h-1091q-73 0 -73 72v873q0 72 73 72t73 -72v-800h399v800q0 72 73 72t73 -72v-800h399v800q0 72 73 72q72 0 72 -72v-872z" />
<glyph unicode="&#x449;" horiz-adv-x="1526" d="M1380 -218q0 -73 -72 -73q-73 0 -73 73v218h-1017q-29 0 -51 22t-22 51v872q0 72 73 72t73 -72v-800h399v800q0 72 73 72t73 -72v-800h399v800q0 72 73 72q72 0 72 -72v-1163z" />
<glyph unicode="&#x44a;" horiz-adv-x="1332" d="M1284 315q0 -136 -107 -228q-101 -88 -239 -88l-272 1q-29 0 -51 22t-22 51v799h-472q-73 0 -73 73q0 72 73 72h545q29 0 51 -22t22 -50v-315h199q138 0 239 -88q107 -92 107 -227zM1138 315q0 74 -64 123q-59 46 -136 46h-199v-339h199q77 0 136 45q64 50 64 125z" />
<glyph unicode="&#x44b;" horiz-adv-x="1187" d="M1042 73q0 -73 -73 -73t-73 73v872q0 72 73 72t73 -72v-872zM836 315q0 -137 -106 -228q-101 -88 -240 -88l-272 1q-29 0 -51 22t-22 51v872q0 72 73 72t73 -72v-315h200q137 0 239 -88q106 -92 106 -227zM690 315q0 74 -64 124q-59 45 -135 45h-200v-339h199 q77 0 136 45q64 50 64 125z" />
<glyph unicode="&#x44c;" horiz-adv-x="884" d="M836 315q0 -137 -107 -228q-101 -88 -239 -88l-272 1q-29 0 -51 22t-22 51v872q0 72 73 72t73 -72v-315h199q138 0 239 -88q107 -92 107 -227zM690 315q0 74 -64 123q-59 46 -136 46h-199v-339h199q77 0 136 45q64 50 64 125z" />
<glyph unicode="&#x44d;" horiz-adv-x="1057" d="M1008 509q0 -211 -149 -360t-359 -149q-133 0 -255 69q-125 70 -186 185q-11 21 -11 38q0 30 23.5 51t53.5 21q31 0 60 -37q13 -19 41 -57q102 -125 274 -125q163 0 272 123l-686 396q-36 20 -36 59q0 77 110 164q90 70 183 102q82 28 157 28q210 0 359 -149t149 -359z M863 509q0 149 -106.5 256t-256.5 107q-163 0 -272 -123l617 -356q18 56 18 116z" />
<glyph unicode="&#x44e;" horiz-adv-x="1550" d="M1502 509q0 -221 -147 -365t-368 -144q-198 0 -338 120t-171 316h-187v-363q0 -73 -73 -73t-73 73v872q0 72 73 72t73 -72v-364h187q30 196 170.5 316t338.5 120q221 0 368 -144t147 -364zM1356 509q0 159 -104.5 261t-264.5 102t-264.5 -102t-104.5 -261 q0 -160 104.5 -262t264.5 -102t264.5 102t104.5 262z" />
<glyph unicode="&#x44f;" horiz-adv-x="885" d="M740 73q0 -73 -73 -73q-72 0 -72 73v322l-424 -377q-23 -19 -49 -19q-29 0 -51.5 22.5t-22.5 52.5t26 53l294 261q-130 10 -222 96q-96 91 -96 218q0 135 106 227q102 88 239 88h273q72 0 72 -72v-872zM595 524v348h-200q-77 0 -136 -46q-64 -49 -64 -124q0 -74 64 -123 q59 -46 136 -46h81q55 1 82 1q18 0 37 -10z" />
<glyph unicode="&#x451;" horiz-adv-x="1057" d="M884 1272q0 -45 -32 -77t-77 -32t-77 32t-32 77t32 76.5t77 31.5t77 -31.5t32 -76.5zM449 1272q0 -45 -32.5 -77t-77.5 -32t-76.5 32t-31.5 77t31.5 76.5t76.5 31.5t77.5 -31.5t32.5 -76.5zM1008 292q0 -17 -10 -38q-61 -115 -184.5 -184.5t-256.5 -69.5 q-210 0 -359.5 149t-149.5 360q0 210 149.5 359t359.5 149q75 0 157 -28q93 -32 182 -102q111 -87 111 -164q0 -39 -36 -59l-686 -396q108 -123 272 -123q172 0 274 125q13 19 41.5 56.5t59.5 37.5q30 0 53 -21t23 -51zM829 749q-109 123 -272 123q-150 0 -256.5 -107 t-106.5 -256q0 -60 18 -116z" />
<glyph unicode="&#x452;" horiz-adv-x="1041" d="M945 -145q0 -120 -85.5 -205.5t-205.5 -85.5q-82 0 -142 30q-76 38 -76 112q0 75 58 75q21 0 66 -36t94 -36q60 0 102.5 43t42.5 103v799q0 90 -64 154t-154 64t-154 -64t-64 -154v-581q0 -73 -72 -73q-73 0 -73 73v1017h-145q-73 0 -73 73q0 72 73 72h145v145 q0 73 73 73q72 0 72 -73v-145h146q72 0 72 -72q0 -73 -72 -73h-146v-145q97 72 218 72q150 0 257 -106.5t107 -256.5v-799z" />
<glyph unicode="&#x453;" horiz-adv-x="884" d="M709 1378q0 -42 -41 -63l-290 -145q-18 -9 -35 -9q-30 0 -50.5 23.5t-20.5 53.5q0 42 41 62l290 145q18 9 35 9q29 0 50 -23t21 -53zM836 945q0 -73 -73 -73h-472v-799q0 -73 -73 -73t-73 73v872q0 28 22 50t51 22h545q73 0 73 -72z" />
<glyph unicode="&#x454;" horiz-adv-x="988" d="M939 818q0 -30 -22.5 -52.5t-52.5 -22.5q-9 0 -107 64.5t-200 64.5q-129 0 -229.5 -82.5t-126.5 -208.5h664q72 0 72 -72q0 -73 -72 -73h-664q26 -126 126.5 -208.5t229.5 -82.5q101 0 199 64.5t108 64.5q29 0 51.5 -23t22.5 -52q0 -24 -22 -51q-57 -68 -164 -109 q-99 -39 -195 -39q-210 0 -359.5 149t-149.5 360q0 210 149.5 359t359.5 149q96 0 195 -39q107 -42 164 -110q23 -26 23 -50z" />
<glyph unicode="&#x455;" horiz-adv-x="735" d="M687 327q0 -135 -96.5 -231t-230.5 -96q-101 0 -186.5 58.5t-119.5 151.5q-6 16 -6 29q0 30 23 50.5t53 20.5q34 0 63 -43q45 -68 56 -79q44 -43 117 -43q74 0 127.5 53.5t53.5 128.5q0 166 -186 182q-112 9 -181 74q-74 69 -74 180q0 105 75 179.5t180 74.5 q152 0 219 -126q11 -21 11 -38q0 -30 -23 -51t-53 -21t-67 45.5t-87 45.5q-45 0 -77 -32.5t-32 -76.5q0 -98 114 -109q145 -14 233 -96q94 -88 94 -231z" />
<glyph unicode="&#x456;" horiz-adv-x="436" d="M328 1343q0 -45 -32.5 -76.5t-77.5 -31.5t-77.5 31.5t-32.5 76.5t32.5 77.5t77.5 32.5t77.5 -32.5t32.5 -77.5zM291 945v-872q0 -73 -73 -73t-73 73v872q0 72 73 72t73 -72z" />
<glyph unicode="&#x457;" horiz-adv-x="436" d="M545 1272q0 -45 -32.5 -77t-77.5 -32t-76.5 32t-31.5 77t31.5 76.5t76.5 31.5q46 0 78 -31.5t32 -76.5zM109 1272q0 -45 -32.5 -77t-76.5 -32q-46 0 -77.5 32t-31.5 77t31.5 76.5t77.5 31.5q45 0 77 -31.5t32 -76.5zM290 945v-872q0 -73 -73 -73q-72 0 -72 73v872 q0 72 72 72q73 0 73 -72z" />
<glyph unicode="&#x458;" horiz-adv-x="436" d="M328 1343q0 -45 -32.5 -76.5t-77.5 -31.5t-77.5 31.5t-32.5 76.5t32.5 77.5t77.5 32.5t77.5 -32.5t32.5 -77.5zM291 -145q0 -120 -85.5 -205.5t-205.5 -85.5q-82 0 -142 30q-76 38 -76 112q0 75 58 75q21 0 66 -36t94 -36q60 0 102.5 43t42.5 103v1090q0 72 73 72t73 -72 v-1090z" />
<glyph unicode="&#x459;" horiz-adv-x="1442" d="M1394 316q0 -136 -106 -228q-101 -87 -240 -87h-272q-29 0 -50.5 22t-21.5 51v654l-523 -698q-23 -30 -57 -30q-29 0 -52.5 22t-23.5 51q0 24 16 45l647 862q30 39 64 39q74 0 74 -85v-303h200q137 0 239 -88q106 -92 106 -227zM1249 316q0 74 -65 124q-59 46 -135 46 h-200v-339l199 -1q78 0 136 46q65 49 65 124z" />
<glyph unicode="&#x45a;" horiz-adv-x="1538" d="M1489 315q0 -137 -106 -228q-101 -88 -239 -88l-272 1q-29 0 -51 22t-22 51v411h-508v-411q0 -73 -73 -73t-73 73v872q0 72 73 72t73 -72v-315h508v315q0 72 73 72t73 -72v-315h199q138 0 239 -88q106 -92 106 -227zM1344 315q0 74 -64 123q-59 46 -136 46h-199v-339h199 q77 0 136 45q64 50 64 125z" />
<glyph unicode="&#x45b;" horiz-adv-x="1041" d="M945 73q0 -73 -73 -73t-73 73v581q0 90 -64 154t-154 64t-154 -64t-64 -154v-581q0 -73 -72 -73q-73 0 -73 73v1017h-145q-73 0 -73 73q0 72 73 72h145v145q0 73 73 73q72 0 72 -73v-145h146q72 0 72 -72q0 -73 -72 -73h-146v-145q97 72 218 72q150 0 257 -106.5 t107 -256.5v-581z" />
<glyph unicode="&#x45c;" horiz-adv-x="940" d="M764 1378q0 -42 -41 -63l-291 -145q-17 -9 -35 -9q-29 0 -50 23.5t-21 53.5q0 42 41 62l291 145q17 9 34 9q30 0 51 -23t21 -53zM891 74q0 -30 -22 -52.5t-52 -22.5q-26 0 -48 19l-478 426v-371q0 -73 -73 -73t-73 73v872q0 72 73 72t73 -72v-371l478 425q22 20 48 20 q30 0 52 -23t22 -53t-25 -53l-430 -381l430 -382q25 -23 25 -53z" />
<glyph unicode="&#x45e;" horiz-adv-x="969" d="M753 1381q0 -28 -41 -72q-134 -144 -257 -144q-74 0 -153 54q-70 48 -117 116q-17 25 -17 46q0 29 23 51t53 22t94.5 -72t121.5 -72q56 0 121 72t95 72t53.5 -22t23.5 -51zM823 -73q0 -149 -106.5 -256t-256.5 -107q-94 0 -181 49q-90 50 -133 131q-11 22 -11 39 q0 29 23.5 50.5t52.5 21.5q25 0 90.5 -73t158.5 -73q90 0 154 64t64 154v146q-97 -73 -218 -73q-150 0 -256.5 106.5t-106.5 256.5v582q0 72 73 72q72 0 72 -72v-582q0 -90 64 -154t154 -64t154 64t64 154v582q0 72 73 72q72 0 72 -72v-1018z" />
<glyph unicode="&#x45f;" horiz-adv-x="981" d="M836 73q0 -73 -73 -73h-200v-218q0 -73 -73 -73q-72 0 -72 73v218h-200q-29 0 -51 22t-22 51v872q0 72 73 72t73 -72v-800h399v800q0 72 73 72t73 -72v-872z" />
<glyph unicode="&#x490;" horiz-adv-x="1017" d="M1017 1380q0 -72 -72 -72h-654v-1235q0 -73 -73 -73t-73 73v1307q0 29 22 51t51 22h654v218q0 73 73 73q72 0 72 -73v-291z" />
<glyph unicode="&#x491;" horiz-adv-x="884" d="M836 945q0 -29 -22 -51t-51 -22h-472v-799q0 -73 -73 -73t-73 73v872q0 28 22 50t51 22h472v218q0 73 73 73t73 -73v-290z" />
<glyph unicode="&#x1e80;" horiz-adv-x="2158" d="M1322 1674q0 -30 -21 -53.5t-51 -23.5q-17 0 -34 9l-291 145q-41 21 -41 63q0 30 21 53t51 23q17 0 34 -9l291 -145q41 -20 41 -62zM2158 1383q0 -18 -9 -35l-648 -1295q-26 -54 -71 -54t-71 54l-256 511l-256 -511q-26 -54 -71 -54q-44 0 -71 54l-648 1295q-9 17 -9 35 q0 29 23.5 50t53.5 21q42 0 62 -41l589 -1178l246 492l-311 621q-9 17 -9 35q0 29 23.5 50t52.5 21q43 0 63 -41l262 -524l262 524q20 41 63 41q29 0 52.5 -21t23.5 -50q0 -18 -9 -35l-311 -621l246 -492l589 1178q20 41 62 41q30 0 53.5 -21t23.5 -50z" />
<glyph unicode="&#x1e81;" horiz-adv-x="1697" d="M1067 1238q0 -30 -20.5 -53.5t-50.5 -23.5q-17 0 -34 9l-291 145q-41 21 -41 63q0 30 21 53t50 23q17 0 35 -9l291 -145q40 -20 40 -62zM1649 947q0 -18 -9 -35l-429 -859q-27 -54 -72 -54q-44 0 -71 54l-219 438l-220 -438q-26 -54 -71 -54q-44 0 -71 54l-430 859 q-9 17 -9 35q0 29 23.5 50t53.5 21q42 0 62 -41l371 -742l210 418l-130 259q-8 17 -8 35q0 29 23 50t53 21q42 0 62 -41l371 -742l371 742q21 41 63 41q30 0 53 -21t23 -50z" />
<glyph unicode="&#x1e82;" horiz-adv-x="2158" d="M1322 1814q0 -42 -41 -63l-291 -145q-17 -9 -34 -9q-30 0 -51 23.5t-21 53.5q0 42 41 62l291 145q17 9 34 9q30 0 51 -23t21 -53zM2158 1383q0 -18 -9 -35l-648 -1295q-26 -54 -71 -54t-71 54l-256 511l-256 -511q-26 -54 -71 -54q-44 0 -71 54l-648 1295q-9 17 -9 35 q0 29 23.5 50t53.5 21q42 0 62 -41l589 -1178l246 492l-311 621q-9 17 -9 35q0 29 23.5 50t52.5 21q43 0 63 -41l262 -524l262 524q20 41 63 41q29 0 52.5 -21t23.5 -50q0 -18 -9 -35l-311 -621l246 -492l589 1178q20 41 62 41q30 0 53.5 -21t23.5 -50z" />
<glyph unicode="&#x1e83;" horiz-adv-x="1697" d="M1067 1378q0 -42 -40 -63l-291 -145q-18 -9 -35 -9q-29 0 -50 23.5t-21 53.5q0 42 41 62l291 145q17 9 34 9q30 0 50.5 -23t20.5 -53zM1649 947q0 -18 -9 -35l-429 -859q-27 -54 -72 -54q-44 0 -71 54l-219 438l-220 -438q-26 -54 -71 -54q-44 0 -71 54l-430 859 q-9 17 -9 35q0 29 23.5 50t53.5 21q42 0 62 -41l371 -742l210 418l-130 259q-8 17 -8 35q0 29 23 50t53 21q42 0 62 -41l371 -742l371 742q21 41 63 41q30 0 53 -21t23 -50z" />
<glyph unicode="&#x1e84;" horiz-adv-x="2158" d="M1430 1708q0 -45 -32 -77.5t-77 -32.5t-77 32.5t-32 77.5t32 76.5t77 31.5t77 -31.5t32 -76.5zM995 1708q0 -45 -32.5 -77.5t-77.5 -32.5t-76.5 32.5t-31.5 77.5t31.5 76.5t76.5 31.5t77.5 -31.5t32.5 -76.5zM2158 1383q0 -18 -9 -35l-648 -1295q-26 -54 -71 -54t-71 54 l-256 511l-256 -511q-26 -54 -71 -54q-44 0 -71 54l-648 1295q-9 17 -9 35q0 29 23.5 50t53.5 21q42 0 62 -41l589 -1178l246 492l-311 621q-9 17 -9 35q0 29 23.5 50t52.5 21q43 0 63 -41l262 -524l262 524q20 41 63 41q29 0 52.5 -21t23.5 -50q0 -18 -9 -35l-311 -621 l246 -492l589 1178q20 41 62 41q30 0 53.5 -21t23.5 -50z" />
<glyph unicode="&#x1e85;" horiz-adv-x="1697" d="M1176 1272q0 -45 -32.5 -77t-76.5 -32q-45 0 -77 32t-32 77t32 76.5t77 31.5t77 -31.5t32 -76.5zM740 1272q0 -45 -32 -77t-77 -32t-77 32t-32 77t32 76.5t77 31.5t77 -31.5t32 -76.5zM1649 947q0 -18 -9 -35l-429 -859q-27 -54 -72 -54q-44 0 -71 54l-219 438l-220 -438 q-26 -54 -71 -54q-44 0 -71 54l-430 859q-9 17 -9 35q0 29 23.5 50t53.5 21q42 0 62 -41l371 -742l210 418l-130 259q-8 17 -8 35q0 29 23 50t53 21q42 0 62 -41l371 -742l371 742q21 41 63 41q30 0 53 -21t23 -50z" />
<glyph unicode="&#x1ef2;" horiz-adv-x="1214" d="M850 1674q0 -30 -21 -53.5t-51 -23.5q-17 0 -34 9l-291 145q-41 21 -41 63q0 30 21 53t51 23q17 0 34 -9l291 -145q41 -20 41 -62zM1214 1381q0 -24 -17 -45l-493 -634v-629q0 -73 -73 -73t-73 73v629l-493 634q-17 21 -17 45q0 29 23.5 51t52.5 22q33 0 56 -29l451 -580 l451 580q23 29 56 29q29 0 52.5 -22t23.5 -51z" />
<glyph unicode="&#x1ef3;" horiz-adv-x="969" d="M679 1238q0 -30 -21 -53.5t-50 -23.5q-18 0 -35 9l-291 145q-41 21 -41 63q0 30 21 53t51 23q17 0 34 -9l291 -145q41 -20 41 -62zM823 -73q0 -149 -106.5 -256t-256.5 -107q-94 0 -181 49q-90 50 -133 131q-11 22 -11 39q0 29 23.5 50.5t52.5 21.5q25 0 90.5 -73 t158.5 -73q90 0 154 64t64 154v146q-97 -73 -218 -73q-150 0 -256.5 106.5t-106.5 256.5v582q0 72 73 72q72 0 72 -72v-582q0 -90 64 -154t154 -64t154 64t64 154v582q0 72 73 72q72 0 72 -72v-1018z" />
<glyph unicode="&#x2000;" horiz-adv-x="945" />
<glyph unicode="&#x2001;" horiz-adv-x="1891" />
<glyph unicode="&#x2002;" horiz-adv-x="945" />
<glyph unicode="&#x2003;" horiz-adv-x="1891" />
<glyph unicode="&#x2004;" horiz-adv-x="630" />
<glyph unicode="&#x2005;" horiz-adv-x="472" />
<glyph unicode="&#x2006;" horiz-adv-x="315" />
<glyph unicode="&#x2007;" horiz-adv-x="315" />
<glyph unicode="&#x2008;" horiz-adv-x="236" />
<glyph unicode="&#x2009;" horiz-adv-x="378" />
<glyph unicode="&#x200a;" horiz-adv-x="105" />
<glyph unicode="&#x2010;" horiz-adv-x="678" d="M630 509q0 -73 -73 -73h-436q-73 0 -73 73q0 72 73 72h436q73 0 73 -72z" />
<glyph unicode="&#x2011;" horiz-adv-x="678" d="M630 509q0 -73 -73 -73h-436q-73 0 -73 73q0 72 73 72h436q73 0 73 -72z" />
<glyph unicode="&#x2013;" horiz-adv-x="823" d="M775 509q0 -73 -73 -73h-581q-73 0 -73 73q0 72 73 72h581q73 0 73 -72z" />
<glyph unicode="&#x2014;" horiz-adv-x="1405" d="M1356 509q0 -73 -72 -73h-1163q-73 0 -73 73q0 72 73 72h1163q72 0 72 -72z" />
<glyph unicode="&#x2015;" horiz-adv-x="1405" d="M1356 509q0 -73 -72 -73h-1163q-73 0 -73 73q0 72 73 72h1163q72 0 72 -72z" />
<glyph unicode="&#x2017;" horiz-adv-x="1188" d="M1188 -145h-1188v145h1188v-145zM1188 -387h-1188v145h1188v-145z" />
<glyph unicode="&#x2018;" horiz-adv-x="372" d="M324 1398q0 -11 -65 -106t-65 -202q0 -73 -73 -73t-73 73q0 98 40 196q41 103 110 164q26 23 51 23q29 0 52 -22.5t23 -52.5z" />
<glyph unicode="&#x2019;" horiz-adv-x="372" d="M324 1380q0 -97 -40 -195q-41 -104 -110 -165q-26 -23 -51 -23q-29 0 -52 23t-23 52q0 12 65 106.5t65 201.5q0 73 73 73t73 -73z" />
<glyph unicode="&#x201a;" horiz-adv-x="372" d="M324 73q0 -98 -40 -196q-41 -103 -110 -165q-26 -22 -51 -22q-29 0 -52 22.5t-23 51.5q0 12 65 106.5t65 202.5q0 72 73 72t73 -72z" />
<glyph unicode="&#x201b;" horiz-adv-x="372" d="M324 1072q0 -29 -23 -52t-52 -23q-25 0 -51 23q-69 61 -110 165q-40 98 -40 195q0 73 73 73t73 -73q0 -107 65 -201.5t65 -106.5z" />
<glyph unicode="&#x201c;" horiz-adv-x="808" d="M759 1398q0 -11 -64.5 -106t-64.5 -202q0 -73 -73 -73t-73 73q0 98 39 196q42 103 111 164q26 23 51 23q29 0 51.5 -22.5t22.5 -52.5zM324 1398q0 -11 -65 -106t-65 -202q0 -73 -73 -73t-73 73q0 98 40 196q41 103 110 164q26 23 51 23q29 0 52 -22.5t23 -52.5z" />
<glyph unicode="&#x201d;" horiz-adv-x="808" d="M759 1380q0 -97 -39 -195q-41 -104 -110 -165q-26 -23 -51 -23q-29 0 -52 23t-23 52q0 12 65 106.5t65 201.5q0 73 73 73q72 0 72 -73zM324 1380q0 -97 -40 -195q-41 -104 -110 -165q-26 -23 -51 -23q-29 0 -52 23t-23 52q0 12 65 106.5t65 201.5q0 73 73 73t73 -73z" />
<glyph unicode="&#x201e;" horiz-adv-x="808" d="M759 73q0 -98 -39 -196q-41 -103 -110 -165q-26 -22 -51 -22q-29 0 -52 22.5t-23 51.5q0 12 65 106.5t65 202.5q0 72 73 72q72 0 72 -72zM324 73q0 -98 -40 -196q-41 -103 -110 -165q-26 -22 -51 -22q-29 0 -52 22.5t-23 51.5q0 12 65 106.5t65 202.5q0 72 73 72t73 -72z " />
<glyph unicode="&#x2020;" horiz-adv-x="823" d="M775 945q0 -73 -73 -73h-218v-799q0 -73 -72 -73q-73 0 -73 73v799h-218q-73 0 -73 73q0 72 73 72h218v363q0 73 73 73q72 0 72 -73v-363h218q73 0 73 -72z" />
<glyph unicode="&#x2021;" horiz-adv-x="823" d="M775 509q0 -73 -73 -73h-218v-363q0 -73 -72 -73q-73 0 -73 73v363h-218q-73 0 -73 73q0 72 73 72h218v291h-218q-73 0 -73 73q0 72 73 72h218v363q0 73 73 73q72 0 72 -73v-363h218q73 0 73 -72q0 -73 -73 -73h-218v-291h218q73 0 73 -72z" />
<glyph unicode="&#x2022;" d="M1079 669q0 -68 -25 -126q-33 -76 -91 -76q-59 0 -91 76q-25 58 -25 126q0 65 26 126q34 77 90 77t89 -77q27 -61 27 -126zM818 814q0 -68 -25 -126q-33 -77 -91 -77q-59 0 -91 77q-25 58 -25 126q0 65 26 126q34 77 90 77t89 -77q27 -61 27 -126zM528 814 q0 -68 -25 -126q-32 -77 -91 -77q-58 0 -91 77q-25 58 -25 126q0 65 27 126q33 77 89 77t90 -77q26 -61 26 -126zM965 267q0 -85 -28 -152q-38 -89 -111 -89q-20 0 -57 16t-58 16q-30 0 -77 -29t-77 -29t-77 29t-77 29q-21 0 -58 -16t-57 -16q-73 0 -110 89q-29 67 -29 152 q0 140 138 232q122 81 270 81t270 -81q138 -92 138 -232zM267 669q0 -68 -25 -126q-32 -76 -91 -76q-58 0 -91 76q-25 58 -25 126q0 65 27 126q33 77 89 77t90 -77q26 -61 26 -126z" />
<glyph unicode="&#x2026;" horiz-adv-x="1480" d="M1432 110q0 -45 -33 -77.5t-78 -32.5t-77.5 32.5t-32.5 77.5q0 46 32.5 77t77.5 31q46 0 78.5 -31t32.5 -77zM851 110q0 -45 -33 -77.5t-78 -32.5t-77.5 32.5t-32.5 77.5q0 46 32.5 77t77.5 31q46 0 78.5 -31t32.5 -77zM269 110q0 -45 -32.5 -77.5t-77.5 -32.5t-78 32.5 t-33 77.5q0 46 32.5 77t78.5 31q45 0 77.5 -31t32.5 -77z" />
<glyph unicode="&#x202f;" horiz-adv-x="378" />
<glyph unicode="&#x2030;" horiz-adv-x="2351" d="M2302 363q0 -150 -106.5 -256.5t-256.5 -106.5t-256.5 106.5t-106.5 256.5t106.5 257t256.5 107t256.5 -107t106.5 -257zM776 1090q0 -150 -106.5 -256.5t-256.5 -106.5t-256.5 106.5t-106.5 256.5t106.5 256.5t256.5 106.5t256.5 -106.5t106.5 -256.5zM1503 363 q0 -150 -107 -256.5t-256 -106.5q-150 0 -257 106.5t-107 256.5t107 257t257 107q149 0 256 -107t107 -257zM1504 1380q0 -28 -22 -51l-1308 -1308q-23 -22 -51 -22q-29 0 -52 22.5t-23 51.5q0 28 23 51l1308 1308q22 22 51 22t51.5 -22.5t22.5 -51.5zM2157 363 q0 90 -64 154t-154 64t-154 -64t-64 -154t64 -154t154 -64t154 64t64 154zM631 1090q0 90 -64 154t-154 64t-154 -64t-64 -154t64 -154t154 -64t154 64t64 154zM1358 363q0 90 -64.5 154t-153.5 64q-90 0 -154 -64t-64 -154t64 -154t154 -64q89 0 153.5 64t64.5 154z" />
<glyph unicode="&#x2032;" horiz-adv-x="389" d="M341 1383q0 -14 -6 -30l-146 -363q-18 -46 -65 -46q-30 0 -53 20.5t-23 50.5q0 14 6 29l146 363q18 47 65 47q30 0 53 -20.5t23 -50.5z" />
<glyph unicode="&#x2033;" horiz-adv-x="752" d="M704 1383q0 -14 -6 -30l-145 -363q-19 -46 -65 -46q-30 0 -53 20.5t-23 50.5q0 14 6 29l145 363q19 47 65 47q30 0 53 -20.5t23 -50.5zM341 1383q0 -14 -6 -30l-146 -363q-18 -46 -65 -46q-30 0 -53 20.5t-23 50.5q0 14 6 29l146 363q18 47 65 47q30 0 53 -20.5t23 -50.5 z" />
<glyph unicode="&#x2039;" horiz-adv-x="457" d="M409 70q0 -29 -23 -50t-53 -21q-42 0 -63 41l-218 436q-4 8 -4 33t4 32l218 436q21 41 63 41q30 0 53 -21t23 -50q0 -18 -9 -35l-202 -403l202 -404q9 -17 9 -35z" />
<glyph unicode="&#x203a;" horiz-adv-x="457" d="M409 509q0 -25 -4 -33l-218 -436q-20 -41 -62 -41q-30 0 -53.5 21t-23.5 50q0 18 9 35l202 404l-202 403q-9 17 -9 35q0 29 23.5 50t53.5 21q42 0 62 -41l218 -436q4 -7 4 -32z" />
<glyph unicode="&#x203c;" horiz-adv-x="872" d="M727 436q0 -73 -73 -73t-73 73v944q0 73 73 73t73 -73v-944zM291 436q0 -73 -73 -73t-73 73v944q0 73 73 73t73 -73v-944zM764 110q0 -45 -32.5 -77.5t-77.5 -32.5t-78 32.5t-33 77.5q0 46 33 77t78 31t77.5 -31t32.5 -77zM328 110q0 -45 -32.5 -77.5t-77.5 -32.5 t-77.5 32.5t-32.5 77.5q0 46 32.5 77t77.5 31t77.5 -31t32.5 -77z" />
<glyph unicode="&#x203e;" horiz-adv-x="484" />
<glyph unicode="&#x2044;" horiz-adv-x="1553" d="M1504 1380q0 -28 -22 -51l-1308 -1308q-23 -22 -51 -22q-29 0 -52 22.5t-23 51.5q0 28 23 51l1308 1308q22 23 51 23t51.5 -23t22.5 -52z" />
<glyph unicode="&#x205f;" horiz-adv-x="472" />
<glyph unicode="&#x207f;" horiz-adv-x="823" d="M727 770q0 -73 -73 -73t-73 73v407q0 56 -44 93.5t-101 37.5t-101 -37.5t-44 -93.5v-407q0 -73 -73 -73t-73 73v610q0 73 73 73q48 0 66 -41q70 41 152 41q117 0 204 -80t87 -196v-407z" />
<glyph unicode="&#x20a3;" horiz-adv-x="1187" d="M1138 1380q0 -72 -72 -72h-654v-509h508q73 0 73 -72q0 -73 -73 -73h-508v-170h145q73 0 73 -72q0 -73 -73 -73h-145v-266q0 -73 -73 -73t-73 73v266h-145q-73 0 -73 73q0 72 73 72h145v896q0 29 22 51t51 22h727q72 0 72 -73z" />
<glyph unicode="&#x20a4;" horiz-adv-x="1117" d="M1069 73q0 -73 -73 -73h-872q-76 0 -76 73q0 72 76 72q60 0 102.5 43t42.5 103v290h-145q-72 0 -72 73t72 73h145v145h-145q-72 0 -72 73q0 72 72 72h145v146q0 119 85.5 204.5t205.5 85.5q82 0 142 -30q76 -38 76 -112q0 -75 -58 -75q-21 0 -66 36t-94 36 q-60 0 -102.5 -43t-42.5 -102v-146h145q73 0 73 -72q0 -73 -73 -73h-145v-145h145q73 0 73 -73t-73 -73h-145v-290q0 -78 -39 -146h620q73 0 73 -72z" />
<glyph unicode="&#x20a7;" horiz-adv-x="1877" d="M1829 251q0 -106 -78.5 -178.5t-185.5 -72.5q-82 0 -149 44q-49 -44 -145 -44q-95 0 -165.5 65t-70.5 160v385h-27q-18 -1 -28 -1q-109 0 -109 71q0 6 1 13q-124 -112 -291 -112h-290v-508q0 -73 -73 -73t-73 73v1307q0 29 22 51t51 22h363q181 0 308.5 -128t127.5 -308 q0 -146 -88 -263q13 2 106 2v232q0 73 73 73t73 -73v-232h30q19 1 29 1q104 0 104 -74q0 -58 -59 -70q-12 -3 -71 -3h-33v-385q0 -34 27.5 -57t62.5 -23q27 0 49 13q-7 15 -7 32q0 30 23.5 50t52.5 20q35 0 73.5 -57.5t102.5 -57.5q46 0 82 30t36 76q0 96 -121 105 q-90 7 -147 57q-62 55 -62 143q0 84 62 142t147 58q60 0 122 -39q69 -42 69 -99q0 -29 -23 -50.5t-53 -21.5q-29 0 -56.5 32t-58.5 32q-64 0 -64 -54q0 -49 67 -55q115 -10 186 -71q78 -68 78 -179zM872 1017q0 120 -85.5 205.5t-205.5 85.5h-290v-581h290q120 0 205.5 85 t85.5 205z" />
<glyph unicode="&#x20ac;" horiz-adv-x="1529" d="M1481 263q0 -41 -90 -110q-202 -153 -446 -153q-238 0 -430.5 141t-263.5 368h-130q-73 0 -73 72q0 60 64 72q10 2 47 2q25 0 63 -1q-4 36 -4 73q0 36 4 72q-10 0 -32.5 -1t-34.5 -1q-107 0 -107 75q0 73 73 73h130q71 226 263.5 367t430.5 141q244 0 446 -153 q90 -68 90 -110q0 -30 -23 -52.5t-52 -22.5q-23 0 -51 23l-62 54q-150 116 -348 116q-177 0 -325 -99.5t-214 -263.5h684q73 0 73 -73t-73 -73h-722q-5 -36 -5 -72q0 -37 5 -73h577q72 0 72 -73q0 -72 -72 -72h-539q66 -164 214 -264t325 -100q198 0 348 116q20 19 62 54 q28 23 51 23q29 0 52 -22.5t23 -52.5z" />
<glyph unicode="&#x2105;" horiz-adv-x="1553" d="M1504 1380q0 -28 -22 -51l-1308 -1308q-23 -22 -51 -22q-29 0 -52 22.5t-23 51.5q0 28 23 51l1308 1308q22 23 51 23t51.5 -23t22.5 -52zM1503 378q0 -160 -119.5 -269t-280.5 -109t-278 108q-121 110 -121 270q0 159 121 270q117 108 278 108t279 -108 q121 -111 121 -270zM754 1292q0 -29 -22 -52t-52 -23q-11 0 -85.5 45.5t-145.5 45.5q-101 0 -176 -65q-78 -68 -78 -168q0 -99 78 -167q75 -65 176 -65q71 0 145.5 45t85.5 45q29 0 51.5 -22.5t22.5 -52.5q0 -25 -25 -52q-96 -108 -280 -108q-161 0 -278 107 q-121 111 -121 270q0 160 121 271q117 107 278 107q184 0 281 -109q24 -27 24 -52zM1358 378q0 99 -79 167q-75 65 -176 65t-176 -65q-78 -68 -78 -167q0 -100 78 -168q75 -65 176 -65t176 65q79 68 79 168z" />
<glyph unicode="&#x2113;" horiz-adv-x="654" d="M606 142q0 -74 -76 -112q-60 -30 -142 -30q-119 0 -204.5 85.5t-85.5 205.5v926q0 97 69 166.5t167 69.5q97 0 166.5 -69.5t69.5 -166.5q0 -113 -327 -586v-340q0 -60 42.5 -103t102.5 -43q49 0 94 36t66 36q58 0 58 -75zM424 1217q0 37 -26.5 64t-63.5 27 q-38 0 -64.5 -27t-26.5 -64v-323q181 284 181 323z" />
<glyph unicode="&#x2116;" horiz-adv-x="2157" d="M2108 1075q0 -159 -121 -270q-117 -108 -278 -108q-162 0 -279 108q-121 110 -121 270l1 -1002q0 -74 -75 -74q-34 0 -64 39l-879 1131v-1096q0 -73 -73 -73q-72 0 -72 73l-2 1307q0 74 76 74q33 0 63 -39l880 -1131v1096q0 73 72 73q73 0 73 -73v-305q0 160 121 271 q117 107 279 107q161 0 278 -107q121 -111 121 -271zM1963 1075q0 100 -78 168q-75 65 -176 65t-176 -65q-79 -68 -79 -168q0 -99 79 -167q75 -65 176 -65t177.5 66.5t76.5 165.5z" />
<glyph unicode="&#x2122;" horiz-adv-x="1490" d="M1441 724q0 -70 -74 -70q-57 0 -70 57l-96 434l-83 -207q-71 -154 -122 -154q-32 0 -58 59l-129 302l-96 -434q-13 -57 -69 -57q-75 0 -75 70q0 9 2 18l145 654q16 69 68 69q46 0 70 -56l151 -353l151 353q24 56 70 56q53 0 68 -69l145 -654q2 -9 2 -18zM630 1380 q0 -72 -73 -72h-145v-581q0 -73 -73 -73t-73 73v581h-145q-73 0 -73 72q0 73 73 73h436q73 0 73 -73z" />
<glyph unicode="&#x2126;" horiz-adv-x="1550" d="M1502 73q0 -73 -73 -73l-434 -1q-76 0 -76 74q0 29 33 61l276 249q128 139 128 344q0 240 -170.5 410.5t-410.5 170.5t-410.5 -170.5t-170.5 -410.5q0 -205 128 -344l276 -249q33 -32 33 -61q0 -74 -76 -74l-434 1q-73 0 -73 73q0 72 73 72h248q-181 154 -239 248 q-82 130 -82 334q0 300 213.5 513t513.5 213q301 0 514 -213t213 -513q0 -204 -82 -334q-58 -94 -239 -248h248q73 0 73 -72z" />
<glyph unicode="&#x212e;" horiz-adv-x="1227" d="M1178 533q0 -43 -39 -43h-871v-254q0 -55 101.5 -118t237.5 -63q202 0 364 167h119q-62 -99 -211 -163q-137 -59 -266 -59q-187 0 -347 102q-218 139 -218 402q0 236 178 380q165 133 406 133q221 0 379 -129q167 -138 167 -355zM959 536v257q0 62 -98 117 q-95 52 -237 52q-145 0 -256 -67q-100 -60 -100 -123v-236h691z" />
<glyph unicode="&#x215b;" horiz-adv-x="1972" d="M1923 327q0 -138 -103 -232.5t-242 -94.5t-242 94.5t-103 232.5q0 165 139 262q-85 81 -85 196q0 116 87 196t204 80t204 -80t87 -196q0 -115 -85 -196q139 -97 139 -262zM1710 1380q0 -28 -23 -51l-1307 -1308q-23 -22 -51 -22q-30 0 -52.5 22.5t-22.5 51.5q0 28 23 51 l1308 1308q22 23 50 23q30 0 52.5 -23t22.5 -52zM558 618q0 -73 -72 -73h-291q-73 0 -73 73q0 55 51 68q17 4 95 4v523l-96 -89q-22 -21 -49 -21q-30 0 -52.5 23t-22.5 52t25 52l208 194q32 30 59 30q73 0 73 -87v-677q6 0 22 1h22q101 0 101 -73zM1723 785q0 56 -44 93 t-101 37t-101 -37t-44 -93t44 -93.5t101 -37.5t101 37.5t44 93.5zM1778 327q0 78 -60.5 130t-139.5 52t-138 -51q-62 -53 -62 -131t62 -131q59 -51 138 -51t139.5 52t60.5 130z" />
<glyph unicode="&#x215c;" horiz-adv-x="2167" d="M2119 327q0 -138 -103 -232.5t-242 -94.5t-242 94.5t-103 232.5q0 165 139 262q-85 81 -85 196q0 116 87 196t204 80t204 -80t87 -196q0 -115 -85 -196q139 -97 139 -262zM1833 1380q0 -28 -22 -51l-1308 -1308q-23 -22 -51 -22q-29 0 -52 22.5t-23 51.5q0 28 23 51 l1308 1308q22 23 51 23t51.5 -23t22.5 -52zM764 1390q0 -34 -35 -65l-275 -235q128 -24 213 -119q87 -98 87 -226q0 -149 -111 -251t-261 -102q-94 0 -184 46q-95 50 -137 128q-13 23 -13 40q0 29 23.5 50.5t52.5 21.5q23 0 91 -70t167 -70q90 0 158.5 59t68.5 148 q0 88 -70 149q-67 58 -157 58q-65 0 -131.5 -42t-83.5 -42q-29 0 -51 22t-22 51q0 33 29 57l362 310h-363q-73 0 -73 72q0 73 73 73h560q82 0 82 -63zM1919 785q0 56 -44 93t-101 37t-101 -37t-44 -93t44 -93.5t101 -37.5t101 37.5t44 93.5zM1974 327q0 78 -60.5 130 t-139.5 52t-138 -51q-62 -53 -62 -131t62 -131q59 -51 138 -51t139.5 52t60.5 130z" />
<glyph unicode="&#x215d;" horiz-adv-x="2193" d="M2145 327q0 -138 -105 -234q-101 -93 -241 -93q-139 0 -240 93q-105 96 -105 234q0 165 140 262q-85 81 -85 196q0 116 88 197q85 79 202 79q118 0 204.5 -80t86.5 -196q0 -115 -85 -196q140 -97 140 -262zM1859 1380q0 -28 -23 -51l-1308 -1308q-22 -22 -50 -22 q-30 0 -52.5 22.5t-22.5 51.5q0 28 23 51l1307 1308q23 23 51 23q30 0 52.5 -23t22.5 -52zM805 1381q0 -73 -73 -73h-472l-33 -200q84 40 179 40q160 0 279.5 -109t119.5 -269q0 -159 -119.5 -268.5t-279.5 -109.5q-102 0 -198 50q-103 53 -147 137q-13 23 -13 40 q0 29 23.5 50.5t52.5 21.5q27 0 64 -39q51 -57 77 -74q59 -40 141 -40q100 0 175 65q79 68 79 167q0 100 -79 168q-75 65 -175 65q-135 0 -218 -112q-31 -41 -64 -41q-30 0 -52.5 21t-22.5 51l3 21l74 447q11 63 71 63h535q73 0 73 -72zM1945 785q0 56 -44.5 93t-101.5 37 q-56 0 -99 -36q-46 -38 -46 -94t46 -95q43 -36 99 -36q57 0 101.5 37.5t44.5 93.5zM1999 327q0 78 -62 131q-58 51 -138 51q-79 0 -139 -52t-60 -130t60 -130t139 -52q80 0 138 51q62 53 62 131z" />
<glyph unicode="&#x215e;" horiz-adv-x="2134" d="M2085 327q0 -138 -102.5 -232.5t-242.5 -94.5q-139 0 -242 94.5t-103 232.5q0 165 140 262q-85 81 -85 196q0 116 86.5 196t203.5 80q118 0 204.5 -80t86.5 -196q0 -115 -85 -196q139 -97 139 -262zM1800 1380q0 -28 -23 -51l-1308 -1308q-22 -22 -51 -22t-51.5 22.5 t-22.5 51.5q0 28 22 51l1308 1308q23 23 51 23q29 0 52 -23t23 -52zM852 1391q0 -22 -14 -47l-527 -915q-21 -37 -60 -37q-30 0 -53.5 21t-23.5 50q0 19 11 38l464 807h-528q-73 0 -73 73q0 72 73 72h654q77 0 77 -62zM1886 785q0 56 -44.5 93t-101.5 37t-101 -37t-44 -93 t44 -93.5t101 -37.5t101.5 37.5t44.5 93.5zM1940 327q0 78 -60.5 130t-139.5 52t-138 -51q-62 -53 -62 -131t62 -131q59 -51 138 -51t139.5 52t60.5 130z" />
<glyph unicode="&#x2190;" d="M1066 618q0 -73 -72 -73h-697l167 -167q22 -22 22 -50q0 -30 -22.5 -52.5t-51.5 -22.5q-28 0 -51 23l-281 281q-32 31 -32 59q8 24 32 63l281 281q23 22 51 22q29 0 51.5 -22.5t22.5 -51.5t-22 -51l-167 -167h697q72 0 72 -72z" />
<glyph unicode="&#x2191;" d="M922 764q0 -30 -23 -52.5t-52 -22.5q-28 0 -51 23l-166 166v-696q0 -73 -73 -73t-73 73v696l-166 -166q-23 -23 -51 -23q-29 0 -52 22.5t-23 52.5q0 28 23 50l281 281q32 32 59 32q31 0 63 -32l281 -281q23 -22 23 -50z" />
<glyph unicode="&#x2192;" d="M1066 618q0 -29 -32 -61l-281 -281q-23 -23 -51 -23q-29 0 -51.5 22.5t-22.5 52.5q0 28 22 50l167 167h-697q-72 0 -72 73q0 72 72 72h697l-167 167q-22 22 -22 51t22.5 51.5t51.5 22.5q28 0 51 -22l281 -281q32 -33 32 -61z" />
<glyph unicode="&#x2193;" d="M922 472q0 -29 -23 -51l-281 -281q-32 -32 -60 -32q-30 0 -62 32l-281 281q-23 22 -23 51t23 51.5t52 22.5q28 0 51 -22l166 -167v697q0 72 73 72t73 -72v-697l166 167q23 22 51 22q29 0 52 -22.5t23 -51.5z" />
<glyph unicode="&#x2194;" d="M1067 618q0 -29 -32 -61l-281 -281q-23 -23 -51 -23q-29 0 -52 22.5t-23 52.5q0 28 23 50l167 167h-522l167 -167q23 -22 23 -50q0 -30 -23 -52.5t-52 -22.5q-28 0 -51 23l-281 281q-32 32 -32 59q0 30 32 63l281 281q23 22 51 22q29 0 52 -22.5t23 -51.5t-23 -51 l-167 -167h522l-167 167q-23 22 -23 51t23 51.5t52 22.5q28 0 51 -22l281 -281q32 -33 32 -61z" />
<glyph unicode="&#x2195;" d="M922 472q0 -29 -23 -51l-281 -281q-32 -32 -60 -32q-30 0 -62 32l-281 281q-23 22 -23 51t23 51.5t52 22.5q28 0 51 -22l166 -167v521l-166 -166q-23 -23 -51 -23q-29 0 -52 22.5t-23 52.5q0 28 23 50l281 281q32 32 59 32q31 0 63 -32l281 -281q23 -22 23 -50 q0 -30 -23 -52.5t-52 -22.5q-28 0 -51 23l-166 166v-521l166 167q23 22 51 22q29 0 52 -22.5t23 -51.5z" />
<glyph unicode="&#x21a8;" d="M922 764q0 -30 -23 -52.5t-52 -22.5q-28 0 -51 23l-166 166v-521l166 167q23 22 51 22q29 0 52 -22.5t23 -51.5t-23 -51l-276 -276h225q72 0 72 -72q0 -73 -72 -73h-582q-72 0 -72 73q0 72 72 72h225l-276 276q-23 22 -23 51t23 51.5t52 22.5q28 0 51 -22l166 -167v521 l-166 -166q-23 -23 -51 -23q-29 0 -52 22.5t-23 52.5q0 28 23 50l281 281q32 32 59 32q31 0 63 -32l281 -281q23 -22 23 -50z" />
<glyph unicode="&#x2202;" d="M1066 509q0 -211 -149.5 -360t-359.5 -149t-359.5 149t-149.5 360q0 210 149.5 359t359.5 149q115 0 218 -49q-112 159 -285.5 249.5t-368.5 90.5q-73 0 -73 72q0 73 73 73q391 0 668 -277t277 -667zM920 509q0 149 -106.5 256t-256.5 107t-256.5 -107t-106.5 -256 q0 -150 106.5 -257t256.5 -107t256.5 107t106.5 257z" />
<glyph unicode="&#x2206;" d="M1134 180q0 -72 -75 -72h-1004q-75 0 -75 72q0 20 17 50l490 848q29 49 70 49t70 -49l490 -848q17 -30 17 -50zM935 254l-378 654l-378 -654h756z" />
<glyph unicode="&#x220f;" horiz-adv-x="1405" d="M1259 -363q0 -73 -72 -73q-73 0 -73 73v1671h-823v-1671q0 -73 -73 -73t-73 73v1743q0 29 22 51t51 22h969q72 0 72 -72v-1744z" />
<glyph unicode="&#x2211;" horiz-adv-x="1212" d="M1163 1380q0 -72 -72 -72h-794l748 -748q23 -23 23 -50q0 -30 -23 -53l-748 -748h793q73 0 73 -72q0 -73 -73 -73l-966 -1q-76 0 -76 74q0 29 32 61l811 811l-811 810q-32 32 -32 61q0 74 76 74l967 -1q72 0 72 -73z" />
<glyph unicode="&#x2219;" d="M667 618q0 -45 -32.5 -78t-77.5 -33t-77.5 33t-32.5 78t32.5 76t77.5 31t77.5 -31t32.5 -76z" />
<glyph unicode="&#x221a;" d="M1029 1380q0 -72 -72 -72h-375l-206 -1240q-12 -68 -73 -68q-62 0 -73 68l-144 865q-1 7 -1 14q0 70 74 70q60 0 70 -61l74 -441l146 874q10 64 68 64h440q72 0 72 -73z" />
<glyph unicode="&#x221e;" horiz-adv-x="1986" d="M1937 618q0 -211 -149 -360t-359 -149q-133 0 -250 66t-186 180q-69 -114 -186 -180t-250 -66q-210 0 -359.5 149t-149.5 360q0 210 149.5 359t359.5 149q133 0 250 -66t186 -180q69 114 186 180t250 66q210 0 359 -149t149 -359zM1792 618q0 149 -106.5 256t-256.5 107 t-256.5 -107t-106.5 -256q0 -150 106.5 -257t256.5 -107t256.5 107t106.5 257zM920 618q0 149 -106.5 256t-256.5 107t-256.5 -107t-106.5 -256q0 -150 106.5 -257t256.5 -107t256.5 107t106.5 257z" />
<glyph unicode="&#x221f;" d="M1066 182q0 -73 -73 -73h-872q-73 0 -73 73q0 72 73 72h363v800q0 72 73 72t73 -72v-800h363q73 0 73 -72z" />
<glyph unicode="&#x2229;" d="M1066 182q0 -73 -73 -73t-73 73v436q0 149 -106.5 256t-256.5 107t-256.5 -107t-106.5 -256v-436q0 -73 -73 -73t-73 73v436q0 210 149.5 359t359.5 149t359.5 -149t149.5 -359v-436z" />
<glyph unicode="&#x222b;" d="M993 1311q0 -75 -58 -75q-21 0 -66 36t-94 36q-60 0 -102.5 -43t-42.5 -102v-1308q0 -120 -85.5 -205.5t-205.5 -85.5q-82 0 -142 30q-76 38 -76 112q0 75 58 75q21 0 66 -36t94 -36q60 0 102.5 43t42.5 103v1308q0 119 85.5 204.5t205.5 85.5q82 0 142 -30 q76 -38 76 -112z" />
</font>
</defs>
</svg>
