<?xml version="1.0" standalone="no"?>
<!DOCTYPE svg PUBLIC "-//W3C//DTD SVG 1.1//EN" "http://www.w3.org/Graphics/SVG/1.1/DTD/svg11.dtd" >
<svg xmlns="http://www.w3.org/2000/svg">
<metadata>
This is a custom SVG webfont generated by Font Squirrel.
</metadata>
<defs>
<font id="webfontH9yVGnDH" horiz-adv-x="1070" >
<font-face units-per-em="2325" ascent="1860" descent="-465" />
<missing-glyph horiz-adv-x="456" />
<glyph unicode=" "  horiz-adv-x="456" />
<glyph unicode="&#x09;" horiz-adv-x="456" />
<glyph unicode="&#xa0;" horiz-adv-x="456" />
<glyph unicode="!" horiz-adv-x="370" d="M220 410q0 -35 -35 -35t-35 35v975q0 35 35 35t35 -35v-975zM259 74q0 -30 -22 -52t-52 -22t-52 22t-22 52q0 71 74 71t74 -71z" />
<glyph unicode="&#x22;" horiz-adv-x="696" d="M646 1386q0 -10 -70 -188t-83 -200.5t-31 -22.5q-37 0 -37 34q0 10 70 188t82.5 200.5t31.5 22.5q37 0 37 -34zM271 1386q0 -10 -70 -188t-83 -200.5t-31 -22.5q-37 0 -37 34q0 10 70 188t82.5 200.5t31.5 22.5q37 0 37 -34z" />
<glyph unicode="#" horiz-adv-x="1520" d="M1470 485q0 -35 -35 -35h-415v-415q0 -35 -35 -35t-35 35v415h-380v-415q0 -35 -35 -35t-35 35v415h-415q-35 0 -35 35t35 35h415v380h-415q-35 0 -35 35t35 35h415v415q0 35 35 35t35 -35v-415h380v415q0 35 35 35t35 -35v-415h415q35 0 35 -35t-35 -35h-415v-380h415 q35 0 35 -35zM950 520v380h-380v-380h380z" />
<glyph unicode="$" horiz-adv-x="871" d="M821 410q0 -130 -76 -237t-199 -150v-288q0 -35 -35 -35t-35 35v270q-32 -5 -65 -5t-65 5v-270q0 -35 -35 -35t-35 35v288q-153 53 -221 182q-5 11 -5 19q0 34 37 34q16 0 29 -18q78 -107 160 -142v680q-91 40 -145.5 124t-54.5 183t54.5 183t145.5 124v293q0 35 35 35 t35 -35v-271q32 6 65 6t65 -6v271q0 35 35 35t35 -35v-293q43 -20 96 -66q64 -55 64 -91q0 -34 -37 -34q-16 0 -29 17q-51 69 -94 95v-516q123 -43 199 -150t76 -237zM476 815v527q-32 8 -65 8t-65 -8v-514q43 -3 130 -13zM276 857v456q-130 -77 -130 -228t130 -228z M751 410q0 101 -56 186.5t-149 125.5v-624q93 40 149 125.5t56 186.5zM476 76v668q-44 2 -130 12v-680q32 -6 65 -6t65 6z" />
<glyph unicode="%" horiz-adv-x="1521" d="M721 1085q0 -138 -98.5 -236.5t-236.5 -98.5q-139 0 -237 98.5t-98 236.5t98 236.5t237 98.5q138 0 236.5 -98.5t98.5 -236.5zM1471 335q0 -138 -98.5 -236.5t-236.5 -98.5q-139 0 -237 98.5t-98 236.5t98 236.5t237 98.5q138 0 236.5 -98.5t98.5 -236.5zM1471 1385 q0 -14 -11 -25l-1350 -1350q-11 -11 -24 -11q-36 0 -36 36q0 14 11 25l1350 1350q11 11 24 11q36 0 36 -36zM651 1085q0 109 -78 187t-187 78q-110 0 -187.5 -78t-77.5 -187t77.5 -187t187.5 -78q109 0 187 78t78 187zM1401 335q0 109 -78 187t-187 78q-110 0 -187.5 -78 t-77.5 -187t77.5 -187t187.5 -78q109 0 187 78t78 187z" />
<glyph unicode="&#x26;" horiz-adv-x="1171" d="M1121 35q0 -36 -36 -36q-14 0 -25 11l-228 228q-50 -108 -151 -173t-221 -65q-170 0 -290 120t-120 290q0 120 65 221t174 152q-90 89 -117 132q-47 74 -47 170q0 138 98.5 236.5t236.5 98.5t236.5 -98.5t98.5 -236.5t-98.5 -236.5t-236.5 -98.5q-19 0 -38 -2l688 -688 q11 -11 11 -25zM725 1085q0 109 -78 187t-187 78t-187 -78t-78 -187q0 -85 52 -156q19 -26 115 -121q48 12 98 12q109 0 187 78t78 187zM779 292l-437 437q-100 -37 -161 -125t-61 -194q0 -140 100 -240t240 -100q106 0 194 61t125 161z" />
<glyph unicode="'" horiz-adv-x="321" d="M271 1386q0 -10 -70 -188t-83 -200.5t-31 -22.5q-37 0 -37 34q0 10 70 188t82.5 200.5t31.5 22.5q37 0 37 -34z" />
<glyph unicode="(" horiz-adv-x="411" d="M361 1385q0 -9 -5 -18q-236 -446 -236 -882t235 -881q6 -10 6 -19q0 -34 -37 -34q-28 0 -99 151q-175 374 -175 783t175 783q71 151 99 151q37 0 37 -34z" />
<glyph unicode=")" horiz-adv-x="411" d="M361 485q0 -409 -175 -783q-71 -151 -99 -151q-37 0 -37 34q0 9 5 19q236 445 236 881t-236 882q-5 9 -5 18q0 34 37 34q28 0 99 -151q175 -374 175 -783z" />
<glyph unicode="*" d="M1020 935q0 -36 -35 -35l-387 9l280 -267q11 -11 11 -25q0 -36 -36 -36q-14 0 -25 11l-267 280l9 -387q1 -35 -35 -35t-35 35l9 387l-267 -280q-11 -11 -25 -11q-36 0 -36 36q0 14 11 25l280 267l-387 -9q-35 -1 -35 35t35 35l387 -9l-280 267q-11 11 -11 25q0 36 36 36 q14 0 25 -11l267 -280l-9 387q-1 35 35 35t35 -35l-9 -387l267 280q11 11 25 11q36 0 36 -36q0 -14 -11 -25l-280 -267l387 9q35 1 35 -35z" />
<glyph unicode="+" d="M1020 597q0 -35 -35 -35l-415 1v-416q0 -34 -35 -34t-35 34v416l-415 -1q-35 0 -35 35t35 35h415v415q0 35 35 35t35 -35v-415h415q35 0 35 -35z" />
<glyph unicode="," horiz-adv-x="303" d="M253 35q0 -93 -37 -187q-40 -100 -106 -157q-12 -11 -24 -11q-36 0 -36 36q0 12 11 25q122 148 122 294q0 35 35 35t35 -35z" />
<glyph unicode="-" horiz-adv-x="620" d="M570 485q0 -35 -35 -35h-450q-35 0 -35 35t35 35h450q35 0 35 -35z" />
<glyph unicode="." horiz-adv-x="248" d="M198 74q0 -30 -22 -52t-52 -22t-52 22t-22 52q0 71 74 71t74 -71z" />
<glyph unicode="/" horiz-adv-x="1071" d="M1021 1386q0 -20 -759 -1528l-105 -210l-40 -80q-12 -19 -30 -19q-37 0 -37 34q0 20 759 1528l105 210l40 80q12 19 30 19q37 0 37 -34z" />
<glyph unicode="0" d="M1020 597q0 -226 -127 -402q-140 -195 -358 -195t-358 195q-127 176 -127 402q0 227 127 403q140 195 358 195t358 -195q127 -176 127 -403zM950 597q0 197 -107 353q-120 175 -308 175t-308 -175q-107 -156 -107 -353q0 -196 107 -352q120 -175 308 -175t308 175 q107 156 107 352zM572 597q0 -37 -37 -37t-37 37q0 35 37 35t37 -35z" />
<glyph unicode="1" d="M895 35q0 -35 -35 -35h-550q-35 0 -35 35t35 35h240v1006l-315 -316q-11 -11 -24 -11q-36 0 -36 36q0 14 11 25l370 370q15 16 29 16q35 0 35 -43v-1083h240q35 0 35 -35z" />
<glyph unicode="2" d="M948 35q0 -35 -35 -35h-750q-41 0 -41 31q0 17 19 32l642 486q95 72 95 236q0 140 -100 240t-240 100q-141 0 -240.5 -100t-99.5 -240q0 -35 -35 -35t-35 35q0 170 120 290t290 120q169 0 289.5 -120t120.5 -290q0 -199 -123 -292l-558 -423h646q35 0 35 -35z" />
<glyph unicode="3" d="M957 1165q0 -16 -16 -31l-512 -470q36 6 76 6q185 0 316.5 -131t131.5 -317q0 -185 -131.5 -316t-316.5 -131q-118 0 -223 60q-108 61 -164 163q-5 10 -5 19q0 34 36 34q16 0 29 -17q13 -21 42 -59q112 -130 285 -130q156 0 267 111t111 266q0 156 -111 267t-267 111 q-98 0 -197.5 -60.5t-94.5 -60.5q-35 0 -35 35q0 15 13 27l637 584h-680q-35 0 -35 35t35 35h770q39 0 39 -30z" />
<glyph unicode="4" d="M1021 260q0 -35 -35 -35h-265v-415q0 -35 -35 -35t-35 35v415h-565q-37 0 -37 30q0 12 8 24l600 900q14 21 33 21q31 0 31 -40v-865h265q35 0 35 -35zM651 295v749l-499 -749h499z" />
<glyph unicode="5" d="M990 1160q0 -35 -35 -35h-705l-80 -514q141 134 335 134q201 0 343 -142t142 -343t-142 -343t-343 -142q-128 0 -243 65.5t-177 176.5q-5 10 -5 19q0 34 36 34q17 0 30 -17q12 -20 41 -59q122 -149 318 -149q172 0 293.5 121.5t121.5 293.5t-121.5 293.5t-293.5 121.5 q-196 0 -318 -149l-41 -59q-17 -22 -34 -22q-32 0 -32 31v6l1 8l105 675q4 30 34 30h735q35 0 35 -35z" />
<glyph unicode="6" d="M1020 1385q0 -35 -35 -35q-259 0 -476 -143t-319 -382q142 145 345 145q201 0 343 -142t142 -343t-142 -343t-343 -142t-343 142t-142 343q0 387 274 661t661 274q35 0 35 -35zM950 485q0 172 -121.5 293.5t-293.5 121.5t-293.5 -121.5t-121.5 -293.5t121.5 -293.5 t293.5 -121.5t293.5 121.5t121.5 293.5z" />
<glyph unicode="7" d="M1021 1165q0 -10 -6 -22l-725 -1350q-10 -18 -30 -18q-36 0 -36 34q0 9 4 18l698 1298h-842q-35 0 -35 35t35 35h900q37 0 37 -30z" />
<glyph unicode="8" d="M945 410q0 -170 -120 -290t-290 -120t-290 120t-120 290q0 124 69.5 227.5t183.5 151.5q-178 95 -178 296q0 138 98.5 236.5t236.5 98.5t236.5 -98.5t98.5 -236.5q0 -201 -178 -296q114 -48 183.5 -151.5t69.5 -227.5zM800 1085q0 109 -78 187t-187 78t-187 -78t-78 -187 t78 -187t187 -78t187 78t78 187zM875 410q0 140 -100 240t-240 100t-240 -100t-100 -240t100 -240t240 -100t240 100t100 240z" />
<glyph unicode="9" d="M1020 710q0 -387 -274 -661t-661 -274q-35 0 -35 35t35 35q259 0 476 143t319 382q-142 -145 -345 -145q-201 0 -343 142t-142 343t142 343t343 142t343 -142t142 -343zM950 710q0 172 -121.5 293.5t-293.5 121.5t-293.5 -121.5t-121.5 -293.5t121.5 -293.5t293.5 -121.5 t293.5 121.5t121.5 293.5z" />
<glyph unicode=":" horiz-adv-x="248" d="M198 899q0 -30 -22 -52t-52 -22t-52 22t-22 52q0 71 74 71t74 -71zM198 74q0 -30 -22 -52t-52 -22t-52 22t-22 52q0 71 74 71t74 -71z" />
<glyph unicode=";" horiz-adv-x="362" d="M292 899q0 -30 -22 -52t-52 -22t-52 22t-22 52q0 71 74 71t74 -71zM253 35q0 -93 -37 -187q-40 -100 -106 -157q-12 -11 -24 -11q-36 0 -36 36q0 12 11 25q122 148 122 294q0 35 35 35t35 -35z" />
<glyph unicode="&#x3c;" d="M1020 149q0 -37 -34 -37q-13 0 -431 208q-413 205 -480 243q-25 15 -25 34q0 20 25 35q72 40 481 243q417 208 430 208q34 0 34 -37q0 -20 -19 -30l-838 -418l838 -419q19 -10 19 -30z" />
<glyph unicode="=" d="M1020 747q0 -35 -35 -35h-900q-35 0 -35 35t35 35h900q35 0 35 -35zM1020 447q0 -35 -35 -35h-900q-35 0 -35 35t35 35h900q35 0 35 -35z" />
<glyph unicode="&#x3e;" d="M1020 597q0 -19 -25 -34q-71 -39 -481 -243q-417 -208 -430 -208q-34 0 -34 37q0 20 19 30l838 419l-838 418q-19 10 -19 30q0 37 34 37q13 0 430 -208q410 -204 481 -243q25 -15 25 -35z" />
<glyph unicode="?" horiz-adv-x="770" d="M720 1085q0 -138 -98.5 -236.5t-236.5 -98.5q-63 0 -108 -45t-45 -108q0 -62 45 -107t108 -45q23 0 54.5 13t40.5 13q34 0 34 -37q0 -28 -52 -46q-40 -13 -77 -13q-92 0 -157.5 65.5t-65.5 156.5q0 92 65.5 157.5t157.5 65.5q109 0 187 78t78 187t-78 187t-187 78 t-187 -78t-78 -187q0 -35 -35 -35t-35 35q0 138 98.5 236.5t236.5 98.5t236.5 -98.5t98.5 -236.5zM459 74q0 -30 -22 -52t-52 -22t-52 22t-22 52q0 71 74 71t74 -71z" />
<glyph unicode="@" horiz-adv-x="1345" d="M1295 885q0 -222 -156.5 -378.5t-378.5 -156.5q-149 0 -254.5 105.5t-105.5 254.5t105.5 254.5t254.5 105.5t254.5 -105.5t105.5 -254.5q0 -85 -37 -160q142 137 142 335q0 192 -136.5 328.5t-328.5 136.5q-265 0 -452.5 -187.5t-187.5 -452.5t187.5 -452.5t452.5 -187.5 q234 0 453 188q13 11 25 11q36 0 36 -36q0 -13 -11 -24q-206 -209 -503 -209q-294 0 -502 208t-208 502t208 502t502 208q221 0 378 -157t157 -378zM1050 710q0 120 -85 205t-205 85t-205 -85t-85 -205t85 -205t206 -85q119 0 204 85.5t85 204.5z" />
<glyph unicode="A" horiz-adv-x="1521" d="M1471 34q0 -34 -37 -34q-20 0 -30 19l-215 431h-3h-854l-215 -431q-10 -19 -30 -19q-37 0 -37 34q0 12 312 640q311 624 364 721q14 25 34 25q21 0 35 -25q53 -97 364 -721q312 -628 312 -640zM1154 520l-393 787l-394 -787h787z" />
<glyph unicode="B" horiz-adv-x="1020" d="M970 409q0 -170 -120 -290t-291 -120l-374 1q-35 0 -35 35v1350q0 35 35 35h375q138 0 236.5 -98.5t98.5 -236.5q0 -202 -178 -296q114 -48 183.5 -151.5t69.5 -228.5zM825 1085q0 109 -78 187t-187 78h-340v-530h340q109 0 187 78t78 187zM900 409q0 141 -100 241 t-240 100h-340v-680l340 -1q141 0 240.5 100t99.5 240z" />
<glyph unicode="C" horiz-adv-x="1323" d="M1273 232q0 -13 -11 -24q-199 -208 -502 -208q-294 0 -502 208t-208 502t208 502t502 208q303 0 502 -208q11 -11 11 -24q0 -36 -36 -36q-12 0 -25 11q-218 187 -452 187q-265 0 -452.5 -187.5t-187.5 -452.5t187.5 -452.5t452.5 -187.5q234 0 452 187q13 11 25 11 q36 0 36 -36z" />
<glyph unicode="D" horiz-adv-x="1395" d="M1345 710q0 -294 -208 -502t-502 -208h-450q-35 0 -35 35v1350q0 35 35 35h450q294 0 502 -208t208 -502zM1275 710q0 265 -187.5 452.5t-452.5 187.5h-415v-1280h415q265 0 452.5 187.5t187.5 452.5z" />
<glyph unicode="E" horiz-adv-x="1020" d="M970 35q0 -35 -35 -35h-750q-35 0 -35 35v1350q0 35 35 35h750q35 0 35 -35t-35 -35h-715v-605h565q35 0 35 -35t-35 -35h-565v-605h715q35 0 35 -35z" />
<glyph unicode="F" horiz-adv-x="970" d="M970 1385q0 -35 -35 -35h-715v-605h565q35 0 35 -35t-35 -35h-565v-640q0 -35 -35 -35t-35 35v1350q0 35 35 35h750q35 0 35 -35z" />
<glyph unicode="G" horiz-adv-x="1373" d="M1273 1188q0 -36 -36 -36q-12 0 -25 11q-218 187 -452 187q-265 0 -452.5 -187.5t-187.5 -452.5t187.5 -452.5t452.5 -187.5q257 0 442 177v463q0 35 35 35t35 -35v-478q0 -13 -10 -24q-84 -96 -230 -154q-137 -54 -272 -54q-294 0 -502 208t-208 502t208 502t502 208 q303 0 502 -208q11 -11 11 -24z" />
<glyph unicode="H" horiz-adv-x="1270" d="M1120 35q0 -35 -35 -35t-35 35v640h-830v-640q0 -35 -35 -35t-35 35v1350q0 35 35 35t35 -35v-640h830v640q0 35 35 35t35 -35v-1350z" />
<glyph unicode="I" horiz-adv-x="370" d="M220 35q0 -35 -35 -35t-35 35v1350q0 35 35 35t35 -35v-1350z" />
<glyph unicode="J" horiz-adv-x="495" d="M345 1385v-1500q0 -138 -98.5 -236.5t-236.5 -98.5q-89 0 -169 46t-121 123q-6 9 -6 18q0 34 37 34q13 0 46 -39q41 -50 75 -73q59 -39 138 -39q109 0 187 78t78 187v1500q0 35 35 35t35 -35z" />
<glyph unicode="K" horiz-adv-x="1016" d="M966 1385q0 -14 -11 -25l-650 -650l650 -650q11 -11 11 -25q0 -36 -36 -36q-13 0 -24 11l-675 675q-11 11 -11 25v-675q0 -35 -35 -35t-35 35v1350q0 35 35 35t35 -35v-675q0 14 11 25l675 675q11 11 24 11q36 0 36 -36z" />
<glyph unicode="L" horiz-adv-x="1020" d="M970 35q0 -35 -35 -35h-750q-35 0 -35 35v1350q0 35 35 35t35 -35v-1315h715q35 0 35 -35z" />
<glyph unicode="M" horiz-adv-x="1670" d="M1620 34q0 -34 -36 -34q-27 0 -33 27l-276 1244l-405 -944q-12 -27 -35 -27t-35 27l-404 944l-277 -1244q-6 -27 -33 -27q-36 0 -36 34q0 5 1 9l299 1344q7 33 36 33q22 0 34 -27l415 -969l416 969q11 27 34 27q28 0 36 -33l298 -1344q1 -5 1 -9z" />
<glyph unicode="N" horiz-adv-x="1421" d="M1271 35q0 -35 -36 -35q-16 0 -31 18l-983 1265v-1248q0 -35 -35 -35t-35 35l-1 1350q0 35 36 35q16 0 31 -18l984 -1265v1248q0 35 35 35t35 -35v-1350z" />
<glyph unicode="O" horiz-adv-x="1520" d="M1470 710q0 -294 -208 -502t-502 -208t-502 208t-208 502t208 502t502 208t502 -208t208 -502zM1400 710q0 265 -187.5 452.5t-452.5 187.5t-452.5 -187.5t-187.5 -452.5t187.5 -452.5t452.5 -187.5t452.5 187.5t187.5 452.5z" />
<glyph unicode="P" horiz-adv-x="1020" d="M970 1010q0 -170 -120 -290t-290 -120h-305q-35 0 -35 35t35 35h305q141 0 240.5 99.5t99.5 240.5t-99.5 240.5t-240.5 99.5h-340v-1315q0 -35 -35 -35t-35 35v1350q0 35 35 35h375q170 0 290 -120t120 -290z" />
<glyph unicode="Q" horiz-adv-x="1520" d="M1470 -415q0 -35 -35 -35q-219 0 -400 123.5t-261 326.5h-14h-8q-292 0 -496 204q-206 208 -206 506q0 294 208 502t502 208t502 -208t208 -502q0 -268 -178 -470t-444 -235q76 -175 236 -280t351 -105q35 0 35 -35zM1400 710q0 265 -187.5 452.5t-452.5 187.5 t-452.5 -187.5t-187.5 -452.5q0 -262 184.5 -449t446.5 -191q-26 93 -26 190q0 35 35 35t35 -35q0 -96 28 -187q245 24 411 207.5t166 429.5z" />
<glyph unicode="R" horiz-adv-x="1021" d="M971 35q0 -36 -36 -36q-14 0 -25 11l-595 596q-16 15 -16 29q0 35 43 35h218q140 0 240 100t100 240t-100 240t-240 100h-340v-1315q0 -35 -35 -35t-35 35v1352q0 33 35 33h375q170 0 290 -120t120 -290t-120 -290t-290 -120h-141l541 -540q11 -11 11 -25z" />
<glyph unicode="S" horiz-adv-x="871" d="M821 410q0 -170 -120.5 -290t-289.5 -120q-110 0 -205.5 55.5t-150.5 149.5q-5 10 -5 19q0 34 37 34q16 0 29 -18q10 -16 33 -48q101 -122 262 -122q140 0 240 100t100 240t-100 240t-239.5 100t-237.5 98.5t-98 236.5t98 236.5t237 98.5q191 0 289 -166q6 -9 6 -19 q0 -34 -37 -34q-13 0 -46 38q-41 49 -76 72q-59 39 -136 39q-110 0 -187.5 -78t-77.5 -187t77.5 -187t187.5 -78q169 0 289.5 -120t120.5 -290z" />
<glyph unicode="T" horiz-adv-x="1020" d="M1020 1385q0 -35 -35 -35h-415v-1315q0 -35 -35 -35t-35 35v1315h-415q-35 0 -35 35t35 35h900q35 0 35 -35z" />
<glyph unicode="U" horiz-adv-x="1170" d="M1070 485q0 -201 -142 -343t-343 -142t-343 142t-142 343v900q0 35 35 35t35 -35v-900q0 -172 121.5 -293.5t293.5 -121.5t293.5 121.5t121.5 293.5v900q0 35 35 35t35 -35v-900z" />
<glyph unicode="V" horiz-adv-x="1471" d="M1471 1386q0 -12 -312 -640q-311 -624 -364 -721q-14 -25 -34 -25q-21 0 -35 25q-53 97 -364 721q-312 628 -312 640q0 34 37 34q20 0 30 -19l644 -1288l643 1288q10 19 30 19q37 0 37 -34z" />
<glyph unicode="W" horiz-adv-x="2146" d="M2146 1386q0 -12 -312 -640q-311 -624 -364 -721q-14 -25 -35 -25t-34 25l-303 607l-303 -607q-13 -25 -34 -25t-35 25q-53 97 -364 721q-312 628 -312 640q0 34 37 34q20 0 30 -19l644 -1288l298 597q-334 666 -334 676q0 34 37 34q20 0 30 -19l306 -613l306 613 q10 19 30 19q37 0 37 -34q0 -10 -334 -676l299 -597l643 1288q10 19 30 19q37 0 37 -34z" />
<glyph unicode="X" horiz-adv-x="1221" d="M1171 35q0 -36 -36 -36q-16 0 -27 15l-497 639l-498 -639q-11 -15 -27 -15q-36 0 -36 36q0 11 8 21l508 654l-508 654q-8 10 -8 21q0 36 36 36q16 0 27 -15l498 -639l497 639q11 15 27 15q36 0 36 -36q0 -11 -8 -21l-508 -654l508 -654q8 -10 8 -21z" />
<glyph unicode="Y" horiz-adv-x="1171" d="M1171 1385q0 -11 -8 -21l-517 -666v-663q0 -35 -35 -35t-35 35v663l-518 666q-8 10 -8 21q0 36 36 36q16 0 27 -15l498 -639l497 639q11 15 27 15q36 0 36 -36z" />
<glyph unicode="Z" horiz-adv-x="1221" d="M1171 1385q0 -11 -12 -27l-1002 -1288h979q35 0 35 -35t-35 -35l-1050 -1q-36 0 -36 36q0 11 12 27l1002 1288h-978q-35 0 -35 35t35 35l1049 1q36 0 36 -36z" />
<glyph unicode="[" horiz-adv-x="720" d="M670 -415q0 -35 -35 -35h-450q-35 0 -35 35v1800q0 35 35 35h450q35 0 35 -35t-35 -35h-415v-1730h415q35 0 35 -35z" />
<glyph unicode="\" horiz-adv-x="1071" d="M1021 -417q0 -34 -37 -34q-18 0 -30 19l-145 290q-759 1508 -759 1528q0 34 37 34q18 0 30 -19l145 -290q759 -1508 759 -1528z" />
<glyph unicode="]" horiz-adv-x="720" d="M570 1385v-1800q0 -35 -35 -35h-450q-35 0 -35 35t35 35h415v1730h-415q-35 0 -35 35t35 35h450q35 0 35 -35z" />
<glyph unicode="^" horiz-adv-x="771" d="M721 1085q0 -36 -36 -36q-13 0 -24 11l-275 276l-276 -276q-11 -11 -24 -11q-36 0 -36 36q0 14 11 25l300 300q11 11 23 11q16 0 26 -11l300 -300q11 -11 11 -25z" />
<glyph unicode="_" d="M1020 35q0 -35 -35 -35h-900q-35 0 -35 35t35 35h900q35 0 35 -35z" />
<glyph unicode="`" horiz-adv-x="321" d="M271 1009q0 -34 -37 -34q-19 0 -31.5 22.5t-82.5 200.5t-70 188q0 34 37 34q18 0 31 -22.5t83 -200.5t70 -188z" />
<glyph unicode="a" horiz-adv-x="820" d="M720 35q0 -35 -35 -35t-35 35v95q-101 -130 -265 -130q-138 0 -236.5 98.5t-98.5 236.5t98.5 236.5t236.5 98.5q164 0 265 -130v95q0 109 -78 187t-187 78q-71 0 -142.5 -44.5t-69.5 -44.5q-36 0 -36 36q0 13 11 25q90 98 237 98q138 0 236.5 -98.5t98.5 -236.5v-600z M650 335q0 109 -78 187t-187 78t-187 -78t-78 -187t78 -187t187 -78t187 78t78 187z" />
<glyph unicode="b" horiz-adv-x="1120" d="M1070 485q0 -201 -142 -343t-343 -142t-343 142t-142 343v900q0 35 35 35t35 -35v-649q66 109 177 171.5t238 62.5q201 0 343 -142t142 -343zM1000 485q0 172 -121.5 293.5t-293.5 121.5t-293.5 -121.5t-121.5 -293.5t121.5 -293.5t293.5 -121.5t293.5 121.5t121.5 293.5 z" />
<glyph unicode="c" horiz-adv-x="939" d="M889 804q0 -36 -36 -36q6 0 -99 66t-219 66q-172 0 -293.5 -121.5t-121.5 -293.5t121.5 -293.5t293.5 -121.5q114 0 219 66t98 66q36 0 36 -36q0 -13 -11 -25q-131 -141 -342 -141q-201 0 -343 142t-142 343t142 343t343 142q211 0 343 -142q11 -12 11 -24z" />
<glyph unicode="d" horiz-adv-x="1170" d="M1020 35q0 -35 -35 -35t-35 35v199q-66 -109 -177 -171.5t-238 -62.5q-201 0 -343 142t-142 343t142 343t343 142q127 0 238 -62.5t177 -171.5v649q0 35 35 35t35 -35v-1350zM950 485q0 172 -121.5 293.5t-293.5 121.5t-293.5 -121.5t-121.5 -293.5t121.5 -293.5 t293.5 -121.5t293.5 121.5t121.5 293.5z" />
<glyph unicode="e" horiz-adv-x="1010" d="M960 261q0 -9 -5 -19q-64 -111 -177.5 -176.5t-242.5 -65.5q-201 0 -343 142t-142 343t142 343t343 142q79 0 162 -29q77 -28 160 -91q102 -78 102 -141q0 -20 -17 -29l-748 -432q124 -178 341 -178q188 0 309 138l50 70q13 17 30 17q36 0 36 -34zM876 722 q-124 178 -341 178q-172 0 -293.5 -121.5t-121.5 -293.5q0 -93 39 -177z" />
<glyph unicode="f" horiz-adv-x="730" d="M730 1319q0 -35 -36 -35q-2 0 -55.5 33t-103.5 33q-78 0 -134 -56t-56 -134v-190h190q35 0 35 -35t-35 -35h-190v-865q0 -35 -35 -35t-35 35v865h-190q-35 0 -35 35t35 35h190v190q0 107 76.5 183.5t183.5 76.5q120 0 184 -76q11 -13 11 -25z" />
<glyph unicode="g" horiz-adv-x="920" d="M870 935q0 -35 -35 -35h-170q130 -101 130 -265q0 -201 -178 -296q114 -48 183.5 -151.5t69.5 -227.5q0 -170 -120 -290t-290 -120t-290 120t-120 290q0 35 35 35t35 -35q0 -140 100 -240t240 -100t240 100t100 240t-100 240t-239 100t-237.5 98.5t-98.5 236.5 t98.5 236.5t236.5 98.5h375q35 0 35 -35zM725 635q0 109 -78 187t-187 78t-187 -78t-78 -187t78 -187t187 -78t187 78t78 187z" />
<glyph unicode="h" horiz-adv-x="920" d="M820 35q0 -35 -35 -35t-35 35v600q0 109 -78 187t-187 78t-187 -78t-78 -187v-600q0 -35 -35 -35t-35 35v1350q0 35 35 35t35 -35v-545q101 130 265 130q138 0 236.5 -98.5t98.5 -236.5v-600z" />
<glyph unicode="i" horiz-adv-x="370" d="M259 1346q0 -71 -74 -71t-74 71q0 30 22 52t52 22t52 -22t22 -52zM220 935v-900q0 -35 -35 -35t-35 35v900q0 35 35 35t35 -35z" />
<glyph unicode="j" horiz-adv-x="370" d="M259 1346q0 -71 -74 -71t-74 71q0 30 22 52t52 22t52 -22t22 -52zM220 -190q0 -107 -76.5 -183.5t-183.5 -76.5q-118 0 -184 76q-11 13 -11 24q0 36 36 36q2 0 55 -33t104 -33q78 0 134 56t56 134v1125q0 35 35 35t35 -35v-1125z" />
<glyph unicode="k" horiz-adv-x="791" d="M741 35q0 -36 -36 -36q-14 0 -25 11l-450 450q-11 11 -11 23q0 16 11 27l450 450q11 11 25 11q36 0 36 -36q0 -14 -11 -25l-426 -425l426 -425q11 -11 11 -25zM220 1385v-1350q0 -35 -35 -35t-35 35v1350q0 35 35 35t35 -35z" />
<glyph unicode="l" horiz-adv-x="445" d="M395 35q0 -35 -35 -35q-107 0 -183.5 76.5t-76.5 183.5v1125q0 35 35 35t35 -35v-1125q0 -78 56 -134t134 -56q35 0 35 -35z" />
<glyph unicode="m" horiz-adv-x="1520" d="M1420 35q0 -35 -35 -35t-35 35v600q0 109 -78 187t-187 78t-187 -78t-78 -187v-600q0 -35 -35 -35t-35 35v600q0 109 -78 187t-187 78t-187 -78t-78 -187v-600q0 -35 -35 -35t-35 35v900q0 35 35 35t35 -35v-95q101 130 265 130q207 0 300 -186q93 186 300 186 q138 0 236.5 -98.5t98.5 -236.5v-600z" />
<glyph unicode="n" horiz-adv-x="920" d="M820 35q0 -35 -35 -35t-35 35v600q0 109 -78 187t-187 78t-187 -78t-78 -187v-600q0 -35 -35 -35t-35 35v900q0 35 35 35t35 -35v-95q101 130 265 130q138 0 236.5 -98.5t98.5 -236.5v-600z" />
<glyph unicode="o" d="M1020 485q0 -201 -142 -343t-343 -142t-343 142t-142 343t142 343t343 142t343 -142t142 -343zM950 485q0 172 -121.5 293.5t-293.5 121.5t-293.5 -121.5t-121.5 -293.5t121.5 -293.5t293.5 -121.5t293.5 121.5t121.5 293.5z" />
<glyph unicode="p" horiz-adv-x="1115" d="M1065 485q0 -201 -142 -343t-343 -142q-127 0 -238 62.5t-177 171.5v-649q0 -35 -35 -35t-35 35v1350q0 35 35 35t35 -35v-199q66 109 177 171.5t238 62.5q201 0 343 -142t142 -343zM995 485q0 172 -121.5 293.5t-293.5 121.5t-293.5 -121.5t-121.5 -293.5t121.5 -293.5 t293.5 -121.5t293.5 121.5t121.5 293.5z" />
<glyph unicode="q" horiz-adv-x="1170" d="M1020 -415q0 -35 -35 -35t-35 35v649q-66 -109 -177 -171.5t-238 -62.5q-201 0 -343 142t-142 343t142 343t343 142q127 0 238 -62.5t177 -171.5v199q0 35 35 35t35 -35v-1350zM950 485q0 172 -121.5 293.5t-293.5 121.5t-293.5 -121.5t-121.5 -293.5t121.5 -293.5 t293.5 -121.5t293.5 121.5t121.5 293.5z" />
<glyph unicode="r" horiz-adv-x="691" d="M641 821q0 -34 -37 -34q-7 0 -62.5 56.5t-131.5 56.5q-78 0 -134 -56t-56 -134v-675q0 -35 -35 -35t-35 35v900q0 35 35 35q36 0 35 -83q77 83 190 83q156 0 225 -130q6 -10 6 -19z" />
<glyph unicode="s" horiz-adv-x="678" d="M628 297q0 -122 -87 -209.5t-210 -87.5q-93 0 -169 52.5t-109 139.5q-3 6 -3 13q0 34 37 34q19 0 31 -23l23 -44q65 -102 190 -102q94 0 160.5 67t66.5 160q0 98 -70 163t-168 65q-90 0 -153.5 66t-63.5 156q0 92 65.5 157.5t157.5 65.5q128 0 192 -110q5 -10 5 -19 q0 -34 -36 -34q-8 0 -53.5 46.5t-107.5 46.5q-63 0 -108 -45t-45 -108q0 -68 48 -110t118 -42q120 0 204.5 -88.5t84.5 -209.5z" />
<glyph unicode="t" horiz-adv-x="780" d="M730 100q0 -11 -11 -24q-64 -76 -184 -76q-107 0 -183.5 76.5t-76.5 183.5v640h-190q-35 0 -35 35t35 35h190v415q0 35 35 35t35 -35v-415h190q35 0 35 -35t-35 -35h-190v-640q0 -78 56 -134t134 -56q50 0 103.5 33t55.5 33q36 0 36 -36z" />
<glyph unicode="u" horiz-adv-x="870" d="M770 335q0 -138 -98.5 -236.5t-236.5 -98.5t-236.5 98.5t-98.5 236.5v600q0 35 35 35t35 -35v-600q0 -109 78 -187t187 -78t187 78t78 187v600q0 35 35 35t35 -35v-600z" />
<glyph unicode="v" horiz-adv-x="1071" d="M1021 936q0 -13 -208 -430q-204 -410 -243 -481q-15 -25 -35 -25q-19 0 -34 25q-39 71 -243 481q-208 417 -208 430q0 34 37 34q20 0 30 -19l419 -838l418 838q10 19 30 19q37 0 37 -34z" />
<glyph unicode="w" horiz-adv-x="1671" d="M1621 936q0 -8 -451 -911q-13 -25 -35 -25q-21 0 -34 25l-265 531l-266 -531q-13 -25 -35 -25q-21 0 -34 25q-451 903 -451 911q0 34 37 34q20 0 30 -19l419 -838l261 521q-147 293 -147 302q0 34 37 34q20 0 30 -19l419 -838l418 838q10 19 30 19q37 0 37 -34z" />
<glyph unicode="x" horiz-adv-x="921" d="M871 35q0 -36 -36 -36q-15 0 -26 14l-348 417l-347 -417q-11 -14 -27 -14q-36 0 -36 36q0 12 9 22l355 428l-356 428q-9 10 -9 22q0 36 36 36q16 0 27 -14l348 -417l347 417q11 14 26 14q36 0 36 -36q0 -12 -8 -22l-356 -428l357 -428q8 -10 8 -22z" />
<glyph unicode="y" horiz-adv-x="920" d="M770 -115q0 -138 -98.5 -236.5t-236.5 -98.5q-196 0 -290 166q-5 10 -5 19q0 34 37 34q13 0 45 -38q42 -49 76 -72q59 -39 137 -39q109 0 187 78t78 187v245q-101 -130 -265 -130q-138 0 -236.5 98.5t-98.5 236.5v600q0 35 35 35t35 -35v-600q0 -109 78 -187t187 -78 t187 78t78 187v600q0 35 35 35t35 -35v-1050z" />
<glyph unicode="z" horiz-adv-x="921" d="M871 935q0 -12 -13 -28l-698 -837h676q35 0 35 -35t-35 -35l-750 -1q-36 0 -36 36q0 12 13 28l698 837h-675q-35 0 -35 35t35 35l749 1q36 0 36 -36z" />
<glyph unicode="{" horiz-adv-x="620" d="M570 -415q0 -35 -35 -35q-107 0 -183.5 76.5t-76.5 183.5v450q0 78 -56 134t-134 56q-35 0 -35 35t35 35q78 0 134 56t56 134v450q0 107 76.5 183.5t183.5 76.5q35 0 35 -35t-35 -35q-78 0 -134 -56t-56 -134v-450q0 -150 -130 -225q130 -75 130 -225v-450q0 -78 56 -134 t134 -56q35 0 35 -35z" />
<glyph unicode="|" horiz-adv-x="335" d="M220 -415q0 -35 -35 -35t-35 35v1800q0 35 35 35t35 -35v-1800z" />
<glyph unicode="}" horiz-adv-x="620" d="M570 485q0 -35 -35 -35q-78 0 -134 -56t-56 -134v-450q0 -107 -76.5 -183.5t-183.5 -76.5q-35 0 -35 35t35 35q78 0 134 56t56 134v450q0 150 130 225q-130 75 -130 225v450q0 78 -56 134t-134 56q-35 0 -35 35t35 35q107 0 183.5 -76.5t76.5 -183.5v-450q0 -78 56 -134 t134 -56q35 0 35 -35z" />
<glyph unicode="~" horiz-adv-x="771" d="M721 486q0 -12 -12 -31q-48 -80 -174 -80q-73 0 -162 75t-138 75q-70 0 -105 -37.5t-44 -37.5q-36 0 -36 34q0 12 11 31q48 80 174 80q74 0 162.5 -75t137.5 -75q71 0 106 37.5t43 37.5q37 0 37 -34z" />
<glyph unicode="&#xa1;" horiz-adv-x="370" d="M259 896q0 -71 -74 -71t-74 71q0 30 22 52t52 22t52 -22t22 -52zM220 -415q0 -35 -35 -35t-35 35v975q0 35 35 35t35 -35v-975z" />
<glyph unicode="&#xa2;" horiz-adv-x="939" d="M889 804q0 -36 -36 -36q-11 0 -25 11q-49 40 -74 56q-41 28 -84 43v-786q63 22 158 99q13 11 24 11q36 0 36 -36t-91 -89q-74 -43 -127 -58v-234q0 -35 -35 -35t-35 35v219q-32 -4 -65 -4t-65 4v-219q0 -35 -35 -35t-35 35v234q-155 45 -252.5 175t-97.5 291t97.5 291 t252.5 175v234q0 35 35 35t35 -35v-219q32 4 65 4t65 -4v219q0 35 35 35t35 -35v-234q53 -16 127 -58q92 -53 92 -89zM600 75v820q-32 5 -65 5t-65 -5v-820q32 -5 65 -5t65 5zM400 92v786q-125 -44 -202.5 -152.5t-77.5 -240.5t77.5 -240.5t202.5 -152.5z" />
<glyph unicode="&#xa3;" horiz-adv-x="1071" d="M1021 35q0 -35 -35 -35h-900q-36 0 -36 35t36 35q79 0 134.5 56t55.5 134v340h-190q-35 0 -35 35t35 35h190v230h-190q-35 0 -35 35t35 35h190v190q0 107 76.5 183.5t183.5 76.5q119 0 184 -76q11 -13 11 -25q0 -35 -36 -35q-2 0 -55 33t-104 33q-78 0 -134 -56t-56 -134 v-190h190q35 0 35 -35t-35 -35h-190v-230h190q35 0 35 -35t-35 -35h-190v-340q0 -113 -82 -190h722q35 0 35 -35z" />
<glyph unicode="&#xa4;" horiz-adv-x="1071" d="M1021 935q0 -16 -119 -133q119 -136 119 -317t-119 -317q119 -117 119 -133q0 -36 -36 -36q-15 0 -132 119q-137 -118 -317 -118q-181 0 -318 118q-116 -119 -132 -119q-36 0 -36 36q0 16 119 133q-118 136 -118 317t118 317q-119 117 -119 133q0 36 36 36q16 0 132 -119 q137 118 318 118q180 0 317 -118q117 119 132 119q36 0 36 -36zM951 485q0 172 -122 293.5t-293 121.5q-172 0 -293.5 -121.5t-121.5 -293.5t121.5 -293.5t293.5 -121.5q171 0 293 121.5t122 293.5z" />
<glyph unicode="&#xa5;" horiz-adv-x="1171" d="M1171 1385q0 -11 -8 -21l-481 -619h229q35 0 35 -35t-35 -35h-265v-230h265q35 0 35 -35t-35 -35h-265v-340q0 -35 -35 -35t-35 35v340h-265q-35 0 -35 35t35 35h265v230h-265q-35 0 -35 35t35 35h228l-481 619q-8 10 -8 21q0 36 36 36q16 0 27 -15l498 -639l497 639 q11 15 27 15q36 0 36 -36z" />
<glyph unicode="&#xa6;" horiz-adv-x="370" d="M220 635q0 -35 -35 -35t-35 35v750q0 35 35 35t35 -35v-750zM220 -415q0 -35 -35 -35t-35 35v750q0 35 35 35t35 -35v-750z" />
<glyph unicode="&#xa7;" horiz-adv-x="770" d="M720 -115q0 -138 -98.5 -236.5t-236.5 -98.5q-193 0 -291 169q-5 9 -5 18q0 34 37 34q13 0 45 -39q42 -50 76 -73q59 -39 138 -39q109 0 187 78t78 187t-78 187t-187 78q-138 0 -236.5 98.5t-98.5 236.5q0 207 186 300q-186 93 -186 300q0 138 98.5 236.5t236.5 98.5 q193 0 291 -169q5 -9 5 -18q0 -34 -37 -34q-13 0 -45 39q-41 50 -76 73q-59 39 -138 39q-109 0 -187 -78t-78 -187t78 -187t187 -78q138 0 236.5 -98.5t98.5 -236.5q0 -207 -186 -300q186 -93 186 -300zM650 485q0 109 -78 187t-187 78t-187 -78t-78 -187t78 -187t187 -78 t187 78t78 187z" />
<glyph unicode="&#xa8;" horiz-adv-x="695" d="M645 1273q0 -73 -73 -73q-72 0 -72 73q0 72 72 72q73 0 73 -72zM195 1273q0 -73 -73 -73q-72 0 -72 73q0 72 72 72q73 0 73 -72z" />
<glyph unicode="&#xa9;" horiz-adv-x="1520" d="M1470 710q0 -294 -208 -502t-502 -208t-502 208t-208 502t208 502t502 208t502 -208t208 -502zM1400 710q0 265 -187.5 452.5t-452.5 187.5t-452.5 -187.5t-187.5 -452.5t187.5 -452.5t452.5 -187.5t452.5 187.5t187.5 452.5zM1034 471q0 -12 -11 -25q-98 -109 -263 -109 q-154 0 -263.5 109.5t-109.5 263.5t109.5 263t263.5 109q165 0 263 -108q11 -13 11 -25q0 -36 -36 -36q1 0 -76 49.5t-162 49.5q-125 0 -214 -88.5t-89 -213.5t89 -214t214 -89q85 0 162 50t76 50q36 0 36 -36z" />
<glyph unicode="&#xaa;" horiz-adv-x="620" d="M570 755q0 -35 -35 -35q-36 0 -35 78q-77 -78 -190 -78q-105 0 -181 70q-79 71 -79 175t79 175q76 70 181 70q113 0 190 -78v43q0 75 -57 125t-133 50q-52 0 -104.5 -31t-54.5 -31q-36 0 -36 36q0 12 12 25q67 71 183 71q105 0 182.5 -70.5t77.5 -174.5v-420zM570 485 q0 -35 -35 -35h-450q-35 0 -35 35t35 35h450q35 0 35 -35zM500 965q0 75 -57 125t-133 50t-133 -50t-57 -125t57 -125t133 -50t133 50t57 125z" />
<glyph unicode="&#xab;" horiz-adv-x="771" d="M721 34q0 -34 -37 -34q-20 0 -30 19q-229 459 -229 466t229 466q10 19 30 19q37 0 37 -34q0 -10 -221 -451q221 -441 221 -451zM346 34q0 -34 -37 -34q-20 0 -30 19q-229 459 -229 466t229 466q10 19 30 19q37 0 37 -34q0 -10 -221 -451q221 -442 221 -451z" />
<glyph unicode="&#xac;" d="M920 35q0 -35 -35 -35t-35 35v415h-765q-35 0 -35 35t35 35h800q35 0 35 -35v-450z" />
<glyph unicode="&#xad;" d="M1020 597q0 -35 -35 -35h-900q-35 0 -35 35t35 35h900q35 0 35 -35z" />
<glyph unicode="&#x2212;" d="M1020 597q0 -35 -35 -35h-900q-35 0 -35 35t35 35h900q35 0 35 -35z" />
<glyph unicode="&#xae;" horiz-adv-x="1520" d="M1470 710q0 -294 -208 -502t-502 -208t-502 208t-208 502t208 502t502 208t502 -208t208 -502zM1400 710q0 265 -187.5 452.5t-452.5 187.5t-452.5 -187.5t-187.5 -452.5t187.5 -452.5t452.5 -187.5t452.5 187.5t187.5 452.5zM1021 373q0 -36 -36 -36q-14 0 -25 11 l-300 300q-14 14 -14 30q0 29 39 29h112q63 0 108 45t45 108t-45 107.5t-108 44.5h-152v-640q0 -35 -35 -35t-35 35v675q0 35 35 35h187q92 0 157.5 -65t65.5 -157t-65.5 -157.5t-157.5 -65.5h-28l241 -240q11 -11 11 -24z" />
<glyph unicode="&#xaf;" d="M1020 1760q0 -35 -35 -35h-900q-35 0 -35 35t35 35h900q35 0 35 -35z" />
<glyph unicode="&#x2c9;" d="M1020 1760q0 -35 -35 -35h-900q-35 0 -35 35t35 35h900q35 0 35 -35z" />
<glyph unicode="&#xb0;" horiz-adv-x="770" d="M720 1085q0 -138 -98.5 -236.5t-236.5 -98.5t-236.5 98.5t-98.5 236.5t98.5 236.5t236.5 98.5t236.5 -98.5t98.5 -236.5zM650 1085q0 109 -78 187t-187 78t-187 -78t-78 -187t78 -187t187 -78t187 78t78 187z" />
<glyph unicode="&#xb1;" d="M1020 785q0 -35 -35 -35h-415v-415q0 -35 -35 -35t-35 35v415h-415q-35 0 -35 35t35 35h415v415q0 35 35 35t35 -35v-415h415q35 0 35 -35zM1020 35q0 -35 -35 -35h-900q-35 0 -35 35t35 35h900q35 0 35 -35z" />
<glyph unicode="&#xb2;" horiz-adv-x="738" d="M688 597q0 -35 -35 -35h-563q-40 0 -40 31q0 19 20 33l481 340q67 48 67 156q0 98 -76 164q-72 64 -170 64q-99 0 -171 -64q-76 -66 -76 -164q0 -35 -35 -35t-35 35q0 127 96 214q93 84 221 84q127 0 220 -84q96 -87 96 -214q0 -145 -96 -213l-392 -277h453q35 0 35 -35z " />
<glyph unicode="&#xb3;" horiz-adv-x="753" d="M703 1390q0 -17 -17 -32l-359 -306h26q139 0 240 -91q105 -95 105 -232q0 -138 -105 -232q-101 -92 -240 -92q-88 0 -170 42q-85 44 -127 119q-6 10 -6 19q0 35 37 35q12 0 45 -38q42 -47 79 -69q62 -38 142 -38q110 0 192.5 72.5t82.5 181.5q0 108 -84 182 q-81 71 -191 71q-71 0 -145 -42l-75 -43q-34 0 -34 35q0 16 14 28l455 390h-483q-35 0 -35 35t35 35h578q40 0 40 -30z" />
<glyph unicode="&#xb4;" horiz-adv-x="471" d="M421 1384q0 -18 -20 -30q-32 -20 -164 -85q-140 -70 -153 -70q-34 0 -34 37q0 18 20 30q32 20 164 85q139 70 152 70q35 0 35 -37z" />
<glyph unicode="&#xb5;" horiz-adv-x="970" d="M820 35q0 -35 -35 -35t-35 35v95q-101 -130 -265 -130t-265 130v-545q0 -35 -35 -35t-35 35v1350q0 35 35 35t35 -35v-600q0 -109 78 -187t187 -78t187 78t78 187v600q0 35 35 35t35 -35v-900z" />
<glyph unicode="&#xb6;" horiz-adv-x="1020" d="M870 35q0 -35 -35 -35t-35 35v1315h-380v-1315q0 -35 -35 -35t-35 35v717q-127 13 -213.5 109t-86.5 224q0 138 98.5 236.5t236.5 98.5h450q35 0 35 -35v-1350zM350 822v526q-98 -13 -164 -88.5t-66 -174.5t66 -174.5t164 -88.5z" />
<glyph unicode="&#xb7;" d="M609 597q0 -30 -22 -52t-52 -22t-52 22t-22 52q0 71 74 71t74 -71z" />
<glyph unicode="&#xb8;" horiz-adv-x="591" d="M541 -190q0 -107 -76.5 -183.5t-183.5 -76.5q-154 0 -226 131q-5 9 -5 18q0 34 37 34q6 0 62.5 -56.5t131.5 -56.5q78 0 134 56t56 134t-56 134t-134 56q-35 0 -35 35t35 35q107 0 183.5 -76.5t76.5 -183.5z" />
<glyph unicode="&#xb9;" horiz-adv-x="546" d="M496 597q0 -35 -35 -35h-300q-35 0 -35 35t35 35h115v672l-167 -155q-10 -10 -23 -10q-36 0 -36 36q0 15 12 26l220 205q15 15 29 15q35 0 35 -43v-746h115q35 0 35 -35z" />
<glyph unicode="&#xba;" horiz-adv-x="845" d="M795 1070q0 -149 -113 -251q-109 -99 -260 -99q-150 0 -259 99q-113 102 -113 251t113 251q109 99 259 99q151 0 260 -99q113 -102 113 -251zM795 485q0 -35 -35 -35h-675q-35 0 -35 35t35 35h675q35 0 35 -35zM725 1070q0 119 -92 201q-89 79 -211 79q-121 0 -210 -79 q-92 -82 -92 -201t92 -201q89 -79 210 -79q122 0 212.5 80.5t90.5 199.5z" />
<glyph unicode="&#xbb;" horiz-adv-x="771" d="M721 485q0 -7 -229 -466q-10 -19 -30 -19q-37 0 -37 34q0 10 221 451q-221 441 -221 451q0 34 37 34q20 0 30 -19q229 -459 229 -466zM346 485q0 -7 -229 -466q-10 -19 -30 -19q-37 0 -37 34q0 10 221 451q-221 441 -221 451q0 34 37 34q20 0 30 -19q229 -459 229 -466z " />
<glyph unicode="&#xbc;" horiz-adv-x="1584" d="M1534 1385q0 -14 -11 -25l-1350 -1350q-11 -11 -25 -11q-36 0 -36 36q0 14 11 25l1350 1350q11 11 25 11q36 0 36 -36zM1533 192q0 -35 -35 -35h-190v-279q0 -36 -35 -36t-35 36v279h-415q-38 0 -38 30q0 13 10 26l450 630q14 20 32 20q31 0 31 -41v-595h190q35 0 35 -35 zM496 597q0 -35 -35 -35h-300q-35 0 -35 35t35 35h115v672l-167 -155q-10 -10 -23 -10q-36 0 -36 36q0 15 12 26l220 205q15 15 29 15q35 0 35 -43v-746h115q35 0 35 -35zM1238 227v486l-347 -486h347z" />
<glyph unicode="&#xbd;" horiz-adv-x="1584" d="M1533 35q0 -35 -35 -35h-562q-41 0 -41 31q0 18 20 33l482 340q66 47 66 156q0 97 -75 164q-73 63 -171 63q-99 0 -171 -63q-75 -67 -75 -164q0 -35 -35 -35t-35 35q0 126 95 213q93 84 221 84q127 0 220 -84q96 -87 96 -213q0 -145 -96 -213l-391 -277h452q35 0 35 -35z M1534 1385q0 -14 -11 -25l-1350 -1350q-11 -11 -25 -11q-36 0 -36 36q0 14 11 25l1350 1350q11 11 25 11q36 0 36 -36zM496 597q0 -35 -35 -35h-300q-35 0 -35 35t35 35h115v672l-167 -155q-10 -10 -23 -10q-36 0 -36 36q0 15 12 26l220 205q15 15 29 15q35 0 35 -43v-746 h115q35 0 35 -35z" />
<glyph unicode="&#xbe;" horiz-adv-x="1786" d="M1736 1385q0 -14 -11 -25l-1350 -1350q-11 -11 -24 -11q-36 0 -36 36q0 14 11 25l1350 1350q10 11 24 11q36 0 36 -36zM1735 192q0 -35 -35 -35h-190v-279q0 -36 -35 -36t-35 36v279h-415q-38 0 -38 30q0 13 10 26l450 630q14 20 33 20q30 0 30 -41v-595h190q35 0 35 -35 zM703 1390q0 -17 -17 -32l-359 -306q13 1 26 1q139 0 240 -92q105 -95 105 -232q0 -138 -105 -232q-101 -92 -240 -92q-88 0 -170 42q-85 44 -127 119q-6 10 -6 19q0 35 37 35q12 0 45 -38q42 -47 79 -69q62 -38 142 -38q110 0 192.5 72.5t82.5 181.5q0 108 -82.5 181 t-192.5 73q-71 0 -145 -43l-75 -43q-34 0 -34 35q0 16 14 28l455 390h-483q-35 0 -35 35t35 35h578q40 0 40 -30zM1440 227v486l-347 -486h347z" />
<glyph unicode="&#xbf;" horiz-adv-x="770" d="M459 896q0 -71 -74 -71t-74 71q0 30 22 52t52 22t52 -22t22 -52zM720 -115q0 -138 -98.5 -236.5t-236.5 -98.5t-236.5 98.5t-98.5 236.5t98.5 236.5t236.5 98.5q63 0 107.5 45t44.5 107q0 63 -44.5 108t-107.5 45q-23 0 -54.5 -13t-40.5 -13q-34 0 -34 37q0 28 52 46 q40 13 77 13q92 0 157 -65.5t65 -157.5q0 -91 -65 -156.5t-157 -65.5q-109 0 -187 -78t-78 -187t78 -187t187 -78t187 78t78 187q0 35 35 35t35 -35z" />
<glyph unicode="&#xc0;" horiz-adv-x="1521" d="M961 1686q0 -37 -34 -37q-14 0 -153 70q-132 65 -164 85q-20 12 -20 30q0 37 34 37q14 0 153 -70q132 -65 164 -85q20 -12 20 -30zM1471 34q0 -34 -37 -34q-20 0 -30 19l-215 431h-3h-854l-215 -431q-10 -19 -30 -19q-37 0 -37 34q0 12 312 640q311 624 364 721 q14 25 34 25q21 0 35 -25q53 -97 364 -721q312 -628 312 -640zM1154 520l-393 787l-394 -787h787z" />
<glyph unicode="&#xc1;" horiz-adv-x="1521" d="M961 1834q0 -18 -20 -30q-32 -20 -164 -85q-139 -70 -153 -70q-34 0 -34 37q0 18 20 30q32 20 164 85q139 70 153 70q34 0 34 -37zM1471 34q0 -34 -37 -34q-20 0 -30 19l-215 431h-3h-854l-215 -431q-10 -19 -30 -19q-37 0 -37 34q0 12 312 640q311 624 364 721 q14 25 34 25q21 0 35 -25q53 -97 364 -721q312 -628 312 -640zM1154 520l-393 787l-394 -787h787z" />
<glyph unicode="&#xc2;" horiz-adv-x="1521" d="M1021 1686q0 -37 -35 -37q-10 0 -20 7l-205 137l-206 -137q-10 -7 -20 -7q-35 0 -35 37q0 17 16 28l222 148q13 9 23 9q9 0 22 -9l222 -148q16 -11 16 -28zM1471 34q0 -34 -37 -34q-20 0 -30 19l-215 431h-3h-854l-215 -431q-10 -19 -30 -19q-37 0 -37 34q0 12 312 640 q311 624 364 721q14 25 34 25q21 0 35 -25q53 -97 364 -721q312 -628 312 -640zM1154 520l-393 787l-394 -787h787z" />
<glyph unicode="&#xc3;" horiz-adv-x="1521" d="M1111 1761q0 -12 -11 -31q-48 -80 -175 -80q-73 0 -161.5 75t-137.5 75q-71 0 -106 -37.5t-43 -37.5q-37 0 -37 34q0 12 12 31q47 80 174 80q73 0 161.5 -75t137.5 -75q71 0 106 37.5t43 37.5q37 0 37 -34zM1471 34q0 -34 -37 -34q-20 0 -30 19l-215 431h-3h-854 l-215 -431q-10 -19 -30 -19q-37 0 -37 34q0 12 312 640q311 624 364 721q14 25 34 25q21 0 35 -25q53 -97 364 -721q312 -628 312 -640zM1154 520l-393 787l-394 -787h787z" />
<glyph unicode="&#xc4;" horiz-adv-x="1521" d="M1059 1723q0 -73 -73 -73q-72 0 -72 73q0 72 72 72q73 0 73 -72zM609 1723q0 -73 -73 -73q-72 0 -72 73q0 72 72 72q73 0 73 -72zM1471 34q0 -34 -37 -34q-20 0 -30 19l-215 431h-3h-854l-215 -431q-10 -19 -30 -19q-37 0 -37 34q0 12 312 640q311 624 364 721 q14 25 34 25q21 0 35 -25q53 -97 364 -721q312 -628 312 -640zM1154 520l-393 787l-394 -787h787z" />
<glyph unicode="&#xc5;" horiz-adv-x="1521" d="M938 1696q0 -73 -52 -123.5t-125 -50.5q-74 0 -126 50.5t-52 123.5t52 125t126 52q73 0 125 -52t52 -125zM1471 34q0 -34 -37 -34q-20 0 -30 19l-215 431h-3h-854l-215 -431q-10 -19 -30 -19q-37 0 -37 34q0 12 312 640q311 624 364 721q14 25 34 25q21 0 35 -25 q53 -97 364 -721q312 -628 312 -640zM868 1696q0 44 -32 75.5t-75 31.5q-44 0 -76 -31.5t-32 -75.5q0 -45 31.5 -74.5t76.5 -29.5q44 0 75.5 29.5t31.5 74.5zM1154 520l-393 787l-394 -787h787z" />
<glyph unicode="&#xc6;" horiz-adv-x="1821" d="M1771 1385q0 -35 -35 -35h-715v-605h565q35 0 35 -35t-35 -35h-565v-605h715q35 0 35 -35t-35 -35h-750q-35 0 -35 35v415h-547l-289 -434q-11 -16 -28 -16q-37 0 -37 34q0 11 6 20l900 1350q10 16 27 16h2h751q35 0 35 -35zM951 520v749l-500 -749h500z" />
<glyph unicode="&#xc7;" horiz-adv-x="1323" d="M1273 232q0 -13 -11 -24q-132 -142 -345 -191q103 -78 103 -207q0 -107 -76.5 -183.5t-183.5 -76.5q-145 0 -226 131q-5 8 -5 18q0 34 37 34q7 0 61 -56.5t133 -56.5q78 0 134 56t56 134t-56 134t-134 56q-294 0 -502 208t-208 502t208 502t502 208q138 0 272 -54 q139 -56 230 -154q11 -11 11 -24q0 -36 -36 -36q-12 0 -25 11q-219 187 -452 187q-265 0 -452.5 -187.5t-187.5 -452.5t187.5 -452.5t452.5 -187.5q233 0 452 187q13 11 25 11q36 0 36 -36z" />
<glyph unicode="&#xc8;" horiz-adv-x="1020" d="M745 1686q0 -37 -34 -37q-13 0 -153 70q-131 65 -164 85q-19 12 -19 30q0 37 34 37q13 0 153 -70q131 -65 164 -85q19 -12 19 -30zM970 35q0 -35 -35 -35h-750q-35 0 -35 35v1350q0 35 35 35h750q35 0 35 -35t-35 -35h-715v-605h565q35 0 35 -35t-35 -35h-565v-605h715 q35 0 35 -35z" />
<glyph unicode="&#xc9;" horiz-adv-x="1020" d="M745 1834q0 -18 -19 -30q-33 -20 -164 -85q-140 -70 -153 -70q-34 0 -34 37q0 18 19 30q33 20 164 85q140 70 153 70q34 0 34 -37zM970 35q0 -35 -35 -35h-750q-35 0 -35 35v1350q0 35 35 35h750q35 0 35 -35t-35 -35h-715v-605h565q35 0 35 -35t-35 -35h-565v-605h715 q35 0 35 -35z" />
<glyph unicode="&#xca;" horiz-adv-x="1020" d="M820 1686q0 -37 -34 -37q-11 0 -20 7l-206 137l-206 -137q-9 -7 -20 -7q-34 0 -34 37q0 17 16 28l222 148q12 9 22 9t22 -9l222 -148q16 -11 16 -28zM970 35q0 -35 -35 -35h-750q-35 0 -35 35v1350q0 35 35 35h750q35 0 35 -35t-35 -35h-715v-605h565q35 0 35 -35 t-35 -35h-565v-605h715q35 0 35 -35z" />
<glyph unicode="&#xcb;" horiz-adv-x="1020" d="M858 1723q0 -73 -73 -73q-72 0 -72 73q0 72 72 72q73 0 73 -72zM408 1723q0 -73 -73 -73q-72 0 -72 73q0 72 72 72q73 0 73 -72zM970 35q0 -35 -35 -35h-750q-35 0 -35 35v1350q0 35 35 35h750q35 0 35 -35t-35 -35h-715v-605h565q35 0 35 -35t-35 -35h-565v-605h715 q35 0 35 -35z" />
<glyph unicode="&#xcc;" horiz-adv-x="370" d="M370 1686q0 -37 -34 -37q-13 0 -153 70q-131 65 -164 85q-19 12 -19 30q0 37 34 37q13 0 153 -70q131 -65 164 -85q19 -12 19 -30zM217 35q0 -35 -35 -35t-35 35v1350q0 35 35 35t35 -35v-1350z" />
<glyph unicode="&#xcd;" horiz-adv-x="370" d="M370 1834q0 -18 -19 -30q-33 -20 -164 -85q-140 -70 -153 -70q-34 0 -34 37q0 18 19 30q33 20 164 85q140 70 153 70q34 0 34 -37zM217 35q0 -35 -35 -35t-35 35v1350q0 35 35 35t35 -35v-1350z" />
<glyph unicode="&#xce;" horiz-adv-x="370" d="M445 1686q0 -37 -34 -37q-11 0 -20 7l-206 137l-206 -137q-9 -7 -20 -7q-34 0 -34 37q0 17 16 28l222 148q12 9 22 9t22 -9l222 -148q16 -11 16 -28zM220 35q0 -35 -35 -35t-35 35v1350q0 35 35 35t35 -35v-1350z" />
<glyph unicode="&#xcf;" horiz-adv-x="370" d="M482 1723q0 -73 -73 -73q-72 0 -72 73q0 72 72 72q73 0 73 -72zM32 1723q0 -73 -72 -73t-72 73q0 72 72 72t72 -72zM219 35q0 -35 -35 -35t-35 35v1350q0 35 35 35t35 -35v-1350z" />
<glyph unicode="&#xd0;" horiz-adv-x="1470" d="M1420 710q0 -294 -208 -502t-502 -208h-450q-35 0 -35 35v640h-190q-35 0 -35 35t35 35h190v640q0 35 35 35h450q294 0 502 -208t208 -502zM1350 710q0 265 -187.5 452.5t-452.5 187.5h-415v-605h190q35 0 35 -35t-35 -35h-190v-605h415q265 0 452.5 187.5t187.5 452.5z " />
<glyph unicode="&#xd1;" horiz-adv-x="1421" d="M1046 1761q0 -12 -11 -31q-48 -80 -174 -80q-74 0 -162.5 75t-137.5 75q-71 0 -106 -37.5t-43 -37.5q-37 0 -37 34q0 12 12 31q48 80 174 80q73 0 161.5 -75t138.5 -75q70 0 105 37.5t44 37.5q36 0 36 -34zM1271 35q0 -35 -36 -35q-16 0 -31 18l-983 1265v-1248 q0 -35 -35 -35t-35 35l-1 1350q0 35 36 35q16 0 31 -18l984 -1265v1248q0 35 35 35t35 -35v-1350z" />
<glyph unicode="&#xd2;" horiz-adv-x="1520" d="M960 1686q0 -37 -34 -37q-13 0 -153 70q-131 65 -164 85q-19 12 -19 30q0 37 34 37q13 0 153 -70q131 -65 164 -85q19 -12 19 -30zM1470 710q0 -294 -208 -502t-502 -208t-502 208t-208 502t208 502t502 208t502 -208t208 -502zM1400 710q0 265 -187.5 452.5 t-452.5 187.5t-452.5 -187.5t-187.5 -452.5t187.5 -452.5t452.5 -187.5t452.5 187.5t187.5 452.5z" />
<glyph unicode="&#xd3;" horiz-adv-x="1520" d="M960 1834q0 -18 -19 -30q-33 -20 -164 -85q-140 -70 -153 -70q-34 0 -34 37q0 18 19 30q33 20 164 85q140 70 153 70q34 0 34 -37zM1470 710q0 -294 -208 -502t-502 -208t-502 208t-208 502t208 502t502 208t502 -208t208 -502zM1400 710q0 265 -187.5 452.5 t-452.5 187.5t-452.5 -187.5t-187.5 -452.5t187.5 -452.5t452.5 -187.5t452.5 187.5t187.5 452.5z" />
<glyph unicode="&#xd4;" horiz-adv-x="1520" d="M1020 1686q0 -37 -34 -37q-11 0 -20 7l-206 137l-206 -137q-9 -7 -20 -7q-34 0 -34 37q0 17 16 28l222 148q12 9 22 9t22 -9l222 -148q16 -11 16 -28zM1470 710q0 -294 -208 -502t-502 -208t-502 208t-208 502t208 502t502 208t502 -208t208 -502zM1400 710 q0 265 -187.5 452.5t-452.5 187.5t-452.5 -187.5t-187.5 -452.5t187.5 -452.5t452.5 -187.5t452.5 187.5t187.5 452.5z" />
<glyph unicode="&#xd5;" horiz-adv-x="1520" d="M1110 1761q0 -12 -11 -31q-48 -80 -174 -80q-73 0 -162 75t-138 75q-71 0 -105.5 -37.5t-43.5 -37.5q-36 0 -36 34q0 12 11 31q48 80 174 80q73 0 162 -75t138 -75q71 0 105.5 37.5t43.5 37.5q36 0 36 -34zM1470 710q0 -294 -208 -502t-502 -208t-502 208t-208 502 t208 502t502 208t502 -208t208 -502zM1400 710q0 265 -187.5 452.5t-452.5 187.5t-452.5 -187.5t-187.5 -452.5t187.5 -452.5t452.5 -187.5t452.5 187.5t187.5 452.5z" />
<glyph unicode="&#xd6;" horiz-adv-x="1520" d="M1058 1723q0 -73 -73 -73q-72 0 -72 73q0 72 72 72q73 0 73 -72zM608 1723q0 -73 -73 -73q-72 0 -72 73q0 72 72 72q73 0 73 -72zM1470 710q0 -294 -208 -502t-502 -208t-502 208t-208 502t208 502t502 208t502 -208t208 -502zM1400 710q0 265 -187.5 452.5t-452.5 187.5 t-452.5 -187.5t-187.5 -452.5t187.5 -452.5t452.5 -187.5t452.5 187.5t187.5 452.5z" />
<glyph unicode="&#xd7;" d="M889 803q0 -14 -11 -25l-294 -293l294 -293q11 -11 11 -25q0 -36 -36 -36q-14 0 -25 11l-293 294l-293 -294q-11 -11 -25 -11q-36 0 -36 36q0 14 11 25l294 293l-294 293q-11 11 -11 25q0 36 36 36q14 0 25 -11l293 -294l293 294q11 11 25 11q36 0 36 -36z" />
<glyph unicode="&#xd8;" horiz-adv-x="1521" d="M1471 1385q0 -14 -11 -25l-173 -173q184 -203 184 -477q0 -294 -208.5 -502t-501.5 -208q-274 0 -477 184l-174 -174q-11 -11 -24 -11q-36 0 -36 36q0 14 11 25l173 173q-183 203 -183 477q0 294 208 502t502 208q273 0 476 -184l174 174q11 11 24 11q36 0 36 -36z M1188 1187q-182 163 -427 163q-265 0 -452.5 -187.5t-187.5 -452.5q0 -245 163 -427zM1401 710q0 245 -164 427l-903 -904q182 -163 427 -163q264 0 452 187.5t188 452.5z" />
<glyph unicode="&#xd9;" horiz-adv-x="1170" d="M770 1686q0 -37 -34 -37q-13 0 -153 70q-131 65 -164 85q-19 12 -19 30q0 37 34 37q13 0 153 -70q131 -65 164 -85q19 -12 19 -30zM1070 485q0 -201 -142 -343t-343 -142t-343 142t-142 343v900q0 35 35 35t35 -35v-900q0 -172 121.5 -293.5t293.5 -121.5t293.5 121.5 t121.5 293.5v900q0 35 35 35t35 -35v-900z" />
<glyph unicode="&#xda;" horiz-adv-x="1170" d="M770 1834q0 -18 -19 -30q-33 -20 -164 -85q-140 -70 -153 -70q-34 0 -34 37q0 18 19 30q33 20 164 85q140 70 153 70q34 0 34 -37zM1070 485q0 -201 -142 -343t-343 -142t-343 142t-142 343v900q0 35 35 35t35 -35v-900q0 -172 121.5 -293.5t293.5 -121.5t293.5 121.5 t121.5 293.5v900q0 35 35 35t35 -35v-900z" />
<glyph unicode="&#xdb;" horiz-adv-x="1170" d="M845 1686q0 -37 -34 -37q-11 0 -20 7l-206 137l-206 -137q-9 -7 -20 -7q-34 0 -34 37q0 17 16 28l222 148q12 9 22 9t22 -9l222 -148q16 -11 16 -28zM1070 485q0 -201 -142 -343t-343 -142t-343 142t-142 343v900q0 35 35 35t35 -35v-900q0 -172 121.5 -293.5 t293.5 -121.5t293.5 121.5t121.5 293.5v900q0 35 35 35t35 -35v-900z" />
<glyph unicode="&#xdc;" horiz-adv-x="1170" d="M883 1723q0 -73 -73 -73q-72 0 -72 73q0 72 72 72q73 0 73 -72zM433 1723q0 -73 -73 -73q-72 0 -72 73q0 72 72 72q73 0 73 -72zM1070 485q0 -201 -142 -343t-343 -142t-343 142t-142 343v900q0 35 35 35t35 -35v-900q0 -172 121.5 -293.5t293.5 -121.5t293.5 121.5 t121.5 293.5v900q0 35 35 35t35 -35v-900z" />
<glyph unicode="&#xdd;" horiz-adv-x="1171" d="M796 1834q0 -18 -20 -30q-32 -20 -164 -85q-139 -70 -152 -70q-35 0 -35 37q0 18 20 30q32 20 164 85q140 70 153 70q34 0 34 -37zM1171 1385q0 -11 -8 -21l-517 -666v-663q0 -35 -35 -35t-35 35v663l-518 666q-8 10 -8 21q0 36 36 36q16 0 27 -15l498 -639l497 639 q11 15 27 15q36 0 36 -36z" />
<glyph unicode="&#xde;" horiz-adv-x="1170" d="M1120 710q0 -201 -142 -343t-343 -142h-415v-190q0 -35 -35 -35t-35 35v1350q0 35 35 35t35 -35v-190h415q201 0 343 -142t142 -343zM1050 710q0 172 -121.5 293.5t-293.5 121.5h-415v-830h415q172 0 293.5 121.5t121.5 293.5z" />
<glyph unicode="&#xdf;" horiz-adv-x="1078" d="M1028 297q0 -122 -87.5 -209.5t-210.5 -87.5q-201 0 -278 192q-2 6 -2 13q0 34 36 34q19 0 32 -23q6 -13 20 -40q67 -106 192 -106q94 0 161 67t67 160q0 98 -70 163t-168 65q-90 0 -153.5 66t-63.5 156q0 96 96 182.5t96 197.5q0 92 -65 157.5t-158 65.5 q-104 0 -178 -74t-74 -179v-1062q0 -35 -35 -35t-35 35v1062q0 134 94.5 228.5t227.5 94.5q122 0 207.5 -86t85.5 -207q0 -105 -49 -174q-4 -6 -93 -96q-50 -51 -50 -110q0 -68 48 -110t117 -42q121 0 205.5 -88.5t84.5 -209.5z" />
<glyph unicode="&#xe0;" horiz-adv-x="820" d="M570 1236q0 -37 -34 -37q-13 0 -153 70q-131 65 -164 85q-19 12 -19 30q0 37 34 37q13 0 153 -70q131 -65 164 -85q19 -12 19 -30zM720 35q0 -35 -35 -35t-35 35v95q-101 -130 -265 -130q-138 0 -236.5 98.5t-98.5 236.5t98.5 236.5t236.5 98.5q164 0 265 -130v95 q0 109 -78 187t-187 78q-71 0 -142.5 -44.5t-69.5 -44.5q-36 0 -36 36q0 13 11 25q90 98 237 98q138 0 236.5 -98.5t98.5 -236.5v-600zM650 335q0 109 -78 187t-187 78t-187 -78t-78 -187t78 -187t187 -78t187 78t78 187z" />
<glyph unicode="&#xe1;" horiz-adv-x="820" d="M570 1384q0 -18 -19 -30q-33 -20 -164 -85q-140 -70 -153 -70q-34 0 -34 37q0 18 19 30q33 20 164 85q140 70 153 70q34 0 34 -37zM720 35q0 -35 -35 -35t-35 35v95q-101 -130 -265 -130q-138 0 -236.5 98.5t-98.5 236.5t98.5 236.5t236.5 98.5q164 0 265 -130v95 q0 109 -78 187t-187 78q-71 0 -142.5 -44.5t-69.5 -44.5q-36 0 -36 36q0 13 11 25q90 98 237 98q138 0 236.5 -98.5t98.5 -236.5v-600zM650 335q0 109 -78 187t-187 78t-187 -78t-78 -187t78 -187t187 -78t187 78t78 187z" />
<glyph unicode="&#xe2;" horiz-adv-x="820" d="M645 1236q0 -37 -34 -37q-11 0 -20 7l-206 137l-206 -137q-9 -7 -20 -7q-34 0 -34 37q0 17 16 28l222 148q12 9 22 9t22 -9l222 -148q16 -11 16 -28zM720 35q0 -35 -35 -35t-35 35v95q-101 -130 -265 -130q-138 0 -236.5 98.5t-98.5 236.5t98.5 236.5t236.5 98.5 q164 0 265 -130v95q0 109 -78 187t-187 78q-71 0 -142.5 -44.5t-69.5 -44.5q-36 0 -36 36q0 13 11 25q90 98 237 98q138 0 236.5 -98.5t98.5 -236.5v-600zM650 335q0 109 -78 187t-187 78t-187 -78t-78 -187t78 -187t187 -78t187 78t78 187z" />
<glyph unicode="&#xe3;" horiz-adv-x="821" d="M721 1311q0 -12 -12 -31q-48 -80 -174 -80q-73 0 -162 75t-138 75q-70 0 -105 -37.5t-44 -37.5q-36 0 -36 34q0 12 11 31q48 80 174 80q74 0 162.5 -75t137.5 -75q71 0 106 37.5t43 37.5q37 0 37 -34zM720 35q0 -35 -35 -35t-35 35v95q-100 -130 -265 -130 q-138 0 -236.5 98.5t-98.5 236.5t98.5 236.5t236.5 98.5q165 0 265 -130v95q0 109 -77.5 187t-187.5 78q-70 0 -141.5 -44.5t-70.5 -44.5q-36 0 -36 36q0 13 11 25q90 98 237 98q139 0 237 -98.5t98 -236.5v-600zM650 335q0 109 -77.5 187t-187.5 78q-109 0 -187 -78 t-78 -187t78 -187t187 -78q110 0 187.5 78t77.5 187z" />
<glyph unicode="&#xe4;" horiz-adv-x="820" d="M683 1273q0 -73 -73 -73q-72 0 -72 73q0 72 72 72q73 0 73 -72zM233 1273q0 -73 -73 -73q-72 0 -72 73q0 72 72 72q73 0 73 -72zM720 35q0 -35 -35 -35t-35 35v95q-101 -130 -265 -130q-138 0 -236.5 98.5t-98.5 236.5t98.5 236.5t236.5 98.5q164 0 265 -130v95 q0 109 -78 187t-187 78q-71 0 -142.5 -44.5t-69.5 -44.5q-36 0 -36 36q0 13 11 25q90 98 237 98q138 0 236.5 -98.5t98.5 -236.5v-600zM650 335q0 109 -78 187t-187 78t-187 -78t-78 -187t78 -187t187 -78t187 78t78 187z" />
<glyph unicode="&#xe5;" horiz-adv-x="820" d="M562 1271q0 -73 -52 -123.5t-125 -50.5t-125.5 50.5t-52.5 123.5t52.5 125t125.5 52t125 -52t52 -125zM720 35q0 -35 -35 -35t-35 35v95q-101 -130 -265 -130q-138 0 -236.5 98.5t-98.5 236.5t98.5 236.5t236.5 98.5q164 0 265 -130v95q0 109 -78 187t-187 78 q-71 0 -142.5 -44.5t-69.5 -44.5q-36 0 -36 36q0 13 11 25q90 98 237 98q138 0 236.5 -98.5t98.5 -236.5v-600zM492 1271q0 44 -31.5 75.5t-75.5 31.5t-76 -31.5t-32 -75.5q0 -45 32 -74.5t76 -29.5t75.5 29.5t31.5 74.5zM650 335q0 109 -78 187t-187 78t-187 -78t-78 -187 t78 -187t187 -78t187 78t78 187z" />
<glyph unicode="&#xe6;" horiz-adv-x="1610" d="M1560 261q0 -9 -5 -19q-63 -111 -177 -176.5t-243 -65.5q-132 0 -247 68t-178 184q-29 -111 -120 -181.5t-205 -70.5q-138 0 -236.5 98.5t-98.5 236.5t98.5 236.5t236.5 98.5q164 0 265 -130v95q0 109 -78 187t-187 78q-71 0 -142 -44.5t-70 -44.5q-36 0 -36 36 q0 13 11 25q92 98 237 98q114 0 205 -70.5t120 -181.5q63 116 178 184t247 68q80 0 162 -29q78 -29 160 -92q102 -77 102 -140q0 -20 -17 -29l-748 -432q124 -178 341 -178q194 0 317 147l42 61q14 17 30 17q36 0 36 -34zM1476 722q-124 178 -341 178q-172 0 -293.5 -121.5 t-121.5 -293.5q0 -93 39 -177zM650 335q0 109 -78 187t-187 78t-187 -78t-78 -187t78 -187t187 -78t187 78t78 187z" />
<glyph unicode="&#xe7;" horiz-adv-x="939" d="M889 804q0 -36 -36 -36q6 0 -99 66t-219 66q-172 0 -293.5 -121.5t-121.5 -293.5t121.5 -293.5t293.5 -121.5q114 0 219 66t98 66q36 0 36 -36q0 -33 -86 -85q-67 -41 -118 -58q111 -78 111 -213q0 -107 -76.5 -183.5t-183.5 -76.5q-149 0 -226 131q-5 8 -5 18 q0 34 37 34q7 0 61 -56.5t133 -56.5q78 0 134 56t56 134t-56 134t-134 56q-201 0 -343 142t-142 343t142 343t343 142q214 0 343 -142q11 -12 11 -24z" />
<glyph unicode="&#xe8;" horiz-adv-x="1010" d="M720 1236q0 -37 -34 -37q-13 0 -153 70q-131 65 -164 85q-19 12 -19 30q0 37 34 37q13 0 153 -70q131 -65 164 -85q19 -12 19 -30zM960 261q0 -9 -5 -19q-64 -111 -177.5 -176.5t-242.5 -65.5q-201 0 -343 142t-142 343t142 343t343 142q79 0 162 -29q77 -28 160 -91 q102 -78 102 -141q0 -20 -17 -29l-748 -432q124 -178 341 -178q188 0 309 138l50 70q13 17 30 17q36 0 36 -34zM876 722q-124 178 -341 178q-172 0 -293.5 -121.5t-121.5 -293.5q0 -93 39 -177z" />
<glyph unicode="&#xe9;" horiz-adv-x="1010" d="M720 1384q0 -18 -19 -30q-33 -20 -164 -85q-140 -70 -153 -70q-34 0 -34 37q0 18 19 30q33 20 164 85q140 70 153 70q34 0 34 -37zM960 261q0 -9 -5 -19q-64 -111 -177.5 -176.5t-242.5 -65.5q-201 0 -343 142t-142 343t142 343t343 142q79 0 162 -29q77 -28 160 -91 q102 -78 102 -141q0 -20 -17 -29l-748 -432q124 -178 341 -178q188 0 309 138l50 70q13 17 30 17q36 0 36 -34zM876 722q-124 178 -341 178q-172 0 -293.5 -121.5t-121.5 -293.5q0 -93 39 -177z" />
<glyph unicode="&#xea;" horiz-adv-x="1010" d="M795 1236q0 -37 -34 -37q-11 0 -20 7l-206 137l-206 -137q-9 -7 -20 -7q-34 0 -34 37q0 17 16 28l222 148q12 9 22 9t22 -9l222 -148q16 -11 16 -28zM960 261q0 -9 -5 -19q-64 -111 -177.5 -176.5t-242.5 -65.5q-201 0 -343 142t-142 343t142 343t343 142q79 0 162 -29 q77 -28 160 -91q102 -78 102 -141q0 -20 -17 -29l-748 -432q124 -178 341 -178q188 0 309 138l50 70q13 17 30 17q36 0 36 -34zM876 722q-124 178 -341 178q-172 0 -293.5 -121.5t-121.5 -293.5q0 -93 39 -177z" />
<glyph unicode="&#xeb;" horiz-adv-x="1010" d="M833 1273q0 -73 -73 -73q-72 0 -72 73q0 72 72 72q73 0 73 -72zM383 1273q0 -73 -73 -73q-72 0 -72 73q0 72 72 72q73 0 73 -72zM960 261q0 -9 -5 -19q-64 -111 -177.5 -176.5t-242.5 -65.5q-201 0 -343 142t-142 343t142 343t343 142q79 0 162 -29q77 -28 160 -91 q102 -78 102 -141q0 -20 -17 -29l-748 -432q124 -178 341 -178q188 0 309 138l50 70q13 17 30 17q36 0 36 -34zM876 722q-124 178 -341 178q-172 0 -293.5 -121.5t-121.5 -293.5q0 -93 39 -177z" />
<glyph unicode="&#xec;" horiz-adv-x="370" d="M370 1236q0 -37 -34 -37q-13 0 -153 70q-131 65 -164 85q-19 12 -19 30q0 37 34 37q13 0 153 -70q131 -65 164 -85q19 -12 19 -30zM220 935v-900q0 -35 -35 -35t-35 35v900q0 35 35 35t35 -35z" />
<glyph unicode="&#xed;" horiz-adv-x="370" d="M370 1384q0 -18 -19 -30q-33 -20 -164 -85q-140 -70 -153 -70q-34 0 -34 37q0 18 19 30q33 20 164 85q140 70 153 70q34 0 34 -37zM220 935v-900q0 -35 -35 -35t-35 35v900q0 35 35 35t35 -35z" />
<glyph unicode="&#xee;" horiz-adv-x="370" d="M445 1236q0 -37 -34 -37q-11 0 -20 7l-206 137l-206 -137q-9 -7 -20 -7q-34 0 -34 37q0 17 16 28l222 148q12 9 22 9t22 -9l222 -148q16 -11 16 -28zM220 935v-900q0 -35 -35 -35t-35 35v900q0 35 35 35t35 -35z" />
<glyph unicode="&#xef;" horiz-adv-x="370" d="M482 1273q0 -73 -73 -73q-72 0 -72 73q0 72 72 72q73 0 73 -72zM33 1273q0 -73 -73 -73q-72 0 -72 73q0 72 72 72q73 0 73 -72zM220 935l-1 -900q0 -35 -34 -35q-35 0 -35 35v900q0 35 35 35t35 -35z" />
<glyph unicode="&#xf0;" d="M1020 485q0 -201 -142 -343t-343 -142t-343 142t-142 343t142 343t343 142q60 0 118 -14l-245 244h-248q-35 0 -35 35t35 35h178q-102 98 -102 115q0 36 36 36q16 0 165 -151h473q35 0 35 -35t-35 -35h-403l378 -377q135 -135 135 -338zM950 485q0 172 -121.5 293.5 t-293.5 121.5t-293.5 -121.5t-121.5 -293.5t121.5 -293.5t293.5 -121.5t293.5 121.5t121.5 293.5z" />
<glyph unicode="&#xf1;" horiz-adv-x="921" d="M821 1311q0 -12 -12 -31q-48 -80 -174 -80q-73 0 -162 75t-138 75q-70 0 -105 -37.5t-44 -37.5q-36 0 -36 34q0 12 11 31q48 80 174 80q74 0 162.5 -75t137.5 -75q71 0 106 37.5t43 37.5q37 0 37 -34zM820 35q0 -35 -35 -35t-35 35v600q0 109 -77.5 187t-187.5 78 q-109 0 -187 -78t-78 -187v-600q0 -35 -35 -35t-35 35v900q0 35 35 35t35 -35v-95q101 130 265 130q139 0 237 -98.5t98 -236.5v-600z" />
<glyph unicode="&#xf2;" d="M720 1236q0 -37 -34 -37q-13 0 -153 70q-131 65 -164 85q-19 12 -19 30q0 37 34 37q13 0 153 -70q131 -65 164 -85q19 -12 19 -30zM1020 485q0 -201 -142 -343t-343 -142t-343 142t-142 343t142 343t343 142t343 -142t142 -343zM950 485q0 172 -121.5 293.5t-293.5 121.5 t-293.5 -121.5t-121.5 -293.5t121.5 -293.5t293.5 -121.5t293.5 121.5t121.5 293.5z" />
<glyph unicode="&#xf3;" d="M720 1384q0 -18 -19 -30q-33 -20 -164 -85q-140 -70 -153 -70q-34 0 -34 37q0 18 19 30q33 20 164 85q140 70 153 70q34 0 34 -37zM1020 485q0 -201 -142 -343t-343 -142t-343 142t-142 343t142 343t343 142t343 -142t142 -343zM950 485q0 172 -121.5 293.5t-293.5 121.5 t-293.5 -121.5t-121.5 -293.5t121.5 -293.5t293.5 -121.5t293.5 121.5t121.5 293.5z" />
<glyph unicode="&#xf4;" d="M795 1236q0 -37 -34 -37q-11 0 -20 7l-206 137l-206 -137q-9 -7 -20 -7q-34 0 -34 37q0 17 16 28l222 148q12 9 22 9t22 -9l222 -148q16 -11 16 -28zM1020 485q0 -201 -142 -343t-343 -142t-343 142t-142 343t142 343t343 142t343 -142t142 -343zM950 485 q0 172 -121.5 293.5t-293.5 121.5t-293.5 -121.5t-121.5 -293.5t121.5 -293.5t293.5 -121.5t293.5 121.5t121.5 293.5z" />
<glyph unicode="&#xf5;" d="M870 1311q0 -12 -11 -31q-48 -80 -174 -80q-73 0 -162 75t-138 75q-71 0 -105.5 -37.5t-43.5 -37.5q-36 0 -36 34q0 12 11 31q48 80 174 80q73 0 162 -75t138 -75q71 0 105.5 37.5t43.5 37.5q36 0 36 -34zM1020 485q0 -201 -142 -343t-343 -142t-343 142t-142 343 t142 343t343 142t343 -142t142 -343zM950 485q0 172 -121.5 293.5t-293.5 121.5t-293.5 -121.5t-121.5 -293.5t121.5 -293.5t293.5 -121.5t293.5 121.5t121.5 293.5z" />
<glyph unicode="&#xf6;" d="M833 1273q0 -73 -73 -73q-72 0 -72 73q0 72 72 72q73 0 73 -72zM383 1273q0 -73 -73 -73q-72 0 -72 73q0 72 72 72q73 0 73 -72zM1020 485q0 -201 -142 -343t-343 -142t-343 142t-142 343t142 343t343 142t343 -142t142 -343zM950 485q0 172 -121.5 293.5t-293.5 121.5 t-293.5 -121.5t-121.5 -293.5t121.5 -293.5t293.5 -121.5t293.5 121.5t121.5 293.5z" />
<glyph unicode="&#xf7;" d="M609 1011q0 -30 -22 -52t-52 -22t-52 22t-22 52q0 71 74 71t74 -71zM870 597q0 -35 -35 -35h-600q-35 0 -35 35t35 35h600q35 0 35 -35zM609 186q0 -30 -22 -52t-52 -22t-52 22t-22 52q0 71 74 71t74 -71z" />
<glyph unicode="&#xf8;" horiz-adv-x="1071" d="M1021 935q0 -17 -119 -133q119 -136 119 -317q0 -201 -142.5 -343t-342.5 -142q-181 0 -318 118q-115 -119 -132 -119q-36 0 -36 36q0 17 119 133q-118 136 -118 317q0 201 142 343t343 142q180 0 317 -118q116 119 132 119q36 0 36 -36zM803 802q-116 98 -267 98 q-172 0 -293.5 -121.5t-121.5 -293.5q0 -152 97 -268zM951 485q0 152 -98 268l-585 -585q116 -98 268 -98q171 0 293 121.5t122 293.5z" />
<glyph unicode="&#xf9;" horiz-adv-x="870" d="M620 1236q0 -37 -34 -37q-13 0 -153 70q-131 65 -164 85q-19 12 -19 30q0 37 34 37q13 0 153 -70q131 -65 164 -85q19 -12 19 -30zM770 335q0 -138 -98.5 -236.5t-236.5 -98.5t-236.5 98.5t-98.5 236.5v600q0 35 35 35t35 -35v-600q0 -109 78 -187t187 -78t187 78t78 187 v600q0 35 35 35t35 -35v-600z" />
<glyph unicode="&#xfa;" horiz-adv-x="870" d="M620 1384q0 -18 -19 -30q-33 -20 -164 -85q-140 -70 -153 -70q-34 0 -34 37q0 18 19 30q33 20 164 85q140 70 153 70q34 0 34 -37zM770 335q0 -138 -98.5 -236.5t-236.5 -98.5t-236.5 98.5t-98.5 236.5v600q0 35 35 35t35 -35v-600q0 -109 78 -187t187 -78t187 78t78 187 v600q0 35 35 35t35 -35v-600z" />
<glyph unicode="&#xfb;" horiz-adv-x="870" d="M695 1236q0 -37 -34 -37q-11 0 -20 7l-206 137l-206 -137q-9 -7 -20 -7q-34 0 -34 37q0 17 16 28l222 148q12 9 22 9t22 -9l222 -148q16 -11 16 -28zM770 335q0 -138 -98.5 -236.5t-236.5 -98.5t-236.5 98.5t-98.5 236.5v600q0 35 35 35t35 -35v-600q0 -109 78 -187 t187 -78t187 78t78 187v600q0 35 35 35t35 -35v-600z" />
<glyph unicode="&#xfc;" horiz-adv-x="870" d="M733 1273q0 -73 -73 -73q-72 0 -72 73q0 72 72 72q73 0 73 -72zM283 1273q0 -73 -73 -73q-72 0 -72 73q0 72 72 72q73 0 73 -72zM770 335q0 -138 -98.5 -236.5t-236.5 -98.5t-236.5 98.5t-98.5 236.5v600q0 35 35 35t35 -35v-600q0 -109 78 -187t187 -78t187 78t78 187 v600q0 35 35 35t35 -35v-600z" />
<glyph unicode="&#xfd;" horiz-adv-x="920" d="M620 1384q0 -18 -19 -30q-33 -20 -164 -85q-140 -70 -153 -70q-34 0 -34 37q0 18 19 30q33 20 164 85q140 70 153 70q34 0 34 -37zM770 -115q0 -138 -98.5 -236.5t-236.5 -98.5q-196 0 -290 166q-5 10 -5 19q0 34 37 34q13 0 45 -38q42 -49 76 -72q59 -39 137 -39 q109 0 187 78t78 187v245q-101 -130 -265 -130q-138 0 -236.5 98.5t-98.5 236.5v600q0 35 35 35t35 -35v-600q0 -109 78 -187t187 -78t187 78t78 187v600q0 35 35 35t35 -35v-1050z" />
<glyph unicode="&#xfe;" horiz-adv-x="1170" d="M1120 485q0 -201 -142 -343t-343 -142q-127 0 -238 62.5t-177 171.5v-649q0 -35 -35 -35t-35 35v1800q0 35 35 35t35 -35v-649q66 109 177 171.5t238 62.5q201 0 343 -142t142 -343zM1050 485q0 172 -121.5 293.5t-293.5 121.5t-293.5 -121.5t-121.5 -293.5t121.5 -293.5 t293.5 -121.5t293.5 121.5t121.5 293.5z" />
<glyph unicode="&#xff;" horiz-adv-x="920" d="M733 1260q0 -73 -73 -73q-72 0 -72 73q0 72 72 72q73 0 73 -72zM283 1260q0 -73 -73 -73q-72 0 -72 73q0 72 72 72q73 0 73 -72zM770 -115q0 -138 -98.5 -236.5t-236.5 -98.5q-196 0 -290 166q-5 10 -5 19q0 34 37 34q13 0 45 -38q42 -49 76 -72q59 -39 137 -39 q109 0 187 78t78 187v245q-101 -130 -265 -130q-138 0 -236.5 98.5t-98.5 236.5v600q0 35 35 35t35 -35v-600q0 -109 78 -187t187 -78t187 78t78 187v600q0 35 35 35t35 -35v-1050z" />
<glyph unicode="&#x100;" horiz-adv-x="1521" d="M1471 1760q0 -35 -35 -35h-1350q-35 0 -35 35t35 35h1350q35 0 35 -35zM1471 34q0 -34 -37 -34q-20 0 -30 19l-215 431h-3h-854l-215 -431q-10 -19 -30 -19q-37 0 -37 34q0 12 312 640q311 624 364 721q14 25 34 25q21 0 35 -25q53 -97 364 -721q312 -628 312 -640z M1154 520l-393 787l-394 -787h787z" />
<glyph unicode="&#x101;" horiz-adv-x="770" d="M720 1310q0 -35 -35 -35h-600q-35 0 -35 35t35 35h600q35 0 35 -35zM720 35q0 -35 -35 -35t-35 35v95q-101 -130 -265 -130q-138 0 -236.5 98.5t-98.5 236.5t98.5 236.5t236.5 98.5q164 0 265 -130v95q0 109 -78 187t-187 78q-71 0 -142.5 -44.5t-69.5 -44.5 q-36 0 -36 36q0 13 11 25q90 98 237 98q138 0 236.5 -98.5t98.5 -236.5v-600zM650 335q0 109 -78 187t-187 78t-187 -78t-78 -187t78 -187t187 -78t187 78t78 187z" />
<glyph unicode="&#x102;" horiz-adv-x="1521" d="M1022 1835q0 -14 -31 -47q-127 -137 -231 -137t-230 137q-31 33 -31 47q0 35 37 35q10 0 87.5 -75t136.5 -75t137 75t88 75q37 0 37 -35zM1471 34q0 -34 -37 -34q-20 0 -30 19l-215 431h-3h-854l-215 -431q-10 -19 -30 -19q-37 0 -37 34q0 12 312 640q311 624 364 721 q14 25 34 25q21 0 35 -25q53 -97 364 -721q312 -628 312 -640zM1154 520l-393 787l-394 -787h787z" />
<glyph unicode="&#x103;" horiz-adv-x="770" d="M646 1385q0 -14 -31 -47q-127 -137 -231 -137t-230 137q-30 33 -30 47q0 35 37 35q10 0 87 -75t137 -75q58 0 136 75t88 75q37 0 37 -35zM720 35q0 -35 -35 -35t-35 35v95q-101 -130 -265 -130q-138 0 -236.5 98.5t-98.5 236.5t98.5 236.5t236.5 98.5q164 0 265 -130v95 q0 109 -78 187t-187 78q-71 0 -142.5 -44.5t-69.5 -44.5q-36 0 -36 36q0 13 11 25q90 98 237 98q138 0 236.5 -98.5t98.5 -236.5v-600zM650 335q0 109 -78 187t-187 78t-187 -78t-78 -187t78 -187t187 -78t187 78t78 187z" />
<glyph unicode="&#x104;" horiz-adv-x="1716" d="M1666 -301q0 -9 -5 -18q-72 -131 -225 -131q-108 0 -184 76.5t-76 183.5q0 92 58 163.5t148 90.5l-193 386h-3h-854l-215 -431q-10 -19 -30 -19q-37 0 -37 34q0 11 312 638t364 723q14 25 34 25q22 0 35 -25l672 -1344q5 -11 5 -21q0 -30 -36 -30q-79 0 -134.5 -56 t-55.5 -134t55.5 -134t134.5 -56q76 0 131.5 56.5t62.5 56.5q36 0 36 -34zM1154 520l-393 787l-394 -787h787z" />
<glyph unicode="&#x105;" horiz-adv-x="966" d="M916 -301q0 -9 -5 -18q-75 -131 -226 -131q-107 0 -183.5 76.5t-76.5 183.5q0 97 64.5 171t160.5 87v62q-101 -130 -265 -130q-138 0 -236.5 98.5t-98.5 236.5t98.5 236.5t236.5 98.5q164 0 265 -130v95q0 109 -78 187t-187 78q-71 0 -142.5 -44.5t-69.5 -44.5 q-36 0 -36 36q0 13 11 25q90 98 237 98q138 0 236.5 -98.5t98.5 -236.5v-600q0 -35 -35 -35q-78 0 -134 -56t-56 -134t56 -134t134 -56q75 0 131 56.5t63 56.5q37 0 37 -34zM650 335q0 110 -77.5 187.5t-187.5 77.5q-109 0 -187 -78t-78 -187t78 -187t187 -78t187 78t78 187 z" />
<glyph unicode="&#x106;" horiz-adv-x="1323" d="M945 1834q0 -18 -19 -30q-33 -20 -164 -85q-140 -70 -153 -70q-34 0 -34 37q0 18 19 30q33 20 164 85q140 70 153 70q34 0 34 -37zM1273 232q0 -13 -11 -24q-199 -208 -502 -208q-294 0 -502 208t-208 502t208 502t502 208q303 0 502 -208q11 -11 11 -24q0 -36 -36 -36 q-12 0 -25 11q-218 187 -452 187q-265 0 -452.5 -187.5t-187.5 -452.5t187.5 -452.5t452.5 -187.5q234 0 452 187q13 11 25 11q36 0 36 -36z" />
<glyph unicode="&#x107;" horiz-adv-x="939" d="M720 1384q0 -18 -19 -30q-33 -20 -164 -85q-140 -70 -153 -70q-34 0 -34 37q0 18 19 30q33 20 164 85q140 70 153 70q34 0 34 -37zM889 804q0 -36 -36 -36q6 0 -99 66t-219 66q-172 0 -293.5 -121.5t-121.5 -293.5t121.5 -293.5t293.5 -121.5q114 0 219 66t98 66 q36 0 36 -36q0 -13 -11 -25q-131 -141 -342 -141q-201 0 -343 142t-142 343t142 343t343 142q211 0 343 -142q11 -12 11 -24z" />
<glyph unicode="&#x108;" horiz-adv-x="1323" d="M1020 1686q0 -37 -34 -37q-11 0 -20 7l-206 137l-206 -137q-9 -7 -20 -7q-34 0 -34 37q0 17 16 28l222 148q12 9 22 9t22 -9l222 -148q16 -11 16 -28zM1273 232q0 -13 -11 -24q-199 -208 -502 -208q-294 0 -502 208t-208 502t208 502t502 208q303 0 502 -208 q11 -11 11 -24q0 -36 -36 -36q-12 0 -25 11q-218 187 -452 187q-265 0 -452.5 -187.5t-187.5 -452.5t187.5 -452.5t452.5 -187.5q234 0 452 187q13 11 25 11q36 0 36 -36z" />
<glyph unicode="&#x109;" horiz-adv-x="939" d="M795 1236q0 -37 -34 -37q-11 0 -20 7l-206 137l-206 -137q-9 -7 -20 -7q-34 0 -34 37q0 17 16 28l222 148q12 9 22 9t22 -9l222 -148q16 -11 16 -28zM889 804q0 -36 -36 -36q6 0 -99 66t-219 66q-172 0 -293.5 -121.5t-121.5 -293.5t121.5 -293.5t293.5 -121.5 q114 0 219 66t98 66q36 0 36 -36q0 -13 -11 -25q-131 -141 -342 -141q-201 0 -343 142t-142 343t142 343t343 142q211 0 343 -142q11 -12 11 -24z" />
<glyph unicode="&#x10a;" horiz-adv-x="1323" d="M833 1723q0 -73 -73 -73q-72 0 -72 73q0 72 72 72q73 0 73 -72zM1273 232q0 -13 -11 -24q-199 -208 -502 -208q-294 0 -502 208t-208 502t208 502t502 208q303 0 502 -208q11 -11 11 -24q0 -36 -36 -36q-12 0 -25 11q-218 187 -452 187q-265 0 -452.5 -187.5 t-187.5 -452.5t187.5 -452.5t452.5 -187.5q234 0 452 187q13 11 25 11q36 0 36 -36z" />
<glyph unicode="&#x10b;" horiz-adv-x="939" d="M609 1346q0 -71 -74 -71t-74 71q0 30 22 52t52 22t52 -22t22 -52zM889 804q0 -36 -36 -36q6 0 -99 66t-219 66q-172 0 -293.5 -121.5t-121.5 -293.5t121.5 -293.5t293.5 -121.5q114 0 219 66t98 66q36 0 36 -36q0 -13 -11 -25q-131 -141 -342 -141q-201 0 -343 142 t-142 343t142 343t343 142q211 0 343 -142q11 -12 11 -24z" />
<glyph unicode="&#x10c;" horiz-adv-x="1323" d="M1020 1834q0 -17 -16 -28l-222 -148q-12 -9 -22 -9t-22 9l-222 148q-16 11 -16 28q0 37 34 37q11 0 20 -7l206 -137l206 137q9 7 20 7q34 0 34 -37zM1273 232q0 -13 -11 -24q-199 -208 -502 -208q-294 0 -502 208t-208 502t208 502t502 208q303 0 502 -208q11 -11 11 -24 q0 -36 -36 -36q-12 0 -25 11q-218 187 -452 187q-265 0 -452.5 -187.5t-187.5 -452.5t187.5 -452.5t452.5 -187.5q234 0 452 187q13 11 25 11q36 0 36 -36z" />
<glyph unicode="&#x10d;" horiz-adv-x="939" d="M795 1384q0 -17 -16 -28l-225 -150q-6 -4 -19 -4t-19 4l-225 150q-16 11 -16 28q0 37 34 37q11 0 20 -7l206 -137l206 137q9 7 20 7q34 0 34 -37zM889 804q0 -36 -36 -36q6 0 -99 66t-219 66q-172 0 -293.5 -121.5t-121.5 -293.5t121.5 -293.5t293.5 -121.5q114 0 219 66 t98 66q36 0 36 -36q0 -13 -11 -25q-131 -141 -342 -141q-201 0 -343 142t-142 343t142 343t343 142q211 0 343 -142q11 -12 11 -24z" />
<glyph unicode="&#x10e;" horiz-adv-x="1395" d="M895 1834q0 -17 -16 -28l-222 -148q-12 -9 -22 -9t-22 9l-222 148q-16 11 -16 28q0 37 34 37q11 0 20 -7l206 -137l206 137q9 7 20 7q34 0 34 -37zM1345 710q0 -294 -208 -502t-502 -208h-450q-35 0 -35 35v1350q0 35 35 35h450q294 0 502 -208t208 -502zM1275 710 q0 265 -187.5 452.5t-452.5 187.5h-415v-1280h415q265 0 452.5 187.5t187.5 452.5z" />
<glyph unicode="&#x10f;" horiz-adv-x="1170" d="M795 1834q0 -17 -16 -28l-222 -148q-12 -9 -22 -9t-22 9l-222 148q-16 11 -16 28q0 37 34 37q11 0 20 -7l206 -137l206 137q9 7 20 7q34 0 34 -37zM1020 35q0 -35 -35 -35t-35 35v199q-66 -109 -177 -171.5t-238 -62.5q-201 0 -343 142t-142 343t142 343t343 142 q127 0 238 -62.5t177 -171.5v649q0 35 35 35t35 -35v-1350zM950 485q0 172 -121.5 293.5t-293.5 121.5t-293.5 -121.5t-121.5 -293.5t121.5 -293.5t293.5 -121.5t293.5 121.5t121.5 293.5z" />
<glyph unicode="&#x110;" horiz-adv-x="1470" d="M1420 710q0 -294 -208 -502t-502 -208h-450q-35 0 -35 35v626q-181 -61 -191 -61q-34 0 -34 36q0 24 24 32l201 67v650q0 35 35 35h450q294 0 502 -208t208 -502zM1350 710q0 265 -187.5 452.5t-452.5 187.5h-415v-591q181 61 192 61q33 0 33 -36q0 -24 -24 -32l-201 -67 v-615h415q265 0 452.5 187.5t187.5 452.5z" />
<glyph unicode="&#x111;" horiz-adv-x="1245" d="M1245 1160q0 -35 -35 -35h-190v-1090q0 -35 -35 -35t-35 35v199q-66 -109 -177 -171.5t-238 -62.5q-201 0 -343 142t-142 343t142 343t343 142q127 0 238 -62.5t177 -171.5v389h-415q-35 0 -35 35t35 35h415v190q0 35 35 35t35 -35v-190h190q35 0 35 -35zM950 485 q0 172 -121.5 293.5t-293.5 121.5t-293.5 -121.5t-121.5 -293.5t121.5 -293.5t293.5 -121.5t293.5 121.5t121.5 293.5z" />
<glyph unicode="&#x112;" horiz-adv-x="1020" d="M970 1760q0 -35 -35 -35h-750q-35 0 -35 35t35 35h750q35 0 35 -35zM970 35q0 -35 -35 -35h-750q-35 0 -35 35v1350q0 35 35 35h750q35 0 35 -35t-35 -35h-715v-605h565q35 0 35 -35t-35 -35h-565v-605h715q35 0 35 -35z" />
<glyph unicode="&#x113;" horiz-adv-x="1010" d="M960 1310q0 -35 -35 -35h-840q-35 0 -35 35t35 35h840q35 0 35 -35zM960 261q0 -9 -5 -19q-64 -111 -177.5 -176.5t-242.5 -65.5q-201 0 -343 142t-142 343t142 343t343 142q79 0 162 -29q77 -28 160 -91q102 -78 102 -141q0 -20 -17 -29l-748 -432q124 -178 341 -178 q188 0 309 138l50 70q13 17 30 17q36 0 36 -34zM876 722q-124 178 -341 178q-172 0 -293.5 -121.5t-121.5 -293.5q0 -93 39 -177z" />
<glyph unicode="&#x114;" horiz-adv-x="1020" d="M821 1835q0 -14 -31 -47q-127 -138 -230 -138q-60 0 -141 56q-72 50 -111 107q-9 12 -9 22q0 36 37 36q10 0 87.5 -75.5t136.5 -75.5t136.5 75t87.5 75q37 0 37 -35zM970 35q0 -35 -35 -35h-750q-35 0 -35 35v1350q0 35 35 35h750q35 0 35 -35t-35 -35h-715v-605h565 q35 0 35 -35t-35 -35h-565v-605h715q35 0 35 -35z" />
<glyph unicode="&#x115;" horiz-adv-x="1010" d="M782 1385q0 -14 -31 -47q-127 -137 -231 -137t-230 137q-31 33 -31 47q0 35 37 35q10 0 87.5 -75t136.5 -75t137 75t87 75q38 0 38 -35zM960 261q0 -9 -5 -19q-64 -111 -177.5 -176.5t-242.5 -65.5q-201 0 -343 142t-142 343t142 343t343 142q79 0 162 -29 q77 -28 160 -91q102 -78 102 -141q0 -20 -17 -29l-748 -432q124 -178 341 -178q188 0 309 138l50 70q13 17 30 17q36 0 36 -34zM876 722q-124 178 -341 178q-172 0 -293.5 -121.5t-121.5 -293.5q0 -93 39 -177z" />
<glyph unicode="&#x116;" horiz-adv-x="1020" d="M633 1723q0 -73 -73 -73q-72 0 -72 73q0 72 72 72q73 0 73 -72zM970 35q0 -35 -35 -35h-750q-35 0 -35 35v1350q0 35 35 35h750q35 0 35 -35t-35 -35h-715v-605h565q35 0 35 -35t-35 -35h-565v-605h715q35 0 35 -35z" />
<glyph unicode="&#x117;" horiz-adv-x="1010" d="M609 1346q0 -71 -74 -71t-74 71q0 30 22 52t52 22t52 -22t22 -52zM960 261q0 -9 -5 -19q-64 -111 -177.5 -176.5t-242.5 -65.5q-201 0 -343 142t-142 343t142 343t343 142q79 0 162 -29q77 -28 160 -91q102 -78 102 -141q0 -20 -17 -29l-748 -432q124 -178 341 -178 q188 0 309 138l50 70q13 17 30 17q36 0 36 -34zM876 722q-124 178 -341 178q-172 0 -293.5 -121.5t-121.5 -293.5q0 -93 39 -177z" />
<glyph unicode="&#x118;" horiz-adv-x="1216" d="M1166 -301q0 -8 -5 -18q-69 -131 -226 -131q-107 0 -183.5 76.5t-76.5 183.5q0 113 83 190h-573q-35 0 -35 35v1350q0 35 35 35h750q35 0 35 -35t-35 -35h-715v-605h565q35 0 35 -35t-35 -35h-565v-605h715q36 0 36 -35t-36 -35q-78 0 -134 -56t-56 -134t56 -134t134 -56 q77 0 132.5 56.5t61.5 56.5q37 0 37 -34z" />
<glyph unicode="&#x119;" horiz-adv-x="1010" d="M960 261q0 -9 -5 -19q-62 -111 -177 -176.5t-243 -65.5q-78 0 -134 -56t-56 -134t56 -134t134 -56q79 0 133 56.5t61 56.5q37 0 37 -34q0 -9 -5 -18q-76 -131 -226 -131q-107 0 -183.5 76.5t-76.5 183.5q0 135 111 213q-150 49 -243 176.5t-93 285.5q0 201 142 343 t343 142q82 0 167 -31q76 -29 157 -91q100 -77 100 -139q0 -20 -17 -29l-748 -432q124 -178 341 -178q187 0 309 138l50 70q14 17 30 17q36 0 36 -34zM876 722q-124 178 -341 178q-172 0 -293.5 -121.5t-121.5 -293.5q0 -93 39 -177z" />
<glyph unicode="&#x11a;" horiz-adv-x="1020" d="M820 1834q0 -17 -16 -28l-222 -148q-12 -9 -22 -9t-22 9l-222 148q-16 11 -16 28q0 37 34 37q11 0 20 -7l206 -137l206 137q9 7 20 7q34 0 34 -37zM970 35q0 -35 -35 -35h-750q-35 0 -35 35v1350q0 35 35 35h750q35 0 35 -35t-35 -35h-715v-605h565q35 0 35 -35t-35 -35 h-565v-605h715q35 0 35 -35z" />
<glyph unicode="&#x11b;" horiz-adv-x="1010" d="M795 1384q0 -17 -16 -28l-225 -150q-6 -4 -19 -4t-19 4l-225 150q-16 11 -16 28q0 37 34 37q11 0 20 -7l206 -137l206 137q9 7 20 7q34 0 34 -37zM960 261q0 -9 -5 -19q-64 -111 -177.5 -176.5t-242.5 -65.5q-201 0 -343 142t-142 343t142 343t343 142q79 0 162 -29 q77 -28 160 -91q102 -78 102 -141q0 -20 -17 -29l-748 -432q124 -178 341 -178q188 0 309 138l50 70q13 17 30 17q36 0 36 -34zM876 722q-124 178 -341 178q-172 0 -293.5 -121.5t-121.5 -293.5q0 -93 39 -177z" />
<glyph unicode="&#x11c;" horiz-adv-x="1373" d="M1020 1686q0 -37 -34 -37q-11 0 -20 7l-206 137l-206 -137q-9 -7 -20 -7q-34 0 -34 37q0 17 16 28l222 148q12 9 22 9t22 -9l222 -148q16 -11 16 -28zM1273 1188q0 -36 -36 -36q-12 0 -25 11q-218 187 -452 187q-265 0 -452.5 -187.5t-187.5 -452.5t187.5 -452.5 t452.5 -187.5q257 0 442 177v463q0 35 35 35t35 -35v-478q0 -13 -10 -24q-84 -96 -230 -154q-137 -54 -272 -54q-294 0 -502 208t-208 502t208 502t502 208q303 0 502 -208q11 -11 11 -24z" />
<glyph unicode="&#x11d;" horiz-adv-x="920" d="M720 1236q0 -37 -34 -37q-11 0 -20 7l-206 137l-206 -137q-9 -7 -20 -7q-34 0 -34 37q0 17 16 28l222 148q12 9 22 9t22 -9l222 -148q16 -11 16 -28zM870 935q0 -35 -35 -35h-170q130 -101 130 -265q0 -201 -178 -296q114 -48 183.5 -151.5t69.5 -227.5q0 -170 -120 -290 t-290 -120t-290 120t-120 290q0 35 35 35t35 -35q0 -140 100 -240t240 -100t240 100t100 240t-100 240t-239 100t-237.5 98.5t-98.5 236.5t98.5 236.5t236.5 98.5h375q35 0 35 -35zM725 635q0 109 -78 187t-187 78t-187 -78t-78 -187t78 -187t187 -78t187 78t78 187z" />
<glyph unicode="&#x11e;" horiz-adv-x="1373" d="M1021 1835q0 -14 -31 -47q-127 -137 -230 -137q-104 0 -231 137q-30 33 -30 47q0 35 37 35q10 0 87.5 -75t136.5 -75q58 0 136 75t88 75q37 0 37 -35zM1273 1188q0 -36 -36 -36q-12 0 -25 11q-218 187 -452 187q-265 0 -452.5 -187.5t-187.5 -452.5t187.5 -452.5 t452.5 -187.5q257 0 442 177v463q0 35 35 35t35 -35v-478q0 -13 -10 -24q-84 -96 -230 -154q-137 -54 -272 -54q-294 0 -502 208t-208 502t208 502t502 208q303 0 502 -208q11 -11 11 -24z" />
<glyph unicode="&#x11f;" horiz-adv-x="920" d="M721 1385q0 -14 -31 -47q-127 -137 -231 -137t-230 137q-30 33 -30 47q0 35 37 35q10 0 87 -75t137 -75q58 0 136 75t88 75q37 0 37 -35zM870 935q0 -35 -35 -35h-170q130 -101 130 -265q0 -201 -178 -296q114 -48 183.5 -151.5t69.5 -227.5q0 -170 -120 -290t-290 -120 t-290 120t-120 290q0 35 35 35t35 -35q0 -140 100 -240t240 -100t240 100t100 240t-100 240t-239 100t-237.5 98.5t-98.5 236.5t98.5 236.5t236.5 98.5h375q35 0 35 -35zM725 635q0 109 -78 187t-187 78t-187 -78t-78 -187t78 -187t187 -78t187 78t78 187z" />
<glyph unicode="&#x120;" horiz-adv-x="1373" d="M833 1723q0 -73 -73 -73q-72 0 -72 73q0 72 72 72q73 0 73 -72zM1273 1188q0 -36 -36 -36q-12 0 -25 11q-218 187 -452 187q-265 0 -452.5 -187.5t-187.5 -452.5t187.5 -452.5t452.5 -187.5q257 0 442 177v463q0 35 35 35t35 -35v-478q0 -13 -10 -24q-84 -96 -230 -154 q-137 -54 -272 -54q-294 0 -502 208t-208 502t208 502t502 208q303 0 502 -208q11 -11 11 -24z" />
<glyph unicode="&#x121;" horiz-adv-x="920" d="M534 1346q0 -71 -74 -71t-74 71q0 30 22 52t52 22t52 -22t22 -52zM870 935q0 -35 -35 -35h-170q130 -101 130 -265q0 -201 -178 -296q114 -48 183.5 -151.5t69.5 -227.5q0 -170 -120 -290t-290 -120t-290 120t-120 290q0 35 35 35t35 -35q0 -140 100 -240t240 -100 t240 100t100 240t-100 240t-239 100t-237.5 98.5t-98.5 236.5t98.5 236.5t236.5 98.5h375q35 0 35 -35zM725 635q0 109 -78 187t-187 78t-187 -78t-78 -187t78 -187t187 -78t187 78t78 187z" />
<glyph unicode="&#x122;" horiz-adv-x="1373" d="M1273 1188q0 -36 -36 -36q-12 0 -25 11q-219 187 -452 187q-265 0 -452.5 -187.5t-187.5 -452.5t187.5 -452.5t452.5 -187.5q256 0 442 177v463q0 35 35 35t35 -35v-478q0 -12 -10 -24q-115 -139 -345 -191q103 -78 103 -207q0 -107 -76.5 -183.5t-183.5 -76.5 q-145 0 -226 131q-5 8 -5 18q0 34 37 34q7 0 61 -56.5t133 -56.5q78 0 134 56t56 134t-56 134t-134 56q-294 0 -502 208t-208 502t208 502t502 208q138 0 272 -54q139 -56 230 -154q11 -11 11 -24z" />
<glyph unicode="&#x123;" horiz-adv-x="920" d="M691 1446q0 -34 -37 -34q-6 0 -62.5 56.5t-131.5 56.5q-78 0 -134 -56t-56 -134t56 -134t134 -56q35 0 35 -35t-35 -35q-107 0 -183.5 76.5t-76.5 183.5t76.5 183.5t183.5 76.5q154 0 226 -131q5 -9 5 -18zM870 935q0 -35 -35 -35h-170q130 -101 130 -265 q0 -201 -178 -296q114 -48 183.5 -151.5t69.5 -227.5q0 -170 -120 -290t-290 -120t-290 120t-120 290q0 35 35 35t35 -35q0 -140 100 -240t240 -100t240 100t100 240t-100 240t-239 100t-237.5 98.5t-98.5 236.5t98.5 236.5t236.5 98.5h375q35 0 35 -35zM725 635 q0 109 -78 187t-187 78t-187 -78t-78 -187t78 -187t187 -78t187 78t78 187z" />
<glyph unicode="&#x124;" horiz-adv-x="1270" d="M895 1686q0 -37 -34 -37q-11 0 -20 7l-206 137l-206 -137q-9 -7 -20 -7q-34 0 -34 37q0 17 16 28l222 148q12 9 22 9t22 -9l222 -148q16 -11 16 -28zM1120 35q0 -35 -35 -35t-35 35v640h-830v-640q0 -35 -35 -35t-35 35v1350q0 35 35 35t35 -35v-640h830v640q0 35 35 35 t35 -35v-1350z" />
<glyph unicode="&#x125;" horiz-adv-x="920" d="M745 1686q0 -37 -34 -37q-11 0 -20 7l-206 137l-206 -137q-9 -7 -20 -7q-34 0 -34 37q0 17 16 28l222 148q12 9 22 9t22 -9l222 -148q16 -11 16 -28zM820 35q0 -35 -35 -35t-35 35v600q0 109 -78 187t-187 78t-187 -78t-78 -187v-600q0 -35 -35 -35t-35 35v1350 q0 35 35 35t35 -35v-545q101 130 265 130q138 0 236.5 -98.5t98.5 -236.5v-600z" />
<glyph unicode="&#x126;" horiz-adv-x="1270" d="M1270 1160q0 -35 -35 -35h-115v-1090q0 -35 -35 -35t-35 35v640h-830v-640q0 -35 -35 -35t-35 35v1090h-115q-35 0 -35 35t35 35h115v190q0 35 35 35t35 -35v-190h830v190q0 35 35 35t35 -35v-190h115q35 0 35 -35zM1050 745v380h-830v-380h830z" />
<glyph unicode="&#x127;" horiz-adv-x="995" d="M895 35q0 -35 -35 -35t-35 35v600q0 109 -78 187t-187 78t-187 -78t-78 -187v-600q0 -35 -35 -35t-35 35v1090h-190q-35 0 -35 35t35 35h190v190q0 35 35 35t35 -35v-190h190q35 0 35 -35t-35 -35h-190v-285q101 130 265 130q138 0 236.5 -98.5t98.5 -236.5v-600z" />
<glyph unicode="&#x128;" horiz-adv-x="370" d="M520 1761q0 -12 -11 -31q-48 -80 -174 -80q-73 0 -162 75t-138 75q-71 0 -105.5 -37.5t-43.5 -37.5q-36 0 -36 34q0 12 11 31q48 80 174 80q73 0 162 -75t138 -75q71 0 105.5 37.5t43.5 37.5q36 0 36 -34zM220 35q0 -35 -35 -35t-35 35v1350q0 35 35 35t35 -35v-1350z " />
<glyph unicode="&#x129;" horiz-adv-x="370" d="M520 1311q0 -12 -11 -31q-48 -80 -174 -80q-73 0 -162 75t-138 75q-71 0 -105.5 -37.5t-43.5 -37.5q-36 0 -36 34q0 12 11 31q48 80 174 80q73 0 162 -75t138 -75q71 0 105.5 37.5t43.5 37.5q36 0 36 -34zM220 935v-900q0 -35 -35 -35t-35 35v900q0 35 35 35t35 -35z" />
<glyph unicode="&#x12a;" horiz-adv-x="370" d="M445 1760q0 -35 -35 -35h-450q-35 0 -35 35t35 35h450q35 0 35 -35zM220 35q0 -35 -35 -35t-35 35v1350q0 35 35 35t35 -35v-1350z" />
<glyph unicode="&#x12b;" horiz-adv-x="370" d="M395 1310q0 -35 -35 -35h-350q-35 0 -35 35t35 35h350q35 0 35 -35zM220 935v-900q0 -35 -35 -35t-35 35v900q0 35 35 35t35 -35z" />
<glyph unicode="&#x12c;" horiz-adv-x="370" d="M446 1835q0 -14 -31 -47q-127 -137 -231 -137t-230 137q-30 33 -30 47q0 35 37 35q10 0 87 -75t137 -75q58 0 136 75t88 75q37 0 37 -35zM220 35q0 -35 -35 -35t-35 35v1350q0 35 35 35t35 -35v-1350z" />
<glyph unicode="&#x12d;" horiz-adv-x="370" d="M446 1385q0 -14 -31 -47q-127 -137 -231 -137t-230 137q-30 33 -30 47q0 35 37 35q10 0 87 -75t137 -75q58 0 136 75t88 75q37 0 37 -35zM220 935v-900q0 -35 -35 -35t-35 35v900q0 35 35 35t35 -35z" />
<glyph unicode="&#x12e;" horiz-adv-x="370" d="M416 -301q0 -9 -5 -18q-71 -131 -226 -131q-107 0 -183.5 76.5t-76.5 183.5q0 97 64.5 171t160.5 87v1317q0 35 35 35t35 -35v-1350q0 -35 -35 -35q-78 0 -134 -56t-56 -134t56 -134t134 -56q76 0 131.5 56.5t62.5 56.5q37 0 37 -34z" />
<glyph unicode="&#x12f;" horiz-adv-x="370" d="M259 1346q0 -71 -74 -71t-74 71q0 30 22 52t52 22t52 -22t22 -52zM416 -301q0 -9 -5 -18q-71 -131 -226 -131q-107 0 -183.5 76.5t-76.5 183.5q0 97 64.5 171t160.5 87v867q0 35 35 35t35 -35v-900q0 -35 -35 -35q-78 0 -134 -56t-56 -134t56 -134t134 -56 q76 0 131.5 56.5t62.5 56.5q37 0 37 -34z" />
<glyph unicode="&#x130;" horiz-adv-x="370" d="M257 1723q0 -73 -73 -73q-72 0 -72 73q0 72 72 72q73 0 73 -72zM219 35q0 -35 -34 -35q-35 0 -35 35l-1 1350q0 35 35 35t35 -35v-1350z" />
<glyph unicode="&#x131;" horiz-adv-x="370" d="M220 935v-900q0 -35 -35 -35t-35 35v900q0 35 35 35t35 -35z" />
<glyph unicode="&#x132;" horiz-adv-x="970" d="M820 1385v-1500q0 -138 -98.5 -236.5t-236.5 -98.5q-89 0 -169 46t-121 123q-6 9 -6 18q0 34 37 34q13 0 46 -39q41 -50 75 -73q59 -39 138 -39q109 0 187 78t78 187v1500q0 35 35 35t35 -35zM220 35q0 -35 -35 -35t-35 35v1350q0 35 35 35t35 -35v-1350z" />
<glyph unicode="&#x133;" horiz-adv-x="820" d="M709 1346q0 -71 -74 -71t-74 71q0 30 22 52t52 22t52 -22t22 -52zM259 1346q0 -71 -74 -71t-74 71q0 30 22 52t52 22t52 -22t22 -52zM670 -190q0 -107 -76.5 -183.5t-183.5 -76.5q-118 0 -184 76q-11 13 -11 24q0 36 36 36q2 0 55 -33t104 -33q78 0 134 56t56 134v1125 q0 35 35 35t35 -35v-1125zM220 935v-900q0 -35 -35 -35t-35 35v900q0 35 35 35t35 -35z" />
<glyph unicode="&#x134;" horiz-adv-x="680" d="M530 1686q0 -37 -35 -37q-10 0 -20 7l-206 137l-205 -137q-10 -7 -20 -7q-35 0 -35 37q0 17 16 28l222 148q13 9 22 9q10 0 23 -9l222 -148q16 -11 16 -28zM529 1385v-1500q0 -138 -98 -236.5t-237 -98.5q-88 0 -168 46t-122 123q-5 9 -5 18q0 34 37 34q13 0 45 -39 q41 -50 76 -73q59 -39 137 -39q110 0 187.5 78t77.5 187v1500q0 35 35 35t35 -35z" />
<glyph unicode="&#x135;" horiz-adv-x="370" d="M445 1236q0 -37 -34 -37q-11 0 -20 7l-206 137l-206 -137q-9 -7 -20 -7q-35 0 -35 37q0 17 17 28l222 148q12 9 22 9t22 -9l222 -148q16 -11 16 -28zM220 -190q0 -107 -76.5 -183.5t-183.5 -76.5q-118 0 -184 76q-11 13 -11 24q0 36 36 36q2 0 55 -33t104 -33 q78 0 134 56t56 134v1125q0 35 35 35t35 -35v-1125z" />
<glyph unicode="&#x136;" horiz-adv-x="1016" d="M966 1385q0 -14 -11 -25l-650 -650l650 -650q11 -11 11 -25q0 -36 -36 -36q-13 0 -24 11l-675 675q-11 11 -11 25v-675q0 -35 -35 -35t-35 35v1350q0 35 35 35t35 -35v-675q0 14 11 25l675 675q11 11 24 11q36 0 36 -36zM820 -190q0 -107 -76 -183.5t-184 -76.5 q-154 0 -225 131q-5 9 -5 18q0 34 36 34q6 0 63 -56.5t131 -56.5q79 0 134.5 56t55.5 134t-55.5 134t-134.5 56q-35 0 -35 35t35 35q108 0 184 -76.5t76 -183.5z" />
<glyph unicode="&#x137;" horiz-adv-x="791" d="M741 35q0 -36 -36 -36q-14 0 -25 11l-450 450q-11 11 -11 23q0 16 11 27l450 450q11 11 25 11q36 0 36 -36q0 -14 -11 -25l-426 -425l426 -425q11 -11 11 -25zM220 1385v-1350q0 -35 -35 -35t-35 35v1350q0 35 35 35t35 -35zM680 -190q0 -107 -76.5 -183.5t-183.5 -76.5 q-154 0 -225 131q-6 9 -6 18q0 34 37 34q6 0 63 -56.5t131 -56.5q78 0 134 56t56 134t-56 134t-134 56q-35 0 -35 35t35 35q107 0 183.5 -76.5t76.5 -183.5z" />
<glyph unicode="&#x138;" horiz-adv-x="791" d="M741 35q0 -36 -36 -36q-14 0 -25 11l-450 450q-10 10 -10 25t10 25l450 450q11 11 25 11q36 0 36 -36q0 -14 -11 -25l-426 -425l426 -425q11 -11 11 -25zM220 35q0 -35 -35 -35t-35 35v900q0 35 35 35t35 -35v-900z" />
<glyph unicode="&#x139;" horiz-adv-x="1020" d="M745 1834q0 -18 -19 -30q-33 -20 -164 -85q-140 -70 -153 -70q-34 0 -34 37q0 18 19 30q33 20 164 85q140 70 153 70q34 0 34 -37zM970 35q0 -35 -35 -35h-750q-35 0 -35 35v1350q0 35 35 35t35 -35v-1315h715q35 0 35 -35z" />
<glyph unicode="&#x13a;" horiz-adv-x="521" d="M471 1834q0 -18 -20 -30q-32 -20 -164 -85q-140 -70 -153 -70q-34 0 -34 37q0 18 20 30q32 20 164 85q139 70 152 70q35 0 35 -37zM395 35q0 -35 -35 -35q-107 0 -183.5 76.5t-76.5 183.5v1125q0 35 35 35t35 -35v-1125q0 -78 56 -134t134 -56q35 0 35 -35z" />
<glyph unicode="&#x13b;" horiz-adv-x="1020" d="M970 35q0 -35 -35 -35h-198q83 -77 83 -190q0 -107 -76.5 -183.5t-183.5 -76.5q-157 0 -226 131q-5 9 -5 18q0 34 37 34q6 0 61.5 -56.5t132.5 -56.5q78 0 134 56t56 134t-56 134t-134 56h-375q-35 0 -35 35v1350q0 35 35 35t35 -35v-1315h715q35 0 35 -35z" />
<glyph unicode="&#x13c;" horiz-adv-x="670" d="M620 -190q0 -107 -76.5 -183.5t-183.5 -76.5q-153 0 -226 131q-5 9 -5 18q0 34 37 34q6 0 63 -56.5t131 -56.5q78 0 134 56t56 134t-56 134t-134 56q-107 0 -183.5 76.5t-76.5 183.5v1125q0 35 35 35t35 -35v-1125q0 -78 56 -134t134 -56q107 0 183.5 -76.5t76.5 -183.5z " />
<glyph unicode="&#x13d;" horiz-adv-x="1020" d="M820 1834q0 -17 -16 -28l-222 -148q-12 -9 -22 -9t-22 9l-222 148q-16 11 -16 28q0 37 34 37q11 0 20 -7l206 -137l206 137q9 7 20 7q34 0 34 -37zM970 35q0 -35 -35 -35h-750q-35 0 -35 35v1350q0 35 35 35t35 -35v-1315h715q35 0 35 -35z" />
<glyph unicode="&#x13e;" horiz-adv-x="445" d="M395 1834q0 -17 -16 -28l-222 -148q-12 -9 -22 -9t-22 9l-222 148q-16 11 -16 28q0 37 34 37q11 0 20 -7l206 -137l206 137q9 7 20 7q34 0 34 -37zM395 35q0 -35 -35 -35q-107 0 -183.5 76.5t-76.5 183.5v1125q0 35 35 35t35 -35v-1125q0 -78 56 -134t134 -56 q35 0 35 -35z" />
<glyph unicode="&#x13f;" horiz-adv-x="1020" d="M783 710q0 -73 -73 -73q-72 0 -72 73q0 72 72 72q73 0 73 -72zM970 35q0 -35 -35 -35h-750q-35 0 -35 35v1350q0 35 35 35t35 -35v-1315h715q35 0 35 -35z" />
<glyph unicode="&#x140;" horiz-adv-x="520" d="M470 710q0 -73 -73 -73q-72 0 -72 73q0 72 72 72q73 0 73 -72zM395 35q0 -35 -35 -35q-107 0 -183.5 76.5t-76.5 183.5v1125q0 35 35 35t35 -35v-1125q0 -78 56 -134t134 -56q35 0 35 -35z" />
<glyph unicode="&#x141;" horiz-adv-x="1095" d="M1045 35q0 -35 -35 -35h-750q-35 0 -35 35v626q-184 -61 -191 -61q-34 0 -34 36q0 24 24 32l201 67v650q0 35 35 35t35 -35v-626q185 61 192 61q33 0 33 -36q0 -24 -24 -32l-201 -67v-615h715q35 0 35 -35z" />
<glyph unicode="&#x142;" horiz-adv-x="570" d="M520 784q0 -24 -24 -32l-201 -67v-425q0 -78 56 -134t134 -56q35 0 35 -35t-35 -35q-107 0 -183.5 76.5t-76.5 183.5v401q-184 -61 -191 -61q-34 0 -34 36q0 24 24 32l201 67v650q0 35 35 35t35 -35v-626q185 61 192 61q33 0 33 -36z" />
<glyph unicode="&#x143;" horiz-adv-x="1421" d="M896 1834q0 -18 -20 -30q-32 -20 -164 -85q-139 -70 -152 -70q-35 0 -35 37q0 18 20 30q32 20 164 85q140 70 153 70q34 0 34 -37zM1271 35q0 -35 -36 -35q-16 0 -31 18l-983 1265v-1248q0 -35 -35 -35t-35 35l-1 1350q0 35 36 35q16 0 31 -18l984 -1265v1248q0 35 35 35 t35 -35v-1350z" />
<glyph unicode="&#x144;" horiz-adv-x="920" d="M670 1384q0 -18 -19 -30q-33 -20 -164 -85q-140 -70 -153 -70q-34 0 -34 37q0 18 19 30q33 20 164 85q140 70 153 70q34 0 34 -37zM820 35q0 -35 -35 -35t-35 35v600q0 109 -78 187t-187 78t-187 -78t-78 -187v-600q0 -35 -35 -35t-35 35v900q0 35 35 35t35 -35v-95 q101 130 265 130q138 0 236.5 -98.5t98.5 -236.5v-600z" />
<glyph unicode="&#x145;" horiz-adv-x="1421" d="M1271 35q0 -35 -36 -35q-16 0 -31 18l-983 1265v-1248q0 -35 -35 -35t-35 35l-1 1350q0 35 36 35q16 0 31 -18l984 -1265v1248q0 35 35 35t35 -35v-1350zM971 -190q0 -107 -76.5 -183.5t-183.5 -76.5q-154 0 -226 131q-5 9 -5 18q0 34 37 34q6 0 62.5 -56.5t131.5 -56.5 q78 0 134 56t56 134t-56 134t-134 56q-35 0 -35 35t35 35q107 0 183.5 -76.5t76.5 -183.5z" />
<glyph unicode="&#x146;" horiz-adv-x="920" d="M820 35q0 -35 -35 -35t-35 35v600q0 109 -78 187t-187 78t-187 -78t-78 -187v-600q0 -35 -35 -35t-35 35v900q0 35 35 35t35 -35v-95q101 130 265 130q138 0 236.5 -98.5t98.5 -236.5v-600zM745 -190q0 -107 -76.5 -183.5t-183.5 -76.5q-154 0 -226 131q-5 9 -5 18 q0 34 37 34q6 0 62.5 -56.5t131.5 -56.5q78 0 134 56t56 134t-56 134t-134 56q-35 0 -35 35t35 35q107 0 183.5 -76.5t76.5 -183.5z" />
<glyph unicode="&#x147;" horiz-adv-x="1421" d="M971 1834q0 -17 -16 -28l-222 -148q-13 -9 -22 -9q-10 0 -23 9l-222 148q-16 11 -16 28q0 37 35 37q10 0 20 -7l206 -137l205 137q10 7 20 7q35 0 35 -37zM1271 35q0 -35 -36 -35q-16 0 -31 18l-983 1265v-1248q0 -35 -35 -35t-35 35l-1 1350q0 35 36 35q16 0 31 -18 l984 -1265v1248q0 35 35 35t35 -35v-1350z" />
<glyph unicode="&#x148;" horiz-adv-x="920" d="M745 1384q0 -17 -16 -28l-222 -148q-12 -9 -22 -9t-22 9l-222 148q-16 11 -16 28q0 37 34 37q11 0 20 -7l206 -137l206 137q9 7 20 7q34 0 34 -37zM820 35q0 -35 -35 -35t-35 35v600q0 109 -78 187t-187 78t-187 -78t-78 -187v-600q0 -35 -35 -35t-35 35v900q0 35 35 35 t35 -35v-95q101 130 265 130q138 0 236.5 -98.5t98.5 -236.5v-600z" />
<glyph unicode="&#x149;" horiz-adv-x="1020" d="M271 1386q0 -10 -70 -188t-83 -200.5t-31 -22.5q-37 0 -37 34q0 10 70 188t82.5 200.5t31.5 22.5q37 0 37 -34zM920 35q0 -35 -35 -35t-35 35v600q0 109 -77.5 187t-187.5 78q-109 0 -187 -78t-78 -187v-600q0 -35 -35 -35t-35 35v900q0 35 35 35t35 -35v-95 q101 130 265 130q139 0 237 -98.5t98 -236.5v-600z" />
<glyph unicode="&#x14a;" horiz-adv-x="1421" d="M1271 1385v-1500q0 -138 -99 -236.5t-236 -98.5q-89 0 -168 45q-83 47 -123 124q-5 9 -5 18q0 34 37 34q12 0 46 -39q42 -50 77 -73q60 -39 136 -39q109 0 187 78t78 187v138l-980 1260v-1248q0 -35 -35 -35t-35 35l-1 1350q0 35 36 35q16 0 31 -18l984 -1265v1248 q0 35 35 35t35 -35z" />
<glyph unicode="&#x14b;" horiz-adv-x="920" d="M820 -190q0 -107 -76.5 -183.5t-183.5 -76.5q-115 0 -184 76q-11 12 -11 24q0 36 36 36q3 0 55 -33t104 -33q78 0 134 56t56 134v825q0 109 -78 187t-187 78t-187 -78t-78 -187v-600q0 -35 -35 -35t-35 35v900q0 35 35 35t35 -35v-95q101 130 265 130q138 0 236.5 -98.5 t98.5 -236.5v-825z" />
<glyph unicode="&#x14c;" horiz-adv-x="1520" d="M1470 1760q0 -35 -35 -35h-1350q-35 0 -35 35t35 35h1350q35 0 35 -35zM1470 710q0 -294 -208 -502t-502 -208t-502 208t-208 502t208 502t502 208t502 -208t208 -502zM1400 710q0 265 -187.5 452.5t-452.5 187.5t-452.5 -187.5t-187.5 -452.5t187.5 -452.5t452.5 -187.5 t452.5 187.5t187.5 452.5z" />
<glyph unicode="&#x14d;" d="M1020 1310q0 -35 -35 -35h-900q-35 0 -35 35t35 35h900q35 0 35 -35zM1020 485q0 -201 -142 -343t-343 -142t-343 142t-142 343t142 343t343 142t343 -142t142 -343zM950 485q0 172 -121.5 293.5t-293.5 121.5t-293.5 -121.5t-121.5 -293.5t121.5 -293.5t293.5 -121.5 t293.5 121.5t121.5 293.5z" />
<glyph unicode="&#x14e;" horiz-adv-x="1520" d="M1021 1835q0 -14 -31 -47q-127 -137 -230 -137q-104 0 -231 137q-30 33 -30 47q0 35 37 35q10 0 87.5 -75t136.5 -75q58 0 136 75t88 75q37 0 37 -35zM1470 710q0 -294 -208 -502t-502 -208t-502 208t-208 502t208 502t502 208t502 -208t208 -502zM1400 710 q0 265 -187.5 452.5t-452.5 187.5t-452.5 -187.5t-187.5 -452.5t187.5 -452.5t452.5 -187.5t452.5 187.5t187.5 452.5z" />
<glyph unicode="&#x14f;" d="M796 1385q0 -14 -31 -47q-127 -137 -231 -137t-230 137q-30 33 -30 47q0 35 37 35q10 0 87 -75t137 -75q58 0 136 75t88 75q37 0 37 -35zM1020 485q0 -201 -142 -343t-343 -142t-343 142t-142 343t142 343t343 142t343 -142t142 -343zM950 485q0 172 -121.5 293.5 t-293.5 121.5t-293.5 -121.5t-121.5 -293.5t121.5 -293.5t293.5 -121.5t293.5 121.5t121.5 293.5z" />
<glyph unicode="&#x150;" horiz-adv-x="1520" d="M1170 1834q0 -18 -19 -30q-33 -20 -164 -85q-140 -70 -153 -70q-34 0 -34 37q0 18 19 30q33 20 164 85q140 70 153 70q34 0 34 -37zM720 1834q0 -18 -19 -30q-33 -20 -164 -85q-140 -70 -153 -70q-34 0 -34 37q0 18 19 30q33 20 164 85q140 70 153 70q34 0 34 -37z M1470 710q0 -294 -208 -502t-502 -208t-502 208t-208 502t208 502t502 208t502 -208t208 -502zM1400 710q0 265 -187.5 452.5t-452.5 187.5t-452.5 -187.5t-187.5 -452.5t187.5 -452.5t452.5 -187.5t452.5 187.5t187.5 452.5z" />
<glyph unicode="&#x151;" d="M945 1384q0 -18 -19 -30q-33 -20 -164 -85q-140 -70 -153 -70q-34 0 -34 37q0 18 19 30q33 20 164 85q140 70 153 70q34 0 34 -37zM495 1384q0 -18 -19 -30q-33 -20 -164 -85q-140 -70 -153 -70q-34 0 -34 37q0 18 19 30q33 20 164 85q140 70 153 70q34 0 34 -37z M1020 485q0 -201 -142 -343t-343 -142t-343 142t-142 343t142 343t343 142t343 -142t142 -343zM950 485q0 172 -121.5 293.5t-293.5 121.5t-293.5 -121.5t-121.5 -293.5t121.5 -293.5t293.5 -121.5t293.5 121.5t121.5 293.5z" />
<glyph unicode="&#x152;" horiz-adv-x="2270" d="M2220 35q0 -35 -35 -35h-750q-35 0 -35 35v367q-89 -184 -262.5 -293t-377.5 -109q-294 0 -502 208t-208 502t208 502t502 208q204 0 377.5 -109t262.5 -293v367q0 35 35 35h750q35 0 35 -35t-35 -35h-715v-605h565q35 0 35 -35t-35 -35h-565v-605h715q35 0 35 -35z M1400 710q0 265 -187.5 452.5t-452.5 187.5t-452.5 -187.5t-187.5 -452.5t187.5 -452.5t452.5 -187.5t452.5 187.5t187.5 452.5z" />
<glyph unicode="&#x153;" horiz-adv-x="1910" d="M1860 261q0 -10 -5 -19q-142 -242 -420 -242q-148 0 -271.5 83t-178.5 221q-55 -138 -178.5 -221t-271.5 -83q-201 0 -343 142t-142 343t142 343t343 142q148 0 271.5 -83t178.5 -221q55 138 178.5 221t271.5 83q80 0 162 -29q78 -28 160 -91q102 -78 102 -141 q0 -20 -17 -29l-748 -432q124 -178 341 -178q192 0 313 142l46 66q13 17 30 17q36 0 36 -34zM1776 722q-124 178 -341 178q-172 0 -293.5 -121.5t-121.5 -293.5q0 -93 39 -177zM950 485q0 172 -121.5 293.5t-293.5 121.5t-293.5 -121.5t-121.5 -293.5t121.5 -293.5 t293.5 -121.5t293.5 121.5t121.5 293.5z" />
<glyph unicode="&#x154;" horiz-adv-x="1021" d="M745 1834q0 -18 -19 -30q-33 -20 -164 -85q-140 -70 -153 -70q-34 0 -34 37q0 18 19 30q33 20 164 85q140 70 153 70q34 0 34 -37zM971 35q0 -36 -36 -36q-14 0 -25 11l-595 596q-16 15 -16 29q0 35 43 35h218q140 0 240 100t100 240t-100 240t-240 100h-340v-1315 q0 -35 -35 -35t-35 35v1352q0 33 35 33h375q170 0 290 -120t120 -290t-120 -290t-290 -120h-141l541 -540q11 -11 11 -25z" />
<glyph unicode="&#x155;" horiz-adv-x="691" d="M595 1384q0 -18 -19 -30q-33 -20 -164 -85q-140 -70 -153 -70q-34 0 -34 37q0 18 19 30q33 20 164 85q140 70 153 70q34 0 34 -37zM641 821q0 -34 -37 -34q-7 0 -62.5 56.5t-131.5 56.5q-78 0 -134 -56t-56 -134v-675q0 -35 -35 -35t-35 35v900q0 35 35 35q36 0 35 -83 q77 83 190 83q156 0 225 -130q6 -10 6 -19z" />
<glyph unicode="&#x156;" horiz-adv-x="1021" d="M971 35q0 -36 -36 -36q-14 0 -25 11l-595 596q-16 15 -16 29q0 35 43 35h218q140 0 240 100t100 240t-100 240t-240 100h-340v-1315q0 -35 -35 -35t-35 35v1352q0 33 35 33h375q170 0 290 -120t120 -290t-120 -290t-290 -120h-141l541 -540q11 -11 11 -25zM820 -190 q0 -107 -76.5 -183.5t-183.5 -76.5q-154 0 -226 131q-5 9 -5 18q0 34 37 34q6 0 62.5 -56.5t131.5 -56.5q78 0 134 56t56 134t-56 134t-134 56q-35 0 -35 35t35 35q107 0 183.5 -76.5t76.5 -183.5z" />
<glyph unicode="&#x157;" horiz-adv-x="691" d="M641 821q0 -34 -37 -34q-7 0 -63.5 56.5t-130.5 56.5q-79 0 -134.5 -56t-55.5 -134v-642q96 -13 160.5 -87t64.5 -171q0 -107 -76.5 -183.5t-183.5 -76.5q-156 0 -226 131q-5 9 -5 18q0 34 37 34q6 0 62.5 -56.5t131.5 -56.5q78 0 134 56t56 134t-56 134t-134 56 q-35 0 -35 35v900q0 35 35 35q36 0 35 -83q77 83 190 83q155 0 225 -130q6 -10 6 -19z" />
<glyph unicode="&#x158;" horiz-adv-x="1021" d="M820 1834q0 -17 -16 -28l-222 -148q-12 -9 -22 -9t-22 9l-222 148q-16 11 -16 28q0 37 34 37q11 0 20 -7l206 -137l206 137q9 7 20 7q34 0 34 -37zM971 35q0 -36 -36 -36q-14 0 -25 11l-595 596q-16 15 -16 29q0 35 43 35h218q140 0 240 100t100 240t-100 240t-240 100 h-340v-1315q0 -35 -35 -35t-35 35v1352q0 33 35 33h375q170 0 290 -120t120 -290t-120 -290t-290 -120h-141l541 -540q11 -11 11 -25z" />
<glyph unicode="&#x159;" horiz-adv-x="721" d="M671 1384q0 -17 -16 -28l-222 -148q-13 -9 -23 -9q-9 0 -22 9l-222 148q-16 11 -16 28q0 37 35 37q10 0 20 -7l205 -137l206 137q10 7 20 7q35 0 35 -37zM641 821q0 -34 -37 -34q-6 0 -61.5 56.5t-132.5 56.5q-78 0 -134 -56t-56 -134v-675q0 -35 -35 -35t-35 35v900 q0 35 35 35q36 0 35 -83q78 83 190 83q157 0 226 -130q5 -10 5 -19z" />
<glyph unicode="&#x15a;" horiz-adv-x="871" d="M596 1834q0 -18 -20 -30q-32 -20 -163 -85q-140 -70 -153 -70q-35 0 -35 37q0 18 20 30q32 20 164 85q140 70 153 70q34 0 34 -37zM821 410q0 -170 -120.5 -290t-289.5 -120q-110 0 -205.5 55.5t-150.5 149.5q-5 10 -5 19q0 34 37 34q16 0 29 -18q10 -16 33 -48 q101 -122 262 -122q140 0 240 100t100 240t-100 240t-239.5 100t-237.5 98.5t-98 236.5t98 236.5t237 98.5q191 0 289 -166q6 -9 6 -19q0 -34 -37 -34q-13 0 -46 38q-41 49 -76 72q-59 39 -136 39q-110 0 -187.5 -78t-77.5 -187t77.5 -187t187.5 -78q169 0 289.5 -120 t120.5 -290z" />
<glyph unicode="&#x15b;" horiz-adv-x="678" d="M511 1384q0 -18 -20 -30q-32 -20 -163 -85q-140 -70 -153 -70q-35 0 -35 37q0 18 20 30q32 20 164 85q140 70 153 70q34 0 34 -37zM628 297q0 -122 -87 -209.5t-210 -87.5q-93 0 -169 52.5t-109 139.5q-3 6 -3 13q0 34 37 34q19 0 31 -23l23 -44q65 -102 190 -102 q94 0 160.5 67t66.5 160q0 98 -70 163t-168 65q-90 0 -153.5 66t-63.5 156q0 92 65.5 157.5t157.5 65.5q128 0 192 -110q5 -10 5 -19q0 -34 -36 -34q-8 0 -53.5 46.5t-107.5 46.5q-63 0 -108 -45t-45 -108q0 -68 48 -110t118 -42q120 0 204.5 -88.5t84.5 -209.5z" />
<glyph unicode="&#x15c;" horiz-adv-x="871" d="M671 1686q0 -37 -35 -37q-10 0 -20 7l-205 137l-206 -137q-10 -7 -20 -7q-35 0 -35 37q0 17 16 28l222 148q13 9 23 9q9 0 22 -9l222 -148q16 -11 16 -28zM821 410q0 -170 -120.5 -290t-289.5 -120q-110 0 -205.5 55.5t-150.5 149.5q-5 10 -5 19q0 34 37 34q16 0 29 -18 q10 -16 33 -48q101 -122 262 -122q140 0 240 100t100 240t-100 240t-239.5 100t-237.5 98.5t-98 236.5t98 236.5t237 98.5q191 0 289 -166q6 -9 6 -19q0 -34 -37 -34q-13 0 -46 38q-41 49 -76 72q-59 39 -136 39q-110 0 -187.5 -78t-77.5 -187t77.5 -187t187.5 -78 q169 0 289.5 -120t120.5 -290z" />
<glyph unicode="&#x15d;" horiz-adv-x="678" d="M586 1236q0 -37 -35 -37q-10 0 -20 7l-205 137l-206 -137q-10 -7 -20 -7q-35 0 -35 37q0 17 16 28l223 148q12 9 22 9q9 0 22 -9l222 -148q16 -11 16 -28zM628 297q0 -122 -87 -209.5t-210 -87.5q-93 0 -169 52.5t-109 139.5q-3 6 -3 13q0 34 37 34q19 0 31 -23l23 -44 q65 -102 190 -102q94 0 160.5 67t66.5 160q0 98 -70 163t-168 65q-90 0 -153.5 66t-63.5 156q0 92 65.5 157.5t157.5 65.5q128 0 192 -110q5 -10 5 -19q0 -34 -36 -34q-8 0 -53.5 46.5t-107.5 46.5q-63 0 -108 -45t-45 -108q0 -68 48 -110t118 -42q120 0 204.5 -88.5 t84.5 -209.5z" />
<glyph unicode="&#x15e;" horiz-adv-x="871" d="M821 410q0 -128 -73 -233.5t-193 -150.5q116 -77 116 -216q0 -107 -76.5 -183.5t-183.5 -76.5q-150 0 -226 131q-5 9 -5 18q0 34 37 34q6 0 60 -56.5t134 -56.5q78 0 134 56t56 134t-56 134t-134 56q-109 0 -206 55.5t-150 149.5q-5 10 -5 19q0 34 37 34q16 0 29 -18.5 t41 -55.5q100 -114 254 -114q140 0 240 100t100 240t-100 240t-239.5 100t-237.5 98.5t-98 236.5t98 236.5t237 98.5q193 0 289 -166q6 -10 6 -19q0 -34 -37 -34q-13 0 -46 38q-41 49 -76 72q-59 39 -136 39q-110 0 -187.5 -78t-77.5 -187t77.5 -187t187.5 -78 q169 0 289.5 -120t120.5 -290z" />
<glyph unicode="&#x15f;" horiz-adv-x="678" d="M628 297q0 -182 -162 -265q125 -76 125 -222q0 -107 -76.5 -183.5t-183.5 -76.5q-153 0 -226 131q-5 9 -5 18q0 34 37 34q6 0 62.5 -56.5t131.5 -56.5q78 0 134 56t56 134t-56 134t-134 56q-93 0 -169 52.5t-109 139.5q-3 7 -3 13q0 34 37 34q19 0 31 -23l23 -44 q64 -102 190 -102q94 0 160.5 67t66.5 160q0 98 -70 163t-168 65q-90 0 -153.5 66t-63.5 156q0 92 65.5 157.5t157.5 65.5q129 0 192 -110q5 -10 5 -19q0 -34 -36 -34q-8 0 -53.5 46.5t-107.5 46.5q-63 0 -108 -45t-45 -108q0 -68 48 -110t118 -42q120 0 204.5 -88.5 t84.5 -209.5z" />
<glyph unicode="&#x160;" horiz-adv-x="871" d="M671 1834q0 -17 -16 -28l-225 -150q-6 -4 -19 -4q-14 0 -20 4l-225 150q-16 11 -16 28q0 37 35 37q10 0 20 -7l206 -137l205 137q10 7 20 7q35 0 35 -37zM821 410q0 -170 -120.5 -290t-289.5 -120q-110 0 -205.5 55.5t-150.5 149.5q-5 10 -5 19q0 34 37 34q16 0 29 -18 q10 -16 33 -48q101 -122 262 -122q140 0 240 100t100 240t-100 240t-239.5 100t-237.5 98.5t-98 236.5t98 236.5t237 98.5q191 0 289 -166q6 -9 6 -19q0 -34 -37 -34q-13 0 -46 38q-41 49 -76 72q-59 39 -136 39q-110 0 -187.5 -78t-77.5 -187t77.5 -187t187.5 -78 q169 0 289.5 -120t120.5 -290z" />
<glyph unicode="&#x161;" horiz-adv-x="678" d="M589 1384q0 -17 -16 -28l-225 -150q-6 -4 -20 -4q-13 0 -19 4l-225 150q-16 11 -16 28q0 37 35 37q10 0 20 -7l205 -137l206 137q10 7 20 7q35 0 35 -37zM628 297q0 -122 -87 -209.5t-210 -87.5q-93 0 -169 52.5t-109 139.5q-3 6 -3 13q0 34 37 34q19 0 31 -23l23 -44 q65 -102 190 -102q94 0 160.5 67t66.5 160q0 98 -70 163t-168 65q-90 0 -153.5 66t-63.5 156q0 92 65.5 157.5t157.5 65.5q128 0 192 -110q5 -10 5 -19q0 -34 -36 -34q-8 0 -53.5 46.5t-107.5 46.5q-63 0 -108 -45t-45 -108q0 -68 48 -110t118 -42q120 0 204.5 -88.5 t84.5 -209.5z" />
<glyph unicode="&#x162;" horiz-adv-x="1020" d="M1020 1385q0 -35 -35 -35h-415v-1282q96 -13 160.5 -87t64.5 -171q0 -107 -76.5 -183.5t-183.5 -76.5q-156 0 -226 131q-5 9 -5 18q0 34 37 34q6 0 62.5 -56.5t131.5 -56.5q78 0 134 56t56 134t-56 134t-134 56q-35 0 -35 35v1315h-415q-35 0 -35 35t35 35h900 q35 0 35 -35z" />
<glyph unicode="&#x163;" horiz-adv-x="780" d="M795 -190q0 -107 -76.5 -183.5t-183.5 -76.5q-156 0 -226 131q-5 9 -5 18q0 34 37 34q7 0 61.5 -56.5t132.5 -56.5t134 56t56 134t-56 134t-134 56q-107 0 -183.5 76.5t-76.5 183.5v640h-190q-35 0 -35 35t35 35h190v415q0 35 35 35t35 -35v-415h190q35 0 35 -35t-35 -35 h-190v-640q0 -78 56 -134t134 -56q51 0 104 33t55 33q36 0 36 -36q0 -28 -65 -65q130 -75 130 -225z" />
<glyph unicode="&#x164;" horiz-adv-x="1020" d="M795 1834q0 -17 -16 -28l-222 -148q-12 -9 -22 -9t-22 9l-222 148q-16 11 -16 28q0 37 34 37q11 0 20 -7l206 -137l206 137q9 7 20 7q34 0 34 -37zM1020 1385q0 -35 -35 -35h-415v-1315q0 -35 -35 -35t-35 35v1315h-415q-35 0 -35 35t35 35h900q35 0 35 -35z" />
<glyph unicode="&#x165;" horiz-adv-x="780" d="M571 1834q0 -17 -16 -28l-222 -148q-13 -9 -23 -9q-9 0 -22 9l-222 148q-16 11 -16 28q0 37 35 37q10 0 20 -7l205 -137l206 137q10 7 20 7q35 0 35 -37zM730 100q0 -11 -11 -24q-63 -76 -184 -76q-107 0 -183.5 76.5t-76.5 183.5v640h-190q-35 0 -35 35t35 35h190v415 q0 35 35 35t35 -35v-415h190q35 0 35 -35t-35 -35h-190v-640q0 -78 56 -134t134 -56q51 0 104.5 33t54.5 33q36 0 36 -36z" />
<glyph unicode="&#x166;" horiz-adv-x="1020" d="M1020 1385q0 -35 -35 -35h-415v-605h190q35 0 35 -35t-35 -35h-190v-640q0 -35 -35 -35t-35 35v640h-190q-35 0 -35 35t35 35h190v605h-415q-35 0 -35 35t35 35h900q35 0 35 -35z" />
<glyph unicode="&#x167;" horiz-adv-x="780" d="M730 100q0 -12 -11 -24q-67 -76 -184 -76q-107 0 -183.5 76.5t-76.5 183.5v190h-190q-35 0 -35 35t35 35h190v380h-190q-35 0 -35 35t35 35h190v415q0 35 35 35t35 -35v-415h190q35 0 35 -35t-35 -35h-190v-380h190q35 0 35 -35t-35 -35h-190v-190q0 -78 56 -134t134 -56 q50 0 103.5 33t55.5 33q36 0 36 -36z" />
<glyph unicode="&#x168;" horiz-adv-x="1170" d="M920 1761q0 -12 -11 -31q-48 -80 -174 -80q-73 0 -162 75t-138 75q-71 0 -105.5 -37.5t-43.5 -37.5q-36 0 -36 34q0 12 11 31q48 80 174 80q73 0 162 -75t138 -75q71 0 105.5 37.5t43.5 37.5q36 0 36 -34zM1070 485q0 -201 -142 -343t-343 -142t-343 142t-142 343v900 q0 35 35 35t35 -35v-900q0 -172 121.5 -293.5t293.5 -121.5t293.5 121.5t121.5 293.5v900q0 35 35 35t35 -35v-900z" />
<glyph unicode="&#x169;" horiz-adv-x="871" d="M771 1311q0 -12 -12 -31q-48 -80 -174 -80q-73 0 -162 75t-138 75q-70 0 -105 -37.5t-44 -37.5q-36 0 -36 34q0 12 11 31q48 80 174 80q74 0 162.5 -75t137.5 -75q71 0 106 37.5t43 37.5q37 0 37 -34zM770 335q0 -138 -98 -236.5t-237 -98.5q-138 0 -236.5 98.5 t-98.5 236.5v600q0 35 35 35t35 -35v-600q0 -109 78 -187t187 -78q110 0 187.5 78t77.5 187v600q0 35 35 35t35 -35v-600z" />
<glyph unicode="&#x16a;" horiz-adv-x="1170" d="M1070 1760q0 -35 -35 -35h-900q-35 0 -35 35t35 35h900q35 0 35 -35zM1070 485q0 -201 -142 -343t-343 -142t-343 142t-142 343v900q0 35 35 35t35 -35v-900q0 -172 121.5 -293.5t293.5 -121.5t293.5 121.5t121.5 293.5v900q0 35 35 35t35 -35v-900z" />
<glyph unicode="&#x16b;" horiz-adv-x="870" d="M770 1310q0 -35 -35 -35h-600q-35 0 -35 35t35 35h600q35 0 35 -35zM770 335q0 -138 -98.5 -236.5t-236.5 -98.5t-236.5 98.5t-98.5 236.5v600q0 35 35 35t35 -35v-600q0 -109 78 -187t187 -78t187 78t78 187v600q0 35 35 35t35 -35v-600z" />
<glyph unicode="&#x16c;" horiz-adv-x="1170" d="M846 1835q0 -14 -31 -47q-127 -137 -230 -137q-104 0 -231 137q-30 33 -30 47q0 35 37 35q10 0 87.5 -75t136.5 -75q58 0 136 75t88 75q37 0 37 -35zM1070 485q0 -201 -142 -343t-343 -142t-343 142t-142 343v900q0 35 35 35t35 -35v-900q0 -172 121.5 -293.5 t293.5 -121.5t293.5 121.5t121.5 293.5v900q0 35 35 35t35 -35v-900z" />
<glyph unicode="&#x16d;" horiz-adv-x="870" d="M696 1385q0 -14 -31 -47q-127 -137 -231 -137t-230 137q-30 33 -30 47q0 35 37 35q10 0 87 -75t137 -75q58 0 136 75t88 75q37 0 37 -35zM770 335q0 -138 -98.5 -236.5t-236.5 -98.5t-236.5 98.5t-98.5 236.5v600q0 35 35 35t35 -35v-600q0 -109 78 -187t187 -78t187 78 t78 187v600q0 35 35 35t35 -35v-600z" />
<glyph unicode="&#x16e;" horiz-adv-x="1170" d="M762 1696q0 -73 -52 -123.5t-125 -50.5t-125.5 50.5t-52.5 123.5t52.5 125t125.5 52t125 -52t52 -125zM1070 485q0 -201 -142 -343t-343 -142t-343 142t-142 343v900q0 35 35 35t35 -35v-900q0 -172 121.5 -293.5t293.5 -121.5t293.5 121.5t121.5 293.5v900q0 35 35 35 t35 -35v-900zM692 1696q0 44 -31.5 75.5t-75.5 31.5t-76 -31.5t-32 -75.5q0 -45 32 -74.5t76 -29.5t75.5 29.5t31.5 74.5z" />
<glyph unicode="&#x16f;" horiz-adv-x="870" d="M612 1271q0 -73 -52 -123.5t-125 -50.5t-125.5 50.5t-52.5 123.5t52.5 125t125.5 52t125 -52t52 -125zM770 335q0 -138 -98.5 -236.5t-236.5 -98.5t-236.5 98.5t-98.5 236.5v600q0 35 35 35t35 -35v-600q0 -109 78 -187t187 -78t187 78t78 187v600q0 35 35 35t35 -35 v-600zM542 1271q0 44 -31.5 75.5t-75.5 31.5t-76 -31.5t-32 -75.5q0 -45 32 -74.5t76 -29.5t75.5 29.5t31.5 74.5z" />
<glyph unicode="&#x170;" horiz-adv-x="1170" d="M995 1834q0 -18 -19 -30q-33 -20 -164 -85q-140 -70 -153 -70q-34 0 -34 37q0 18 19 30q33 20 164 85q140 70 153 70q34 0 34 -37zM545 1834q0 -18 -19 -30q-33 -20 -164 -85q-140 -70 -153 -70q-34 0 -34 37q0 18 19 30q33 20 164 85q140 70 153 70q34 0 34 -37z M1070 485q0 -201 -142 -343t-343 -142t-343 142t-142 343v900q0 35 35 35t35 -35v-900q0 -172 121.5 -293.5t293.5 -121.5t293.5 121.5t121.5 293.5v900q0 35 35 35t35 -35v-900z" />
<glyph unicode="&#x171;" horiz-adv-x="1021" d="M921 1384q0 -18 -20 -30q-32 -20 -164 -85q-140 -70 -153 -70q-34 0 -34 37q0 18 20 30q32 20 164 85q139 70 152 70q35 0 35 -37zM471 1384q0 -18 -20 -30q-32 -20 -164 -85q-140 -70 -153 -70q-34 0 -34 37q0 18 20 30q32 20 164 85q139 70 152 70q35 0 35 -37z M845 335q0 -138 -98 -236.5t-237 -98.5q-138 0 -236.5 98.5t-98.5 236.5v600q0 35 35 35t35 -35v-600q0 -109 78 -187t187 -78q110 0 187.5 78t77.5 187v600q0 35 35 35t35 -35v-600z" />
<glyph unicode="&#x172;" horiz-adv-x="1170" d="M1070 485q0 -201 -142 -343t-343 -142q-78 0 -134 -56t-56 -134t56 -134t134 -56q79 0 133 56.5t61 56.5q37 0 37 -34q0 -10 -5 -18q-77 -131 -226 -131q-107 0 -183.5 76.5t-76.5 183.5q0 135 111 213q-150 49 -243 177t-93 285v900q0 35 35 35t35 -35v-900 q0 -172 121.5 -293.5t293.5 -121.5t293.5 121.5t121.5 293.5v900q0 35 35 35t35 -35v-900z" />
<glyph unicode="&#x173;" horiz-adv-x="870" d="M770 335q0 -138 -98.5 -236.5t-236.5 -98.5q-78 0 -134 -56t-56 -134t56 -134t134 -56q75 0 131.5 56.5t62.5 56.5q37 0 37 -34q0 -9 -5 -18q-73 -131 -226 -131q-107 0 -183.5 76.5t-76.5 183.5q0 143 121 220q-89 41 -142.5 124t-53.5 181v600q0 35 35 35t35 -35v-600 q0 -109 78 -187t187 -78t187 78t78 187v600q0 35 35 35t35 -35v-600z" />
<glyph unicode="&#x174;" horiz-adv-x="2146" d="M1358 1686q0 -37 -34 -37q-11 0 -20 7l-206 137l-206 -137q-9 -7 -20 -7q-34 0 -34 37q0 17 16 28l222 148q12 9 22 9t22 -9l222 -148q16 -11 16 -28zM2146 1386q0 -12 -312 -640q-311 -624 -364 -721q-14 -25 -35 -25t-34 25l-303 607l-303 -607q-13 -25 -34 -25t-35 25 q-53 97 -364 721q-312 628 -312 640q0 34 37 34q20 0 30 -19l644 -1288l298 597q-334 666 -334 676q0 34 37 34q20 0 30 -19l306 -613l306 613q10 19 30 19q37 0 37 -34q0 -10 -334 -676l299 -597l643 1288q10 19 30 19q37 0 37 -34z" />
<glyph unicode="&#x175;" horiz-adv-x="1671" d="M1096 1236q0 -37 -35 -37q-10 0 -20 7l-205 137l-206 -137q-10 -7 -20 -7q-35 0 -35 37q0 17 16 28l222 148q13 9 22 9q10 0 23 -9l222 -148q16 -11 16 -28zM1621 936q0 -8 -451 -911q-13 -25 -35 -25q-21 0 -34 25l-265 531l-266 -531q-13 -25 -35 -25q-21 0 -34 25 q-451 903 -451 911q0 34 37 34q20 0 30 -19l419 -838l261 521q-147 293 -147 302q0 34 37 34q20 0 30 -19l419 -838l418 838q10 19 30 19q37 0 37 -34z" />
<glyph unicode="&#x176;" horiz-adv-x="1171" d="M871 1686q0 -37 -35 -37q-10 0 -20 7l-205 137l-206 -137q-10 -7 -20 -7q-35 0 -35 37q0 17 16 28l222 148q13 9 23 9q9 0 22 -9l222 -148q16 -11 16 -28zM1171 1385q0 -11 -8 -21l-517 -666v-663q0 -35 -35 -35t-35 35v663l-518 666q-8 10 -8 21q0 36 36 36q16 0 27 -15 l498 -639l497 639q11 15 27 15q36 0 36 -36z" />
<glyph unicode="&#x177;" horiz-adv-x="920" d="M695 1236q0 -37 -34 -37q-11 0 -20 7l-206 137l-206 -137q-9 -7 -20 -7q-34 0 -34 37q0 17 16 28l222 148q12 9 22 9t22 -9l222 -148q16 -11 16 -28zM770 -115q0 -138 -98.5 -236.5t-236.5 -98.5q-196 0 -290 166q-5 10 -5 19q0 34 37 34q13 0 45 -38q42 -49 76 -72 q59 -39 137 -39q109 0 187 78t78 187v245q-101 -130 -265 -130q-138 0 -236.5 98.5t-98.5 236.5v600q0 35 35 35t35 -35v-600q0 -109 78 -187t187 -78t187 78t78 187v600q0 35 35 35t35 -35v-1050z" />
<glyph unicode="&#x178;" horiz-adv-x="1171" d="M908 1723q0 -73 -73 -73q-72 0 -72 73q0 72 72 72q73 0 73 -72zM458 1723q0 -73 -73 -73q-72 0 -72 73q0 72 72 72q73 0 73 -72zM1171 1385q0 -11 -8 -21l-517 -666v-663q0 -35 -35 -35t-35 35v663l-518 666q-8 10 -8 21q0 36 36 36q16 0 27 -15l498 -639l497 639 q11 15 27 15q36 0 36 -36z" />
<glyph unicode="&#x179;" horiz-adv-x="1221" d="M796 1834q0 -18 -20 -30q-32 -20 -164 -85q-139 -70 -153 -70q-34 0 -34 37q0 18 20 30q32 20 164 85q139 70 153 70q34 0 34 -37zM1171 1385q0 -11 -12 -27l-1002 -1288h979q35 0 35 -35t-35 -35l-1050 -1q-36 0 -36 36q0 11 12 27l1002 1288h-978q-35 0 -35 35t35 35 l1049 1q36 0 36 -36z" />
<glyph unicode="&#x17a;" horiz-adv-x="921" d="M646 1384q0 -18 -20 -30q-32 -20 -164 -85q-139 -70 -153 -70q-34 0 -34 37q0 18 20 30q32 20 164 85q139 70 153 70q34 0 34 -37zM871 935q0 -12 -13 -28l-698 -837h676q35 0 35 -35t-35 -35l-750 -1q-36 0 -36 36q0 12 13 28l698 837h-675q-35 0 -35 35t35 35l749 1 q36 0 36 -36z" />
<glyph unicode="&#x17b;" horiz-adv-x="1221" d="M684 1723q0 -73 -73 -73q-72 0 -72 73q0 72 72 72q73 0 73 -72zM1171 1385q0 -11 -12 -27l-1002 -1288h979q35 0 35 -35t-35 -35l-1050 -1q-36 0 -36 36q0 11 12 27l1002 1288h-978q-35 0 -35 35t35 35l1049 1q36 0 36 -36z" />
<glyph unicode="&#x17c;" horiz-adv-x="921" d="M534 1273q0 -73 -73 -73q-72 0 -72 73q0 72 72 72q73 0 73 -72zM871 935q0 -12 -13 -28l-698 -837h676q35 0 35 -35t-35 -35l-750 -1q-36 0 -36 36q0 12 13 28l698 837h-675q-35 0 -35 35t35 35l749 1q36 0 36 -36z" />
<glyph unicode="&#x17d;" horiz-adv-x="1227" d="M874 1834q0 -17 -16 -28l-225 -150q-6 -4 -20 -4q-13 0 -19 4l-225 150q-16 11 -16 28q0 37 35 37q10 0 20 -7l205 -137l206 137q10 7 20 7q35 0 35 -37zM1177 1390q0 -13 -11 -26l-1006 -1294h978q35 0 35 -35t-35 -35h-1050q-38 0 -38 29q0 14 11 27l1006 1294h-979 q-35 0 -35 35t35 35h1050q39 0 39 -30z" />
<glyph unicode="&#x17e;" horiz-adv-x="927" d="M724 1384q0 -17 -16 -28l-225 -150q-6 -4 -19 -4q-14 0 -20 4l-225 150q-16 11 -16 28q0 37 35 37q10 0 20 -7l206 -137l205 137q10 7 20 7q35 0 35 -37zM877 940q0 -13 -12 -27l-702 -843h676q35 0 35 -35t-35 -35h-750q-39 0 -39 30q0 13 12 27l702 843h-675 q-35 0 -35 35t35 35h750q38 0 38 -30z" />
<glyph unicode="&#x17f;" horiz-adv-x="655" d="M605 1319q0 -35 -36 -35q-2 0 -55 33t-104 33q-78 0 -134 -56t-56 -134v-1125q0 -35 -35 -35t-35 35v1125q0 107 76.5 183.5t183.5 76.5q118 0 184 -76q11 -13 11 -25z" />
<glyph unicode="&#x192;" horiz-adv-x="939" d="M889 1320q0 -36 -36 -36q-2 0 -55 33t-103 33q-79 0 -134.5 -56t-55.5 -134v-190h190q35 0 35 -35t-35 -35h-190v-1090q0 -107 -76.5 -183.5t-183.5 -76.5q-119 0 -184 76q-11 13 -11 24q0 36 36 36q2 0 55 -33t104 -33q78 0 134 56t56 134v1090h-190q-35 0 -35 35t35 35 h190v190q0 107 76 183.5t184 76.5q118 0 183 -76q11 -13 11 -24z" />
<glyph unicode="&#x1fa;" horiz-adv-x="1521" d="M961 1835q0 -19 -21 -30q-28 -16 -163 -76q-141 -63 -153 -63q-34 0 -34 37q0 19 21 30q29 16 163 76q141 63 153 63q34 0 34 -37zM1471 27q0 -35 -37 -35q-19 0 -29 19l-215 387l-4 -1l-855 1l-215 -387q-10 -19 -29 -19q-37 0 -37 35q0 9 5 17l672 1210q9 17 20 21 q-67 5 -114 48q-50 46 -50 112q0 69 55 117q52 46 123 46q70 0 123.5 -47t53.5 -116q0 -66 -48.5 -110.5t-115.5 -49.5q11 -4 20 -21l672 -1210q5 -8 5 -17zM868 1435q0 40 -34 68q-32 25 -73 25q-42 0 -74 -25q-34 -28 -34 -68t33 -65t75 -25q41 0 74 25t33 65zM1151 467 l-390 703l-391 -703h781z" />
<glyph unicode="&#x1fb;" horiz-adv-x="820" d="M570 1759q0 -18 -19 -30q-33 -20 -164 -85q-140 -70 -153 -70q-34 0 -34 37q0 18 19 30q33 20 164 85q140 70 153 70q34 0 34 -37zM562 1271q0 -73 -52 -123.5t-125 -50.5t-125.5 50.5t-52.5 123.5t52.5 125t125.5 52t125 -52t52 -125zM720 35q0 -35 -35 -35t-35 35v95 q-101 -130 -265 -130q-138 0 -236.5 98.5t-98.5 236.5t98.5 236.5t236.5 98.5q164 0 265 -130v95q0 109 -78 187t-187 78q-71 0 -142.5 -44.5t-69.5 -44.5q-36 0 -36 36q0 13 11 25q90 98 237 98q138 0 236.5 -98.5t98.5 -236.5v-600zM492 1271q0 44 -31.5 75.5t-75.5 31.5 t-76 -31.5t-32 -75.5q0 -45 32 -74.5t76 -29.5t75.5 29.5t31.5 74.5zM650 335q0 109 -78 187t-187 78t-187 -78t-78 -187t78 -187t187 -78t187 78t78 187z" />
<glyph unicode="&#x1fc;" horiz-adv-x="1821" d="M1171 1759q0 -18 -20 -30q-32 -20 -164 -85q-139 -70 -152 -70q-35 0 -35 37q0 18 20 30q32 20 164 85q139 70 153 70q34 0 34 -37zM1771 1385q0 -35 -35 -35h-715v-605h565q35 0 35 -35t-35 -35h-565v-605l714 -1q35 0 35 -35t-35 -35l-749 1q-35 0 -35 35v415h-547 l-289 -434q-11 -16 -28 -16q-37 0 -37 34q0 11 6 20l900 1350q10 16 27 16h2h751q35 0 35 -35zM951 520v749l-500 -749h500z" />
<glyph unicode="&#x1fd;" horiz-adv-x="1610" d="M1081 1384q0 -18 -20 -30q-32 -20 -164 -85q-140 -70 -153 -70q-34 0 -34 37q0 18 20 30q32 20 163 85q140 70 153 70q35 0 35 -37zM1560 261q0 -9 -5 -19q-63 -111 -177 -176.5t-243 -65.5q-132 0 -247 68t-178 184q-29 -111 -120 -181.5t-205 -70.5q-138 0 -236.5 98.5 t-98.5 236.5t98.5 236.5t236.5 98.5q164 0 265 -130v95q0 109 -78 187t-187 78q-71 0 -142 -44.5t-70 -44.5q-36 0 -36 36q0 13 11 25q92 98 237 98q114 0 205 -70.5t120 -181.5q63 116 178 184t247 68q80 0 162 -29q78 -29 160 -92q102 -77 102 -140q0 -20 -17 -29 l-748 -432q124 -178 341 -178q194 0 317 147l42 61q14 17 30 17q36 0 36 -34zM1476 722q-124 178 -341 178q-172 0 -293.5 -121.5t-121.5 -293.5q0 -93 39 -177zM650 335q0 109 -78 187t-187 78t-187 -78t-78 -187t78 -187t187 -78t187 78t78 187z" />
<glyph unicode="&#x1fe;" horiz-adv-x="1521" d="M931 1834q0 -18 -20 -30q-32 -20 -164 -85q-139 -70 -152 -70q-35 0 -35 37q0 18 20 30q32 20 164 85q140 70 153 70q34 0 34 -37zM1471 1385q0 -14 -11 -25l-173 -173q184 -203 184 -477q0 -294 -208.5 -502t-501.5 -208q-274 0 -477 184l-174 -174q-11 -11 -24 -11 q-36 0 -36 36q0 14 11 25l173 173q-183 203 -183 477q0 294 208 502t502 208q273 0 476 -184l174 174q11 11 24 11q36 0 36 -36zM1188 1187q-182 163 -427 163q-265 0 -452.5 -187.5t-187.5 -452.5q0 -245 163 -427zM1401 710q0 245 -164 427l-903 -904q182 -163 427 -163 q264 0 452 187.5t188 452.5z" />
<glyph unicode="&#x1ff;" horiz-adv-x="1071" d="M721 1384q0 -18 -20 -30q-32 -20 -164 -85q-139 -70 -152 -70q-35 0 -35 37q0 18 20 30q32 20 164 85q140 70 153 70q34 0 34 -37zM1021 935q0 -17 -119 -133q119 -136 119 -317q0 -201 -142.5 -343t-342.5 -142q-181 0 -318 118q-115 -119 -132 -119q-36 0 -36 36 q0 17 119 133q-118 136 -118 317q0 201 142 343t343 142q180 0 317 -118q116 119 132 119q36 0 36 -36zM803 802q-116 98 -267 98q-172 0 -293.5 -121.5t-121.5 -293.5q0 -152 97 -268zM951 485q0 152 -98 268l-585 -585q116 -98 268 -98q171 0 293 121.5t122 293.5z" />
<glyph unicode="&#x2c6;" horiz-adv-x="621" d="M571 1686q0 -37 -35 -37q-10 0 -20 7l-206 137l-205 -137q-10 -7 -20 -7q-35 0 -35 37q0 17 16 28l225 150q6 4 19 4q14 0 20 -4l225 -150q16 -11 16 -28z" />
<glyph unicode="&#x2c7;" horiz-adv-x="621" d="M571 1834q0 -17 -16 -28l-225 -150q-6 -4 -20 -4q-13 0 -19 4l-225 150q-16 11 -16 28q0 37 35 37q10 0 20 -7l205 -137l206 137q10 7 20 7q35 0 35 -37z" />
<glyph unicode="&#x2d8;" horiz-adv-x="622" d="M572 1835q0 -14 -30 -47q-128 -137 -232 -137t-229 137q-31 33 -31 47q0 35 37 35q10 0 87 -75t137 -75q58 0 136 75t88 75q37 0 37 -35z" />
<glyph unicode="&#x2d9;" horiz-adv-x="245" d="M195 1723q0 -73 -73 -73q-72 0 -72 73q0 72 72 72q73 0 73 -72z" />
<glyph unicode="&#x2da;" horiz-adv-x="455" d="M405 1696q0 -73 -52 -123.5t-126 -50.5q-73 0 -125 50.5t-52 123.5t52 125t125 52q74 0 126 -52t52 -125zM335 1696q0 44 -32 75.5t-76 31.5q-43 0 -75 -31.5t-32 -75.5q0 -45 31.5 -74.5t75.5 -29.5q45 0 76.5 29.5t31.5 74.5z" />
<glyph unicode="&#x2db;" horiz-adv-x="591" d="M541 -301q0 -9 -5 -18q-72 -131 -226 -131q-107 0 -183.5 76.5t-76.5 183.5t76.5 183.5t183.5 76.5q35 0 35 -35t-35 -35q-78 0 -134 -56t-56 -134t56 -134t134 -56q75 0 131.5 56.5t62.5 56.5q37 0 37 -34z" />
<glyph unicode="&#x2dc;" horiz-adv-x="771" d="M721 1761q0 -12 -12 -31q-48 -80 -174 -80q-73 0 -162 75t-138 75q-70 0 -105 -37.5t-44 -37.5q-36 0 -36 34q0 12 11 31q48 80 174 80q74 0 162.5 -75t137.5 -75q71 0 106 37.5t43 37.5q37 0 37 -34z" />
<glyph unicode="&#x2dd;" horiz-adv-x="921" d="M871 1834q0 -18 -20 -30q-32 -20 -164 -85q-140 -70 -153 -70q-34 0 -34 37q0 18 20 30q32 20 164 85q139 70 152 70q35 0 35 -37zM421 1834q0 -18 -20 -30q-32 -20 -164 -85q-140 -70 -153 -70q-34 0 -34 37q0 18 20 30q32 20 164 85q139 70 152 70q35 0 35 -37z" />
<glyph unicode="&#x384;" horiz-adv-x="170" d="M120 1635q0 -35 -35 -35t-35 35v200q0 35 35 35t35 -35v-200z" />
<glyph unicode="&#x385;" horiz-adv-x="695" d="M645 1723q0 -73 -73 -73q-72 0 -72 73q0 72 72 72q73 0 73 -72zM382 1635q0 -35 -35 -35t-35 35v200q0 35 35 35t35 -35v-200zM195 1723q0 -73 -73 -73q-72 0 -72 73q0 72 72 72q73 0 73 -72z" />
<glyph unicode="&#x386;" horiz-adv-x="1521" d="M796 1635q0 -35 -35 -35t-35 35v200q0 35 35 35t35 -35v-200zM1471 34q0 -34 -37 -34q-20 0 -30 19l-234 468q3 -37 -34 -37h-750q-38 0 -35 37l-234 -468q-10 -19 -30 -19q-37 0 -37 34q0 12 312 640q310 623 364 721q14 25 34 25q21 0 35 -25q53 -97 364 -721 q312 -628 312 -640zM1157 513l-396 794l-397 -794q9 7 18 7h756q10 0 19 -7z" />
<glyph unicode="&#x387;" horiz-adv-x="248" d="M198 597q0 -30 -22 -52t-52 -22t-52 22t-22 52q0 71 74 71t74 -71z" />
<glyph unicode="&#x388;" horiz-adv-x="1020" d="M595 1635q0 -35 -35 -35t-35 35v200q0 35 35 35t35 -35v-200zM970 35q0 -35 -35 -35h-750q-35 0 -35 35v1350q0 35 35 35h750q35 0 35 -35t-35 -35h-715v-605h565q35 0 35 -35t-35 -35h-565v-605h715q35 0 35 -35z" />
<glyph unicode="&#x389;" horiz-adv-x="1270" d="M670 1635q0 -35 -35 -35t-35 35v200q0 35 35 35t35 -35v-200zM1120 35q0 -35 -35 -35t-35 35v640h-830v-640q0 -35 -35 -35t-35 35v1350q0 35 35 35t35 -35v-640h830v640q0 35 35 35t35 -35v-1350z" />
<glyph unicode="&#x38a;" horiz-adv-x="370" d="M220 1635q0 -35 -35 -35t-35 35v200q0 35 35 35t35 -35v-200zM220 35q0 -35 -35 -35t-35 35v1350q0 35 35 35t35 -35v-1350z" />
<glyph unicode="&#x38c;" horiz-adv-x="1520" d="M795 1635q0 -35 -35 -35t-35 35v200q0 35 35 35t35 -35v-200zM1470 710q0 -294 -208 -502t-502 -208t-502 208t-208 502t208 502t502 208t502 -208t208 -502zM1400 710q0 265 -187.5 452.5t-452.5 187.5t-452.5 -187.5t-187.5 -452.5t187.5 -452.5t452.5 -187.5 t452.5 187.5t187.5 452.5z" />
<glyph unicode="&#x38e;" horiz-adv-x="1171" d="M646 1635q0 -35 -35 -35t-35 35v200q0 35 35 35t35 -35v-200zM1171 1385q0 -11 -8 -21l-517 -666v-663q0 -35 -35 -35t-35 35v663l-518 666q-8 10 -8 21q0 36 36 36q16 0 27 -15l498 -639l497 639q11 15 27 15q36 0 36 -36z" />
<glyph unicode="&#x38f;" horiz-adv-x="1520" d="M795 1635q0 -35 -35 -35t-35 35v200q0 35 35 35t35 -35v-200zM1470 35q0 -35 -35 -35l-449 -1q-36 0 -36 36q0 15 15 29q117 96 331 304q104 121 104 342q0 265 -187.5 452.5t-452.5 187.5t-452.5 -187.5t-187.5 -452.5q0 -176 53 -269q40 -73 188 -200 q209 -180 209 -206q0 -36 -36 -36l-449 1q-35 0 -35 35t35 35h362l-209 182q-97 90 -138 181q-50 109 -50 277q0 294 208 502t502 208t502 -208t208 -502q0 -172 -50 -280q-41 -87 -139 -177l-209 -183h363q35 0 35 -35z" />
<glyph unicode="&#x390;" horiz-adv-x="370" d="M482 1723q0 -73 -73 -73q-72 0 -72 73q0 72 72 72q73 0 73 -72zM219 1635q0 -35 -34 -35q-35 0 -35 35v200q0 35 35 35q34 0 34 -35v-200zM33 1723q0 -73 -73 -73q-72 0 -72 73q0 72 72 72q73 0 73 -72zM220 35q0 -35 -35 -35t-35 35v1350q0 35 35 35q34 0 34 -35z" />
<glyph unicode="&#x391;" horiz-adv-x="1521" d="M1471 34q0 -34 -37 -34q-20 0 -30 19l-234 468q3 -37 -34 -37h-750q-38 0 -35 37l-234 -468q-10 -19 -30 -19q-37 0 -37 34q0 12 312 640q310 623 364 721q14 25 34 25q21 0 35 -25q53 -97 364 -721q312 -628 312 -640zM1157 513l-396 794l-397 -794q9 7 18 7h756 q10 0 19 -7z" />
<glyph unicode="&#x392;" horiz-adv-x="1020" d="M970 409q0 -170 -120 -290t-291 -120l-374 1q-35 0 -35 35v1350q0 35 35 35h375q138 0 236.5 -98.5t98.5 -236.5q0 -202 -178 -296q114 -48 183.5 -151.5t69.5 -228.5zM825 1085q0 109 -78 187t-187 78h-340v-530h340q109 0 187 78t78 187zM900 409q0 141 -100 241 t-240 100h-340v-680l340 -1q141 0 240.5 100t99.5 240z" />
<glyph unicode="&#x393;" horiz-adv-x="970" d="M970 1385q0 -35 -35 -35h-715v-1315q0 -35 -35 -35t-35 35v1350q0 35 35 35h750q35 0 35 -35z" />
<glyph unicode="&#x394;" horiz-adv-x="1521" d="M1471 34q0 -34 -37 -34h-1348q-36 0 -36 34q0 9 7 22l669 1339q13 25 34 25q22 0 35 -25l669 -1339q7 -13 7 -22zM1379 70l-619 1237l-618 -1237h1237z" />
<glyph unicode="&#x395;" horiz-adv-x="1020" d="M970 35q0 -35 -35 -35h-750q-35 0 -35 35v1350q0 35 35 35h750q35 0 35 -35t-35 -35h-715v-605h565q35 0 35 -35t-35 -35h-565v-605h715q35 0 35 -35z" />
<glyph unicode="&#x396;" horiz-adv-x="1221" d="M1171 1385q0 -11 -12 -27l-1002 -1288h979q35 0 35 -35t-35 -35l-1050 -1q-36 0 -36 36q0 11 12 27l1002 1288h-978q-35 0 -35 35t35 35l1049 1q36 0 36 -36z" />
<glyph unicode="&#x397;" horiz-adv-x="1270" d="M1120 35q0 -35 -35 -35t-35 35v640h-830v-640q0 -35 -35 -35t-35 35v1350q0 35 35 35t35 -35v-640h830v640q0 35 35 35t35 -35v-1350z" />
<glyph unicode="&#x398;" horiz-adv-x="1520" d="M1470 710q0 -294 -208 -502t-502 -208t-502 208t-208 502t208 502t502 208t502 -208t208 -502zM1400 710q0 265 -187.5 452.5t-452.5 187.5t-452.5 -187.5t-187.5 -452.5t187.5 -452.5t452.5 -187.5t452.5 187.5t187.5 452.5zM1170 710q0 -35 -35 -35h-750q-35 0 -35 35 t35 35h750q35 0 35 -35z" />
<glyph unicode="&#x472;" horiz-adv-x="1520" d="M1470 710q0 -294 -208 -502t-502 -208t-502 208t-208 502t208 502t502 208t502 -208t208 -502zM1400 710q0 265 -187.5 452.5t-452.5 187.5t-452.5 -187.5t-187.5 -452.5t187.5 -452.5t452.5 -187.5t452.5 187.5t187.5 452.5zM1170 710q0 -35 -35 -35h-750q-35 0 -35 35 t35 35h750q35 0 35 -35z" />
<glyph unicode="&#x399;" horiz-adv-x="370" d="M220 35q0 -35 -35 -35t-35 35v1350q0 35 35 35t35 -35v-1350z" />
<glyph unicode="&#x39a;" horiz-adv-x="1016" d="M966 1385q0 -14 -11 -25l-650 -650l650 -650q11 -11 11 -25q0 -36 -36 -36q-13 0 -24 11l-675 675q-11 11 -11 25v-675q0 -35 -35 -35t-35 35v1350q0 35 35 35t35 -35v-675q0 14 11 25l675 675q11 11 24 11q36 0 36 -36z" />
<glyph unicode="&#x39b;" horiz-adv-x="1521" d="M1471 34q0 -34 -37 -34q-20 0 -30 19l-643 1288l-644 -1288q-10 -19 -30 -19q-37 0 -37 34q0 12 312 640q311 624 364 721q14 25 34 25q21 0 35 -25q53 -97 364 -721q312 -628 312 -640z" />
<glyph unicode="&#x39c;" horiz-adv-x="1670" d="M1620 34q0 -34 -36 -34q-27 0 -33 27l-276 1244l-405 -944q-12 -27 -35 -27t-35 27l-404 944l-277 -1244q-6 -27 -33 -27q-36 0 -36 34q0 5 1 9l299 1344q7 33 36 33q22 0 34 -27l415 -969l416 969q11 27 34 27q28 0 36 -33l298 -1344q1 -5 1 -9z" />
<glyph unicode="&#x39d;" horiz-adv-x="1421" d="M1271 35q0 -35 -36 -35q-16 0 -31 18l-983 1265v-1248q0 -35 -35 -35t-35 35l-1 1350q0 35 36 35q16 0 31 -18l984 -1265v1248q0 35 35 35t35 -35v-1350z" />
<glyph unicode="&#x39e;" d="M1020 1385q0 -35 -35 -35h-900q-35 0 -35 35t35 35h900q35 0 35 -35zM870 710q0 -35 -35 -35h-600q-35 0 -35 35t35 35h600q35 0 35 -35zM1020 35q0 -35 -35 -35h-900q-35 0 -35 35t35 35h900q35 0 35 -35z" />
<glyph unicode="&#x39f;" horiz-adv-x="1520" d="M1470 710q0 -294 -208 -502t-502 -208t-502 208t-208 502t208 502t502 208t502 -208t208 -502zM1400 710q0 265 -187.5 452.5t-452.5 187.5t-452.5 -187.5t-187.5 -452.5t187.5 -452.5t452.5 -187.5t452.5 187.5t187.5 452.5z" />
<glyph unicode="&#x3a0;" horiz-adv-x="1120" d="M970 35q0 -35 -35 -35t-35 35v1315h-680v-1315q0 -35 -35 -35t-35 35v1350q0 35 35 35h751q34 0 34 -35v-1350z" />
<glyph unicode="&#x3a1;" horiz-adv-x="1020" d="M970 1010q0 -170 -120 -290t-290 -120h-305q-35 0 -35 35t35 35h305q141 0 240.5 99.5t99.5 240.5t-99.5 240.5t-240.5 99.5h-340v-1315q0 -35 -35 -35t-35 35v1350q0 35 35 35h375q170 0 290 -120t120 -290z" />
<glyph unicode="&#x3a3;" horiz-adv-x="921" d="M871 35q0 -35 -35 -35l-750 -1q-36 0 -36 36q0 14 15 29l646 646l-646 646q-15 15 -15 29q0 36 36 36l750 -1q35 0 35 -35t-35 -35h-666l615 -615q11 -11 11 -24q0 -15 -11 -26l-615 -615h666q35 0 35 -35z" />
<glyph unicode="&#x3a4;" horiz-adv-x="1020" d="M1020 1385q0 -35 -35 -35h-415v-1315q0 -35 -35 -35t-35 35v1315h-415q-35 0 -35 35t35 35h900q35 0 35 -35z" />
<glyph unicode="&#x3a5;" horiz-adv-x="1171" d="M1171 1385q0 -11 -8 -21l-517 -666v-663q0 -35 -35 -35t-35 35v663l-518 666q-8 10 -8 21q0 36 36 36q16 0 27 -15l498 -639l497 639q11 15 27 15q36 0 36 -36z" />
<glyph unicode="&#x3a6;" horiz-adv-x="1520" d="M1470 710q0 -222 -236 -361q-196 -115 -439 -123v-191q0 -35 -35 -35t-35 35v191q-243 8 -439 123q-236 139 -236 361t236 361q196 115 439 123v191q0 35 35 35t35 -35v-191q243 -8 439 -123q236 -139 236 -361zM1400 710q0 133 -120 240q-99 89 -243 134 q-115 36 -242 40v-828q136 4 257 45q139 46 234 134q114 106 114 235zM725 296v828q-127 -4 -242 -40q-144 -45 -243 -134q-120 -107 -120 -240q0 -129 114 -235q95 -88 234 -134q121 -41 257 -45z" />
<glyph unicode="&#x3a7;" horiz-adv-x="1221" d="M1171 35q0 -36 -36 -36q-16 0 -27 15l-497 639l-498 -639q-11 -15 -27 -15q-36 0 -36 36q0 11 8 21l508 654l-508 654q-8 10 -8 21q0 36 36 36q16 0 27 -15l498 -639l497 639q11 15 27 15q36 0 36 -36q0 -11 -8 -21l-508 -654l508 -654q8 -10 8 -21z" />
<glyph unicode="&#x3a8;" horiz-adv-x="1520" d="M1470 1385q0 -415 -128 -638q-163 -285 -547 -296v-416q0 -35 -35 -35t-35 35v416q-384 11 -547 296q-128 223 -128 638q0 35 35 35t35 -35q0 -385 109 -587q145 -266 496 -277v864q0 35 35 35t35 -35v-864q351 11 496 277q109 202 109 587q0 35 35 35t35 -35z" />
<glyph unicode="&#x470;" horiz-adv-x="1520" d="M1470 1385q0 -415 -128 -638q-163 -285 -547 -296v-416q0 -35 -35 -35t-35 35v416q-384 11 -547 296q-128 223 -128 638q0 35 35 35t35 -35q0 -385 109 -587q145 -266 496 -277v864q0 35 35 35t35 -35v-864q351 11 496 277q109 202 109 587q0 35 35 35t35 -35z" />
<glyph unicode="&#x3a9;" horiz-adv-x="1520" d="M1470 35q0 -35 -35 -35l-449 -1q-36 0 -36 36q0 15 15 29q117 96 331 304q104 121 104 342q0 265 -187.5 452.5t-452.5 187.5t-452.5 -187.5t-187.5 -452.5q0 -176 53 -269q40 -73 188 -200q209 -180 209 -206q0 -36 -36 -36l-449 1q-35 0 -35 35t35 35h362l-209 182 q-97 90 -138 181q-50 109 -50 277q0 294 208 502t502 208t502 -208t208 -502q0 -172 -50 -280q-41 -87 -139 -177l-209 -183h363q35 0 35 -35z" />
<glyph unicode="&#x3aa;" horiz-adv-x="370" d="M482 1723q0 -73 -73 -73q-72 0 -72 73q0 72 72 72q73 0 73 -72zM32 1723q0 -73 -72 -73t-72 73q0 72 72 72t72 -72zM219 35q0 -35 -35 -35t-35 35v1350q0 35 35 35t35 -35v-1350z" />
<glyph unicode="&#x3ab;" horiz-adv-x="1171" d="M909 1723q0 -73 -73 -73q-72 0 -72 73q0 72 72 72q73 0 73 -72zM459 1723q0 -73 -73 -73q-72 0 -72 73q0 72 72 72q73 0 73 -72zM1171 1385q0 -11 -8 -21l-517 -666v-663q0 -35 -35 -35t-35 35v663l-518 666q-8 10 -8 21q0 36 36 36q16 0 27 -15l498 -639l497 639 q11 15 27 15q36 0 36 -36z" />
<glyph unicode="&#x3ac;" horiz-adv-x="1295" d="M570 1235q0 -35 -35 -35t-35 35v200q0 35 35 35t35 -35v-200zM1245 35q0 -35 -35 -35t-35 35q0 186 -96 379q-97 -153 -232 -269q-169 -145 -312 -145q-201 0 -343 142t-142 343t142 343t343 142q143 0 312 -145q135 -116 232 -269q96 193 96 379q0 35 35 35t35 -35 q0 -221 -124 -450q124 -229 124 -450zM1041 485q-86 145 -215 265q-162 150 -291 150q-172 0 -293.5 -121.5t-121.5 -293.5t121.5 -293.5t293.5 -121.5q129 0 291 150q129 120 215 265z" />
<glyph unicode="&#x3ad;" horiz-adv-x="898" d="M458 1235q0 -35 -35 -35t-35 35v200q0 35 35 35t35 -35v-200zM848 261q0 -9 -5 -19q-62 -111 -177 -176.5t-243 -65.5q-134 0 -243 62q-130 75 -130 198q0 151 185 225q-185 74 -185 225q0 123 130 198q109 62 243 62q128 0 243 -65.5t177 -176.5q5 -10 5 -19 q0 -34 -37 -34q-16 0 -29 17q-15 23 -48 67q-122 141 -311 141q-102 0 -192 -44q-111 -55 -111 -146t111 -146q90 -44 192 -44q35 0 35 -35t-35 -35q-102 0 -192 -44q-111 -55 -111 -146t111 -146q90 -44 192 -44q189 0 311 141l48 67q13 17 29 17q37 0 37 -34z" />
<glyph unicode="&#x3ae;" horiz-adv-x="920" d="M520 1235q0 -35 -35 -35t-35 35v200q0 35 35 35t35 -35v-200zM820 -415q0 -35 -35 -35t-35 35v1050q0 109 -78 187t-187 78t-187 -78t-78 -187v-600q0 -35 -35 -35t-35 35v900q0 35 35 35t35 -35v-95q101 130 265 130q138 0 236.5 -98.5t98.5 -236.5v-1050z" />
<glyph unicode="&#x3af;" horiz-adv-x="445" d="M170 1235q0 -35 -35 -35t-35 35v200q0 35 35 35t35 -35v-200zM395 35q0 -35 -35 -35q-107 0 -183.5 76.5t-76.5 183.5v675q0 35 35 35t35 -35v-675q0 -78 56 -134t134 -56q35 0 35 -35z" />
<glyph unicode="&#x3b0;" horiz-adv-x="820" d="M733 1273q0 -73 -73 -73q-72 0 -72 73q0 72 72 72q73 0 73 -72zM470 1185q0 -35 -35 -35t-35 35v200q0 35 35 35t35 -35v-200zM283 1273q0 -73 -73 -73q-72 0 -72 73q0 72 72 72q73 0 73 -72zM770 335q0 -138 -98.5 -236.5t-236.5 -98.5t-236.5 98.5t-98.5 236.5v600 q0 35 35 35t35 -35v-600q0 -109 78 -187t187 -78t187 78t78 187v375q0 78 -56 134t-134 56q-35 0 -35 35t35 35q107 0 183.5 -76.5t76.5 -183.5v-375z" />
<glyph unicode="&#x3b1;" horiz-adv-x="1295" d="M1245 35q0 -35 -35 -35t-35 35q0 186 -96 379q-97 -153 -232 -269q-169 -145 -312 -145q-201 0 -343 142t-142 343t142 343t343 142q143 0 312 -145q135 -116 232 -269q96 193 96 379q0 35 35 35t35 -35q0 -221 -124 -450q124 -229 124 -450zM1041 485q-86 145 -215 265 q-162 150 -291 150q-172 0 -293.5 -121.5t-121.5 -293.5t121.5 -293.5t293.5 -121.5q129 0 291 150q129 120 215 265z" />
<glyph unicode="&#x3b2;" horiz-adv-x="945" d="M895 373q0 -154 -109.5 -263.5t-262.5 -109.5q-191 0 -303 155v-570q0 -35 -35 -35t-35 35v1463q0 153 109.5 262.5t263.5 109.5q153 0 262.5 -109.5t109.5 -262.5q0 -109 -58.5 -200.5t-156.5 -137.5q98 -46 156.5 -137.5t58.5 -199.5zM825 373q0 124 -89 213t-213 89 q-35 0 -35 35q0 30 39 35q31 3 95 17q93 32 148 109.5t55 176.5q0 124 -89 213t-213 89q-125 0 -214 -89t-89 -213v-675q0 -125 89 -214t214 -89q124 0 213 89t89 214z" />
<glyph unicode="&#x3b3;" horiz-adv-x="1071" d="M1021 935q0 -12 -11 -25l-68 -75q-371 -427 -371 -800v-450q0 -35 -35 -35t-35 35v450q0 337 -317 736l-123 139q-11 13 -11 25q0 36 36 36q12 0 24 -11q132 -120 255 -322q120 -198 171 -373q50 175 171.5 374.5t253.5 320.5q12 11 25 11q35 0 35 -36z" />
<glyph unicode="&#x3b4;" d="M1020 485q0 -201 -142 -343t-343 -142t-343 142t-142 343q0 158 93 285.5t243 176.5q-111 78 -111 213q0 107 76.5 183.5t183.5 76.5q145 0 226 -131q5 -8 5 -18q0 -34 -37 -34q-7 0 -61 56.5t-133 56.5q-78 0 -134 -56t-56 -134t56 -134t134 -56q201 0 343 -142 t142 -343zM950 485q0 172 -121.5 293.5t-293.5 121.5t-293.5 -121.5t-121.5 -293.5t121.5 -293.5t293.5 -121.5t293.5 121.5t121.5 293.5z" />
<glyph unicode="&#x3b5;" horiz-adv-x="898" d="M848 261q0 -9 -5 -19q-62 -111 -177 -176.5t-243 -65.5q-134 0 -243 62q-130 75 -130 198q0 151 185 225q-185 74 -185 225q0 123 130 198q109 62 243 62q128 0 243 -65.5t177 -176.5q5 -10 5 -19q0 -34 -37 -34q-16 0 -29 17q-15 23 -48 67q-122 141 -311 141 q-102 0 -192 -44q-111 -55 -111 -146t111 -146q90 -44 192 -44q35 0 35 -35t-35 -35q-102 0 -192 -44q-111 -55 -111 -146t111 -146q90 -44 192 -44q189 0 311 141l48 67q13 17 29 17q37 0 37 -34z" />
<glyph unicode="&#x3b6;" horiz-adv-x="845" d="M795 -190q0 -108 -76.5 -184t-183.5 -76q-110 0 -184 76q-11 11 -11 24q0 36 36 36q5 0 54.5 -33t104.5 -33q78 0 134 55.5t56 134.5q0 78 -56 134t-134 56q-201 0 -343 142t-142 343v225q0 204 109 377.5t293 262.5h-367q-35 0 -35 35t35 35h675q35 0 35 -35t-36 -35 q-264 0 -451.5 -188t-187.5 -452v-225q0 -172 121.5 -293.5t293.5 -121.5q107 0 183.5 -76.5t76.5 -183.5z" />
<glyph unicode="&#x3b7;" horiz-adv-x="920" d="M820 -415q0 -35 -35 -35t-35 35v1050q0 109 -78 187t-187 78t-187 -78t-78 -187v-600q0 -35 -35 -35t-35 35v900q0 35 35 35t35 -35v-95q101 130 265 130q138 0 236.5 -98.5t98.5 -236.5v-1050z" />
<glyph unicode="&#x3b8;" d="M1020 710q0 -140 -36 -270q-50 -179 -157 -298q-127 -142 -292 -142q-161 0 -287 136q-105 114 -157 287q-41 138 -41 287q0 140 36 270q51 179 157 298q127 142 292 142q166 0 292 -142q106 -119 157 -298q36 -130 36 -270zM949 745q-4 136 -45 257q-46 139 -134 234 q-106 114 -235 114q-133 0 -240 -120q-89 -99 -134 -243q-36 -115 -40 -242h828zM949 675h-828q4 -127 40 -242q45 -144 134 -243q107 -120 240 -120q129 0 235 114q88 95 134 234q41 121 45 257z" />
<glyph unicode="&#x473;" d="M1020 710q0 -140 -36 -270q-50 -179 -157 -298q-127 -142 -292 -142q-161 0 -287 136q-105 114 -157 287q-41 138 -41 287q0 140 36 270q51 179 157 298q127 142 292 142q166 0 292 -142q106 -119 157 -298q36 -130 36 -270zM949 745q-4 136 -45 257q-46 139 -134 234 q-106 114 -235 114q-133 0 -240 -120q-89 -99 -134 -243q-36 -115 -40 -242h828zM949 675h-828q4 -127 40 -242q45 -144 134 -243q107 -120 240 -120q129 0 235 114q88 95 134 234q41 121 45 257z" />
<glyph unicode="&#x3b9;" horiz-adv-x="445" d="M395 35q0 -35 -35 -35q-107 0 -183.5 76.5t-76.5 183.5v675q0 35 35 35t35 -35v-675q0 -78 56 -134t134 -56q35 0 35 -35z" />
<glyph unicode="&#x3ba;" horiz-adv-x="1071" d="M1021 35q0 -36 -36 -36q-12 0 -24 11q-95 85 -152.5 209.5t-57.5 248.5q0 112 43 226l-684 -684q-11 -11 -24 -11q-36 0 -36 36q0 12 11 25q99 115 136 186q53 102 53 223q0 192 -134 374l-55 67q-11 14 -11 25q0 36 36 36q18 0 55 -46q180 -222 180 -457q0 -91 -29 -177 l669 669q11 11 24 11q36 0 36 -36q0 -11 -11 -25q-20 -23 -59 -73q-130 -180 -130 -366q0 -121 53 -224q37 -71 136 -187q11 -13 11 -25z" />
<glyph unicode="&#x3bb;" horiz-adv-x="1221" d="M1171 34q0 -34 -37 -34q-18 0 -29 17l-494 849l-495 -849q-11 -17 -29 -17q-37 0 -37 34q0 9 5 19l515 882l-252 432q-5 10 -5 19q0 34 36 34q19 0 29 -17l788 -1350q5 -10 5 -19z" />
<glyph unicode="&#x3bc;" horiz-adv-x="970" d="M820 35q0 -35 -35 -35t-35 35v95q-101 -130 -265 -130t-265 130v-545q0 -35 -35 -35t-35 35v1350q0 35 35 35t35 -35v-600q0 -109 78 -187t187 -78q110 0 187.5 77.5t77.5 187.5v600q0 35 35 35t35 -35v-900z" />
<glyph unicode="&#x3bd;" horiz-adv-x="914" d="M864 792q0 -144 -136 -441q-147 -321 -166 -340q-12 -11 -26 -11q-20 0 -35 25q-37 67 -243 482q-208 419 -208 429q0 34 37 34q20 0 30 -19l418 -838q261 522 261 680q0 67 -38 90q-13 8 -70 18q-37 6 -37 34q0 35 35 35q178 0 178 -178z" />
<glyph unicode="&#x3be;" horiz-adv-x="845" d="M795 -190q0 -108 -76.5 -184t-183.5 -76q-131 0 -188 81q-7 10 -7 19q0 36 36 36q4 0 55 -33t104 -33q78 0 134 55.5t56 134.5q0 78 -56 134t-134 56l-72 -1h-3q-171 0 -286 97q-122 104 -122 277q0 127 79 228.5t203 132.5q-172 110 -172 313q0 191 156 303h-233 q-35 0 -35 35t35 35h675q35 0 35 -35t-35 -35h-225q-125 0 -214 -89t-89 -214q0 -124 88.5 -213t211.5 -89q39 0 39 -35t-37 -35h-112q-124 0 -212 -89t-88 -213q0 -129 88 -214q85 -83 214 -89h111q107 0 183.5 -76.5t76.5 -183.5z" />
<glyph unicode="&#x3bf;" d="M1020 485q0 -201 -142 -343t-343 -142t-343 142t-142 343t142 343t343 142t343 -142t142 -343zM950 485q0 172 -121.5 293.5t-293.5 121.5t-293.5 -121.5t-121.5 -293.5t121.5 -293.5t293.5 -121.5t293.5 121.5t121.5 293.5z" />
<glyph unicode="&#x3c0;" horiz-adv-x="1120" d="M970 35q0 -35 -35 -35t-35 35v865h-680v-865q0 -35 -35 -35t-35 35v900q0 35 35 35h751q34 0 34 -35v-900z" />
<glyph unicode="&#x3c1;" d="M1020 485q0 -158 -93 -285.5t-243 -176.5q111 -78 111 -213q0 -107 -76.5 -183.5t-183.5 -76.5q-145 0 -226 131q-5 8 -5 18q0 34 37 34q7 0 61 -56.5t133 -56.5q78 0 134 56t56 134t-56 134t-134 56q-201 0 -343 142t-142 343t142 343t343 142t343 -142t142 -343z M950 485q0 172 -121.5 293.5t-293.5 121.5t-293.5 -121.5t-121.5 -293.5t121.5 -293.5t293.5 -121.5t293.5 121.5t121.5 293.5z" />
<glyph unicode="&#x3c2;" horiz-adv-x="939" d="M889 804q0 -36 -36 -36q6 0 -99 66t-219 66q-172 0 -293.5 -121.5t-121.5 -293.5t121.5 -293.5t293.5 -121.5q107 0 183.5 -76.5t76.5 -183.5t-76.5 -183.5t-183.5 -76.5q-147 0 -226 131q-5 8 -5 18q0 34 37 34q7 0 61 -56.5t133 -56.5q78 0 134 56t56 134t-56 134 t-134 56q-201 0 -343 142t-142 343t142 343t343 142q211 0 343 -142q11 -12 11 -24z" />
<glyph unicode="&#x3c3;" horiz-adv-x="1220" d="M1170 935q0 -35 -35 -35h-349q109 -66 171.5 -177t62.5 -238q0 -201 -142 -343t-343 -142t-343 142t-142 343t142 343t343 142h600q35 0 35 -35zM950 485q0 172 -121.5 293.5t-293.5 121.5t-293.5 -121.5t-121.5 -293.5t121.5 -293.5t293.5 -121.5t293.5 121.5 t121.5 293.5z" />
<glyph unicode="&#x3c4;" horiz-adv-x="920" d="M870 935q0 -35 -35 -35h-340v-640q0 -78 56 -134t134 -56q35 0 35 -35t-35 -35q-107 0 -183.5 76.5t-76.5 183.5v640h-340q-35 0 -35 35t35 35h750q35 0 35 -35z" />
<glyph unicode="&#x3c5;" horiz-adv-x="820" d="M770 335q0 -138 -98.5 -236.5t-236.5 -98.5t-236.5 98.5t-98.5 236.5v600q0 35 35 35t35 -35v-600q0 -109 78 -187t187 -78t187 78t78 187v375q0 78 -56 134t-134 56q-35 0 -35 35t35 35q107 0 183.5 -76.5t76.5 -183.5v-375z" />
<glyph unicode="&#x3c6;" horiz-adv-x="1370" d="M1320 635q0 -252 -174 -436t-426 -198v-416q0 -35 -35 -35t-35 35v416q-252 14 -426 198t-174 436q0 138 98.5 236.5t236.5 98.5q35 0 35 -35t-35 -35q-109 0 -187 -78t-78 -187q0 -224 153.5 -387t376.5 -177v564q0 138 98.5 236.5t236.5 98.5t236.5 -98.5t98.5 -236.5z M1250 635q0 109 -78 187t-187 78t-187 -78t-78 -187v-564q223 14 376.5 177t153.5 387z" />
<glyph unicode="&#x3c7;" horiz-adv-x="921" d="M871 -416q0 -34 -37 -34q-19 0 -29 18l-344 620l-345 -620q-10 -18 -29 -18q-37 0 -37 34q0 9 5 18l366 658l-366 658q-5 9 -5 18q0 34 37 34q19 0 29 -18l345 -620l344 620q10 18 29 18q37 0 37 -34q0 -9 -5 -18l-365 -658l365 -658q5 -9 5 -18z" />
<glyph unicode="&#x3c8;" horiz-adv-x="1370" d="M1320 935q0 -420 -94 -624q-137 -298 -506 -310v-416q0 -35 -35 -35t-35 35v416q-369 12 -506 310q-94 204 -94 624q0 35 35 35t35 -35q0 -390 77 -572q119 -280 453 -292v1314q0 35 35 35t35 -35v-1314q334 13 453 292q77 182 77 572q0 35 35 35t35 -35z" />
<glyph unicode="&#x471;" horiz-adv-x="1370" d="M1320 935q0 -420 -94 -624q-137 -298 -506 -310v-416q0 -35 -35 -35t-35 35v416q-369 12 -506 310q-94 204 -94 624q0 35 35 35t35 -35q0 -390 77 -572q119 -280 453 -292v1314q0 35 35 35t35 -35v-1314q334 13 453 292q77 182 77 572q0 35 35 35t35 -35z" />
<glyph unicode="&#x3c9;" horiz-adv-x="1370" d="M1320 485q0 -173 -80 -315q-96 -170 -255 -170q-106 0 -190 85q-72 72 -110 184q-38 -112 -110 -184q-84 -85 -190 -85q-159 0 -255 170q-80 142 -80 315t80 315q96 170 255 170q35 0 35 -35t-35 -35q-84 0 -153 -78q-57 -64 -85 -156q-27 -85 -27 -181t27 -181 q28 -92 85 -156q69 -78 153 -78t153 78q57 64 85 156q27 85 27 181q0 35 35 35t35 -35q0 -96 27 -181q28 -92 85 -156q69 -78 153 -78t153 78q57 64 85 156q27 85 27 181t-26 181q-29 92 -86 156q-69 78 -153 78q-35 0 -35 35t35 35q159 0 255 -170q80 -142 80 -315z" />
<glyph unicode="&#x3ca;" horiz-adv-x="445" d="M433 1273q0 -73 -73 -73q-72 0 -72 73q0 72 72 72q73 0 73 -72zM-17 1273q0 -73 -73 -73q-72 0 -72 73q0 72 72 72q73 0 73 -72zM395 35q0 -35 -35 -35q-107 0 -183.5 76.5t-76.5 183.5v675q0 35 35 35t35 -35v-675q0 -78 56 -134t134 -56q35 0 35 -35z" />
<glyph unicode="&#x3cb;" horiz-adv-x="820" d="M733 1273q0 -73 -73 -73q-72 0 -72 73q0 72 72 72q73 0 73 -72zM283 1273q0 -73 -73 -73q-72 0 -72 73q0 72 72 72q73 0 73 -72zM770 335q0 -138 -98.5 -236.5t-236.5 -98.5t-236.5 98.5t-98.5 236.5v600q0 35 35 35t35 -35v-600q0 -109 78 -187t187 -78t187 78t78 187 v375q0 78 -56 134t-134 56q-35 0 -35 35t35 35q107 0 183.5 -76.5t76.5 -183.5v-375z" />
<glyph unicode="&#x3cc;" d="M570 1235q0 -35 -35 -35t-35 35v200q0 35 35 35t35 -35v-200zM1020 485q0 -201 -142 -343t-343 -142t-343 142t-142 343t142 343t343 142t343 -142t142 -343zM950 485q0 172 -121.5 293.5t-293.5 121.5t-293.5 -121.5t-121.5 -293.5t121.5 -293.5t293.5 -121.5 t293.5 121.5t121.5 293.5z" />
<glyph unicode="&#x3cd;" horiz-adv-x="820" d="M470 1251q0 -35 -35 -35t-35 35v200q0 35 35 35t35 -35v-200zM770 335q0 -138 -98.5 -236.5t-236.5 -98.5t-236.5 98.5t-98.5 236.5v600q0 35 35 35t35 -35v-600q0 -109 78 -187t187 -78t187 78t78 187v375q0 78 -56 134t-134 56q-35 0 -35 35t35 35q107 0 183.5 -76.5 t76.5 -183.5v-375z" />
<glyph unicode="&#x3ce;" horiz-adv-x="1370" d="M720 1235q0 -35 -35 -35t-35 35v200q0 35 35 35t35 -35v-200zM1320 485q0 -173 -80 -315q-96 -170 -255 -170q-106 0 -190 85q-72 72 -110 184q-38 -112 -110 -184q-84 -85 -190 -85q-159 0 -255 170q-80 142 -80 315t80 315q96 170 255 170q35 0 35 -35t-35 -35 q-84 0 -153 -78q-57 -64 -85 -156q-27 -85 -27 -181t27 -181q28 -92 85 -156q69 -78 153 -78t153 78q57 64 85 156q27 85 27 181q0 35 35 35t35 -35q0 -96 27 -181q28 -92 85 -156q69 -78 153 -78t153 78q57 64 85 156q27 85 27 181t-26 181q-29 92 -86 156q-69 78 -153 78 q-35 0 -35 35t35 35q159 0 255 -170q80 -142 80 -315z" />
<glyph unicode="&#x401;" horiz-adv-x="970" d="M808 1723q0 -73 -73 -73q-72 0 -72 73q0 72 72 72q73 0 73 -72zM358 1723q0 -73 -73 -73q-72 0 -72 73q0 72 72 72q73 0 73 -72zM920 35q0 -35 -35 -35h-750q-35 0 -35 35v1350q0 35 35 35h750q35 0 35 -35t-35 -35h-715v-605h565q35 0 35 -35t-35 -35h-565v-605h715 q35 0 35 -35z" />
<glyph unicode="&#x402;" horiz-adv-x="1520" d="M1470 485q0 -201 -142 -343t-343 -142q-35 0 -35 35t35 35q172 0 293.5 121.5t121.5 293.5t-121.5 293.5t-293.5 121.5t-293.5 -121.5t-121.5 -293.5v-450q0 -35 -35 -35t-35 35v1315h-415q-35 0 -35 35t35 35h900q35 0 35 -35t-35 -35h-415v-614q66 109 177 171.5 t238 62.5q201 0 343 -142t142 -343z" />
<glyph unicode="&#x403;" horiz-adv-x="970" d="M745 1834q0 -18 -19 -30q-33 -20 -164 -85q-140 -70 -153 -70q-34 0 -34 37q0 18 19 30q33 20 164 85q140 70 153 70q34 0 34 -37zM970 1385q0 -35 -35 -35h-715v-1315q0 -35 -35 -35t-35 35v1350q0 35 35 35h750q35 0 35 -35z" />
<glyph unicode="&#x404;" horiz-adv-x="1323" d="M1273 232q0 -13 -11 -24q-195 -208 -502 -208q-294 0 -502 208t-208 502t208 502t502 208q307 0 502 -208q11 -11 11 -24q0 -36 -36 -36q-12 0 -25 11q-218 187 -452 187q-255 0 -440 -175.5t-199 -429.5h1116q35 0 35 -35t-35 -35h-1116q14 -254 199 -429.5t440 -175.5 q234 0 452 187q13 11 25 11q36 0 36 -36z" />
<glyph unicode="&#x405;" horiz-adv-x="871" d="M821 410q0 -170 -120.5 -290t-289.5 -120q-110 0 -205.5 55.5t-150.5 149.5q-5 10 -5 19q0 34 37 34q16 0 29 -18q10 -16 33 -48q101 -122 262 -122q140 0 240 100t100 240t-100 240t-239.5 100t-237.5 98.5t-98 236.5t98 236.5t237 98.5q191 0 289 -166q6 -9 6 -19 q0 -34 -37 -34q-13 0 -46 38q-41 49 -76 72q-59 39 -136 39q-110 0 -187.5 -78t-77.5 -187t77.5 -187t187.5 -78q169 0 289.5 -120t120.5 -290z" />
<glyph unicode="&#x406;" horiz-adv-x="370" d="M220 35q0 -35 -35 -35t-35 35v1350q0 35 35 35t35 -35v-1350z" />
<glyph unicode="&#x407;" horiz-adv-x="370" d="M482 1723q0 -73 -73 -73q-72 0 -72 73q0 72 72 72q73 0 73 -72zM32 1723q0 -73 -72 -73t-72 73q0 72 72 72t72 -72zM219 35q0 -35 -35 -35t-35 35v1350q0 35 35 35t35 -35v-1350z" />
<glyph unicode="&#x408;" horiz-adv-x="495" d="M345 1385v-1500q0 -138 -98.5 -236.5t-236.5 -98.5q-89 0 -169 46t-121 123q-6 9 -6 18q0 34 37 34q13 0 46 -39q41 -50 75 -73q59 -39 138 -39q109 0 187 78t78 187v1500q0 35 35 35t35 -35z" />
<glyph unicode="&#x409;" horiz-adv-x="1821" d="M1771 410q0 -170 -120.5 -290t-290.5 -120h-374q-35 0 -35 35v1234l-836 -1253q-11 -16 -28 -16q-37 0 -37 34q0 11 6 20l897 1346q14 20 32 20q36 0 36 -41v-559h340q169 0 289.5 -120t120.5 -290zM1701 410q0 140 -100 240t-240 100h-340v-680h339q141 0 241 99.5 t100 240.5z" />
<glyph unicode="&#x40a;" horiz-adv-x="1870" d="M1820 410q0 -170 -120 -290t-291 -120h-374q-35 0 -35 35v715h-830v-715q0 -35 -35 -35t-35 35v1350q0 35 35 35t35 -35v-565h830v565q0 35 35 35t35 -35v-565h340q170 0 290 -120t120 -290zM1750 410q0 140 -100 240t-240 100h-340v-680h340q141 0 240.5 99.5 t99.5 240.5z" />
<glyph unicode="&#x40b;" horiz-adv-x="1220" d="M1170 35q0 -35 -35 -35t-35 35v600q0 109 -78 187t-187 78t-187 -78t-78 -187v-600q0 -35 -35 -35t-35 35v1315h-415q-35 0 -35 35t35 35h900q35 0 35 -35t-35 -35h-415v-510q101 130 265 130q138 0 236.5 -98.5t98.5 -236.5v-600z" />
<glyph unicode="&#x40c;" horiz-adv-x="966" d="M740 1834q0 -18 -20 -30q-32 -20 -164 -85q-140 -70 -153 -70q-34 0 -34 37q0 18 20 30q32 20 163 85q140 70 153 70q35 0 35 -37zM916 1385q0 -14 -11 -25l-650 -650l650 -650q11 -11 11 -25q0 -36 -36 -36q-13 0 -24 11l-675 675q-11 11 -11 25v-675q0 -35 -35 -35 t-35 35v1350q0 35 35 35t35 -35v-675q0 14 11 25l675 675q11 11 24 11q36 0 36 -36z" />
<glyph unicode="&#x40e;" horiz-adv-x="1171" d="M872 1835q0 -14 -31 -47q-127 -137 -231 -137t-230 137q-31 33 -31 47q0 35 38 35q9 0 86.5 -75t136.5 -75t137 75t88 75q37 0 37 -35zM1171 1385q0 -11 -8 -21l-1050 -1350q-11 -15 -27 -15q-36 0 -36 36q0 11 8 21l508 654l-508 654q-8 10 -8 21q0 36 36 36 q16 0 27 -15l498 -639l497 639q11 15 27 15q36 0 36 -36z" />
<glyph unicode="&#x40f;" horiz-adv-x="1120" d="M970 1385v-1351q0 -34 -35 -34h-340v-415q0 -35 -35 -35t-35 35v415h-340q-35 0 -35 35v1350q0 35 35 35t35 -35v-1315h680v1315q0 35 35 35t35 -35z" />
<glyph unicode="&#x410;" horiz-adv-x="1521" d="M1471 34q0 -34 -37 -34q-20 0 -30 19l-234 468q3 -37 -34 -37h-750q-38 0 -35 37l-234 -468q-10 -19 -30 -19q-37 0 -37 34q0 12 312 640q310 623 364 721q14 25 34 25q21 0 35 -25q53 -97 364 -721q312 -628 312 -640zM1157 513l-396 794l-397 -794q9 7 18 7h756 q10 0 19 -7z" />
<glyph unicode="&#x411;" horiz-adv-x="1020" d="M970 1385q0 -35 -35 -35h-715v-530h340q170 0 290 -120t120 -290t-120 -290t-291 -120h-374q-35 0 -35 35v1350q0 35 35 35h750q35 0 35 -35zM900 410q0 140 -100 240t-240 100h-340v-680h340q141 0 240.5 99.5t99.5 240.5z" />
<glyph unicode="&#x412;" horiz-adv-x="1020" d="M970 410q0 -170 -120 -290t-291 -120h-374q-35 0 -35 35v1350q0 35 35 35h375q138 0 236.5 -98.5t98.5 -236.5q0 -202 -178 -296q114 -48 183.5 -151.5t69.5 -227.5zM825 1085q0 109 -78 187t-187 78h-340v-530h340q109 0 187 78t78 187zM900 410q0 140 -100 240 t-240 100h-340v-680h340q141 0 240.5 99.5t99.5 240.5z" />
<glyph unicode="&#x413;" horiz-adv-x="970" d="M970 1385q0 -35 -35 -35h-715v-1315q0 -35 -35 -35t-35 35v1350q0 35 35 35h750q35 0 35 -35z" />
<glyph unicode="&#x414;" horiz-adv-x="1521" d="M1471 34q0 -34 -37 -34h-1348q-36 0 -36 34q0 9 7 22l669 1339q13 25 34 25q22 0 35 -25l669 -1339q7 -13 7 -22zM1379 70l-619 1237l-618 -1237h1237z" />
<glyph unicode="&#x415;" horiz-adv-x="1020" d="M970 35q0 -35 -35 -35h-750q-35 0 -35 35v1350q0 35 35 35h750q35 0 35 -35t-35 -35h-715v-605h565q35 0 35 -35t-35 -35h-565v-605h715q35 0 35 -35z" />
<glyph unicode="&#x416;" horiz-adv-x="1663" d="M1613 1385q0 -14 -11 -24l-651 -651l651 -650q11 -11 11 -24q0 -36 -36 -36q-14 0 -25 11l-675 675q-11 10 -11 24v-675q0 -35 -35 -35t-35 35v674q0 -13 -11 -24l-675 -675q-11 -11 -24 -11q-36 0 -36 36q0 14 11 24l650 651l-650 650q-11 11 -11 24q0 36 36 36 q13 0 24 -11l675 -675q11 -10 11 -24v675q0 35 35 35t35 -35v-674q0 13 11 24l675 675q11 11 25 11q36 0 36 -36z" />
<glyph unicode="&#x417;" horiz-adv-x="921" d="M871 409q0 -169 -120.5 -289.5t-290.5 -120.5q-169 0 -289.5 120.5t-120.5 289.5q0 36 35 36t35 -36q0 -140 100 -240t240 -100q141 0 241 100t100 240q0 141 -100 241t-240 100q-35 0 -35 35t34 35q110 0 188 77.5t78 187.5t-78 187.5t-188 77.5q-109 0 -187 -78 t-78 -187q0 -35 -35 -35t-35 35q0 139 98.5 237t237.5 98q138 0 236.5 -98.5t98.5 -236.5q0 -202 -178 -296q114 -48 183.5 -151.5t69.5 -228.5z" />
<glyph unicode="&#x418;" horiz-adv-x="1421" d="M1271 1385v-1350q0 -35 -35 -35t-35 35v1248l-984 -1265q-15 -18 -31 -18q-36 0 -36 35l1 1350q0 35 35 35t35 -35v-1248l983 1265q15 18 31 18q36 0 36 -35z" />
<glyph unicode="&#x419;" horiz-adv-x="1421" d="M972 1835q0 -14 -31 -47q-128 -138 -230 -138q-61 0 -141 56q-73 50 -112 107q-8 12 -8 22q0 36 36 36q10 0 87.5 -75.5t136.5 -75.5t137 75t88 75q37 0 37 -35zM1271 1385v-1350q0 -35 -35 -35t-35 35v1248l-984 -1265q-15 -18 -31 -18q-36 0 -36 35l1 1350q0 35 35 35 t35 -35v-1248l983 1265q15 18 31 18q36 0 36 -35z" />
<glyph unicode="&#x41a;" horiz-adv-x="1016" d="M966 1385q0 -14 -11 -25l-650 -650l650 -650q11 -11 11 -25q0 -36 -36 -36q-13 0 -24 11l-675 675q-11 11 -11 25v-675q0 -35 -35 -35t-35 35v1350q0 35 35 35t35 -35v-675q0 14 11 25l675 675q11 11 24 11q36 0 36 -36z" />
<glyph unicode="&#x41b;" horiz-adv-x="1521" d="M1471 34q0 -34 -37 -34q-20 0 -30 19l-643 1288l-644 -1288q-10 -19 -30 -19q-37 0 -37 34q0 12 312 640q311 624 364 721q14 25 34 25q21 0 35 -25q53 -97 364 -721q312 -628 312 -640z" />
<glyph unicode="&#x41c;" horiz-adv-x="1670" d="M1620 34q0 -34 -36 -34q-27 0 -33 27l-276 1244l-405 -944q-12 -27 -35 -27t-35 27l-404 944l-277 -1244q-6 -27 -33 -27q-36 0 -36 34q0 5 1 9l299 1344q7 33 36 33q22 0 34 -27l415 -969l416 969q11 27 34 27q28 0 36 -33l298 -1344q1 -5 1 -9z" />
<glyph unicode="&#x41d;" horiz-adv-x="1270" d="M1120 35q0 -35 -35 -35t-35 35v640h-830v-640q0 -35 -35 -35t-35 35v1350q0 35 35 35t35 -35v-640h830v640q0 35 35 35t35 -35v-1350z" />
<glyph unicode="&#x41e;" horiz-adv-x="1520" d="M1470 710q0 -294 -208 -502t-502 -208t-502 208t-208 502t208 502t502 208t502 -208t208 -502zM1400 710q0 265 -187.5 452.5t-452.5 187.5t-452.5 -187.5t-187.5 -452.5t187.5 -452.5t452.5 -187.5t452.5 187.5t187.5 452.5z" />
<glyph unicode="&#x41f;" horiz-adv-x="1120" d="M970 35q0 -35 -35 -35t-35 35v1315h-680v-1315q0 -35 -35 -35t-35 35v1350q0 35 35 35h751q34 0 34 -35v-1350z" />
<glyph unicode="&#x420;" horiz-adv-x="1020" d="M970 1010q0 -170 -120 -290t-290 -120h-305q-35 0 -35 35t35 35h305q141 0 240.5 99.5t99.5 240.5t-99.5 240.5t-240.5 99.5h-340v-1315q0 -35 -35 -35t-35 35v1350q0 35 35 35h375q170 0 290 -120t120 -290z" />
<glyph unicode="&#x421;" horiz-adv-x="1323" d="M1273 232q0 -13 -11 -24q-199 -208 -502 -208q-294 0 -502 208t-208 502t208 502t502 208q303 0 502 -208q11 -11 11 -24q0 -36 -36 -36q-12 0 -25 11q-218 187 -452 187q-265 0 -452.5 -187.5t-187.5 -452.5t187.5 -452.5t452.5 -187.5q234 0 452 187q13 11 25 11 q36 0 36 -36z" />
<glyph unicode="&#x422;" horiz-adv-x="1020" d="M1020 1385q0 -35 -35 -35h-415v-1315q0 -35 -35 -35t-35 35v1315h-415q-35 0 -35 35t35 35h900q35 0 35 -35z" />
<glyph unicode="&#x423;" horiz-adv-x="1171" d="M1171 1385q0 -11 -8 -21l-1050 -1350q-11 -15 -27 -15q-36 0 -36 36q0 11 8 21l508 654l-508 654q-8 10 -8 21q0 36 36 36q16 0 27 -15l498 -639l497 639q11 15 27 15q36 0 36 -36z" />
<glyph unicode="&#x424;" horiz-adv-x="1520" d="M1470 710q0 -222 -236 -361q-196 -115 -439 -123v-191q0 -35 -35 -35t-35 35v191q-243 8 -439 123q-236 139 -236 361t236 361q196 115 439 123v191q0 35 35 35t35 -35v-191q243 -8 439 -123q236 -139 236 -361zM1400 710q0 133 -120 240q-99 89 -243 134 q-115 36 -242 40v-828q136 4 257 45q139 46 234 134q114 106 114 235zM725 296v828q-127 -4 -242 -40q-144 -45 -243 -134q-120 -107 -120 -240q0 -129 114 -235q95 -88 234 -134q121 -41 257 -45z" />
<glyph unicode="&#x425;" horiz-adv-x="1221" d="M1171 35q0 -36 -36 -36q-16 0 -27 15l-497 639l-498 -639q-11 -15 -27 -15q-36 0 -36 36q0 11 8 21l508 654l-508 654q-8 10 -8 21q0 36 36 36q16 0 27 -15l498 -639l497 639q11 15 27 15q36 0 36 -36q0 -11 -8 -21l-508 -654l508 -654q8 -10 8 -21z" />
<glyph unicode="&#x426;" horiz-adv-x="1120" d="M970 -415q0 -35 -35 -35t-35 35v415h-715q-35 0 -35 35v1350q0 35 35 35t35 -35v-1315h680v1315q0 35 35 35t35 -35v-1800z" />
<glyph unicode="&#x427;" horiz-adv-x="1170" d="M1020 35q0 -35 -35 -35t-35 35v640h-528q-153 0 -262.5 109.5t-109.5 262.5v338q0 35 35 35t35 -35v-338q0 -124 89 -213t213 -89h528v640q0 35 35 35t35 -35v-1350z" />
<glyph unicode="&#x428;" horiz-adv-x="1870" d="M1720 35q0 -35 -35 -35h-1500q-35 0 -35 35v1350q0 35 35 35t35 -35v-1315h680v1315q0 35 35 35t35 -35v-1315h680v1315q0 35 35 35t35 -35v-1350z" />
<glyph unicode="&#x429;" horiz-adv-x="1870" d="M1720 -415q0 -35 -35 -35t-35 35v415h-1465q-35 0 -35 35v1350q0 35 35 35t35 -35v-1315h680v1315q0 35 35 35t35 -35v-1315h680v1315q0 35 35 35t35 -35v-1800z" />
<glyph unicode="&#x42a;" horiz-adv-x="1620" d="M1570 409q0 -170 -120 -290t-291 -120l-374 1q-35 0 -35 35v1315h-715q-35 0 -35 35t35 35h750q35 0 35 -35v-565h340q170 0 290 -120.5t120 -290.5zM1500 409q0 141 -100 241t-240 100h-340v-680l340 -1q141 0 240.5 100t99.5 240z" />
<glyph unicode="&#x42b;" horiz-adv-x="1270" d="M1120 35q0 -35 -35 -35t-35 35v1350q0 35 35 35t35 -35v-1350zM970 409q0 -170 -120 -290t-291 -120l-374 1q-35 0 -35 35v1350q0 35 35 35t35 -35v-565h340q170 0 290 -120.5t120 -290.5zM900 409q0 141 -100 241t-240 100h-340v-680l340 -1q141 0 240.5 100t99.5 240z " />
<glyph unicode="&#x42c;" horiz-adv-x="1020" d="M970 409q0 -170 -120 -290t-291 -120l-374 1q-35 0 -35 35v1350q0 35 35 35t35 -35v-565h340q170 0 290 -120.5t120 -290.5zM900 409q0 141 -100 241t-240 100h-340v-680l340 -1q141 0 240.5 100t99.5 240z" />
<glyph unicode="&#x42d;" horiz-adv-x="1323" d="M1273 710q0 -294 -208.5 -502t-501.5 -208q-307 0 -502 208q-11 11 -11 24q0 36 36 36q12 0 24 -11q219 -187 453 -187q254 0 439.5 175.5t199.5 429.5h-1116q-35 0 -35 35t35 35h1116q-14 254 -199.5 429.5t-439.5 175.5q-234 0 -453 -187q-12 -11 -24 -11q-36 0 -36 36 q0 13 11 24q195 208 502 208q293 0 501.5 -208t208.5 -502z" />
<glyph unicode="&#x42e;" horiz-adv-x="2070" d="M2020 710q0 -294 -208 -502t-502 -208q-284 0 -489.5 196t-219.5 479h-381v-640q0 -35 -35 -35t-35 35v1350q0 35 35 35t35 -35v-640h381q14 283 219.5 479t489.5 196q294 0 502 -208t208 -502zM1950 710q0 265 -187.5 452.5t-452.5 187.5t-452.5 -187.5t-187.5 -452.5 t187.5 -452.5t452.5 -187.5t452.5 187.5t187.5 452.5z" />
<glyph unicode="&#x42f;" horiz-adv-x="1021" d="M871 35q0 -35 -35 -35t-35 35v1315h-340q-141 0 -240.5 -100t-99.5 -240q0 -141 99.5 -240.5t240.5 -99.5l224 1q36 0 36 -36q0 -14 -15 -29l-596 -596q-11 -11 -24 -11q-36 0 -36 36q0 14 11 25l540 540h-140q-170 0 -290 120t-120 290t120 290t290 120h375q35 0 35 -35 v-1350z" />
<glyph unicode="&#x430;" horiz-adv-x="820" d="M720 35q0 -35 -35 -35t-35 35v95q-101 -130 -265 -130q-138 0 -236.5 98.5t-98.5 236.5t98.5 236.5t236.5 98.5q164 0 265 -130v95q0 109 -78 187t-187 78q-71 0 -142.5 -44.5t-69.5 -44.5q-36 0 -36 36q0 13 11 25q90 98 237 98q138 0 236.5 -98.5t98.5 -236.5v-600z M650 335q0 109 -78 187t-187 78t-187 -78t-78 -187t78 -187t187 -78t187 78t78 187z" />
<glyph unicode="&#x431;" d="M1020 1385q0 -35 -35 -35q-259 0 -476 -143t-319 -382q142 145 345 145q201 0 343 -142t142 -343t-142 -343t-343 -142t-343 142t-142 343q0 387 274 661t661 274q35 0 35 -35zM950 485q0 172 -121.5 293.5t-293.5 121.5t-293.5 -121.5t-121.5 -293.5t121.5 -293.5 t293.5 -121.5t293.5 121.5t121.5 293.5z" />
<glyph unicode="&#x432;" horiz-adv-x="832" d="M782 285q0 -124 -97 -207q-93 -78 -219 -78h-281q-35 0 -35 35v900q0 35 35 35h281q103 0 180 -65q80 -69 80 -170q0 -127 -117 -196q173 -79 173 -254zM656 735q0 72 -60 120q-56 45 -130 45h-246v-330h246q74 0 130 45q60 48 60 120zM712 285q0 93 -77 156 q-73 59 -169 59h-246v-430h246q96 0 169 58q77 63 77 157z" />
<glyph unicode="&#x433;" horiz-adv-x="833" d="M783 935q0 -35 -36 -35h-527v-865q0 -35 -35 -35t-35 35v900q0 35 35 35h562q36 0 36 -35z" />
<glyph unicode="&#x434;" horiz-adv-x="1183" d="M1133 34q0 -34 -36 -34h-1010q-37 0 -37 34q0 9 8 24l500 888q13 24 34 24q20 0 33 -24l500 -888q8 -15 8 -24zM1038 70l-446 794l-447 -794h893z" />
<glyph unicode="&#x435;" horiz-adv-x="1010" d="M960 261q0 -9 -5 -19q-64 -111 -177.5 -176.5t-242.5 -65.5q-201 0 -343 142t-142 343t142 343t343 142q79 0 162 -29q77 -28 160 -91q102 -78 102 -141q0 -20 -17 -29l-748 -432q124 -178 341 -178q188 0 309 138l50 70q13 17 30 17q36 0 36 -34zM876 722 q-124 178 -341 178q-172 0 -293.5 -121.5t-121.5 -293.5q0 -93 39 -177z" />
<glyph unicode="&#x436;" horiz-adv-x="1211" d="M1161 35q0 -36 -36 -36q-13 0 -24 11l-450 450q-10 10 -10 25t10 25l450 450q11 11 24 11q36 0 36 -36q0 -14 -11 -25l-425 -425l425 -425q11 -11 11 -25zM641 35q0 -35 -35 -35t-35 35v900q0 35 35 35t35 -35v-900zM570 485q0 -15 -10 -25l-450 -450q-11 -11 -24 -11 q-36 0 -36 36q0 14 11 25l425 425l-425 425q-11 11 -11 25q0 36 36 36q13 0 24 -11l450 -450q10 -10 10 -25z" />
<glyph unicode="&#x437;" horiz-adv-x="733" d="M683 284q0 -123 -98 -206q-93 -79 -218 -79q-126 0 -219 79q-98 83 -98 206q0 35 35 35t35 -35q0 -94 78 -156q72 -59 169 -59q96 0 168 59q78 62 78 156t-77 157q-73 59 -169 59q-35 0 -35 35t35 35q74 0 130 44q60 48 60 121q0 72 -60 120q-56 45 -131 45 q-73 0 -130 -45q-60 -48 -60 -120q0 -35 -35 -35t-35 35q0 101 81 170q77 65 180 65t181.5 -67t78.5 -168q0 -127 -117 -196q173 -80 173 -255z" />
<glyph unicode="&#x438;" horiz-adv-x="1159" d="M1009 935l-1 -900q0 -35 -35 -35t-35 35v807l-722 -825q-15 -18 -30 -18q-36 0 -36 36l1 900q0 35 35 35t35 -35v-807l722 825q15 18 30 18q36 0 36 -36z" />
<glyph unicode="&#x439;" horiz-adv-x="1159" d="M841 1385q0 -14 -31 -47q-127 -137 -231 -137t-230 137q-31 33 -31 47q0 35 37 35q10 0 87.5 -75t136.5 -75t137 75t88 75q37 0 37 -35zM1009 935l-1 -900q0 -35 -35 -35t-35 35v807l-722 -825q-15 -18 -30 -18q-36 0 -36 36l1 900q0 35 35 35t35 -35v-807l722 825 q15 18 30 18q36 0 36 -36z" />
<glyph unicode="&#x43a;" horiz-adv-x="791" d="M741 35q0 -36 -36 -36q-14 0 -25 11l-450 450q-10 10 -10 25t10 25l450 450q11 11 25 11q36 0 36 -36q0 -14 -11 -25l-426 -425l426 -425q11 -11 11 -25zM220 35q0 -35 -35 -35t-35 35v900q0 35 35 35t35 -35v-900z" />
<glyph unicode="&#x43b;" horiz-adv-x="1184" d="M1134 34q0 -34 -37 -34q-19 0 -29 18l-476 846l-476 -846q-10 -18 -29 -18q-37 0 -37 34q0 9 5 18l503 894q14 24 34 24t34 -24l503 -894q5 -9 5 -18z" />
<glyph unicode="&#x43c;" horiz-adv-x="1295" d="M1245 34q0 -34 -36 -34q-26 0 -33 27l-201 806l-293 -607q-12 -26 -34 -26t-35 26l-292 607l-202 -806q-6 -27 -33 -27q-36 0 -36 34q0 4 225 903q8 33 35 33q22 0 34 -25l304 -629l303 629q12 25 33 25q28 0 37 -33q224 -899 224 -903z" />
<glyph unicode="&#x43d;" horiz-adv-x="1045" d="M895 35q0 -35 -35 -35t-35 35v415h-605v-415q0 -35 -35 -35t-35 35v900q0 35 35 35t35 -35v-415h605v415q0 35 35 35t35 -35v-900z" />
<glyph unicode="&#x43e;" d="M1020 485q0 -201 -142 -343t-343 -142t-343 142t-142 343t142 343t343 142t343 -142t142 -343zM950 485q0 172 -121.5 293.5t-293.5 121.5t-293.5 -121.5t-121.5 -293.5t121.5 -293.5t293.5 -121.5t293.5 121.5t121.5 293.5z" />
<glyph unicode="&#x43f;" horiz-adv-x="933" d="M783 35q0 -35 -35 -35t-35 35l-1 865h-492v-865q0 -35 -35 -35t-35 35v900q0 35 35 35h563q34 0 34 -35z" />
<glyph unicode="&#x440;" horiz-adv-x="1170" d="M1120 485q0 -201 -142 -343t-343 -142q-127 0 -238 62.5t-177 171.5v-649q0 -35 -35 -35t-35 35v1350q0 35 35 35t35 -35v-199q66 109 177 171.5t238 62.5q201 0 343 -142t142 -343zM1050 485q0 172 -121.5 293.5t-293.5 121.5t-293.5 -121.5t-121.5 -293.5t121.5 -293.5 t293.5 -121.5t293.5 121.5t121.5 293.5z" />
<glyph unicode="&#x441;" horiz-adv-x="939" d="M889 804q0 -36 -36 -36q6 0 -99 66t-219 66q-172 0 -293.5 -121.5t-121.5 -293.5t121.5 -293.5t293.5 -121.5q114 0 219 66t98 66q36 0 36 -36q0 -13 -11 -25q-131 -141 -342 -141q-201 0 -343 142t-142 343t142 343t343 142q211 0 343 -142q11 -12 11 -24z" />
<glyph unicode="&#x442;" horiz-adv-x="845" d="M795 935q0 -35 -35 -35h-303v-865q0 -35 -34 -35q-35 0 -35 35l-1 865h-302q-35 0 -35 35t35 35h675q35 0 35 -35z" />
<glyph unicode="&#x443;" horiz-adv-x="870" d="M720 -115q0 -138 -98.5 -236.5t-236.5 -98.5q-196 0 -290 166q-5 10 -5 19q0 34 37 34q13 0 45 -38q42 -49 76 -72q59 -39 137 -39q109 0 187 78t78 187v245q-101 -130 -265 -130q-138 0 -236.5 98.5t-98.5 236.5v600q0 35 35 35t35 -35v-600q0 -109 78 -187t187 -78 t187 78t78 187v600q0 35 35 35t35 -35v-1050z" />
<glyph unicode="&#x444;" horiz-adv-x="1370" d="M1320 485q0 -173 -80 -315q-96 -170 -255 -170q-166 0 -265 188v-603q0 -35 -35 -35t-35 35v602q-99 -187 -265 -187q-159 0 -255 170q-80 142 -80 315t80 315q96 170 255 170q166 0 265 -187v602q0 35 35 35t35 -35v-602q99 187 265 187q159 0 255 -170q80 -142 80 -315 zM1250 485q0 88 -22 168q-28 96 -85 164q-71 83 -158 83q-85 0 -154 -79q-57 -65 -86 -158q-25 -84 -25 -178t25 -178q29 -93 86 -158q69 -79 154 -79q87 0 158 83q57 68 85 164q22 80 22 168zM650 485q0 88 -22 168q-28 96 -85 164q-71 83 -158 83q-85 0 -154 -79 q-57 -65 -86 -158q-25 -84 -25 -178t25 -178q29 -93 86 -158q69 -79 154 -79q87 0 158 83q57 68 85 164q22 80 22 168z" />
<glyph unicode="&#x445;" horiz-adv-x="921" d="M871 35q0 -36 -36 -36q-15 0 -26 14l-348 417l-347 -417q-11 -14 -27 -14q-36 0 -36 36q0 12 9 22l355 428l-356 428q-9 10 -9 22q0 36 36 36q16 0 27 -14l348 -417l347 417q11 14 26 14q36 0 36 -36q0 -12 -8 -22l-356 -428l357 -428q8 -10 8 -22z" />
<glyph unicode="&#x446;" horiz-adv-x="932" d="M782 -265q0 -35 -35 -35t-35 35v265h-527q-35 0 -35 35v900q0 35 35 35t35 -35v-865h492v865q0 35 35 35t35 -35v-1200z" />
<glyph unicode="&#x447;" horiz-adv-x="945" d="M795 35q0 -35 -35 -35t-35 35v415h-387q-114 0 -199 72q-89 76 -89 188v225q0 35 35 35t35 -35v-225q0 -83 69 -138q64 -52 149 -52h387v415q0 35 35 35t35 -35v-900z" />
<glyph unicode="&#x448;" horiz-adv-x="1495" d="M1345 35q0 -35 -32 -35h-1130q-33 0 -33 32v905q0 33 35 33t35 -35v-865h492v865q0 35 35 35t35 -35v-865h493v865q0 35 35 35t35 -35v-900z" />
<glyph unicode="&#x449;" horiz-adv-x="1495" d="M1345 -265q0 -35 -35 -35t-35 35v265h-1090q-35 0 -35 35v900q0 35 35 35t35 -35v-865h492v865q0 35 35 35t35 -35v-865h493v865q0 35 35 35t35 -35v-1200z" />
<glyph unicode="&#x44a;" horiz-adv-x="1245" d="M1195 285q0 -124 -98 -207q-93 -79 -219 -79l-281 1q-34 0 -34 35v865h-528q-35 0 -35 35t35 35h563q35 0 35 -35v-365h246q125 0 218 -79q98 -83 98 -206zM1125 285q0 93 -78 156q-72 59 -168 59h-246v-430l245 -1q97 0 169 59q78 62 78 157z" />
<glyph unicode="&#x44b;" horiz-adv-x="1045" d="M895 35q0 -35 -35 -35t-35 35v900q0 35 35 35t35 -35v-900zM782 285q0 -124 -97 -207q-93 -79 -219 -79l-281 1q-35 0 -35 35v900q0 35 35 35t35 -35v-365h246q126 0 219 -79q97 -83 97 -206zM712 285q0 93 -77 156q-73 59 -169 59h-246v-430l246 -1q97 0 169 59 q77 62 77 157z" />
<glyph unicode="&#x44c;" horiz-adv-x="832" d="M782 285q0 -124 -97 -207q-93 -79 -219 -79l-281 1q-35 0 -35 35v900q0 35 35 35t35 -35v-365h246q126 0 219 -79q97 -83 97 -206zM712 285q0 93 -77 156q-73 59 -169 59h-246v-430l246 -1q97 0 169 59q77 62 77 157z" />
<glyph unicode="&#x44d;" horiz-adv-x="1010" d="M960 485q0 -201 -142 -343t-343 -142q-129 0 -242.5 65.5t-177.5 176.5q-5 10 -5 19q0 34 37 34q16 0 29 -17q15 -24 50 -70q121 -138 309 -138q217 0 341 178l-748 432q-16 9 -16 29q0 63 101 140q83 64 160 91q83 30 162 30q201 0 343 -142t142 -343zM890 485 q0 172 -121.5 293.5t-293.5 121.5q-216 0 -340 -178l716 -413q39 83 39 176z" />
<glyph unicode="&#x44e;" horiz-adv-x="1520" d="M1470 485q0 -211 -140 -348t-351 -137q-201 0 -337.5 125t-152.5 325h-269v-415q0 -35 -35 -35t-35 35v900q0 35 35 35t35 -35v-415h269q16 199 152.5 324.5t337.5 125.5q211 0 351 -137t140 -348zM1400 485q0 181 -119.5 298t-301.5 117t-302 -117t-120 -298t120 -298 t302 -117t301.5 117t119.5 298z" />
<glyph unicode="&#x44f;" horiz-adv-x="833" d="M683 35q0 -35 -35 -35t-35 35v865h-246q-96 0 -169 -59q-77 -62 -77 -156t77 -157q72 -58 169 -58l169 1q35 0 35 -36q0 -15 -17 -30l-445 -396q-11 -10 -23 -10q-36 0 -36 37q0 14 12 25l382 339h-77q-125 0 -218 79q-98 83 -98 206t98 206q93 79 218 79h282 q34 0 34 -35v-900z" />
<glyph unicode="&#x451;" horiz-adv-x="1010" d="M833 1273q0 -73 -73 -73q-72 0 -72 73q0 72 72 72q73 0 73 -72zM383 1273q0 -73 -73 -73q-72 0 -72 73q0 72 72 72q73 0 73 -72zM960 261q0 -9 -5 -19q-64 -111 -177.5 -176.5t-242.5 -65.5q-201 0 -343 142t-142 343t142 343t343 142q79 0 162 -29q77 -28 160 -91 q102 -78 102 -141q0 -20 -17 -29l-748 -432q124 -178 341 -178q188 0 309 138l50 70q13 17 30 17q36 0 36 -34zM876 722q-124 178 -341 178q-172 0 -293.5 -121.5t-121.5 -293.5q0 -93 39 -177z" />
<glyph unicode="&#x452;" horiz-adv-x="995" d="M895 -190q0 -107 -76.5 -183.5t-183.5 -76.5q-117 0 -184 76q-11 12 -11 24q0 36 36 36q3 0 55 -33t104 -33q78 0 134 56t56 134v825q0 109 -78 187t-187 78t-187 -78t-78 -187v-600q0 -35 -35 -35t-35 35v1090h-190q-35 0 -35 35t35 35h190v190q0 35 35 35t35 -35v-190 h190q35 0 35 -35t-35 -35h-190v-285q101 130 265 130q138 0 236.5 -98.5t98.5 -236.5v-825z" />
<glyph unicode="&#x453;" horiz-adv-x="833" d="M652 1384q0 -18 -20 -30q-32 -20 -164 -85q-140 -70 -153 -70q-34 0 -34 37q0 18 20 30q32 20 163 85q140 70 153 70q35 0 35 -37zM783 935q0 -35 -36 -35h-527v-865q0 -35 -35 -35t-35 35v900q0 35 35 35h562q36 0 36 -35z" />
<glyph unicode="&#x454;" horiz-adv-x="939" d="M889 804q0 -36 -36 -36q6 0 -99 66t-219 66q-161 0 -280.5 -109.5t-133.5 -270.5h731q35 0 35 -35t-35 -35h-731q14 -161 133.5 -270.5t280.5 -109.5q114 0 219 66t98 66q36 0 36 -36q0 -13 -11 -25q-128 -141 -342 -141q-201 0 -343 142t-142 343t142 343t343 142 q214 0 343 -142q11 -12 11 -24z" />
<glyph unicode="&#x455;" horiz-adv-x="678" d="M628 297q0 -122 -87 -209.5t-210 -87.5q-93 0 -169 52.5t-109 139.5q-3 6 -3 13q0 34 37 34q19 0 31 -23l23 -44q65 -102 190 -102q94 0 160.5 67t66.5 160q0 98 -70 163t-168 65q-90 0 -153.5 66t-63.5 156q0 92 65.5 157.5t157.5 65.5q128 0 192 -110q5 -10 5 -19 q0 -34 -36 -34q-8 0 -53.5 46.5t-107.5 46.5q-63 0 -108 -45t-45 -108q0 -68 48 -110t118 -42q120 0 204.5 -88.5t84.5 -209.5z" />
<glyph unicode="&#x456;" horiz-adv-x="370" d="M259 1346q0 -71 -74 -71t-74 71q0 30 22 52t52 22t52 -22t22 -52zM220 935v-900q0 -35 -35 -35t-35 35v900q0 35 35 35t35 -35z" />
<glyph unicode="&#x457;" horiz-adv-x="370" d="M482 1273q0 -73 -73 -73q-72 0 -72 73q0 72 72 72q73 0 73 -72zM33 1273q0 -73 -73 -73q-72 0 -72 73q0 72 72 72q73 0 73 -72zM220 935l-1 -900q0 -35 -34 -35q-35 0 -35 35v900q0 35 35 35t35 -35z" />
<glyph unicode="&#x458;" horiz-adv-x="370" d="M259 1346q0 -71 -74 -71t-74 71q0 30 22 52t52 22t52 -22t22 -52zM220 -190q0 -107 -76.5 -183.5t-183.5 -76.5q-118 0 -184 76q-11 13 -11 24q0 36 36 36q2 0 55 -33t104 -33q78 0 134 56t56 134v1125q0 35 35 35t35 -35v-1125z" />
<glyph unicode="&#x459;" horiz-adv-x="1408" d="M1358 285q0 -124 -98 -206q-93 -79 -219 -79h-280q-35 0 -35 35v795l-612 -816q-11 -15 -28 -15q-36 0 -36 36q0 11 8 21l671 895q14 19 31 19q36 0 36 -41v-359h246q125 0 218 -79q98 -83 98 -206zM1288 285q0 93 -77 156q-73 59 -169 59h-246v-430h246q96 0 169 58 q77 63 77 157z" />
<glyph unicode="&#x45a;" horiz-adv-x="1507" d="M1457 285q0 -124 -97 -207q-93 -78 -219 -78h-281q-35 0 -35 35v465h-605v-465q0 -35 -35 -35t-35 35v900q0 35 35 35t35 -35v-365h605v365q0 35 35 35t35 -35v-365h246q126 0 219 -79q97 -83 97 -206zM1387 285q0 93 -77 156q-73 59 -169 59h-246v-430h246q96 0 169 58 q77 63 77 157z" />
<glyph unicode="&#x45b;" horiz-adv-x="995" d="M895 35q0 -35 -35 -35t-35 35v600q0 109 -78 187t-187 78t-187 -78t-78 -187v-600q0 -35 -35 -35t-35 35v1090h-190q-35 0 -35 35t35 35h190v190q0 35 35 35t35 -35v-190h190q35 0 35 -35t-35 -35h-190v-285q101 130 265 130q138 0 236.5 -98.5t98.5 -236.5v-600z" />
<glyph unicode="&#x45c;" horiz-adv-x="791" d="M674 1384q0 -18 -20 -30q-32 -20 -164 -85q-140 -70 -153 -70q-34 0 -34 37q0 18 19 30q33 20 164 85q140 70 153 70q35 0 35 -37zM741 35q0 -36 -36 -36q-14 0 -25 11l-450 450q-10 10 -10 25t10 25l450 450q11 11 25 11q36 0 36 -36q0 -14 -11 -25l-426 -425l426 -425 q11 -11 11 -25zM220 35q0 -35 -35 -35t-35 35v900q0 35 35 35t35 -35v-900z" />
<glyph unicode="&#x45e;" horiz-adv-x="920" d="M696 1385q0 -14 -31 -47q-127 -137 -231 -137t-230 137q-30 33 -30 47q0 35 37 35q10 0 87 -75t137 -75q58 0 136 75t88 75q37 0 37 -35zM770 -115q0 -138 -98.5 -236.5t-236.5 -98.5q-196 0 -290 166q-5 10 -5 19q0 34 37 34q13 0 45 -38q42 -49 76 -72q59 -39 137 -39 q109 0 187 78t78 187v245q-101 -130 -265 -130q-138 0 -236.5 98.5t-98.5 236.5v600q0 35 35 35t35 -35v-600q0 -109 78 -187t187 -78t187 78t78 187v600q0 35 35 35t35 -35v-1050z" />
<glyph unicode="&#x45f;" horiz-adv-x="932" d="M782 935v-900q0 -35 -35 -35h-246v-265q0 -35 -35 -35t-35 35v265h-246q-35 0 -35 35v900q0 35 35 35t35 -35v-865h492v865q0 35 35 35t35 -35z" />
<glyph unicode="&#x490;" horiz-adv-x="970" d="M970 1685v-300q0 -35 -35 -35h-715v-1315q0 -35 -35 -35t-35 35v1350q0 35 35 35h715v265q0 35 35 35t35 -35z" />
<glyph unicode="&#x491;" horiz-adv-x="832" d="M782 935q0 -35 -35 -35h-527v-865q0 -35 -35 -35t-35 35v900q0 35 35 35h527v265q0 35 35 35t35 -35v-300z" />
<glyph unicode="&#x1e80;" horiz-adv-x="2146" d="M1283 1686q0 -37 -34 -37q-13 0 -153 70q-131 65 -164 85q-19 12 -19 30q0 37 34 37q13 0 153 -70q131 -65 164 -85q19 -12 19 -30zM2146 1386q0 -12 -312 -640q-311 -624 -364 -721q-14 -25 -35 -25t-34 25l-303 607l-303 -607q-13 -25 -34 -25t-35 25q-53 97 -364 721 q-312 628 -312 640q0 34 37 34q20 0 30 -19l644 -1288l298 597q-334 666 -334 676q0 34 37 34q20 0 30 -19l306 -613l306 613q10 19 30 19q37 0 37 -34q0 -10 -334 -676l299 -597l643 1288q10 19 30 19q37 0 37 -34z" />
<glyph unicode="&#x1e81;" horiz-adv-x="1671" d="M1021 1236q0 -37 -34 -37q-14 0 -153 70q-132 65 -164 85q-20 12 -20 30q0 37 34 37q14 0 153 -70q132 -65 164 -85q20 -12 20 -30zM1621 936q0 -8 -451 -911q-13 -25 -35 -25q-21 0 -34 25l-265 531l-266 -531q-13 -25 -35 -25q-21 0 -34 25q-451 903 -451 911 q0 34 37 34q20 0 30 -19l419 -838l261 521q-147 293 -147 302q0 34 37 34q20 0 30 -19l419 -838l418 838q10 19 30 19q37 0 37 -34z" />
<glyph unicode="&#x1e82;" horiz-adv-x="2146" d="M1283 1834q0 -18 -19 -30q-33 -20 -164 -85q-140 -70 -153 -70q-34 0 -34 37q0 18 19 30q33 20 164 85q140 70 153 70q34 0 34 -37zM2146 1386q0 -12 -312 -640q-311 -624 -364 -721q-14 -25 -35 -25t-34 25l-303 607l-303 -607q-13 -25 -34 -25t-35 25q-53 97 -364 721 q-312 628 -312 640q0 34 37 34q20 0 30 -19l644 -1288l298 597q-334 666 -334 676q0 34 37 34q20 0 30 -19l306 -613l306 613q10 19 30 19q37 0 37 -34q0 -10 -334 -676l299 -597l643 1288q10 19 30 19q37 0 37 -34z" />
<glyph unicode="&#x1e83;" horiz-adv-x="1671" d="M1021 1384q0 -18 -20 -30q-32 -20 -164 -85q-139 -70 -153 -70q-34 0 -34 37q0 18 20 30q32 20 164 85q139 70 153 70q34 0 34 -37zM1621 936q0 -8 -451 -911q-13 -25 -35 -25q-21 0 -34 25l-265 531l-266 -531q-13 -25 -35 -25q-21 0 -34 25q-451 903 -451 911 q0 34 37 34q20 0 30 -19l419 -838l261 521q-147 293 -147 302q0 34 37 34q20 0 30 -19l419 -838l418 838q10 19 30 19q37 0 37 -34z" />
<glyph unicode="&#x1e84;" horiz-adv-x="2146" d="M1396 1723q0 -73 -73 -73q-72 0 -72 73q0 72 72 72q73 0 73 -72zM946 1723q0 -73 -73 -73q-72 0 -72 73q0 72 72 72q73 0 73 -72zM2146 1386q0 -12 -312 -640q-311 -624 -364 -721q-14 -25 -35 -25t-34 25l-303 607l-303 -607q-13 -25 -34 -25t-35 25q-53 97 -364 721 q-312 628 -312 640q0 34 37 34q20 0 30 -19l644 -1288l298 597q-334 666 -334 676q0 34 37 34q20 0 30 -19l306 -613l306 613q10 19 30 19q37 0 37 -34q0 -10 -334 -676l299 -597l643 1288q10 19 30 19q37 0 37 -34z" />
<glyph unicode="&#x1e85;" horiz-adv-x="1671" d="M1134 1273q0 -73 -73 -73q-72 0 -72 73q0 72 72 72q73 0 73 -72zM684 1273q0 -73 -73 -73q-72 0 -72 73q0 72 72 72q73 0 73 -72zM1621 936q0 -8 -451 -911q-13 -25 -35 -25q-21 0 -34 25l-265 531l-266 -531q-13 -25 -35 -25q-21 0 -34 25q-451 903 -451 911q0 34 37 34 q20 0 30 -19l419 -838l261 521q-147 293 -147 302q0 34 37 34q20 0 30 -19l419 -838l418 838q10 19 30 19q37 0 37 -34z" />
<glyph unicode="&#x1ef2;" horiz-adv-x="1171" d="M796 1686q0 -37 -34 -37q-13 0 -153 70q-132 65 -164 85q-20 12 -20 30q0 37 35 37q13 0 152 -70q132 -65 164 -85q20 -12 20 -30zM1171 1385q0 -11 -8 -21l-517 -666v-663q0 -35 -35 -35t-35 35v663l-518 666q-8 10 -8 21q0 36 36 36q16 0 27 -15l498 -639l497 639 q11 15 27 15q36 0 36 -36z" />
<glyph unicode="&#x1ef3;" horiz-adv-x="920" d="M620 1236q0 -37 -34 -37q-13 0 -153 70q-131 65 -164 85q-19 12 -19 30q0 37 34 37q13 0 153 -70q131 -65 164 -85q19 -12 19 -30zM770 -115q0 -138 -98.5 -236.5t-236.5 -98.5q-196 0 -290 166q-5 10 -5 19q0 34 37 34q13 0 45 -38q42 -49 76 -72q59 -39 137 -39 q109 0 187 78t78 187v245q-101 -130 -265 -130q-138 0 -236.5 98.5t-98.5 236.5v600q0 35 35 35t35 -35v-600q0 -109 78 -187t187 -78t187 78t78 187v600q0 35 35 35t35 -35v-1050z" />
<glyph unicode="&#x2000;" horiz-adv-x="937" />
<glyph unicode="&#x2001;" horiz-adv-x="1875" />
<glyph unicode="&#x2002;" horiz-adv-x="937" />
<glyph unicode="&#x2003;" horiz-adv-x="1875" />
<glyph unicode="&#x2004;" horiz-adv-x="625" />
<glyph unicode="&#x2005;" horiz-adv-x="468" />
<glyph unicode="&#x2006;" horiz-adv-x="312" />
<glyph unicode="&#x2007;" horiz-adv-x="312" />
<glyph unicode="&#x2008;" horiz-adv-x="234" />
<glyph unicode="&#x2009;" horiz-adv-x="375" />
<glyph unicode="&#x200a;" horiz-adv-x="104" />
<glyph unicode="&#x2010;" horiz-adv-x="620" d="M570 485q0 -35 -35 -35h-450q-35 0 -35 35t35 35h450q35 0 35 -35z" />
<glyph unicode="&#x2011;" horiz-adv-x="620" d="M570 485q0 -35 -35 -35h-450q-35 0 -35 35t35 35h450q35 0 35 -35z" />
<glyph unicode="&#x2013;" horiz-adv-x="770" d="M720 485q0 -35 -35 -35h-600q-35 0 -35 35t35 35h600q35 0 35 -35z" />
<glyph unicode="&#x2014;" horiz-adv-x="1370" d="M1320 485q0 -35 -35 -35h-1200q-35 0 -35 35t35 35h1200q35 0 35 -35z" />
<glyph unicode="&#x2015;" horiz-adv-x="1370" d="M1320 485q0 -35 -35 -35h-1200q-35 0 -35 35t35 35h1200q35 0 35 -35z" />
<glyph unicode="&#x2017;" horiz-adv-x="1300" d="M1250 -150h-1200v70h1200v-70zM1250 -300h-1200v70h1200v-70z" />
<glyph unicode="&#x2018;" horiz-adv-x="303" d="M253 1404q0 -12 -11 -25q-122 -148 -122 -294q0 -35 -35 -35t-35 35q0 93 37 187q40 100 106 157q12 11 24 11q36 0 36 -36z" />
<glyph unicode="&#x2019;" horiz-adv-x="303" d="M253 1385q0 -93 -37 -187q-40 -100 -106 -157q-12 -11 -24 -11q-36 0 -36 36q0 12 11 25q122 148 122 294q0 35 35 35t35 -35z" />
<glyph unicode="&#x201a;" horiz-adv-x="303" d="M253 35q0 -93 -37 -187q-40 -100 -106 -157q-12 -11 -24 -11q-36 0 -36 36q0 12 11 25q122 148 122 294q0 35 35 35t35 -35z" />
<glyph unicode="&#x201b;" horiz-adv-x="303" d="M253 1066q0 -36 -36 -36q-12 0 -24 11q-66 57 -106 157q-37 94 -37 187q0 35 35 35t35 -35q0 -146 122 -294q11 -13 11 -25z" />
<glyph unicode="&#x201c;" horiz-adv-x="753" d="M703 1404q0 -12 -11 -25q-122 -148 -122 -294q0 -35 -35 -35t-35 35q0 93 37 187q40 100 106 157q12 11 24 11q36 0 36 -36zM253 1404q0 -12 -11 -25q-122 -148 -122 -294q0 -35 -35 -35t-35 35q0 93 37 187q40 100 106 157q12 11 24 11q36 0 36 -36z" />
<glyph unicode="&#x201d;" horiz-adv-x="753" d="M703 1385q0 -93 -37 -187q-40 -100 -106 -157q-12 -11 -24 -11q-36 0 -36 36q0 12 11 25q122 148 122 294q0 35 35 35t35 -35zM253 1385q0 -93 -37 -187q-40 -100 -106 -157q-12 -11 -24 -11q-36 0 -36 36q0 12 11 25q122 148 122 294q0 35 35 35t35 -35z" />
<glyph unicode="&#x201e;" horiz-adv-x="753" d="M703 35q0 -93 -37 -187q-40 -100 -106 -157q-12 -11 -24 -11q-36 0 -36 36q0 12 11 25q122 148 122 294q0 35 35 35t35 -35zM253 35q0 -93 -37 -187q-40 -100 -106 -157q-12 -11 -24 -11q-36 0 -36 36q0 12 11 25q122 148 122 294q0 35 35 35t35 -35z" />
<glyph unicode="&#x2020;" d="M870 935q0 -35 -35 -35h-265v-865q0 -35 -35 -35t-35 35v865h-265q-35 0 -35 35t35 35h265v415q0 35 35 35t35 -35v-415h265q35 0 35 -35z" />
<glyph unicode="&#x2021;" d="M870 485q0 -35 -35 -35h-265v-415q0 -35 -35 -35t-35 35v415h-265q-35 0 -35 35t35 35h265v380h-265q-35 0 -35 35t35 35h265v415q0 35 35 35t35 -35v-415h265q35 0 35 -35t-35 -35h-265v-380h265q35 0 35 -35z" />
<glyph unicode="&#x2022;" d="M1032 638q0 -64 -24 -121q-30 -72 -86 -72t-87 72q-24 57 -24 121q0 62 26 120q31 74 85 74q53 0 85 -74q25 -58 25 -120zM784 777q0 -65 -24 -121q-31 -73 -87 -73q-55 0 -86 73q-24 56 -24 121q0 62 25 120q32 73 85 73q54 0 85 -73q26 -58 26 -120zM507 777 q0 -65 -24 -121q-31 -73 -86 -73q-56 0 -87 73q-24 56 -24 121q0 62 26 120q31 73 85 73q53 0 85 -73q25 -58 25 -120zM924 254q0 -80 -27 -144q-36 -85 -105 -85q-19 0 -54 15.5t-56 15.5q-30 0 -74 -28t-73 -28t-73 28t-74 28q-21 0 -56 -15.5t-54 -15.5q-69 0 -105 85 q-27 64 -27 144q0 134 132 221q116 78 257 78t257 -78q132 -87 132 -221zM259 638q0 -64 -24 -121q-31 -72 -87 -72t-86 72q-24 57 -24 121q0 62 25 120q32 74 85 74q54 0 85 -74q26 -58 26 -120z" />
<glyph unicode="&#x2026;" horiz-adv-x="1500" d="M1324 74q0 -30 -22 -52t-52 -22t-52 22t-22 52q0 71 74 71t74 -71zM824 74q0 -30 -22 -52t-52 -22t-52 22t-22 52q0 71 74 71t74 -71zM324 74q0 -30 -22 -52t-52 -22t-52 22t-22 52q0 71 74 71t74 -71z" />
<glyph unicode="&#x202f;" horiz-adv-x="375" />
<glyph unicode="&#x2030;" horiz-adv-x="2346" d="M2296 335q0 -138 -98.5 -236.5t-236.5 -98.5q-139 0 -237 98.5t-98 236.5t98 236.5t237 98.5q138 0 236.5 -98.5t98.5 -236.5zM721 1085q0 -138 -98.5 -236.5t-236.5 -98.5q-139 0 -237 98.5t-98 236.5t98 236.5t237 98.5q138 0 236.5 -98.5t98.5 -236.5zM1471 335 q0 -138 -98.5 -236.5t-236.5 -98.5q-139 0 -237 98.5t-98 236.5t98 236.5t237 98.5q138 0 236.5 -98.5t98.5 -236.5zM1471 1385q0 -14 -11 -25l-1350 -1350q-11 -11 -24 -11q-36 0 -36 36q0 14 11 25l1350 1350q11 11 24 11q36 0 36 -36zM2226 335q0 109 -78 187t-187 78 q-110 0 -187.5 -78t-77.5 -187t77.5 -187t187.5 -78q109 0 187 78t78 187zM651 1085q0 109 -78 187t-187 78q-110 0 -187.5 -78t-77.5 -187t77.5 -187t187.5 -78q109 0 187 78t78 187zM1401 335q0 109 -78 187t-187 78q-110 0 -187.5 -78t-77.5 -187t77.5 -187t187.5 -78 q109 0 187 78t78 187z" />
<glyph unicode="&#x2032;" horiz-adv-x="321" d="M271 1386q0 -10 -70 -188t-83 -200.5t-31 -22.5q-37 0 -37 34q0 10 70 188t82.5 200.5t31.5 22.5q37 0 37 -34z" />
<glyph unicode="&#x2033;" horiz-adv-x="696" d="M646 1386q0 -10 -70 -188t-83 -200.5t-31 -22.5q-37 0 -37 34q0 10 70 188t82.5 200.5t31.5 22.5q37 0 37 -34zM271 1386q0 -10 -70 -188t-83 -200.5t-31 -22.5q-37 0 -37 34q0 10 70 188t82.5 200.5t31.5 22.5q37 0 37 -34z" />
<glyph unicode="&#x2039;" horiz-adv-x="394" d="M344 936q0 -10 -222 -451q222 -442 222 -451q0 -34 -37 -34q-20 0 -30 19l-225 450q-2 4 -2 16l2 16l225 450q10 19 30 19q37 0 37 -34z" />
<glyph unicode="&#x203a;" horiz-adv-x="394" d="M344 485l-2 -16l-225 -450q-10 -19 -30 -19q-37 0 -37 34q0 10 221 451q-221 441 -221 451q0 34 37 34q20 0 30 -19l225 -450q2 -4 2 -16z" />
<glyph unicode="&#x203c;" horiz-adv-x="670" d="M520 410q0 -35 -35 -35t-35 35v975q0 35 35 35t35 -35v-975zM220 410q0 -35 -35 -35t-35 35v975q0 35 35 35t35 -35v-975zM559 74q0 -30 -22 -52t-52 -22t-52 22t-22 52q0 71 74 71t74 -71zM259 74q0 -30 -22 -52t-52 -22t-52 22t-22 52q0 71 74 71t74 -71z" />
<glyph unicode="&#x203e;" horiz-adv-x="456" />
<glyph unicode="&#x2044;" horiz-adv-x="1521" d="M1471 1385q0 -14 -11 -25l-1350 -1350q-11 -11 -24 -11q-36 0 -36 36q0 14 11 25l1350 1350q11 11 24 11q36 0 36 -36z" />
<glyph unicode="&#x205f;" horiz-adv-x="468" />
<glyph unicode="&#x207f;" horiz-adv-x="620" d="M570 755q0 -35 -35 -35t-35 35v420q0 75 -57 125t-133 50t-133 -50t-57 -125v-420q0 -35 -35 -35t-35 35v630q0 35 35 35q36 0 35 -78q77 78 190 78q105 0 182.5 -70.5t77.5 -174.5v-420z" />
<glyph unicode="&#x20a3;" horiz-adv-x="1145" d="M1095 1385q0 -35 -35 -35h-715v-605h565q35 0 35 -35t-35 -35h-565v-255h190q35 0 35 -35t-35 -35h-190v-315q0 -35 -35 -35t-35 35v315h-190q-35 0 -35 35t35 35h190v965q0 35 35 35h750q35 0 35 -35z" />
<glyph unicode="&#x20a4;" horiz-adv-x="1071" d="M1021 35q0 -35 -35 -35h-900q-36 0 -36 35t36 35q79 0 134.5 56t55.5 134v340h-190q-35 0 -35 35t35 35h190v230h-190q-35 0 -35 35t35 35h190v190q0 107 76.5 183.5t183.5 76.5q119 0 184 -76q11 -13 11 -25q0 -35 -36 -35q-2 0 -55 33t-104 33q-78 0 -134 -56t-56 -134 v-190h190q35 0 35 -35t-35 -35h-190v-230h190q35 0 35 -35t-35 -35h-190v-340q0 -113 -82 -190h722q35 0 35 -35z" />
<glyph unicode="&#x20a7;" horiz-adv-x="1838" d="M1788 219q0 -93 -69 -156t-162 -63q-91 0 -158 58q-55 -58 -146 -58q-82 0 -142.5 55.5t-60.5 136.5v438h-134q-35 0 -35 35t35 35h134v280q0 35 35 35t35 -35v-280h133q35 0 35 -35t-35 -35h-133v-438q0 -52 40 -87t93 -35q46 0 102 41q-18 29 -18 44q0 34 37 34 q9 0 56.5 -59.5t126.5 -59.5q64 0 112.5 42.5t48.5 106.5t-49.5 106t-115.5 42q-72 0 -124 48t-52 119q0 70 52.5 118t123.5 48q104 0 151 -82q6 -10 6 -19q0 -35 -37 -35q-9 0 -42.5 33t-77.5 33q-42 0 -74 -27.5t-32 -68.5q0 -45 36 -72q33 -24 78 -24q92 0 159.5 -64 t67.5 -155zM970 1010q0 -170 -120 -290t-290 -120h-305q-35 0 -35 35t35 35h305q141 0 240.5 99.5t99.5 240.5t-99.5 240.5t-240.5 99.5h-340v-1315q0 -35 -35 -35t-35 35v1350q0 35 35 35h375q170 0 290 -120t120 -290z" />
<glyph unicode="&#x20ac;" horiz-adv-x="1498" d="M1448 232q0 -12 -11 -24q-87 -97 -230 -154q-135 -54 -272 -54q-240 0 -431.5 146.5t-254.5 378.5h-164q-35 0 -35 35t35 35h149q-9 57 -9 115t9 115h-149q-35 0 -35 35t35 35h164q63 232 254.5 378.5t431.5 146.5q137 0 272 -54q143 -57 230 -154q11 -12 11 -24 q0 -36 -36 -36q-12 0 -25 11q-116 97 -207 138q-109 49 -245 49q-211 0 -381.5 -126.5t-231.5 -328.5h763q35 0 35 -35t-35 -35h-780q-10 -57 -10 -115t10 -115h630q35 0 35 -35t-35 -35h-613q61 -202 231.5 -328.5t381.5 -126.5q136 0 245 49q91 41 207 138q13 11 25 11 q36 0 36 -36z" />
<glyph unicode="&#x2105;" horiz-adv-x="1521" d="M1471 1385q0 -14 -11 -25l-1350 -1350q-11 -11 -24 -11q-36 0 -36 36q0 14 11 25l1350 1350q11 11 24 11q36 0 36 -36zM1471 350q0 -149 -111.5 -249.5t-261.5 -100.5t-259 99q-113 102 -113 251t113 251q109 99 259 99t260 -99q113 -102 113 -251zM697 1293 q0 -36 -36 -36q3 0 -76 46.5t-162 46.5q-121 0 -210 -79q-92 -81 -92 -201q0 -119 92 -201q89 -79 210 -79q83 0 161.5 46t76.5 46q36 0 36 -36q0 -13 -12 -25q-97 -101 -262 -101q-150 0 -259 99q-113 103 -113 251q0 149 113 251q109 99 259 99q166 0 263 -101 q11 -13 11 -26zM1401 350q0 119 -93 201q-89 79 -210 79t-210 -79q-92 -82 -92 -201t92 -201q89 -79 210 -79t210 79q93 82 93 201z" />
<glyph unicode="&#x2113;" horiz-adv-x="555" d="M505 100q0 -12 -11 -24q-71 -76 -184 -76q-107 0 -183.5 76.5t-76.5 183.5v956q0 84 60 144t144 60t144 -60t60 -144q0 -102 -338 -592v-364q0 -78 56 -134t134 -56q53 0 104.5 33t54.5 33q36 0 36 -36zM388 1216q0 55 -39.5 94.5t-94.5 39.5t-94.5 -39.5t-39.5 -94.5 v-467q268 401 268 467z" />
<glyph unicode="&#x2116;" horiz-adv-x="2146" d="M2096 1070q0 -149 -111.5 -249.5t-261.5 -100.5t-259 99q-113 102 -113 251t113 251q109 99 259 99t260 -99q113 -102 113 -251zM2096 485q0 -35 -35 -35h-675q-35 0 -35 35t35 35h675q35 0 35 -35zM1271 35q0 -35 -36 -35q-16 0 -31 18l-983 1265v-1248q0 -35 -35 -35 t-35 35l-1 1350q0 35 36 35q16 0 31 -18l984 -1265v1248q0 35 35 35t35 -35v-1350zM2026 1070q0 119 -93 201q-89 79 -210 79t-210 -79q-92 -82 -92 -201t92 -201q89 -79 210 -79t210 79q93 82 93 201z" />
<glyph unicode="&#x2122;" horiz-adv-x="1458" d="M1408 709q0 -34 -36 -34q-28 0 -34 27l-126 569l-182 -425q-12 -26 -33 -26q-20 0 -32 26l-182 425l-126 -569q-6 -27 -34 -27q-36 0 -36 34q0 15 46 222l105 462q9 33 33 33q22 0 34 -27l192 -450l193 450q12 27 34 27q25 0 33 -33l150 -675q1 -5 1 -9zM570 1385 q0 -35 -35 -35h-190v-640q0 -35 -35 -35t-35 35v640h-190q-35 0 -35 35t35 35h450q35 0 35 -35z" />
<glyph unicode="&#x2126;" horiz-adv-x="1520" d="M1470 35q0 -35 -35 -35l-449 -1q-36 0 -36 36q0 15 15 29q117 96 331 304q104 121 104 342q0 265 -187.5 452.5t-452.5 187.5t-452.5 -187.5t-187.5 -452.5q0 -176 53 -269q40 -73 188 -200q209 -180 209 -206q0 -36 -36 -36l-449 1q-35 0 -35 35t35 35h362l-209 182 q-97 90 -138 181q-50 109 -50 277q0 294 208 502t502 208t502 -208t208 -502q0 -172 -50 -280q-41 -87 -139 -177l-209 -183h363q35 0 35 -35z" />
<glyph unicode="&#x212e;" horiz-adv-x="1266" d="M1216 510q0 -44 -40 -44h-900v-262q0 -56 104 -121.5t247 -65.5q207 0 376 173h122q-63 -103 -218 -169q-141 -61 -274 -61q-192 0 -358 105q-225 143 -225 415q0 244 183 392q170 138 419 138q229 0 391 -133q173 -143 173 -367zM990 513v266q0 62 -98 118.5t-248 56.5 t-264 -70q-104 -63 -104 -127v-244h714z" />
<glyph unicode="&#x215b;" horiz-adv-x="1955" d="M1905 297q0 -126 -94.5 -211.5t-222.5 -85.5q-127 0 -220 84q-96 87 -96 213q0 185 176 267q-120 72 -120 206q0 104 79 175q76 70 181 70t182.5 -70.5t77.5 -174.5q0 -134 -119 -206q176 -82 176 -267zM1684 1385q0 -14 -11 -25l-1350 -1350q-11 -11 -25 -11 q-36 0 -36 36q0 14 11 25l1350 1350q11 11 25 11q36 0 36 -36zM496 597q0 -35 -35 -35h-300q-35 0 -35 35t35 35h115v672l-167 -155q-10 -10 -23 -10q-36 0 -36 36q0 15 12 26l220 205q15 15 29 15q35 0 35 -43v-746h115q35 0 35 -35zM1778 770q0 75 -57 125t-133 50 t-131 -49q-59 -51 -59 -126t59 -126q55 -49 131 -49t133 50t57 125zM1835 297q0 98 -76 164q-72 64 -171 64q-98 0 -172 -65t-74 -163q0 -97 74 -162t172 -65q99 0 171 64q76 66 76 163z" />
<glyph unicode="&#x215c;" horiz-adv-x="2232" d="M2182 297q0 -126 -94.5 -211.5t-222.5 -85.5q-127 0 -220 84q-96 87 -96 213q0 185 176 267q-120 72 -120 206q0 104 78 174.5t182 70.5q105 0 182.5 -70.5t77.5 -174.5q0 -134 -119 -206q176 -82 176 -267zM1886 1385q0 -14 -11 -25l-1350 -1350q-11 -11 -24 -11 q-36 0 -36 36q0 14 11 25l1350 1350q10 11 24 11q36 0 36 -36zM703 1390q0 -17 -17 -32l-359 -306q13 1 26 1q139 0 240 -92q105 -95 105 -232q0 -138 -105 -232q-101 -92 -240 -92q-88 0 -170 42q-85 44 -127 119q-6 10 -6 19q0 35 37 35q12 0 45 -38q42 -47 79 -69 q62 -38 142 -38q110 0 192.5 72.5t82.5 181.5q0 108 -82.5 181t-192.5 73q-71 0 -145 -43l-75 -43q-34 0 -34 35q0 16 14 28l455 390h-483q-35 0 -35 35t35 35h578q40 0 40 -30zM2055 770q0 75 -57 125t-133 50q-75 0 -131 -49q-59 -51 -59 -126t59 -126q56 -49 131 -49 q76 0 133 50t57 125zM2112 297q0 98 -76 164q-72 64 -171 64q-98 0 -170 -64q-76 -66 -76 -164q0 -97 76 -163q72 -64 170 -64q99 0 171 64q76 66 76 163z" />
<glyph unicode="&#x215d;" horiz-adv-x="2258" d="M2208 297q0 -126 -94.5 -211.5t-221.5 -85.5q-128 0 -222 85.5t-94 211.5q0 185 175 267q-119 72 -119 206q0 104 79 175q76 70 181 70t182.5 -70.5t77.5 -174.5q0 -134 -120 -206q176 -82 176 -267zM1912 1385q0 -14 -11 -25l-1350 -1350q-10 -11 -24 -11q-36 0 -36 36 q0 14 11 25l1350 1350q11 11 24 11q36 0 36 -36zM750 1385q0 -35 -35 -35h-521l-54 -326q103 81 238 81q150 0 260 -99q112 -102 112 -251q0 -148 -113 -251q-109 -99 -259 -99q-96 0 -184 46q-92 48 -138 128q-6 10 -6 19q0 35 37 35q15 0 28 -17q10 -14 31 -41 q89 -100 232 -100q121 0 211.5 80.5t90.5 199.5q0 120 -90.5 200t-211.5 80q-172 0 -261 -138q-3 -5 -15 -16q-6 -3 -16 -3q-36 0 -36 34l2 10l77 467q6 31 37 31h549q35 0 35 -35zM2082 770q0 75 -57 125t-133 50t-133 -50t-57 -125t57 -125t133 -50t133 50t57 125z M2138 297q0 98 -74 163t-172 65q-99 0 -171 -64q-75 -66 -75 -164q0 -97 75 -163q72 -64 171 -64q98 0 172 65t74 162z" />
<glyph unicode="&#x215e;" horiz-adv-x="2273" d="M2223 297q0 -126 -94.5 -211.5t-222.5 -85.5q-127 0 -220 84q-96 87 -96 213q0 185 176 267q-120 72 -120 206q0 104 78 174.5t182 70.5q105 0 182.5 -70.5t77.5 -174.5q0 -134 -119 -206q176 -82 176 -267zM1927 1385q0 -14 -11 -25l-1350 -1350q-11 -11 -24 -11 q-36 0 -36 36q0 14 11 25l1350 1350q10 11 24 11q36 0 36 -36zM797 1390q0 -11 -7 -22l-543 -945q-11 -18 -30 -18q-36 0 -36 34q0 9 5 19l513 892h-614q-35 0 -35 35t35 35h675q37 0 37 -30zM2096 770q0 75 -57 125t-133 50q-75 0 -131 -49q-59 -51 -59 -126t59 -126 q56 -49 131 -49q76 0 133 50t57 125zM2153 297q0 98 -76 164q-72 64 -171 64q-98 0 -170 -64q-76 -66 -76 -164q0 -97 76 -163q72 -64 170 -64q99 0 171 64q76 66 76 163z" />
<glyph unicode="&#x2190;" d="M1020 598q0 -35 -35 -35h-815l240 -241q11 -11 11 -24q0 -36 -36 -36q-14 0 -24 11l-296 295q-15 16 -15 28q0 15 15 31l296 295q10 11 24 11q36 0 36 -36q0 -13 -11 -24l-240 -240h815q35 0 35 -35z" />
<glyph unicode="&#x2191;" d="M871 748q0 -36 -36 -36q-14 0 -25 11l-240 240v-816q0 -34 -35 -34t-35 34v816l-240 -240q-11 -11 -25 -11q-36 0 -36 36q0 13 11 24l296 296q15 15 27 15q16 0 31 -15l296 -296q11 -11 11 -24z" />
<glyph unicode="&#x2192;" d="M1020 598q0 -14 -15 -30l-296 -295q-10 -11 -24 -11q-36 0 -36 36q0 13 11 24l240 240h-815q-35 0 -35 35t35 35h815l-240 241q-11 11 -11 24q0 36 36 36q14 0 24 -11l296 -295q15 -16 15 -29z" />
<glyph unicode="&#x2193;" d="M871 447q0 -13 -11 -24l-296 -296q-15 -15 -28 -15q-15 0 -30 15l-296 296q-11 11 -11 24q0 36 36 36q14 0 25 -11l240 -240v815q0 35 35 35t35 -35v-815l240 240q11 11 25 11q36 0 36 -36z" />
<glyph unicode="&#x2194;" d="M1021 598q0 -14 -16 -30l-295 -295q-11 -11 -25 -11q-36 0 -36 36q0 13 11 24l240 241h-731l241 -241q11 -11 11 -24q0 -36 -36 -36q-14 0 -25 11l-295 295q-16 16 -16 28q0 15 16 31l295 295q11 11 25 11q36 0 36 -36q0 -13 -11 -24l-241 -240h731l-240 240 q-11 11 -11 24q0 36 36 36q14 0 25 -11l295 -295q16 -16 16 -29z" />
<glyph unicode="&#x2195;" d="M871 447q0 -13 -11 -24l-296 -296q-15 -15 -28 -15q-15 0 -30 15l-296 296q-11 11 -11 24q0 36 36 36q14 0 25 -11l240 -240v731l-240 -240q-11 -11 -25 -11q-36 0 -36 36q0 13 11 24l296 296q15 15 27 15q16 0 31 -15l296 -296q11 -11 11 -24q0 -36 -36 -36 q-14 0 -25 11l-240 240v-731l240 240q11 11 25 11q36 0 36 -36z" />
<glyph unicode="&#x21a8;" d="M871 447q0 -13 -11 -24l-296 -296q-15 -15 -28 -15q-15 0 -30 15l-296 296q-11 11 -11 24q0 36 36 36q14 0 25 -11l240 -240v731l-240 -240q-11 -11 -25 -11q-36 0 -36 36q0 13 11 24l296 296q15 15 27 15q16 0 31 -15l296 -296q11 -11 11 -24q0 -36 -36 -36 q-14 0 -25 11l-240 240v-731l240 240q11 11 25 11q36 0 36 -36zM870 35q0 -35 -35 -35h-600q-35 0 -35 35t35 35h600q35 0 35 -35z" />
<glyph unicode="&#x2202;" d="M1020 485q0 -201 -142 -343t-343 -142t-343 142t-142 343t142 343t343 142q203 0 345 -145q-102 239 -319 382t-476 143q-35 0 -35 35t35 35q387 0 661 -274t274 -661zM950 485q0 172 -121.5 293.5t-293.5 121.5t-293.5 -121.5t-121.5 -293.5t121.5 -293.5t293.5 -121.5 t293.5 121.5t121.5 293.5z" />
<glyph unicode="&#x2206;" d="M1090 147q0 -35 -36 -35h-1038q-36 0 -36 35q0 9 8 24l513 888q14 24 34 24t34 -24l513 -888q8 -15 8 -24zM994 182l-459 795l-459 -795h918z" />
<glyph unicode="&#x220f;" horiz-adv-x="1370" d="M1220 -415q0 -35 -35 -35t-35 35v1765h-930v-1765q0 -35 -35 -35t-35 35v1800q0 35 35 35h1001q34 0 34 -35v-1800z" />
<glyph unicode="&#x2211;" horiz-adv-x="1171" d="M1121 1385q0 -35 -35 -35h-916l840 -840q11 -11 11 -24q0 -15 -11 -26l-840 -840h915q35 0 35 -35t-35 -35l-999 -1q-36 0 -36 36q0 14 15 29l871 871l-871 871q-15 15 -15 29q0 36 36 36l1000 -1q35 0 35 -35z" />
<glyph unicode="&#x2219;" d="M609 597q0 -30 -22 -52t-52 -22t-52 22t-22 52q0 71 74 71t74 -71z" />
<glyph unicode="&#x221a;" d="M983 1385q0 -35 -35 -35h-421l-219 -1317q-6 -33 -35 -33q-30 0 -35 33l-150 896q-1 4 -1 10q0 31 36 31q29 0 34 -29l116 -693l190 1141q5 31 36 31h451q33 0 33 -35z" />
<glyph unicode="&#x221e;" d="M1470 597q0 -200 -142 -342.5t-343 -142.5q-148 0 -271.5 83.5t-178.5 220.5q-55 -137 -178.5 -220.5t-271.5 -83.5q-201 0 -343 142.5t-142 342.5q0 201 142 343t343 142q148 0 271.5 -83t178.5 -220q55 137 178.5 220t271.5 83q201 0 343 -142t142 -343zM1400 597 q0 172 -121.5 293.5t-293.5 121.5t-293.5 -121.5t-121.5 -293.5q0 -171 121.5 -293t293.5 -122t293.5 122t121.5 293zM500 597q0 172 -121.5 293.5t-293.5 121.5t-293.5 -121.5t-121.5 -293.5q0 -171 121.5 -293t293.5 -122t293.5 122t121.5 293z" />
<glyph unicode="&#x221f;" d="M1020 147q0 -35 -35 -35h-900q-35 0 -35 35t35 35h415v865q0 35 35 35t35 -35v-865h415q35 0 35 -35z" />
<glyph unicode="&#x2229;" d="M1020 147q0 -34 -35 -34t-35 34v450q0 172 -121.5 293.5t-293.5 121.5t-293.5 -121.5t-121.5 -293.5v-450q0 -34 -35 -34t-35 34v450q0 201 142 343t343 142t343 -142t142 -343v-450z" />
<glyph unicode="&#x222b;" d="M955 1320q0 -36 -36 -36q-3 0 -55 33t-104 33q-78 0 -134 -56t-56 -134v-1350q0 -107 -76.5 -183.5t-183.5 -76.5q-117 0 -184 76q-11 12 -11 24q0 36 36 36q3 0 55 -33t104 -33q78 0 134 56t56 134v1350q0 107 76.5 183.5t183.5 76.5q117 0 184 -76q11 -12 11 -24z" />
<glyph unicode="&#x2248;" d="M1021 749q0 -16 -19 -37q-65 -75 -242 -75q-96 0 -232.5 75t-217.5 75q-143 0 -190 -51q-22 -24 -34 -24q-37 0 -37 34q0 16 19 37q65 74 242 74q96 0 232.5 -75t217.5 -75q143 0 190 52q22 24 34 24q37 0 37 -34zM1021 449q0 -16 -19 -37q-65 -75 -242 -75 q-96 0 -232.5 75t-217.5 75q-143 0 -190 -51q-22 -24 -34 -24q-37 0 -37 34q0 16 19 37q65 74 242 74q96 0 232.5 -75t217.5 -75q143 0 190 52q22 24 34 24q37 0 37 -34z" />
<glyph unicode="&#x22f2;" d="M1021 749q0 -16 -19 -37q-65 -75 -242 -75q-96 0 -232.5 75t-217.5 75q-143 0 -190 -51q-22 -24 -34 -24q-37 0 -37 34q0 16 19 37q65 74 242 74q96 0 232.5 -75t217.5 -75q143 0 190 52q22 24 34 24q37 0 37 -34zM1021 449q0 -16 -19 -37q-65 -75 -242 -75 q-96 0 -232.5 75t-217.5 75q-143 0 -190 -51q-22 -24 -34 -24q-37 0 -37 34q0 16 19 37q65 74 242 74q96 0 232.5 -75t217.5 -75q143 0 190 52q22 24 34 24q37 0 37 -34z" />
<glyph unicode="&#x2260;" d="M1020 447q0 -35 -35 -35h-531l-190 -284q-11 -16 -28 -16q-37 0 -37 35q0 10 7 20l164 245h-285q-35 0 -35 35t35 35h331l154 230h-485q-35 0 -35 35t35 35h531l190 285q11 16 28 16q37 0 37 -35q0 -10 -7 -20l-164 -246h285q35 0 35 -35t-35 -35h-331l-154 -230h485 q35 0 35 -35z" />
<glyph unicode="&#x2261;" d="M1020 897q0 -35 -35 -35h-900q-35 0 -35 35t35 35h900q35 0 35 -35zM1020 597q0 -35 -35 -35h-900q-35 0 -35 35t35 35h900q35 0 35 -35zM1020 297q0 -35 -35 -35l-900 1q-35 0 -35 35q0 34 35 34h900q35 0 35 -35z" />
<glyph unicode="&#x2264;" d="M1020 636q0 -37 -34 -37q-13 0 -430 208q-410 204 -481 244q-25 14 -25 34t25 34q71 40 481 244q417 208 430 208q34 0 34 -37q0 -20 -19 -30l-838 -419l838 -419q19 -10 19 -30zM1020 335q0 -35 -35 -35h-900q-35 0 -35 35t35 35h900q35 0 35 -35zM1020 35 q0 -35 -35 -35h-900q-35 0 -35 35t35 35h900q35 0 35 -35z" />
<glyph unicode="&#x2265;" d="M1020 1085q0 -20 -25 -34q-71 -40 -481 -244q-417 -208 -430 -208q-34 0 -34 37q0 20 19 30l838 419l-838 419q-19 10 -19 30q0 37 34 37q13 0 430 -208q410 -204 481 -244q25 -14 25 -34zM1020 335q0 -35 -35 -35h-900q-35 0 -35 35t35 35h900q35 0 35 -35zM1020 35 q0 -35 -35 -35h-900q-35 0 -35 35t35 35h900q35 0 35 -35z" />
<glyph unicode="&#x2302;" horiz-adv-x="2040" d="M1990 485l-485 -485h-970l-485 485l485 485h970zM1505 485l-485 485l-485 -485l485 -485zM1142 485q0 -50 -36 -86t-86 -36t-86 36t-36 86t36 86t86 36t86 -36t36 -86z" />
<glyph unicode="&#x2310;" d="M1020 485q0 -35 -35 -35h-765v-415q0 -35 -35 -35t-35 35v450q0 35 35 35h800q35 0 35 -35z" />
<glyph unicode="&#x2320;" d="M955 1320q0 -36 -36 -36q-2 0 -55 33t-104 33q-78 0 -134 -56t-56 -134v-1610h-70v1610q0 107 76.5 183.5t183.5 76.5q118 0 184 -76q11 -13 11 -24z" />
<glyph unicode="&#x2321;" d="M570 -190q0 -107 -76.5 -183.5t-183.5 -76.5q-118 0 -184 76q-11 13 -11 24q0 36 36 36q2 0 55 -33t104 -33q78 0 134 56t56 134v2060h70v-2060z" />
<glyph unicode="&#x25a0;" horiz-adv-x="1180" d="M1130 693q0 -70 -26 -131q-34 -79 -94 -79t-94 79q-26 61 -26 131q0 67 27 130q35 80 93 80t93 -80q27 -63 27 -130zM860 843q0 -70 -26 -131q-34 -79 -94 -79t-94 79q-26 61 -26 131q0 67 27 130q35 80 93 80t93 -80q27 -63 27 -130zM560 843q0 -70 -26 -131 q-34 -79 -94 -79t-94 79q-26 61 -26 131q0 67 27 130q35 80 93 80t93 -80q27 -63 27 -130zM1012 276q0 -87 -29 -157q-39 -92 -114 -92q-21 0 -59 16.5t-60 16.5q-33 0 -81 -30t-79 -30t-79 30t-81 30q-22 0 -60 -16.5t-59 -16.5q-75 0 -114 92q-29 70 -29 157 q0 145 143 240q126 84 279 84t279 -84q143 -95 143 -240zM290 693q0 -70 -26 -131q-34 -79 -94 -79t-94 79q-26 61 -26 131q0 67 27 130q35 80 93 80t93 -80q27 -63 27 -130z" />
<glyph unicode="&#x263c;" horiz-adv-x="2941" d="M2891 1109l-277 -278h-278v-277h-277v832h277v-277h278v277h277v-277zM2891 0h-416v58l219 219h-139l-80 80v59h416v-139l-139 -138h139v-139zM2544 208l-69 -69v138zM1885 554h-277v555h-278v-555h-277v832h555l277 -277v-555zM2406 0h-59l-218 219v-219h-139v416h139 l277 -277v-139zM1921 0h-416v416h416v-139h-277v-138h277v-139zM604 1386l-138 -139l-139 139h277zM881 831l-277 -277h-277l-277 277v555h114l163 -164v-391h277v391l164 164h113v-555zM1436 0h-139v277h-138v-277h-139v416h277l139 -139v-277zM951 139l-139 -139h-138 l-139 139v277h139v-277h138v277h139v-277zM466 277h-277v-277h-139v416h416v-139zM466 0h-139l139 139v-139z" />
<glyph unicode="&#x2640;" d="M1020 485q0 -190 -130 -330t-320 -154v-156h190q35 0 35 -35t-35 -35h-190v-190q0 -35 -35 -35t-35 35v190h-190q-35 0 -35 35t35 35h190v156q-190 14 -320 154t-130 330q0 201 142 343t343 142t343 -142t142 -343zM950 485q0 172 -121.5 293.5t-293.5 121.5 t-293.5 -121.5t-121.5 -293.5t121.5 -293.5t293.5 -121.5t293.5 121.5t121.5 293.5z" />
<glyph unicode="&#x2642;" horiz-adv-x="1257" d="M1207 1121l-1 -318q0 -35 -35 -35t-35 35v234l-234 -235q118 -136 118 -317q0 -201 -142 -343t-343 -142t-343 142t-142 343t142 343t343 142q181 0 317 -118l235 234h-234q-35 0 -35 35t35 35l318 1q36 0 36 -36zM950 485q0 172 -121.5 293.5t-293.5 121.5 t-293.5 -121.5t-121.5 -293.5t121.5 -293.5t293.5 -121.5t293.5 121.5t121.5 293.5z" />
<glyph unicode="&#xe000;" horiz-adv-x="2040" d="M1990 485l-485 -485h-970l-485 485l485 485h970zM1505 485l-485 485l-485 -485l485 -485zM1142 485q0 -50 -36 -86t-86 -36t-86 36t-36 86t36 86t86 36t86 -36t36 -86z" />
<glyph unicode="&#xe001;" horiz-adv-x="1180" d="M1130 693q0 -70 -26 -131q-34 -79 -94 -79t-94 79q-26 61 -26 131q0 67 27 130q35 80 93 80t93 -80q27 -63 27 -130zM860 843q0 -70 -26 -131q-34 -79 -94 -79t-94 79q-26 61 -26 131q0 67 27 130q35 80 93 80t93 -80q27 -63 27 -130zM560 843q0 -70 -26 -131 q-34 -79 -94 -79t-94 79q-26 61 -26 131q0 67 27 130q35 80 93 80t93 -80q27 -63 27 -130zM1012 276q0 -87 -29 -157q-39 -92 -114 -92q-21 0 -59 16.5t-60 16.5q-33 0 -81 -30t-79 -30t-79 30t-81 30q-22 0 -60 -16.5t-59 -16.5q-75 0 -114 92q-29 70 -29 157 q0 145 143 240q126 84 279 84t279 -84q143 -95 143 -240zM290 693q0 -70 -26 -131q-34 -79 -94 -79t-94 79q-26 61 -26 131q0 67 27 130q35 80 93 80t93 -80q27 -63 27 -130z" />
<glyph unicode="&#xe002;" horiz-adv-x="2941" d="M2891 1109l-277 -278h-278v-277h-277v832h277v-277h278v277h277v-277zM2891 0h-416v58l219 219h-139l-80 80v59h416v-139l-139 -138h139v-139zM2544 208l-69 -69v138zM1885 554h-277v555h-278v-555h-277v832h555l277 -277v-555zM2406 0h-59l-218 219v-219h-139v416h139 l277 -277v-139zM1921 0h-416v416h416v-139h-277v-138h277v-139zM604 1386l-138 -139l-139 139h277zM881 831l-277 -277h-277l-277 277v555h114l163 -164v-391h277v391l164 164h113v-555zM1436 0h-139v277h-138v-277h-139v416h277l139 -139v-277zM951 139l-139 -139h-138 l-139 139v277h139v-277h138v277h139v-277zM466 277h-277v-277h-139v416h416v-139zM466 0h-139l139 139v-139z" />
<glyph unicode="&#xfb00;" horiz-adv-x="1180" d="M1180 1319q0 -35 -36 -35q-1 0 -56 33t-103 33q-78 0 -134 -56t-56 -134v-190h190q35 0 35 -35t-35 -35h-190v-865q0 -35 -35 -35t-35 35v865h-380v-865q0 -35 -35 -35t-35 35v865h-190q-35 0 -35 35t35 35h190v190q0 107 76.5 183.5t183.5 76.5q149 0 225 -130 q76 130 225 130q122 0 184 -76q11 -13 11 -25zM725 1160q0 78 -56 134t-134 56t-134 -56t-56 -134v-190h380v190z" />
<glyph unicode="&#xfb01;" horiz-adv-x="945" d="M795 35q0 -35 -35 -35t-35 35v865h-380v-865q0 -35 -35 -35t-35 35v865h-190q-35 0 -35 35t35 35h190v190q0 107 76.5 183.5t183.5 76.5q119 0 184 -76q11 -13 11 -25q0 -35 -36 -35q-2 0 -55 33t-104 33q-78 0 -134 -56t-56 -134v-190h415q35 0 35 -35v-900z" />
<glyph unicode="&#xfb02;" d="M1020 35q0 -35 -35 -35q-107 0 -183.5 76.5t-76.5 183.5v900q0 78 -56 134t-134 56t-134 -56t-56 -134v-190h190q35 0 35 -35t-35 -35h-190v-865q0 -35 -35 -35t-35 35v865h-190q-35 0 -35 35t35 35h190v190q0 107 76.5 183.5t183.5 76.5t183.5 -76.5t76.5 -183.5v-900 q0 -78 56 -134t134 -56q35 0 35 -35z" />
<glyph unicode="&#xfb03;" horiz-adv-x="1395" d="M1245 35q0 -35 -35 -35t-35 35v865h-380v-865q0 -35 -35 -35t-35 35v865h-380v-865q0 -35 -35 -35t-35 35v865h-190q-35 0 -35 35t35 35h190v190q0 107 76.5 183.5t183.5 76.5q149 0 225 -130q76 130 225 130q122 0 184 -76q11 -13 11 -24q0 -36 -36 -36q-2 0 -56.5 33 t-102.5 33q-78 0 -134 -56t-56 -134v-190h415q35 0 35 -35v-900zM725 1160q0 78 -56 134t-134 56t-134 -56t-56 -134v-190h380v190z" />
<glyph unicode="&#xfb04;" horiz-adv-x="1520" d="M1470 35q0 -35 -35 -35q-107 0 -183.5 76.5t-76.5 183.5v900q0 78 -56 134t-134 56t-134 -56t-56 -134v-190h190q35 0 35 -35t-35 -35h-190v-865q0 -35 -35 -35t-35 35v865h-380v-865q0 -35 -35 -35t-35 35v865h-190q-35 0 -35 35t35 35h190v190q0 107 76.5 183.5 t183.5 76.5q149 0 225 -130q76 130 225 130q107 0 183.5 -76.5t76.5 -183.5v-900q0 -78 56 -134t134 -56q35 0 35 -35zM725 1160q0 78 -56 134t-134 56t-134 -56t-56 -134v-190h380v190z" />
<glyph unicode="&#xfb05;" horiz-adv-x="1200" d="M1150 100q0 -11 -11 -24q-63 -76 -183 -76q-108 0 -184 76.5t-76 183.5l-1 640h-189q-35 0 -35 35t35 35h189v157q0 92 -65 157.5t-158 65.5q-104 0 -178 -74t-74 -179v-1062q0 -35 -35 -35t-35 35v1062q0 134 94.5 228.5t227.5 94.5q122 0 207.5 -86t85.5 -207v-157h191 q35 0 35 -35t-35 -35h-191l1 -640q0 -78 55.5 -134t134.5 -56q50 0 103.5 33t54.5 33q36 0 36 -36z" />
<glyph unicode="&#xfb06;" horiz-adv-x="1283" d="M1233 100q0 -11 -11 -24q-64 -76 -184 -76q-107 0 -183.5 76.5t-76.5 183.5v640h-452q-63 0 -108 -45t-45 -108q0 -68 50 -111q47 -41 116 -41q120 0 204.5 -88.5t84.5 -209.5q0 -122 -87.5 -209.5t-209.5 -87.5q-93 0 -169 52.5t-109 139.5q-3 6 -3 13q0 34 37 34 q18 0 31 -23q7 -15 23 -44q64 -102 190 -102q94 0 160.5 67t66.5 160q0 98 -70 163t-168 65q-90 0 -153.5 66t-63.5 156q0 92 65.5 157.5t157.5 65.5h452v415q0 35 35 35t35 -35v-415h190q35 0 35 -35t-35 -35h-190v-640q0 -78 56 -134t134 -56q48 0 103 33t56 33 q36 0 36 -36z" />
<glyph horiz-adv-x="456" />
<glyph d="M1020 1835q0 -35 -35 -35h-900q-35 0 -35 35t35 35h900q35 0 35 -35z" />
<glyph horiz-adv-x="456" />
<glyph horiz-adv-x="50" />
<glyph horiz-adv-x="456" />
<glyph horiz-adv-x="456" />
<glyph horiz-adv-x="456" />
<glyph horiz-adv-x="456" />
<glyph horiz-adv-x="456" />
<glyph horiz-adv-x="456" />
<glyph horiz-adv-x="456" />
<glyph horiz-adv-x="456" />
<glyph horiz-adv-x="2941" d="M2891 1109l-277 -278h-278v-277h-277v832h277v-277h278v277h277v-277zM2891 0h-416v58l219 219h-139l-80 80v59h416v-139l-139 -138h139v-139zM2544 208l-69 -69v138zM1885 554h-277v555h-278v-555h-277v832h555l277 -277v-555zM2406 0h-59l-218 219v-219h-139v416h139 l277 -277v-139zM1921 0h-416v416h416v-139h-277v-138h277v-139zM604 1386l-138 -139l-139 139h277zM881 831l-277 -277h-277l-277 277v555h114l163 -164v-391h277v391l164 164h113v-555zM1436 0h-139v277h-138v-277h-139v416h277l139 -139v-277zM951 139l-139 -139h-138 l-139 139v277h139v-277h138v277h139v-277zM466 277h-277v-277h-139v416h416v-139zM466 0h-139l139 139v-139z" />
</font>
</defs>
</svg>
